M48
INCH,TZ
T1C0.0150
T2C0.0157
%
G90
G05
T1
X57200Y-41380
X57330Y-38605
X57840Y-41380
X57874Y-40748
X58433Y-42362
X58450Y-40850
X59043Y-42366
X59413Y-41769
X59900Y-38450
X59900Y-37950
X61008Y-40118
T2
X56122Y-44370
X56209Y-38335
X56610Y-42810
X56815Y-38299
X57134Y-37181
X57150Y-40450
X57250Y-40900
X57465Y-44217
X57767Y-43397
X58110Y-38590
X58189Y-43776
X58201Y-40217
X58240Y-37280
X58740Y-37150
X58913Y-38800
X59200Y-41400
X59404Y-40985
X59472Y-43350
X59500Y-40574
X59850Y-37450
X60503Y-43100
X61007Y-42354
X61130Y-43030
T0
M30
