G04 #@! TF.GenerationSoftware,KiCad,Pcbnew,(5.1.5)-3*
G04 #@! TF.CreationDate,2020-04-21T17:30:06+02:00*
G04 #@! TF.ProjectId,Wegard_Logger,57656761-7264-45f4-9c6f-676765722e6b,rev?*
G04 #@! TF.SameCoordinates,Original*
G04 #@! TF.FileFunction,Copper,L4,Bot*
G04 #@! TF.FilePolarity,Positive*
%FSLAX46Y46*%
G04 Gerber Fmt 4.6, Leading zero omitted, Abs format (unit mm)*
G04 Created by KiCad (PCBNEW (5.1.5)-3) date 2020-04-21 17:30:06*
%MOMM*%
%LPD*%
G04 APERTURE LIST*
%ADD10C,0.193040*%
%ADD11C,0.203200*%
%ADD12R,1.900000X1.350000*%
%ADD13R,1.200000X1.000000*%
%ADD14R,1.550000X1.350000*%
%ADD15R,1.170000X1.800000*%
%ADD16R,0.850000X1.100000*%
%ADD17R,0.750000X1.100000*%
%ADD18R,1.846667X3.480000*%
%ADD19C,0.800000*%
%ADD20C,0.736600*%
%ADD21C,0.500000*%
%ADD22C,0.250000*%
%ADD23C,0.101600*%
G04 APERTURE END LIST*
D10*
X141552869Y-112014169D02*
X140780709Y-111756782D01*
X141552869Y-111499396D01*
X140780709Y-110837544D02*
X140780709Y-111278778D01*
X140780709Y-111058161D02*
X141552869Y-111058161D01*
X141442560Y-111131700D01*
X141369021Y-111205239D01*
X141332252Y-111278778D01*
X141552869Y-110138923D02*
X141552869Y-110506618D01*
X141185174Y-110543388D01*
X141221943Y-110506618D01*
X141258713Y-110433079D01*
X141258713Y-110249232D01*
X141221943Y-110175693D01*
X141185174Y-110138923D01*
X141111635Y-110102154D01*
X140927787Y-110102154D01*
X140854248Y-110138923D01*
X140817479Y-110175693D01*
X140780709Y-110249232D01*
X140780709Y-110433079D01*
X140817479Y-110506618D01*
X140854248Y-110543388D01*
D11*
D12*
X144310000Y-111955000D03*
X150280000Y-111955000D03*
D13*
X153780000Y-107280000D03*
X153780000Y-110980000D03*
D14*
X153605000Y-101255000D03*
D15*
X142285000Y-101480000D03*
D16*
X144545000Y-101130000D03*
X145645000Y-101130000D03*
X146745000Y-101130000D03*
X147845000Y-101130000D03*
X148945000Y-101130000D03*
X150045000Y-101130000D03*
D17*
X143495000Y-101130000D03*
D16*
X151145000Y-101130000D03*
D18*
X154155400Y-115239800D03*
X151385400Y-115239800D03*
X148615400Y-115239800D03*
X145845400Y-115239800D03*
X143075400Y-115239800D03*
D19*
X149199600Y-94361000D03*
D20*
X154960000Y-101900000D03*
X146913600Y-105105200D03*
D19*
X142770000Y-97370000D03*
D20*
X152146000Y-96393000D03*
X145288000Y-105105194D03*
X152145994Y-97663000D03*
D19*
X150885504Y-104101766D03*
D20*
X150908681Y-106094079D03*
D19*
X151060000Y-110110000D03*
X142550000Y-112700000D03*
X147800000Y-111190000D03*
X143789400Y-108737400D03*
X155270200Y-109296200D03*
X145161000Y-102743000D03*
X152019000Y-95123000D03*
X145415000Y-103886006D03*
X150368000Y-105156000D03*
X151130000Y-103057678D03*
X154957814Y-107580000D03*
X147830000Y-102150000D03*
X149639410Y-98552000D03*
D20*
X148420000Y-107600000D03*
D19*
X147599400Y-98018600D03*
D20*
X145618200Y-98057710D03*
D19*
X153677190Y-109474000D03*
X145960002Y-112310000D03*
X145120000Y-94440000D03*
X144310000Y-97280000D03*
X147929599Y-94691199D03*
D20*
X147000000Y-103499998D03*
X148463000Y-103759000D03*
D19*
X146727964Y-110227964D03*
D20*
X149970000Y-107610000D03*
D21*
X147830000Y-101160000D02*
X147830000Y-102150000D01*
D11*
X148788299Y-107231701D02*
X148420000Y-107600000D01*
X149057701Y-106962299D02*
X148788299Y-107231701D01*
X150205095Y-98552000D02*
X152130000Y-100476905D01*
X152130000Y-100476905D02*
X152130000Y-105831358D01*
X152130000Y-105831358D02*
X150999059Y-106962299D01*
X149639410Y-98552000D02*
X150205095Y-98552000D01*
X150999059Y-106962299D02*
X149057701Y-106962299D01*
X146750000Y-98868000D02*
X147599400Y-98018600D01*
X146750000Y-101140000D02*
X146750000Y-98868000D01*
X145657310Y-98018600D02*
X145618200Y-98057710D01*
X147599400Y-98018600D02*
X145657310Y-98018600D01*
D22*
X153677190Y-109474000D02*
X153277191Y-109074001D01*
X145960002Y-111744315D02*
X145960002Y-112310000D01*
X146695853Y-109074001D02*
X145957199Y-109812655D01*
X153277191Y-109074001D02*
X146695853Y-109074001D01*
X145957199Y-111741512D02*
X145960002Y-111744315D01*
X145957199Y-109812655D02*
X145957199Y-111741512D01*
D11*
X141420599Y-105290599D02*
X141420599Y-97573716D01*
X141420599Y-97573716D02*
X144554315Y-94440000D01*
X145960002Y-109830002D02*
X141420599Y-105290599D01*
X145960002Y-112310000D02*
X145960002Y-109830002D01*
X144554315Y-94440000D02*
X145120000Y-94440000D01*
X144310000Y-97845685D02*
X144310000Y-97280000D01*
X144310000Y-100900000D02*
X144310000Y-97845685D01*
X144550000Y-101140000D02*
X144310000Y-100900000D01*
X148960000Y-102060852D02*
X147520854Y-103499998D01*
X147520854Y-103499998D02*
X147000000Y-103499998D01*
X147929599Y-94691199D02*
X148960000Y-95721600D01*
X148960000Y-95721600D02*
X148960000Y-102060852D01*
X150040000Y-102182000D02*
X148463000Y-103759000D01*
X150040000Y-101120000D02*
X150040000Y-102182000D01*
D22*
X153780000Y-110980000D02*
X152930000Y-110980000D01*
X150437199Y-110977199D02*
X149687964Y-110227964D01*
X147293649Y-110227964D02*
X146727964Y-110227964D01*
X149687964Y-110227964D02*
X147293649Y-110227964D01*
X152927199Y-110977199D02*
X150437199Y-110977199D01*
X152930000Y-110980000D02*
X152927199Y-110977199D01*
X150338299Y-107978299D02*
X149970000Y-107610000D01*
X150442801Y-108082801D02*
X150338299Y-107978299D01*
X154380000Y-108410000D02*
X154052801Y-108082801D01*
X154380000Y-109934958D02*
X154380000Y-108410000D01*
X154710000Y-110264958D02*
X154380000Y-109934958D01*
X154155400Y-114423134D02*
X154710000Y-113868534D01*
X154155400Y-115239800D02*
X154155400Y-114423134D01*
X154710000Y-113868534D02*
X154710000Y-110264958D01*
X154052801Y-108082801D02*
X150442801Y-108082801D01*
D23*
G36*
X143609784Y-108054520D02*
G01*
X143583817Y-108059685D01*
X143455552Y-108112815D01*
X143340116Y-108189946D01*
X143241946Y-108288116D01*
X143164815Y-108403552D01*
X143111685Y-108531817D01*
X143084600Y-108667983D01*
X143084600Y-108806817D01*
X143111685Y-108942983D01*
X143164815Y-109071248D01*
X143241946Y-109186684D01*
X143340116Y-109284854D01*
X143455552Y-109361985D01*
X143583817Y-109415115D01*
X143719983Y-109442200D01*
X143858817Y-109442200D01*
X143994983Y-109415115D01*
X144123248Y-109361985D01*
X144238684Y-109284854D01*
X144336854Y-109186684D01*
X144413985Y-109071248D01*
X144467115Y-108942983D01*
X144472280Y-108917016D01*
X145527399Y-109972135D01*
X145527400Y-111135377D01*
X145513990Y-111110289D01*
X145476001Y-111063999D01*
X145429711Y-111026010D01*
X145376899Y-110997782D01*
X145319594Y-110980399D01*
X145260000Y-110974529D01*
X144461800Y-110976000D01*
X144385800Y-111052000D01*
X144385800Y-111879200D01*
X144405800Y-111879200D01*
X144405800Y-112030800D01*
X144385800Y-112030800D01*
X144385800Y-112858000D01*
X144461800Y-112934000D01*
X145260000Y-112935471D01*
X145319594Y-112929601D01*
X145376899Y-112912218D01*
X145429711Y-112883990D01*
X145476001Y-112846001D01*
X145486487Y-112833223D01*
X145510718Y-112857454D01*
X145626154Y-112934585D01*
X145754419Y-112987715D01*
X145890585Y-113014800D01*
X146029419Y-113014800D01*
X146165585Y-112987715D01*
X146293850Y-112934585D01*
X146409286Y-112857454D01*
X146507456Y-112759284D01*
X146584587Y-112643848D01*
X146590323Y-112630000D01*
X149024529Y-112630000D01*
X149030399Y-112689594D01*
X149047782Y-112746899D01*
X149076010Y-112799711D01*
X149113999Y-112846001D01*
X149160289Y-112883990D01*
X149213101Y-112912218D01*
X149270406Y-112929601D01*
X149330000Y-112935471D01*
X150128200Y-112934000D01*
X150204200Y-112858000D01*
X150204200Y-112030800D01*
X150355800Y-112030800D01*
X150355800Y-112858000D01*
X150431800Y-112934000D01*
X151230000Y-112935471D01*
X151289594Y-112929601D01*
X151346899Y-112912218D01*
X151399711Y-112883990D01*
X151446001Y-112846001D01*
X151483990Y-112799711D01*
X151512218Y-112746899D01*
X151529601Y-112689594D01*
X151535471Y-112630000D01*
X151534000Y-112106800D01*
X151458000Y-112030800D01*
X150355800Y-112030800D01*
X150204200Y-112030800D01*
X149102000Y-112030800D01*
X149026000Y-112106800D01*
X149024529Y-112630000D01*
X146590323Y-112630000D01*
X146637717Y-112515583D01*
X146664802Y-112379417D01*
X146664802Y-112240583D01*
X146637717Y-112104417D01*
X146584587Y-111976152D01*
X146507456Y-111860716D01*
X146409286Y-111762546D01*
X146391271Y-111750509D01*
X146391881Y-111744314D01*
X146389802Y-111723206D01*
X146386999Y-111694745D01*
X146386999Y-110847794D01*
X146394116Y-110852549D01*
X146522381Y-110905679D01*
X146658547Y-110932764D01*
X146797381Y-110932764D01*
X146933547Y-110905679D01*
X147061812Y-110852549D01*
X147177248Y-110775418D01*
X147275418Y-110677248D01*
X147288437Y-110657764D01*
X149509936Y-110657764D01*
X149827617Y-110975446D01*
X149330000Y-110974529D01*
X149270406Y-110980399D01*
X149213101Y-110997782D01*
X149160289Y-111026010D01*
X149113999Y-111063999D01*
X149076010Y-111110289D01*
X149047782Y-111163101D01*
X149030399Y-111220406D01*
X149024529Y-111280000D01*
X149026000Y-111803200D01*
X149102000Y-111879200D01*
X150204200Y-111879200D01*
X150204200Y-111859200D01*
X150355800Y-111859200D01*
X150355800Y-111879200D01*
X151458000Y-111879200D01*
X151534000Y-111803200D01*
X151535114Y-111406999D01*
X152873726Y-111406999D01*
X152873726Y-111480000D01*
X152879611Y-111539751D01*
X152897040Y-111597206D01*
X152925342Y-111650157D01*
X152963432Y-111696568D01*
X153009843Y-111734658D01*
X153062794Y-111762960D01*
X153120249Y-111780389D01*
X153180000Y-111786274D01*
X154280201Y-111786274D01*
X154280200Y-113193526D01*
X153232067Y-113193526D01*
X153172316Y-113199411D01*
X153114861Y-113216840D01*
X153061910Y-113245142D01*
X153015499Y-113283232D01*
X152977409Y-113329643D01*
X152949107Y-113382594D01*
X152931678Y-113440049D01*
X152925793Y-113499800D01*
X152925793Y-116822200D01*
X152615007Y-116822200D01*
X152615007Y-113499800D01*
X152609122Y-113440049D01*
X152591693Y-113382594D01*
X152563391Y-113329643D01*
X152525301Y-113283232D01*
X152478890Y-113245142D01*
X152425939Y-113216840D01*
X152368484Y-113199411D01*
X152308733Y-113193526D01*
X150462067Y-113193526D01*
X150402316Y-113199411D01*
X150344861Y-113216840D01*
X150291910Y-113245142D01*
X150245499Y-113283232D01*
X150207409Y-113329643D01*
X150179107Y-113382594D01*
X150161678Y-113440049D01*
X150155793Y-113499800D01*
X150155793Y-116822200D01*
X149845007Y-116822200D01*
X149845007Y-113499800D01*
X149839122Y-113440049D01*
X149821693Y-113382594D01*
X149793391Y-113329643D01*
X149755301Y-113283232D01*
X149708890Y-113245142D01*
X149655939Y-113216840D01*
X149598484Y-113199411D01*
X149538733Y-113193526D01*
X147692067Y-113193526D01*
X147632316Y-113199411D01*
X147574861Y-113216840D01*
X147521910Y-113245142D01*
X147475499Y-113283232D01*
X147437409Y-113329643D01*
X147409107Y-113382594D01*
X147391678Y-113440049D01*
X147385793Y-113499800D01*
X147385793Y-116822200D01*
X147075007Y-116822200D01*
X147075007Y-113499800D01*
X147069122Y-113440049D01*
X147051693Y-113382594D01*
X147023391Y-113329643D01*
X146985301Y-113283232D01*
X146938890Y-113245142D01*
X146885939Y-113216840D01*
X146828484Y-113199411D01*
X146768733Y-113193526D01*
X144922067Y-113193526D01*
X144862316Y-113199411D01*
X144804861Y-113216840D01*
X144751910Y-113245142D01*
X144705499Y-113283232D01*
X144667409Y-113329643D01*
X144639107Y-113382594D01*
X144621678Y-113440049D01*
X144615793Y-113499800D01*
X144615793Y-116822200D01*
X144305007Y-116822200D01*
X144305007Y-113499800D01*
X144299122Y-113440049D01*
X144281693Y-113382594D01*
X144253391Y-113329643D01*
X144215301Y-113283232D01*
X144168890Y-113245142D01*
X144115939Y-113216840D01*
X144058484Y-113199411D01*
X143998733Y-113193526D01*
X142152067Y-113193526D01*
X142092316Y-113199411D01*
X142034861Y-113216840D01*
X141981910Y-113245142D01*
X141935499Y-113283232D01*
X141897409Y-113329643D01*
X141869107Y-113382594D01*
X141851678Y-113440049D01*
X141845793Y-113499800D01*
X141845793Y-116822200D01*
X141287500Y-116822200D01*
X141287500Y-112630000D01*
X143054529Y-112630000D01*
X143060399Y-112689594D01*
X143077782Y-112746899D01*
X143106010Y-112799711D01*
X143143999Y-112846001D01*
X143190289Y-112883990D01*
X143243101Y-112912218D01*
X143300406Y-112929601D01*
X143360000Y-112935471D01*
X144158200Y-112934000D01*
X144234200Y-112858000D01*
X144234200Y-112030800D01*
X143132000Y-112030800D01*
X143056000Y-112106800D01*
X143054529Y-112630000D01*
X141287500Y-112630000D01*
X141287500Y-112470232D01*
X141939975Y-112470232D01*
X141939975Y-111280000D01*
X143054529Y-111280000D01*
X143056000Y-111803200D01*
X143132000Y-111879200D01*
X144234200Y-111879200D01*
X144234200Y-111052000D01*
X144158200Y-110976000D01*
X143360000Y-110974529D01*
X143300406Y-110980399D01*
X143243101Y-110997782D01*
X143190289Y-111026010D01*
X143143999Y-111063999D01*
X143106010Y-111110289D01*
X143077782Y-111163101D01*
X143060399Y-111220406D01*
X143054529Y-111280000D01*
X141939975Y-111280000D01*
X141939975Y-109524800D01*
X141287500Y-109524800D01*
X141287500Y-105732236D01*
X143609784Y-108054520D01*
G37*
X143609784Y-108054520D02*
X143583817Y-108059685D01*
X143455552Y-108112815D01*
X143340116Y-108189946D01*
X143241946Y-108288116D01*
X143164815Y-108403552D01*
X143111685Y-108531817D01*
X143084600Y-108667983D01*
X143084600Y-108806817D01*
X143111685Y-108942983D01*
X143164815Y-109071248D01*
X143241946Y-109186684D01*
X143340116Y-109284854D01*
X143455552Y-109361985D01*
X143583817Y-109415115D01*
X143719983Y-109442200D01*
X143858817Y-109442200D01*
X143994983Y-109415115D01*
X144123248Y-109361985D01*
X144238684Y-109284854D01*
X144336854Y-109186684D01*
X144413985Y-109071248D01*
X144467115Y-108942983D01*
X144472280Y-108917016D01*
X145527399Y-109972135D01*
X145527400Y-111135377D01*
X145513990Y-111110289D01*
X145476001Y-111063999D01*
X145429711Y-111026010D01*
X145376899Y-110997782D01*
X145319594Y-110980399D01*
X145260000Y-110974529D01*
X144461800Y-110976000D01*
X144385800Y-111052000D01*
X144385800Y-111879200D01*
X144405800Y-111879200D01*
X144405800Y-112030800D01*
X144385800Y-112030800D01*
X144385800Y-112858000D01*
X144461800Y-112934000D01*
X145260000Y-112935471D01*
X145319594Y-112929601D01*
X145376899Y-112912218D01*
X145429711Y-112883990D01*
X145476001Y-112846001D01*
X145486487Y-112833223D01*
X145510718Y-112857454D01*
X145626154Y-112934585D01*
X145754419Y-112987715D01*
X145890585Y-113014800D01*
X146029419Y-113014800D01*
X146165585Y-112987715D01*
X146293850Y-112934585D01*
X146409286Y-112857454D01*
X146507456Y-112759284D01*
X146584587Y-112643848D01*
X146590323Y-112630000D01*
X149024529Y-112630000D01*
X149030399Y-112689594D01*
X149047782Y-112746899D01*
X149076010Y-112799711D01*
X149113999Y-112846001D01*
X149160289Y-112883990D01*
X149213101Y-112912218D01*
X149270406Y-112929601D01*
X149330000Y-112935471D01*
X150128200Y-112934000D01*
X150204200Y-112858000D01*
X150204200Y-112030800D01*
X150355800Y-112030800D01*
X150355800Y-112858000D01*
X150431800Y-112934000D01*
X151230000Y-112935471D01*
X151289594Y-112929601D01*
X151346899Y-112912218D01*
X151399711Y-112883990D01*
X151446001Y-112846001D01*
X151483990Y-112799711D01*
X151512218Y-112746899D01*
X151529601Y-112689594D01*
X151535471Y-112630000D01*
X151534000Y-112106800D01*
X151458000Y-112030800D01*
X150355800Y-112030800D01*
X150204200Y-112030800D01*
X149102000Y-112030800D01*
X149026000Y-112106800D01*
X149024529Y-112630000D01*
X146590323Y-112630000D01*
X146637717Y-112515583D01*
X146664802Y-112379417D01*
X146664802Y-112240583D01*
X146637717Y-112104417D01*
X146584587Y-111976152D01*
X146507456Y-111860716D01*
X146409286Y-111762546D01*
X146391271Y-111750509D01*
X146391881Y-111744314D01*
X146389802Y-111723206D01*
X146386999Y-111694745D01*
X146386999Y-110847794D01*
X146394116Y-110852549D01*
X146522381Y-110905679D01*
X146658547Y-110932764D01*
X146797381Y-110932764D01*
X146933547Y-110905679D01*
X147061812Y-110852549D01*
X147177248Y-110775418D01*
X147275418Y-110677248D01*
X147288437Y-110657764D01*
X149509936Y-110657764D01*
X149827617Y-110975446D01*
X149330000Y-110974529D01*
X149270406Y-110980399D01*
X149213101Y-110997782D01*
X149160289Y-111026010D01*
X149113999Y-111063999D01*
X149076010Y-111110289D01*
X149047782Y-111163101D01*
X149030399Y-111220406D01*
X149024529Y-111280000D01*
X149026000Y-111803200D01*
X149102000Y-111879200D01*
X150204200Y-111879200D01*
X150204200Y-111859200D01*
X150355800Y-111859200D01*
X150355800Y-111879200D01*
X151458000Y-111879200D01*
X151534000Y-111803200D01*
X151535114Y-111406999D01*
X152873726Y-111406999D01*
X152873726Y-111480000D01*
X152879611Y-111539751D01*
X152897040Y-111597206D01*
X152925342Y-111650157D01*
X152963432Y-111696568D01*
X153009843Y-111734658D01*
X153062794Y-111762960D01*
X153120249Y-111780389D01*
X153180000Y-111786274D01*
X154280201Y-111786274D01*
X154280200Y-113193526D01*
X153232067Y-113193526D01*
X153172316Y-113199411D01*
X153114861Y-113216840D01*
X153061910Y-113245142D01*
X153015499Y-113283232D01*
X152977409Y-113329643D01*
X152949107Y-113382594D01*
X152931678Y-113440049D01*
X152925793Y-113499800D01*
X152925793Y-116822200D01*
X152615007Y-116822200D01*
X152615007Y-113499800D01*
X152609122Y-113440049D01*
X152591693Y-113382594D01*
X152563391Y-113329643D01*
X152525301Y-113283232D01*
X152478890Y-113245142D01*
X152425939Y-113216840D01*
X152368484Y-113199411D01*
X152308733Y-113193526D01*
X150462067Y-113193526D01*
X150402316Y-113199411D01*
X150344861Y-113216840D01*
X150291910Y-113245142D01*
X150245499Y-113283232D01*
X150207409Y-113329643D01*
X150179107Y-113382594D01*
X150161678Y-113440049D01*
X150155793Y-113499800D01*
X150155793Y-116822200D01*
X149845007Y-116822200D01*
X149845007Y-113499800D01*
X149839122Y-113440049D01*
X149821693Y-113382594D01*
X149793391Y-113329643D01*
X149755301Y-113283232D01*
X149708890Y-113245142D01*
X149655939Y-113216840D01*
X149598484Y-113199411D01*
X149538733Y-113193526D01*
X147692067Y-113193526D01*
X147632316Y-113199411D01*
X147574861Y-113216840D01*
X147521910Y-113245142D01*
X147475499Y-113283232D01*
X147437409Y-113329643D01*
X147409107Y-113382594D01*
X147391678Y-113440049D01*
X147385793Y-113499800D01*
X147385793Y-116822200D01*
X147075007Y-116822200D01*
X147075007Y-113499800D01*
X147069122Y-113440049D01*
X147051693Y-113382594D01*
X147023391Y-113329643D01*
X146985301Y-113283232D01*
X146938890Y-113245142D01*
X146885939Y-113216840D01*
X146828484Y-113199411D01*
X146768733Y-113193526D01*
X144922067Y-113193526D01*
X144862316Y-113199411D01*
X144804861Y-113216840D01*
X144751910Y-113245142D01*
X144705499Y-113283232D01*
X144667409Y-113329643D01*
X144639107Y-113382594D01*
X144621678Y-113440049D01*
X144615793Y-113499800D01*
X144615793Y-116822200D01*
X144305007Y-116822200D01*
X144305007Y-113499800D01*
X144299122Y-113440049D01*
X144281693Y-113382594D01*
X144253391Y-113329643D01*
X144215301Y-113283232D01*
X144168890Y-113245142D01*
X144115939Y-113216840D01*
X144058484Y-113199411D01*
X143998733Y-113193526D01*
X142152067Y-113193526D01*
X142092316Y-113199411D01*
X142034861Y-113216840D01*
X141981910Y-113245142D01*
X141935499Y-113283232D01*
X141897409Y-113329643D01*
X141869107Y-113382594D01*
X141851678Y-113440049D01*
X141845793Y-113499800D01*
X141845793Y-116822200D01*
X141287500Y-116822200D01*
X141287500Y-112630000D01*
X143054529Y-112630000D01*
X143060399Y-112689594D01*
X143077782Y-112746899D01*
X143106010Y-112799711D01*
X143143999Y-112846001D01*
X143190289Y-112883990D01*
X143243101Y-112912218D01*
X143300406Y-112929601D01*
X143360000Y-112935471D01*
X144158200Y-112934000D01*
X144234200Y-112858000D01*
X144234200Y-112030800D01*
X143132000Y-112030800D01*
X143056000Y-112106800D01*
X143054529Y-112630000D01*
X141287500Y-112630000D01*
X141287500Y-112470232D01*
X141939975Y-112470232D01*
X141939975Y-111280000D01*
X143054529Y-111280000D01*
X143056000Y-111803200D01*
X143132000Y-111879200D01*
X144234200Y-111879200D01*
X144234200Y-111052000D01*
X144158200Y-110976000D01*
X143360000Y-110974529D01*
X143300406Y-110980399D01*
X143243101Y-110997782D01*
X143190289Y-111026010D01*
X143143999Y-111063999D01*
X143106010Y-111110289D01*
X143077782Y-111163101D01*
X143060399Y-111220406D01*
X143054529Y-111280000D01*
X141939975Y-111280000D01*
X141939975Y-109524800D01*
X141287500Y-109524800D01*
X141287500Y-105732236D01*
X143609784Y-108054520D01*
G36*
X152972390Y-109543417D02*
G01*
X152999475Y-109679583D01*
X153052605Y-109807848D01*
X153129736Y-109923284D01*
X153227906Y-110021454D01*
X153343342Y-110098585D01*
X153471607Y-110151715D01*
X153582264Y-110173726D01*
X153180000Y-110173726D01*
X153120249Y-110179611D01*
X153062794Y-110197040D01*
X153009843Y-110225342D01*
X152963432Y-110263432D01*
X152925342Y-110309843D01*
X152897040Y-110362794D01*
X152879611Y-110420249D01*
X152873726Y-110480000D01*
X152873726Y-110547399D01*
X150615228Y-110547399D01*
X150006812Y-109938984D01*
X149993349Y-109922579D01*
X149927903Y-109868870D01*
X149853237Y-109828960D01*
X149772219Y-109804383D01*
X149709073Y-109798164D01*
X149709071Y-109798164D01*
X149687964Y-109796085D01*
X149666857Y-109798164D01*
X147288437Y-109798164D01*
X147275418Y-109778680D01*
X147177248Y-109680510D01*
X147061812Y-109603379D01*
X146933547Y-109550249D01*
X146845039Y-109532644D01*
X146873882Y-109503801D01*
X152972390Y-109503801D01*
X152972390Y-109543417D01*
G37*
X152972390Y-109543417D02*
X152999475Y-109679583D01*
X153052605Y-109807848D01*
X153129736Y-109923284D01*
X153227906Y-110021454D01*
X153343342Y-110098585D01*
X153471607Y-110151715D01*
X153582264Y-110173726D01*
X153180000Y-110173726D01*
X153120249Y-110179611D01*
X153062794Y-110197040D01*
X153009843Y-110225342D01*
X152963432Y-110263432D01*
X152925342Y-110309843D01*
X152897040Y-110362794D01*
X152879611Y-110420249D01*
X152873726Y-110480000D01*
X152873726Y-110547399D01*
X150615228Y-110547399D01*
X150006812Y-109938984D01*
X149993349Y-109922579D01*
X149927903Y-109868870D01*
X149853237Y-109828960D01*
X149772219Y-109804383D01*
X149709073Y-109798164D01*
X149709071Y-109798164D01*
X149687964Y-109796085D01*
X149666857Y-109798164D01*
X147288437Y-109798164D01*
X147275418Y-109778680D01*
X147177248Y-109680510D01*
X147061812Y-109603379D01*
X146933547Y-109550249D01*
X146845039Y-109532644D01*
X146873882Y-109503801D01*
X152972390Y-109503801D01*
X152972390Y-109543417D01*
G36*
X155714701Y-96768038D02*
G01*
X155714700Y-108745550D01*
X155604048Y-108671615D01*
X155475783Y-108618485D01*
X155339617Y-108591400D01*
X155200783Y-108591400D01*
X155064617Y-108618485D01*
X154936352Y-108671615D01*
X154820916Y-108748746D01*
X154809800Y-108759862D01*
X154809800Y-108431106D01*
X154811879Y-108409999D01*
X154809800Y-108388891D01*
X154803581Y-108325745D01*
X154784916Y-108264216D01*
X154888397Y-108284800D01*
X155027231Y-108284800D01*
X155163397Y-108257715D01*
X155291662Y-108204585D01*
X155407098Y-108127454D01*
X155505268Y-108029284D01*
X155582399Y-107913848D01*
X155635529Y-107785583D01*
X155662614Y-107649417D01*
X155662614Y-107510583D01*
X155635529Y-107374417D01*
X155582399Y-107246152D01*
X155505268Y-107130716D01*
X155407098Y-107032546D01*
X155291662Y-106955415D01*
X155163397Y-106902285D01*
X155027231Y-106875200D01*
X154888397Y-106875200D01*
X154752231Y-106902285D01*
X154684836Y-106930201D01*
X154685471Y-106780000D01*
X154679601Y-106720406D01*
X154662218Y-106663101D01*
X154633990Y-106610289D01*
X154596001Y-106563999D01*
X154549711Y-106526010D01*
X154496899Y-106497782D01*
X154439594Y-106480399D01*
X154380000Y-106474529D01*
X153931800Y-106476000D01*
X153855800Y-106552000D01*
X153855800Y-107204200D01*
X153875800Y-107204200D01*
X153875800Y-107355800D01*
X153855800Y-107355800D01*
X153855800Y-107375800D01*
X153704200Y-107375800D01*
X153704200Y-107355800D01*
X152952000Y-107355800D01*
X152876000Y-107431800D01*
X152875066Y-107653001D01*
X150643100Y-107653001D01*
X150643100Y-107543705D01*
X150617233Y-107413664D01*
X150598608Y-107368699D01*
X150979106Y-107368699D01*
X150999059Y-107370664D01*
X151019012Y-107368699D01*
X151019019Y-107368699D01*
X151078727Y-107362818D01*
X151155334Y-107339580D01*
X151225935Y-107301843D01*
X151287817Y-107251057D01*
X151300541Y-107235553D01*
X151756094Y-106780000D01*
X152874529Y-106780000D01*
X152876000Y-107128200D01*
X152952000Y-107204200D01*
X153704200Y-107204200D01*
X153704200Y-106552000D01*
X153628200Y-106476000D01*
X153180000Y-106474529D01*
X153120406Y-106480399D01*
X153063101Y-106497782D01*
X153010289Y-106526010D01*
X152963999Y-106563999D01*
X152926010Y-106610289D01*
X152897782Y-106663101D01*
X152880399Y-106720406D01*
X152874529Y-106780000D01*
X151756094Y-106780000D01*
X152403254Y-106132840D01*
X152418758Y-106120116D01*
X152469544Y-106058234D01*
X152507281Y-105987633D01*
X152530519Y-105911026D01*
X152536400Y-105851318D01*
X152536400Y-105851312D01*
X152538365Y-105831359D01*
X152536400Y-105811406D01*
X152536400Y-102009377D01*
X152547782Y-102046899D01*
X152576010Y-102099711D01*
X152613999Y-102146001D01*
X152660289Y-102183990D01*
X152713101Y-102212218D01*
X152770406Y-102229601D01*
X152830000Y-102235471D01*
X153453200Y-102234000D01*
X153529200Y-102158000D01*
X153529200Y-101330800D01*
X153680800Y-101330800D01*
X153680800Y-102158000D01*
X153756800Y-102234000D01*
X154380000Y-102235471D01*
X154439594Y-102229601D01*
X154496899Y-102212218D01*
X154549711Y-102183990D01*
X154596001Y-102146001D01*
X154633990Y-102099711D01*
X154662218Y-102046899D01*
X154679601Y-101989594D01*
X154685471Y-101930000D01*
X154684000Y-101406800D01*
X154608000Y-101330800D01*
X153680800Y-101330800D01*
X153529200Y-101330800D01*
X153509200Y-101330800D01*
X153509200Y-101179200D01*
X153529200Y-101179200D01*
X153529200Y-100352000D01*
X153680800Y-100352000D01*
X153680800Y-101179200D01*
X154608000Y-101179200D01*
X154684000Y-101103200D01*
X154685471Y-100580000D01*
X154679601Y-100520406D01*
X154662218Y-100463101D01*
X154633990Y-100410289D01*
X154596001Y-100363999D01*
X154549711Y-100326010D01*
X154496899Y-100297782D01*
X154439594Y-100280399D01*
X154380000Y-100274529D01*
X153756800Y-100276000D01*
X153680800Y-100352000D01*
X153529200Y-100352000D01*
X153453200Y-100276000D01*
X152830000Y-100274529D01*
X152770406Y-100280399D01*
X152713101Y-100297782D01*
X152660289Y-100326010D01*
X152613999Y-100363999D01*
X152576010Y-100410289D01*
X152547782Y-100463101D01*
X152536400Y-100500623D01*
X152536400Y-100496858D01*
X152538365Y-100476905D01*
X152536400Y-100456952D01*
X152536400Y-100456945D01*
X152530519Y-100397237D01*
X152507281Y-100320630D01*
X152469544Y-100250029D01*
X152448717Y-100224651D01*
X152431482Y-100203650D01*
X152431477Y-100203645D01*
X152418758Y-100188147D01*
X152403261Y-100175429D01*
X150506577Y-98278746D01*
X150493853Y-98263242D01*
X150431971Y-98212456D01*
X150361370Y-98174719D01*
X150284763Y-98151481D01*
X150225055Y-98145600D01*
X150225048Y-98145600D01*
X150214847Y-98144595D01*
X150186864Y-98102716D01*
X150088694Y-98004546D01*
X149973258Y-97927415D01*
X149844993Y-97874285D01*
X149708827Y-97847200D01*
X149569993Y-97847200D01*
X149433827Y-97874285D01*
X149366400Y-97902215D01*
X149366400Y-97177797D01*
X149669500Y-97177797D01*
X149669500Y-97335403D01*
X149700248Y-97489980D01*
X149760561Y-97635589D01*
X149848122Y-97766634D01*
X149959566Y-97878078D01*
X150090611Y-97965639D01*
X150236220Y-98025952D01*
X150390797Y-98056700D01*
X150548403Y-98056700D01*
X150702980Y-98025952D01*
X150848589Y-97965639D01*
X150979634Y-97878078D01*
X151091078Y-97766634D01*
X151178639Y-97635589D01*
X151238952Y-97489980D01*
X151269700Y-97335403D01*
X151269700Y-97177797D01*
X151238952Y-97023220D01*
X151178639Y-96877611D01*
X151091078Y-96746566D01*
X150979634Y-96635122D01*
X150848589Y-96547561D01*
X150702980Y-96487248D01*
X150548403Y-96456500D01*
X150390797Y-96456500D01*
X150236220Y-96487248D01*
X150090611Y-96547561D01*
X149959566Y-96635122D01*
X149848122Y-96746566D01*
X149760561Y-96877611D01*
X149700248Y-97023220D01*
X149669500Y-97177797D01*
X149366400Y-97177797D01*
X149366400Y-95741552D01*
X149368365Y-95721599D01*
X149366400Y-95701646D01*
X149366400Y-95701640D01*
X149360519Y-95641932D01*
X149337281Y-95565325D01*
X149299544Y-95494724D01*
X149248758Y-95432842D01*
X149233255Y-95420119D01*
X148958933Y-95145797D01*
X149669500Y-95145797D01*
X149669500Y-95303403D01*
X149700248Y-95457980D01*
X149760561Y-95603589D01*
X149848122Y-95734634D01*
X149959566Y-95846078D01*
X150090611Y-95933639D01*
X150236220Y-95993952D01*
X150390797Y-96024700D01*
X150548403Y-96024700D01*
X150702980Y-95993952D01*
X150848589Y-95933639D01*
X150979634Y-95846078D01*
X151091078Y-95734634D01*
X151178639Y-95603589D01*
X151238952Y-95457980D01*
X151269700Y-95303403D01*
X151269700Y-95145797D01*
X151251358Y-95053583D01*
X151314200Y-95053583D01*
X151314200Y-95192417D01*
X151341285Y-95328583D01*
X151394415Y-95456848D01*
X151471546Y-95572284D01*
X151569716Y-95670454D01*
X151685152Y-95747585D01*
X151813417Y-95800715D01*
X151949583Y-95827800D01*
X152088417Y-95827800D01*
X152224583Y-95800715D01*
X152352848Y-95747585D01*
X152468284Y-95670454D01*
X152566454Y-95572284D01*
X152643585Y-95456848D01*
X152696715Y-95328583D01*
X152723800Y-95192417D01*
X152723800Y-95053583D01*
X152696715Y-94917417D01*
X152643585Y-94789152D01*
X152566454Y-94673716D01*
X152468284Y-94575546D01*
X152352848Y-94498415D01*
X152224583Y-94445285D01*
X152088417Y-94418200D01*
X151949583Y-94418200D01*
X151813417Y-94445285D01*
X151685152Y-94498415D01*
X151569716Y-94575546D01*
X151471546Y-94673716D01*
X151394415Y-94789152D01*
X151341285Y-94917417D01*
X151314200Y-95053583D01*
X151251358Y-95053583D01*
X151238952Y-94991220D01*
X151178639Y-94845611D01*
X151091078Y-94714566D01*
X150979634Y-94603122D01*
X150848589Y-94515561D01*
X150702980Y-94455248D01*
X150548403Y-94424500D01*
X150390797Y-94424500D01*
X150236220Y-94455248D01*
X150090611Y-94515561D01*
X149959566Y-94603122D01*
X149848122Y-94714566D01*
X149760561Y-94845611D01*
X149700248Y-94991220D01*
X149669500Y-95145797D01*
X148958933Y-95145797D01*
X148624337Y-94811201D01*
X148634399Y-94760616D01*
X148634399Y-94621782D01*
X148607314Y-94485616D01*
X148554184Y-94357351D01*
X148477053Y-94241915D01*
X148378883Y-94143745D01*
X148263447Y-94066614D01*
X148135182Y-94013484D01*
X147999016Y-93986399D01*
X147860182Y-93986399D01*
X147724016Y-94013484D01*
X147595751Y-94066614D01*
X147480315Y-94143745D01*
X147382145Y-94241915D01*
X147305014Y-94357351D01*
X147251884Y-94485616D01*
X147224799Y-94621782D01*
X147224799Y-94760616D01*
X147251884Y-94896782D01*
X147305014Y-95025047D01*
X147382145Y-95140483D01*
X147480315Y-95238653D01*
X147595751Y-95315784D01*
X147724016Y-95368914D01*
X147860182Y-95395999D01*
X147999016Y-95395999D01*
X148049601Y-95385937D01*
X148553600Y-95889936D01*
X148553601Y-100273726D01*
X148520000Y-100273726D01*
X148460249Y-100279611D01*
X148402794Y-100297040D01*
X148395000Y-100301206D01*
X148387206Y-100297040D01*
X148329751Y-100279611D01*
X148270000Y-100273726D01*
X147420000Y-100273726D01*
X147360249Y-100279611D01*
X147302794Y-100297040D01*
X147295000Y-100301206D01*
X147287206Y-100297040D01*
X147229751Y-100279611D01*
X147170000Y-100273726D01*
X147156400Y-100273726D01*
X147156400Y-99036336D01*
X147479398Y-98713338D01*
X147529983Y-98723400D01*
X147668817Y-98723400D01*
X147804983Y-98696315D01*
X147933248Y-98643185D01*
X148048684Y-98566054D01*
X148146854Y-98467884D01*
X148223985Y-98352448D01*
X148277115Y-98224183D01*
X148304200Y-98088017D01*
X148304200Y-97949183D01*
X148277115Y-97813017D01*
X148223985Y-97684752D01*
X148146854Y-97569316D01*
X148048684Y-97471146D01*
X147933248Y-97394015D01*
X147804983Y-97340885D01*
X147668817Y-97313800D01*
X147529983Y-97313800D01*
X147393817Y-97340885D01*
X147265552Y-97394015D01*
X147150116Y-97471146D01*
X147051946Y-97569316D01*
X147023292Y-97612200D01*
X146124597Y-97612200D01*
X146047276Y-97534879D01*
X145937032Y-97461216D01*
X145814536Y-97410477D01*
X145684495Y-97384610D01*
X145551905Y-97384610D01*
X145421864Y-97410477D01*
X145299368Y-97461216D01*
X145189124Y-97534879D01*
X145095369Y-97628634D01*
X145021706Y-97738878D01*
X144970967Y-97861374D01*
X144945100Y-97991415D01*
X144945100Y-98124005D01*
X144970967Y-98254046D01*
X145021706Y-98376542D01*
X145095369Y-98486786D01*
X145189124Y-98580541D01*
X145299368Y-98654204D01*
X145421864Y-98704943D01*
X145551905Y-98730810D01*
X145684495Y-98730810D01*
X145814536Y-98704943D01*
X145937032Y-98654204D01*
X146047276Y-98580541D01*
X146141031Y-98486786D01*
X146182315Y-98425000D01*
X146618264Y-98425000D01*
X146476741Y-98566523D01*
X146461243Y-98579242D01*
X146448524Y-98594740D01*
X146448518Y-98594746D01*
X146427549Y-98620298D01*
X146410457Y-98641124D01*
X146403466Y-98654204D01*
X146372719Y-98711726D01*
X146349481Y-98788332D01*
X146341635Y-98868000D01*
X146343601Y-98887963D01*
X146343600Y-100273726D01*
X146320000Y-100273726D01*
X146260249Y-100279611D01*
X146202794Y-100297040D01*
X146194152Y-100301659D01*
X146186899Y-100297782D01*
X146129594Y-100280399D01*
X146070000Y-100274529D01*
X145796800Y-100276000D01*
X145720800Y-100352000D01*
X145720800Y-101054200D01*
X145740800Y-101054200D01*
X145740800Y-101205800D01*
X145720800Y-101205800D01*
X145720800Y-101908000D01*
X145796800Y-101984000D01*
X146070000Y-101985471D01*
X146129594Y-101979601D01*
X146186899Y-101962218D01*
X146194152Y-101958341D01*
X146202794Y-101962960D01*
X146260249Y-101980389D01*
X146320000Y-101986274D01*
X147143959Y-101986274D01*
X147125200Y-102080583D01*
X147125200Y-102219417D01*
X147152285Y-102355583D01*
X147205415Y-102483848D01*
X147282546Y-102599284D01*
X147380716Y-102697454D01*
X147496152Y-102774585D01*
X147620163Y-102825953D01*
X147449012Y-102997103D01*
X147429076Y-102977167D01*
X147318832Y-102903504D01*
X147196336Y-102852765D01*
X147066295Y-102826898D01*
X146933705Y-102826898D01*
X146803664Y-102852765D01*
X146681168Y-102903504D01*
X146570924Y-102977167D01*
X146477169Y-103070922D01*
X146403506Y-103181166D01*
X146352767Y-103303662D01*
X146326900Y-103433703D01*
X146326900Y-103566293D01*
X146352767Y-103696334D01*
X146403506Y-103818830D01*
X146477169Y-103929074D01*
X146570924Y-104022829D01*
X146681168Y-104096492D01*
X146803664Y-104147231D01*
X146933705Y-104173098D01*
X147066295Y-104173098D01*
X147196336Y-104147231D01*
X147318832Y-104096492D01*
X147429076Y-104022829D01*
X147522831Y-103929074D01*
X147537784Y-103906696D01*
X147540807Y-103906398D01*
X147540814Y-103906398D01*
X147600522Y-103900517D01*
X147677129Y-103877279D01*
X147747730Y-103839542D01*
X147789900Y-103804933D01*
X147789900Y-103825295D01*
X147815767Y-103955336D01*
X147866506Y-104077832D01*
X147940169Y-104188076D01*
X148033924Y-104281831D01*
X148144168Y-104355494D01*
X148266664Y-104406233D01*
X148396705Y-104432100D01*
X148529295Y-104432100D01*
X148659336Y-104406233D01*
X148781832Y-104355494D01*
X148892076Y-104281831D01*
X148985831Y-104188076D01*
X149059494Y-104077832D01*
X149110233Y-103955336D01*
X149136100Y-103825295D01*
X149136100Y-103692705D01*
X149130779Y-103665957D01*
X150313260Y-102483477D01*
X150328758Y-102470758D01*
X150341477Y-102455260D01*
X150341482Y-102455255D01*
X150379317Y-102409152D01*
X150379544Y-102408876D01*
X150417281Y-102338275D01*
X150440519Y-102261668D01*
X150446400Y-102201960D01*
X150446400Y-102201953D01*
X150448365Y-102182000D01*
X150446400Y-102162047D01*
X150446400Y-101986274D01*
X150470000Y-101986274D01*
X150529751Y-101980389D01*
X150587206Y-101962960D01*
X150595000Y-101958794D01*
X150602794Y-101962960D01*
X150660249Y-101980389D01*
X150720000Y-101986274D01*
X151570000Y-101986274D01*
X151629751Y-101980389D01*
X151687206Y-101962960D01*
X151723600Y-101943507D01*
X151723600Y-102677458D01*
X151677454Y-102608394D01*
X151579284Y-102510224D01*
X151463848Y-102433093D01*
X151335583Y-102379963D01*
X151199417Y-102352878D01*
X151060583Y-102352878D01*
X150924417Y-102379963D01*
X150796152Y-102433093D01*
X150680716Y-102510224D01*
X150582546Y-102608394D01*
X150505415Y-102723830D01*
X150452285Y-102852095D01*
X150425200Y-102988261D01*
X150425200Y-103127095D01*
X150452285Y-103263261D01*
X150505415Y-103391526D01*
X150582546Y-103506962D01*
X150680716Y-103605132D01*
X150796152Y-103682263D01*
X150924417Y-103735393D01*
X151060583Y-103762478D01*
X151199417Y-103762478D01*
X151335583Y-103735393D01*
X151463848Y-103682263D01*
X151579284Y-103605132D01*
X151677454Y-103506962D01*
X151723601Y-103437898D01*
X151723601Y-105663021D01*
X150830723Y-106555899D01*
X149077654Y-106555899D01*
X149057701Y-106553934D01*
X149037748Y-106555899D01*
X149037741Y-106555899D01*
X148985305Y-106561064D01*
X148978032Y-106561780D01*
X148901426Y-106585018D01*
X148830825Y-106622755D01*
X148768943Y-106673541D01*
X148756219Y-106689045D01*
X148513043Y-106932221D01*
X148486295Y-106926900D01*
X148353705Y-106926900D01*
X148223664Y-106952767D01*
X148101168Y-107003506D01*
X147990924Y-107077169D01*
X147897169Y-107170924D01*
X147823506Y-107281168D01*
X147772767Y-107403664D01*
X147746900Y-107533705D01*
X147746900Y-107666295D01*
X147772767Y-107796336D01*
X147823506Y-107918832D01*
X147897169Y-108029076D01*
X147990924Y-108122831D01*
X148101168Y-108196494D01*
X148223664Y-108247233D01*
X148353705Y-108273100D01*
X148486295Y-108273100D01*
X148616336Y-108247233D01*
X148738832Y-108196494D01*
X148849076Y-108122831D01*
X148942831Y-108029076D01*
X149016494Y-107918832D01*
X149067233Y-107796336D01*
X149093100Y-107666295D01*
X149093100Y-107533705D01*
X149087779Y-107506957D01*
X149226037Y-107368699D01*
X149341392Y-107368699D01*
X149322767Y-107413664D01*
X149296900Y-107543705D01*
X149296900Y-107676295D01*
X149322767Y-107806336D01*
X149373506Y-107928832D01*
X149447169Y-108039076D01*
X149540924Y-108132831D01*
X149651168Y-108206494D01*
X149773664Y-108257233D01*
X149903705Y-108283100D01*
X150035271Y-108283100D01*
X150049310Y-108297139D01*
X150049316Y-108297144D01*
X150123953Y-108371781D01*
X150137416Y-108388186D01*
X150202862Y-108441895D01*
X150277528Y-108481805D01*
X150358546Y-108506382D01*
X150421692Y-108512601D01*
X150421693Y-108512601D01*
X150442800Y-108514680D01*
X150463907Y-108512601D01*
X153874773Y-108512601D01*
X153950201Y-108588029D01*
X153950201Y-108824215D01*
X153882773Y-108796285D01*
X153746607Y-108769200D01*
X153607773Y-108769200D01*
X153586524Y-108773427D01*
X153582576Y-108768616D01*
X153517130Y-108714907D01*
X153442464Y-108674997D01*
X153361446Y-108650420D01*
X153298300Y-108644201D01*
X153298298Y-108644201D01*
X153277191Y-108642122D01*
X153256084Y-108644201D01*
X146716960Y-108644201D01*
X146695853Y-108642122D01*
X146674746Y-108644201D01*
X146674744Y-108644201D01*
X146611598Y-108650420D01*
X146541729Y-108671615D01*
X146530580Y-108674997D01*
X146455913Y-108714907D01*
X146438936Y-108728840D01*
X146390468Y-108768616D01*
X146377010Y-108785015D01*
X145933381Y-109228645D01*
X141826999Y-105122263D01*
X141826999Y-105086583D01*
X149663200Y-105086583D01*
X149663200Y-105225417D01*
X149690285Y-105361583D01*
X149743415Y-105489848D01*
X149820546Y-105605284D01*
X149918716Y-105703454D01*
X150034152Y-105780585D01*
X150162417Y-105833715D01*
X150298583Y-105860800D01*
X150437417Y-105860800D01*
X150573583Y-105833715D01*
X150701848Y-105780585D01*
X150817284Y-105703454D01*
X150915454Y-105605284D01*
X150992585Y-105489848D01*
X151045715Y-105361583D01*
X151072800Y-105225417D01*
X151072800Y-105086583D01*
X151045715Y-104950417D01*
X150992585Y-104822152D01*
X150915454Y-104706716D01*
X150817284Y-104608546D01*
X150701848Y-104531415D01*
X150573583Y-104478285D01*
X150437417Y-104451200D01*
X150298583Y-104451200D01*
X150162417Y-104478285D01*
X150034152Y-104531415D01*
X149918716Y-104608546D01*
X149820546Y-104706716D01*
X149743415Y-104822152D01*
X149690285Y-104950417D01*
X149663200Y-105086583D01*
X141826999Y-105086583D01*
X141826999Y-102685040D01*
X142133200Y-102684000D01*
X142209200Y-102608000D01*
X142209200Y-101555800D01*
X142189200Y-101555800D01*
X142189200Y-101404200D01*
X142209200Y-101404200D01*
X142209200Y-100352000D01*
X142360800Y-100352000D01*
X142360800Y-101404200D01*
X142380800Y-101404200D01*
X142380800Y-101555800D01*
X142360800Y-101555800D01*
X142360800Y-102608000D01*
X142436800Y-102684000D01*
X142870000Y-102685471D01*
X142929594Y-102679601D01*
X142949433Y-102673583D01*
X144456200Y-102673583D01*
X144456200Y-102812417D01*
X144483285Y-102948583D01*
X144536415Y-103076848D01*
X144613546Y-103192284D01*
X144711716Y-103290454D01*
X144827152Y-103367585D01*
X144904602Y-103399666D01*
X144867546Y-103436722D01*
X144790415Y-103552158D01*
X144737285Y-103680423D01*
X144710200Y-103816589D01*
X144710200Y-103955423D01*
X144737285Y-104091589D01*
X144790415Y-104219854D01*
X144867546Y-104335290D01*
X144965716Y-104433460D01*
X145081152Y-104510591D01*
X145209417Y-104563721D01*
X145345583Y-104590806D01*
X145484417Y-104590806D01*
X145620583Y-104563721D01*
X145748848Y-104510591D01*
X145864284Y-104433460D01*
X145962454Y-104335290D01*
X146039585Y-104219854D01*
X146092715Y-104091589D01*
X146119800Y-103955423D01*
X146119800Y-103816589D01*
X146092715Y-103680423D01*
X146039585Y-103552158D01*
X145962454Y-103436722D01*
X145864284Y-103338552D01*
X145748848Y-103261421D01*
X145671398Y-103229340D01*
X145708454Y-103192284D01*
X145785585Y-103076848D01*
X145838715Y-102948583D01*
X145865800Y-102812417D01*
X145865800Y-102673583D01*
X145838715Y-102537417D01*
X145785585Y-102409152D01*
X145708454Y-102293716D01*
X145610284Y-102195546D01*
X145494848Y-102118415D01*
X145366583Y-102065285D01*
X145230417Y-102038200D01*
X145091583Y-102038200D01*
X144955417Y-102065285D01*
X144827152Y-102118415D01*
X144711716Y-102195546D01*
X144613546Y-102293716D01*
X144536415Y-102409152D01*
X144483285Y-102537417D01*
X144456200Y-102673583D01*
X142949433Y-102673583D01*
X142986899Y-102662218D01*
X143039711Y-102633990D01*
X143086001Y-102596001D01*
X143123990Y-102549711D01*
X143152218Y-102496899D01*
X143169601Y-102439594D01*
X143175471Y-102380000D01*
X143174697Y-101986274D01*
X143870000Y-101986274D01*
X143929751Y-101980389D01*
X143987206Y-101962960D01*
X143995000Y-101958794D01*
X144002794Y-101962960D01*
X144060249Y-101980389D01*
X144120000Y-101986274D01*
X144970000Y-101986274D01*
X145029751Y-101980389D01*
X145087206Y-101962960D01*
X145095848Y-101958341D01*
X145103101Y-101962218D01*
X145160406Y-101979601D01*
X145220000Y-101985471D01*
X145493200Y-101984000D01*
X145569200Y-101908000D01*
X145569200Y-101205800D01*
X145549200Y-101205800D01*
X145549200Y-101054200D01*
X145569200Y-101054200D01*
X145569200Y-100352000D01*
X145493200Y-100276000D01*
X145220000Y-100274529D01*
X145160406Y-100280399D01*
X145103101Y-100297782D01*
X145095848Y-100301659D01*
X145087206Y-100297040D01*
X145029751Y-100279611D01*
X144970000Y-100273726D01*
X144716400Y-100273726D01*
X144716400Y-97856108D01*
X144759284Y-97827454D01*
X144857454Y-97729284D01*
X144934585Y-97613848D01*
X144987715Y-97485583D01*
X145014800Y-97349417D01*
X145014800Y-97210583D01*
X144987715Y-97074417D01*
X144934585Y-96946152D01*
X144876080Y-96858592D01*
X144879566Y-96862078D01*
X145010611Y-96949639D01*
X145156220Y-97009952D01*
X145310797Y-97040700D01*
X145468403Y-97040700D01*
X145622980Y-97009952D01*
X145768589Y-96949639D01*
X145899634Y-96862078D01*
X146011078Y-96750634D01*
X146098639Y-96619589D01*
X146158952Y-96473980D01*
X146189700Y-96319403D01*
X146189700Y-96161797D01*
X146158952Y-96007220D01*
X146098639Y-95861611D01*
X146011078Y-95730566D01*
X145899634Y-95619122D01*
X145768589Y-95531561D01*
X145622980Y-95471248D01*
X145468403Y-95440500D01*
X145310797Y-95440500D01*
X145156220Y-95471248D01*
X145010611Y-95531561D01*
X144879566Y-95619122D01*
X144768122Y-95730566D01*
X144680561Y-95861611D01*
X144620248Y-96007220D01*
X144589500Y-96161797D01*
X144589500Y-96319403D01*
X144620248Y-96473980D01*
X144680561Y-96619589D01*
X144753416Y-96728625D01*
X144643848Y-96655415D01*
X144515583Y-96602285D01*
X144379417Y-96575200D01*
X144240583Y-96575200D01*
X144104417Y-96602285D01*
X143976152Y-96655415D01*
X143860716Y-96732546D01*
X143762546Y-96830716D01*
X143685415Y-96946152D01*
X143632285Y-97074417D01*
X143605200Y-97210583D01*
X143605200Y-97349417D01*
X143632285Y-97485583D01*
X143685415Y-97613848D01*
X143762546Y-97729284D01*
X143860716Y-97827454D01*
X143903600Y-97856108D01*
X143903600Y-97865644D01*
X143903601Y-97865654D01*
X143903600Y-100277035D01*
X143870000Y-100273726D01*
X143120000Y-100273726D01*
X143060249Y-100279611D01*
X143002794Y-100297040D01*
X142994152Y-100301659D01*
X142986899Y-100297782D01*
X142929594Y-100280399D01*
X142870000Y-100274529D01*
X142436800Y-100276000D01*
X142360800Y-100352000D01*
X142209200Y-100352000D01*
X142133200Y-100276000D01*
X141826999Y-100274960D01*
X141826999Y-97742052D01*
X144626157Y-94942895D01*
X144670716Y-94987454D01*
X144786152Y-95064585D01*
X144914417Y-95117715D01*
X145050583Y-95144800D01*
X145189417Y-95144800D01*
X145325583Y-95117715D01*
X145453848Y-95064585D01*
X145569284Y-94987454D01*
X145667454Y-94889284D01*
X145744585Y-94773848D01*
X145797715Y-94645583D01*
X145824800Y-94509417D01*
X145824800Y-94370583D01*
X145797715Y-94234417D01*
X145744585Y-94106152D01*
X145667454Y-93990716D01*
X145569284Y-93892546D01*
X145557990Y-93885000D01*
X152831664Y-93885000D01*
X155714701Y-96768038D01*
G37*
X155714701Y-96768038D02*
X155714700Y-108745550D01*
X155604048Y-108671615D01*
X155475783Y-108618485D01*
X155339617Y-108591400D01*
X155200783Y-108591400D01*
X155064617Y-108618485D01*
X154936352Y-108671615D01*
X154820916Y-108748746D01*
X154809800Y-108759862D01*
X154809800Y-108431106D01*
X154811879Y-108409999D01*
X154809800Y-108388891D01*
X154803581Y-108325745D01*
X154784916Y-108264216D01*
X154888397Y-108284800D01*
X155027231Y-108284800D01*
X155163397Y-108257715D01*
X155291662Y-108204585D01*
X155407098Y-108127454D01*
X155505268Y-108029284D01*
X155582399Y-107913848D01*
X155635529Y-107785583D01*
X155662614Y-107649417D01*
X155662614Y-107510583D01*
X155635529Y-107374417D01*
X155582399Y-107246152D01*
X155505268Y-107130716D01*
X155407098Y-107032546D01*
X155291662Y-106955415D01*
X155163397Y-106902285D01*
X155027231Y-106875200D01*
X154888397Y-106875200D01*
X154752231Y-106902285D01*
X154684836Y-106930201D01*
X154685471Y-106780000D01*
X154679601Y-106720406D01*
X154662218Y-106663101D01*
X154633990Y-106610289D01*
X154596001Y-106563999D01*
X154549711Y-106526010D01*
X154496899Y-106497782D01*
X154439594Y-106480399D01*
X154380000Y-106474529D01*
X153931800Y-106476000D01*
X153855800Y-106552000D01*
X153855800Y-107204200D01*
X153875800Y-107204200D01*
X153875800Y-107355800D01*
X153855800Y-107355800D01*
X153855800Y-107375800D01*
X153704200Y-107375800D01*
X153704200Y-107355800D01*
X152952000Y-107355800D01*
X152876000Y-107431800D01*
X152875066Y-107653001D01*
X150643100Y-107653001D01*
X150643100Y-107543705D01*
X150617233Y-107413664D01*
X150598608Y-107368699D01*
X150979106Y-107368699D01*
X150999059Y-107370664D01*
X151019012Y-107368699D01*
X151019019Y-107368699D01*
X151078727Y-107362818D01*
X151155334Y-107339580D01*
X151225935Y-107301843D01*
X151287817Y-107251057D01*
X151300541Y-107235553D01*
X151756094Y-106780000D01*
X152874529Y-106780000D01*
X152876000Y-107128200D01*
X152952000Y-107204200D01*
X153704200Y-107204200D01*
X153704200Y-106552000D01*
X153628200Y-106476000D01*
X153180000Y-106474529D01*
X153120406Y-106480399D01*
X153063101Y-106497782D01*
X153010289Y-106526010D01*
X152963999Y-106563999D01*
X152926010Y-106610289D01*
X152897782Y-106663101D01*
X152880399Y-106720406D01*
X152874529Y-106780000D01*
X151756094Y-106780000D01*
X152403254Y-106132840D01*
X152418758Y-106120116D01*
X152469544Y-106058234D01*
X152507281Y-105987633D01*
X152530519Y-105911026D01*
X152536400Y-105851318D01*
X152536400Y-105851312D01*
X152538365Y-105831359D01*
X152536400Y-105811406D01*
X152536400Y-102009377D01*
X152547782Y-102046899D01*
X152576010Y-102099711D01*
X152613999Y-102146001D01*
X152660289Y-102183990D01*
X152713101Y-102212218D01*
X152770406Y-102229601D01*
X152830000Y-102235471D01*
X153453200Y-102234000D01*
X153529200Y-102158000D01*
X153529200Y-101330800D01*
X153680800Y-101330800D01*
X153680800Y-102158000D01*
X153756800Y-102234000D01*
X154380000Y-102235471D01*
X154439594Y-102229601D01*
X154496899Y-102212218D01*
X154549711Y-102183990D01*
X154596001Y-102146001D01*
X154633990Y-102099711D01*
X154662218Y-102046899D01*
X154679601Y-101989594D01*
X154685471Y-101930000D01*
X154684000Y-101406800D01*
X154608000Y-101330800D01*
X153680800Y-101330800D01*
X153529200Y-101330800D01*
X153509200Y-101330800D01*
X153509200Y-101179200D01*
X153529200Y-101179200D01*
X153529200Y-100352000D01*
X153680800Y-100352000D01*
X153680800Y-101179200D01*
X154608000Y-101179200D01*
X154684000Y-101103200D01*
X154685471Y-100580000D01*
X154679601Y-100520406D01*
X154662218Y-100463101D01*
X154633990Y-100410289D01*
X154596001Y-100363999D01*
X154549711Y-100326010D01*
X154496899Y-100297782D01*
X154439594Y-100280399D01*
X154380000Y-100274529D01*
X153756800Y-100276000D01*
X153680800Y-100352000D01*
X153529200Y-100352000D01*
X153453200Y-100276000D01*
X152830000Y-100274529D01*
X152770406Y-100280399D01*
X152713101Y-100297782D01*
X152660289Y-100326010D01*
X152613999Y-100363999D01*
X152576010Y-100410289D01*
X152547782Y-100463101D01*
X152536400Y-100500623D01*
X152536400Y-100496858D01*
X152538365Y-100476905D01*
X152536400Y-100456952D01*
X152536400Y-100456945D01*
X152530519Y-100397237D01*
X152507281Y-100320630D01*
X152469544Y-100250029D01*
X152448717Y-100224651D01*
X152431482Y-100203650D01*
X152431477Y-100203645D01*
X152418758Y-100188147D01*
X152403261Y-100175429D01*
X150506577Y-98278746D01*
X150493853Y-98263242D01*
X150431971Y-98212456D01*
X150361370Y-98174719D01*
X150284763Y-98151481D01*
X150225055Y-98145600D01*
X150225048Y-98145600D01*
X150214847Y-98144595D01*
X150186864Y-98102716D01*
X150088694Y-98004546D01*
X149973258Y-97927415D01*
X149844993Y-97874285D01*
X149708827Y-97847200D01*
X149569993Y-97847200D01*
X149433827Y-97874285D01*
X149366400Y-97902215D01*
X149366400Y-97177797D01*
X149669500Y-97177797D01*
X149669500Y-97335403D01*
X149700248Y-97489980D01*
X149760561Y-97635589D01*
X149848122Y-97766634D01*
X149959566Y-97878078D01*
X150090611Y-97965639D01*
X150236220Y-98025952D01*
X150390797Y-98056700D01*
X150548403Y-98056700D01*
X150702980Y-98025952D01*
X150848589Y-97965639D01*
X150979634Y-97878078D01*
X151091078Y-97766634D01*
X151178639Y-97635589D01*
X151238952Y-97489980D01*
X151269700Y-97335403D01*
X151269700Y-97177797D01*
X151238952Y-97023220D01*
X151178639Y-96877611D01*
X151091078Y-96746566D01*
X150979634Y-96635122D01*
X150848589Y-96547561D01*
X150702980Y-96487248D01*
X150548403Y-96456500D01*
X150390797Y-96456500D01*
X150236220Y-96487248D01*
X150090611Y-96547561D01*
X149959566Y-96635122D01*
X149848122Y-96746566D01*
X149760561Y-96877611D01*
X149700248Y-97023220D01*
X149669500Y-97177797D01*
X149366400Y-97177797D01*
X149366400Y-95741552D01*
X149368365Y-95721599D01*
X149366400Y-95701646D01*
X149366400Y-95701640D01*
X149360519Y-95641932D01*
X149337281Y-95565325D01*
X149299544Y-95494724D01*
X149248758Y-95432842D01*
X149233255Y-95420119D01*
X148958933Y-95145797D01*
X149669500Y-95145797D01*
X149669500Y-95303403D01*
X149700248Y-95457980D01*
X149760561Y-95603589D01*
X149848122Y-95734634D01*
X149959566Y-95846078D01*
X150090611Y-95933639D01*
X150236220Y-95993952D01*
X150390797Y-96024700D01*
X150548403Y-96024700D01*
X150702980Y-95993952D01*
X150848589Y-95933639D01*
X150979634Y-95846078D01*
X151091078Y-95734634D01*
X151178639Y-95603589D01*
X151238952Y-95457980D01*
X151269700Y-95303403D01*
X151269700Y-95145797D01*
X151251358Y-95053583D01*
X151314200Y-95053583D01*
X151314200Y-95192417D01*
X151341285Y-95328583D01*
X151394415Y-95456848D01*
X151471546Y-95572284D01*
X151569716Y-95670454D01*
X151685152Y-95747585D01*
X151813417Y-95800715D01*
X151949583Y-95827800D01*
X152088417Y-95827800D01*
X152224583Y-95800715D01*
X152352848Y-95747585D01*
X152468284Y-95670454D01*
X152566454Y-95572284D01*
X152643585Y-95456848D01*
X152696715Y-95328583D01*
X152723800Y-95192417D01*
X152723800Y-95053583D01*
X152696715Y-94917417D01*
X152643585Y-94789152D01*
X152566454Y-94673716D01*
X152468284Y-94575546D01*
X152352848Y-94498415D01*
X152224583Y-94445285D01*
X152088417Y-94418200D01*
X151949583Y-94418200D01*
X151813417Y-94445285D01*
X151685152Y-94498415D01*
X151569716Y-94575546D01*
X151471546Y-94673716D01*
X151394415Y-94789152D01*
X151341285Y-94917417D01*
X151314200Y-95053583D01*
X151251358Y-95053583D01*
X151238952Y-94991220D01*
X151178639Y-94845611D01*
X151091078Y-94714566D01*
X150979634Y-94603122D01*
X150848589Y-94515561D01*
X150702980Y-94455248D01*
X150548403Y-94424500D01*
X150390797Y-94424500D01*
X150236220Y-94455248D01*
X150090611Y-94515561D01*
X149959566Y-94603122D01*
X149848122Y-94714566D01*
X149760561Y-94845611D01*
X149700248Y-94991220D01*
X149669500Y-95145797D01*
X148958933Y-95145797D01*
X148624337Y-94811201D01*
X148634399Y-94760616D01*
X148634399Y-94621782D01*
X148607314Y-94485616D01*
X148554184Y-94357351D01*
X148477053Y-94241915D01*
X148378883Y-94143745D01*
X148263447Y-94066614D01*
X148135182Y-94013484D01*
X147999016Y-93986399D01*
X147860182Y-93986399D01*
X147724016Y-94013484D01*
X147595751Y-94066614D01*
X147480315Y-94143745D01*
X147382145Y-94241915D01*
X147305014Y-94357351D01*
X147251884Y-94485616D01*
X147224799Y-94621782D01*
X147224799Y-94760616D01*
X147251884Y-94896782D01*
X147305014Y-95025047D01*
X147382145Y-95140483D01*
X147480315Y-95238653D01*
X147595751Y-95315784D01*
X147724016Y-95368914D01*
X147860182Y-95395999D01*
X147999016Y-95395999D01*
X148049601Y-95385937D01*
X148553600Y-95889936D01*
X148553601Y-100273726D01*
X148520000Y-100273726D01*
X148460249Y-100279611D01*
X148402794Y-100297040D01*
X148395000Y-100301206D01*
X148387206Y-100297040D01*
X148329751Y-100279611D01*
X148270000Y-100273726D01*
X147420000Y-100273726D01*
X147360249Y-100279611D01*
X147302794Y-100297040D01*
X147295000Y-100301206D01*
X147287206Y-100297040D01*
X147229751Y-100279611D01*
X147170000Y-100273726D01*
X147156400Y-100273726D01*
X147156400Y-99036336D01*
X147479398Y-98713338D01*
X147529983Y-98723400D01*
X147668817Y-98723400D01*
X147804983Y-98696315D01*
X147933248Y-98643185D01*
X148048684Y-98566054D01*
X148146854Y-98467884D01*
X148223985Y-98352448D01*
X148277115Y-98224183D01*
X148304200Y-98088017D01*
X148304200Y-97949183D01*
X148277115Y-97813017D01*
X148223985Y-97684752D01*
X148146854Y-97569316D01*
X148048684Y-97471146D01*
X147933248Y-97394015D01*
X147804983Y-97340885D01*
X147668817Y-97313800D01*
X147529983Y-97313800D01*
X147393817Y-97340885D01*
X147265552Y-97394015D01*
X147150116Y-97471146D01*
X147051946Y-97569316D01*
X147023292Y-97612200D01*
X146124597Y-97612200D01*
X146047276Y-97534879D01*
X145937032Y-97461216D01*
X145814536Y-97410477D01*
X145684495Y-97384610D01*
X145551905Y-97384610D01*
X145421864Y-97410477D01*
X145299368Y-97461216D01*
X145189124Y-97534879D01*
X145095369Y-97628634D01*
X145021706Y-97738878D01*
X144970967Y-97861374D01*
X144945100Y-97991415D01*
X144945100Y-98124005D01*
X144970967Y-98254046D01*
X145021706Y-98376542D01*
X145095369Y-98486786D01*
X145189124Y-98580541D01*
X145299368Y-98654204D01*
X145421864Y-98704943D01*
X145551905Y-98730810D01*
X145684495Y-98730810D01*
X145814536Y-98704943D01*
X145937032Y-98654204D01*
X146047276Y-98580541D01*
X146141031Y-98486786D01*
X146182315Y-98425000D01*
X146618264Y-98425000D01*
X146476741Y-98566523D01*
X146461243Y-98579242D01*
X146448524Y-98594740D01*
X146448518Y-98594746D01*
X146427549Y-98620298D01*
X146410457Y-98641124D01*
X146403466Y-98654204D01*
X146372719Y-98711726D01*
X146349481Y-98788332D01*
X146341635Y-98868000D01*
X146343601Y-98887963D01*
X146343600Y-100273726D01*
X146320000Y-100273726D01*
X146260249Y-100279611D01*
X146202794Y-100297040D01*
X146194152Y-100301659D01*
X146186899Y-100297782D01*
X146129594Y-100280399D01*
X146070000Y-100274529D01*
X145796800Y-100276000D01*
X145720800Y-100352000D01*
X145720800Y-101054200D01*
X145740800Y-101054200D01*
X145740800Y-101205800D01*
X145720800Y-101205800D01*
X145720800Y-101908000D01*
X145796800Y-101984000D01*
X146070000Y-101985471D01*
X146129594Y-101979601D01*
X146186899Y-101962218D01*
X146194152Y-101958341D01*
X146202794Y-101962960D01*
X146260249Y-101980389D01*
X146320000Y-101986274D01*
X147143959Y-101986274D01*
X147125200Y-102080583D01*
X147125200Y-102219417D01*
X147152285Y-102355583D01*
X147205415Y-102483848D01*
X147282546Y-102599284D01*
X147380716Y-102697454D01*
X147496152Y-102774585D01*
X147620163Y-102825953D01*
X147449012Y-102997103D01*
X147429076Y-102977167D01*
X147318832Y-102903504D01*
X147196336Y-102852765D01*
X147066295Y-102826898D01*
X146933705Y-102826898D01*
X146803664Y-102852765D01*
X146681168Y-102903504D01*
X146570924Y-102977167D01*
X146477169Y-103070922D01*
X146403506Y-103181166D01*
X146352767Y-103303662D01*
X146326900Y-103433703D01*
X146326900Y-103566293D01*
X146352767Y-103696334D01*
X146403506Y-103818830D01*
X146477169Y-103929074D01*
X146570924Y-104022829D01*
X146681168Y-104096492D01*
X146803664Y-104147231D01*
X146933705Y-104173098D01*
X147066295Y-104173098D01*
X147196336Y-104147231D01*
X147318832Y-104096492D01*
X147429076Y-104022829D01*
X147522831Y-103929074D01*
X147537784Y-103906696D01*
X147540807Y-103906398D01*
X147540814Y-103906398D01*
X147600522Y-103900517D01*
X147677129Y-103877279D01*
X147747730Y-103839542D01*
X147789900Y-103804933D01*
X147789900Y-103825295D01*
X147815767Y-103955336D01*
X147866506Y-104077832D01*
X147940169Y-104188076D01*
X148033924Y-104281831D01*
X148144168Y-104355494D01*
X148266664Y-104406233D01*
X148396705Y-104432100D01*
X148529295Y-104432100D01*
X148659336Y-104406233D01*
X148781832Y-104355494D01*
X148892076Y-104281831D01*
X148985831Y-104188076D01*
X149059494Y-104077832D01*
X149110233Y-103955336D01*
X149136100Y-103825295D01*
X149136100Y-103692705D01*
X149130779Y-103665957D01*
X150313260Y-102483477D01*
X150328758Y-102470758D01*
X150341477Y-102455260D01*
X150341482Y-102455255D01*
X150379317Y-102409152D01*
X150379544Y-102408876D01*
X150417281Y-102338275D01*
X150440519Y-102261668D01*
X150446400Y-102201960D01*
X150446400Y-102201953D01*
X150448365Y-102182000D01*
X150446400Y-102162047D01*
X150446400Y-101986274D01*
X150470000Y-101986274D01*
X150529751Y-101980389D01*
X150587206Y-101962960D01*
X150595000Y-101958794D01*
X150602794Y-101962960D01*
X150660249Y-101980389D01*
X150720000Y-101986274D01*
X151570000Y-101986274D01*
X151629751Y-101980389D01*
X151687206Y-101962960D01*
X151723600Y-101943507D01*
X151723600Y-102677458D01*
X151677454Y-102608394D01*
X151579284Y-102510224D01*
X151463848Y-102433093D01*
X151335583Y-102379963D01*
X151199417Y-102352878D01*
X151060583Y-102352878D01*
X150924417Y-102379963D01*
X150796152Y-102433093D01*
X150680716Y-102510224D01*
X150582546Y-102608394D01*
X150505415Y-102723830D01*
X150452285Y-102852095D01*
X150425200Y-102988261D01*
X150425200Y-103127095D01*
X150452285Y-103263261D01*
X150505415Y-103391526D01*
X150582546Y-103506962D01*
X150680716Y-103605132D01*
X150796152Y-103682263D01*
X150924417Y-103735393D01*
X151060583Y-103762478D01*
X151199417Y-103762478D01*
X151335583Y-103735393D01*
X151463848Y-103682263D01*
X151579284Y-103605132D01*
X151677454Y-103506962D01*
X151723601Y-103437898D01*
X151723601Y-105663021D01*
X150830723Y-106555899D01*
X149077654Y-106555899D01*
X149057701Y-106553934D01*
X149037748Y-106555899D01*
X149037741Y-106555899D01*
X148985305Y-106561064D01*
X148978032Y-106561780D01*
X148901426Y-106585018D01*
X148830825Y-106622755D01*
X148768943Y-106673541D01*
X148756219Y-106689045D01*
X148513043Y-106932221D01*
X148486295Y-106926900D01*
X148353705Y-106926900D01*
X148223664Y-106952767D01*
X148101168Y-107003506D01*
X147990924Y-107077169D01*
X147897169Y-107170924D01*
X147823506Y-107281168D01*
X147772767Y-107403664D01*
X147746900Y-107533705D01*
X147746900Y-107666295D01*
X147772767Y-107796336D01*
X147823506Y-107918832D01*
X147897169Y-108029076D01*
X147990924Y-108122831D01*
X148101168Y-108196494D01*
X148223664Y-108247233D01*
X148353705Y-108273100D01*
X148486295Y-108273100D01*
X148616336Y-108247233D01*
X148738832Y-108196494D01*
X148849076Y-108122831D01*
X148942831Y-108029076D01*
X149016494Y-107918832D01*
X149067233Y-107796336D01*
X149093100Y-107666295D01*
X149093100Y-107533705D01*
X149087779Y-107506957D01*
X149226037Y-107368699D01*
X149341392Y-107368699D01*
X149322767Y-107413664D01*
X149296900Y-107543705D01*
X149296900Y-107676295D01*
X149322767Y-107806336D01*
X149373506Y-107928832D01*
X149447169Y-108039076D01*
X149540924Y-108132831D01*
X149651168Y-108206494D01*
X149773664Y-108257233D01*
X149903705Y-108283100D01*
X150035271Y-108283100D01*
X150049310Y-108297139D01*
X150049316Y-108297144D01*
X150123953Y-108371781D01*
X150137416Y-108388186D01*
X150202862Y-108441895D01*
X150277528Y-108481805D01*
X150358546Y-108506382D01*
X150421692Y-108512601D01*
X150421693Y-108512601D01*
X150442800Y-108514680D01*
X150463907Y-108512601D01*
X153874773Y-108512601D01*
X153950201Y-108588029D01*
X153950201Y-108824215D01*
X153882773Y-108796285D01*
X153746607Y-108769200D01*
X153607773Y-108769200D01*
X153586524Y-108773427D01*
X153582576Y-108768616D01*
X153517130Y-108714907D01*
X153442464Y-108674997D01*
X153361446Y-108650420D01*
X153298300Y-108644201D01*
X153298298Y-108644201D01*
X153277191Y-108642122D01*
X153256084Y-108644201D01*
X146716960Y-108644201D01*
X146695853Y-108642122D01*
X146674746Y-108644201D01*
X146674744Y-108644201D01*
X146611598Y-108650420D01*
X146541729Y-108671615D01*
X146530580Y-108674997D01*
X146455913Y-108714907D01*
X146438936Y-108728840D01*
X146390468Y-108768616D01*
X146377010Y-108785015D01*
X145933381Y-109228645D01*
X141826999Y-105122263D01*
X141826999Y-105086583D01*
X149663200Y-105086583D01*
X149663200Y-105225417D01*
X149690285Y-105361583D01*
X149743415Y-105489848D01*
X149820546Y-105605284D01*
X149918716Y-105703454D01*
X150034152Y-105780585D01*
X150162417Y-105833715D01*
X150298583Y-105860800D01*
X150437417Y-105860800D01*
X150573583Y-105833715D01*
X150701848Y-105780585D01*
X150817284Y-105703454D01*
X150915454Y-105605284D01*
X150992585Y-105489848D01*
X151045715Y-105361583D01*
X151072800Y-105225417D01*
X151072800Y-105086583D01*
X151045715Y-104950417D01*
X150992585Y-104822152D01*
X150915454Y-104706716D01*
X150817284Y-104608546D01*
X150701848Y-104531415D01*
X150573583Y-104478285D01*
X150437417Y-104451200D01*
X150298583Y-104451200D01*
X150162417Y-104478285D01*
X150034152Y-104531415D01*
X149918716Y-104608546D01*
X149820546Y-104706716D01*
X149743415Y-104822152D01*
X149690285Y-104950417D01*
X149663200Y-105086583D01*
X141826999Y-105086583D01*
X141826999Y-102685040D01*
X142133200Y-102684000D01*
X142209200Y-102608000D01*
X142209200Y-101555800D01*
X142189200Y-101555800D01*
X142189200Y-101404200D01*
X142209200Y-101404200D01*
X142209200Y-100352000D01*
X142360800Y-100352000D01*
X142360800Y-101404200D01*
X142380800Y-101404200D01*
X142380800Y-101555800D01*
X142360800Y-101555800D01*
X142360800Y-102608000D01*
X142436800Y-102684000D01*
X142870000Y-102685471D01*
X142929594Y-102679601D01*
X142949433Y-102673583D01*
X144456200Y-102673583D01*
X144456200Y-102812417D01*
X144483285Y-102948583D01*
X144536415Y-103076848D01*
X144613546Y-103192284D01*
X144711716Y-103290454D01*
X144827152Y-103367585D01*
X144904602Y-103399666D01*
X144867546Y-103436722D01*
X144790415Y-103552158D01*
X144737285Y-103680423D01*
X144710200Y-103816589D01*
X144710200Y-103955423D01*
X144737285Y-104091589D01*
X144790415Y-104219854D01*
X144867546Y-104335290D01*
X144965716Y-104433460D01*
X145081152Y-104510591D01*
X145209417Y-104563721D01*
X145345583Y-104590806D01*
X145484417Y-104590806D01*
X145620583Y-104563721D01*
X145748848Y-104510591D01*
X145864284Y-104433460D01*
X145962454Y-104335290D01*
X146039585Y-104219854D01*
X146092715Y-104091589D01*
X146119800Y-103955423D01*
X146119800Y-103816589D01*
X146092715Y-103680423D01*
X146039585Y-103552158D01*
X145962454Y-103436722D01*
X145864284Y-103338552D01*
X145748848Y-103261421D01*
X145671398Y-103229340D01*
X145708454Y-103192284D01*
X145785585Y-103076848D01*
X145838715Y-102948583D01*
X145865800Y-102812417D01*
X145865800Y-102673583D01*
X145838715Y-102537417D01*
X145785585Y-102409152D01*
X145708454Y-102293716D01*
X145610284Y-102195546D01*
X145494848Y-102118415D01*
X145366583Y-102065285D01*
X145230417Y-102038200D01*
X145091583Y-102038200D01*
X144955417Y-102065285D01*
X144827152Y-102118415D01*
X144711716Y-102195546D01*
X144613546Y-102293716D01*
X144536415Y-102409152D01*
X144483285Y-102537417D01*
X144456200Y-102673583D01*
X142949433Y-102673583D01*
X142986899Y-102662218D01*
X143039711Y-102633990D01*
X143086001Y-102596001D01*
X143123990Y-102549711D01*
X143152218Y-102496899D01*
X143169601Y-102439594D01*
X143175471Y-102380000D01*
X143174697Y-101986274D01*
X143870000Y-101986274D01*
X143929751Y-101980389D01*
X143987206Y-101962960D01*
X143995000Y-101958794D01*
X144002794Y-101962960D01*
X144060249Y-101980389D01*
X144120000Y-101986274D01*
X144970000Y-101986274D01*
X145029751Y-101980389D01*
X145087206Y-101962960D01*
X145095848Y-101958341D01*
X145103101Y-101962218D01*
X145160406Y-101979601D01*
X145220000Y-101985471D01*
X145493200Y-101984000D01*
X145569200Y-101908000D01*
X145569200Y-101205800D01*
X145549200Y-101205800D01*
X145549200Y-101054200D01*
X145569200Y-101054200D01*
X145569200Y-100352000D01*
X145493200Y-100276000D01*
X145220000Y-100274529D01*
X145160406Y-100280399D01*
X145103101Y-100297782D01*
X145095848Y-100301659D01*
X145087206Y-100297040D01*
X145029751Y-100279611D01*
X144970000Y-100273726D01*
X144716400Y-100273726D01*
X144716400Y-97856108D01*
X144759284Y-97827454D01*
X144857454Y-97729284D01*
X144934585Y-97613848D01*
X144987715Y-97485583D01*
X145014800Y-97349417D01*
X145014800Y-97210583D01*
X144987715Y-97074417D01*
X144934585Y-96946152D01*
X144876080Y-96858592D01*
X144879566Y-96862078D01*
X145010611Y-96949639D01*
X145156220Y-97009952D01*
X145310797Y-97040700D01*
X145468403Y-97040700D01*
X145622980Y-97009952D01*
X145768589Y-96949639D01*
X145899634Y-96862078D01*
X146011078Y-96750634D01*
X146098639Y-96619589D01*
X146158952Y-96473980D01*
X146189700Y-96319403D01*
X146189700Y-96161797D01*
X146158952Y-96007220D01*
X146098639Y-95861611D01*
X146011078Y-95730566D01*
X145899634Y-95619122D01*
X145768589Y-95531561D01*
X145622980Y-95471248D01*
X145468403Y-95440500D01*
X145310797Y-95440500D01*
X145156220Y-95471248D01*
X145010611Y-95531561D01*
X144879566Y-95619122D01*
X144768122Y-95730566D01*
X144680561Y-95861611D01*
X144620248Y-96007220D01*
X144589500Y-96161797D01*
X144589500Y-96319403D01*
X144620248Y-96473980D01*
X144680561Y-96619589D01*
X144753416Y-96728625D01*
X144643848Y-96655415D01*
X144515583Y-96602285D01*
X144379417Y-96575200D01*
X144240583Y-96575200D01*
X144104417Y-96602285D01*
X143976152Y-96655415D01*
X143860716Y-96732546D01*
X143762546Y-96830716D01*
X143685415Y-96946152D01*
X143632285Y-97074417D01*
X143605200Y-97210583D01*
X143605200Y-97349417D01*
X143632285Y-97485583D01*
X143685415Y-97613848D01*
X143762546Y-97729284D01*
X143860716Y-97827454D01*
X143903600Y-97856108D01*
X143903600Y-97865644D01*
X143903601Y-97865654D01*
X143903600Y-100277035D01*
X143870000Y-100273726D01*
X143120000Y-100273726D01*
X143060249Y-100279611D01*
X143002794Y-100297040D01*
X142994152Y-100301659D01*
X142986899Y-100297782D01*
X142929594Y-100280399D01*
X142870000Y-100274529D01*
X142436800Y-100276000D01*
X142360800Y-100352000D01*
X142209200Y-100352000D01*
X142133200Y-100276000D01*
X141826999Y-100274960D01*
X141826999Y-97742052D01*
X144626157Y-94942895D01*
X144670716Y-94987454D01*
X144786152Y-95064585D01*
X144914417Y-95117715D01*
X145050583Y-95144800D01*
X145189417Y-95144800D01*
X145325583Y-95117715D01*
X145453848Y-95064585D01*
X145569284Y-94987454D01*
X145667454Y-94889284D01*
X145744585Y-94773848D01*
X145797715Y-94645583D01*
X145824800Y-94509417D01*
X145824800Y-94370583D01*
X145797715Y-94234417D01*
X145744585Y-94106152D01*
X145667454Y-93990716D01*
X145569284Y-93892546D01*
X145557990Y-93885000D01*
X152831664Y-93885000D01*
X155714701Y-96768038D01*
M02*
