G04 #@! TF.GenerationSoftware,KiCad,Pcbnew,(5.1.5)-3*
G04 #@! TF.CreationDate,2020-04-21T17:30:06+02:00*
G04 #@! TF.ProjectId,Wegard_Logger,57656761-7264-45f4-9c6f-676765722e6b,rev?*
G04 #@! TF.SameCoordinates,Original*
G04 #@! TF.FileFunction,Copper,L2,Inr*
G04 #@! TF.FilePolarity,Positive*
%FSLAX46Y46*%
G04 Gerber Fmt 4.6, Leading zero omitted, Abs format (unit mm)*
G04 Created by KiCad (PCBNEW (5.1.5)-3) date 2020-04-21 17:30:06*
%MOMM*%
%LPD*%
G04 APERTURE LIST*
%ADD10C,0.800000*%
%ADD11C,0.736600*%
%ADD12C,0.254000*%
G04 APERTURE END LIST*
D10*
X149199600Y-94361000D03*
D11*
X154960000Y-101900000D03*
X146913600Y-105105200D03*
D10*
X142770000Y-97370000D03*
D11*
X152146000Y-96393000D03*
X145288000Y-105105194D03*
X152145994Y-97663000D03*
D10*
X150885504Y-104101766D03*
D11*
X150908681Y-106094079D03*
D10*
X151060000Y-110110000D03*
X142550000Y-112700000D03*
X147800000Y-111190000D03*
X143789400Y-108737400D03*
X155270200Y-109296200D03*
X145161000Y-102743000D03*
X152019000Y-95123000D03*
X145415000Y-103886006D03*
X150368000Y-105156000D03*
X151130000Y-103057678D03*
X154957814Y-107580000D03*
X147830000Y-102150000D03*
X149639410Y-98552000D03*
D11*
X148420000Y-107600000D03*
D10*
X147599400Y-98018600D03*
D11*
X145618200Y-98057710D03*
D10*
X153677190Y-109474000D03*
X145960002Y-112310000D03*
X145120000Y-94440000D03*
X144310000Y-97280000D03*
X147929599Y-94691199D03*
D11*
X147000000Y-103499998D03*
X148463000Y-103759000D03*
D10*
X146727964Y-110227964D03*
D11*
X149970000Y-107610000D03*
D12*
G36*
X146934373Y-94389301D02*
G01*
X146894599Y-94589260D01*
X146894599Y-94793138D01*
X146934373Y-94993097D01*
X147012394Y-95181455D01*
X147125662Y-95350973D01*
X147269825Y-95495136D01*
X147439343Y-95608404D01*
X147627701Y-95686425D01*
X147827660Y-95726199D01*
X148031538Y-95726199D01*
X148231497Y-95686425D01*
X148419855Y-95608404D01*
X148589373Y-95495136D01*
X148733536Y-95350973D01*
X148846804Y-95181455D01*
X148924825Y-94993097D01*
X148964599Y-94793138D01*
X148964599Y-94589260D01*
X148924825Y-94389301D01*
X148852709Y-94215200D01*
X149952891Y-94215200D01*
X149934202Y-94222941D01*
X149749076Y-94346639D01*
X149591639Y-94504076D01*
X149467941Y-94689202D01*
X149382737Y-94894904D01*
X149339300Y-95113275D01*
X149339300Y-95335925D01*
X149382737Y-95554296D01*
X149467941Y-95759998D01*
X149591639Y-95945124D01*
X149749076Y-96102561D01*
X149934202Y-96226259D01*
X149968824Y-96240600D01*
X149934202Y-96254941D01*
X149749076Y-96378639D01*
X149591639Y-96536076D01*
X149467941Y-96721202D01*
X149382737Y-96926904D01*
X149339300Y-97145275D01*
X149339300Y-97367925D01*
X149375367Y-97549244D01*
X149337512Y-97556774D01*
X149149154Y-97634795D01*
X148979636Y-97748063D01*
X148835473Y-97892226D01*
X148722205Y-98061744D01*
X148644184Y-98250102D01*
X148604410Y-98450061D01*
X148604410Y-98653939D01*
X148644184Y-98853898D01*
X148722205Y-99042256D01*
X148835473Y-99211774D01*
X148979636Y-99355937D01*
X149149154Y-99469205D01*
X149337512Y-99547226D01*
X149537471Y-99587000D01*
X149741349Y-99587000D01*
X149941308Y-99547226D01*
X150129666Y-99469205D01*
X150299184Y-99355937D01*
X150443347Y-99211774D01*
X150556615Y-99042256D01*
X150634636Y-98853898D01*
X150674410Y-98653939D01*
X150674410Y-98450061D01*
X150658767Y-98371416D01*
X150799296Y-98343463D01*
X151004998Y-98258259D01*
X151190124Y-98134561D01*
X151347561Y-97977124D01*
X151471259Y-97791998D01*
X151556463Y-97586296D01*
X151599900Y-97367925D01*
X151599900Y-97145275D01*
X151556463Y-96926904D01*
X151471259Y-96721202D01*
X151347561Y-96536076D01*
X151190124Y-96378639D01*
X151004998Y-96254941D01*
X150970376Y-96240600D01*
X151004998Y-96226259D01*
X151190124Y-96102561D01*
X151347561Y-95945124D01*
X151359563Y-95927162D01*
X151528744Y-96040205D01*
X151717102Y-96118226D01*
X151917061Y-96158000D01*
X152120939Y-96158000D01*
X152320898Y-96118226D01*
X152509256Y-96040205D01*
X152678774Y-95926937D01*
X152822937Y-95782774D01*
X152936205Y-95613256D01*
X153014226Y-95424898D01*
X153054000Y-95224939D01*
X153054000Y-95021061D01*
X153014226Y-94821102D01*
X152936205Y-94632744D01*
X152822937Y-94463226D01*
X152678774Y-94319063D01*
X152523332Y-94215200D01*
X152694891Y-94215200D01*
X155384501Y-96904811D01*
X155384501Y-106636463D01*
X155259712Y-106584774D01*
X155059753Y-106545000D01*
X154855875Y-106545000D01*
X154655916Y-106584774D01*
X154467558Y-106662795D01*
X154298040Y-106776063D01*
X154153877Y-106920226D01*
X154040609Y-107089744D01*
X153962588Y-107278102D01*
X153922814Y-107478061D01*
X153922814Y-107681939D01*
X153962588Y-107881898D01*
X154040609Y-108070256D01*
X154153877Y-108239774D01*
X154298040Y-108383937D01*
X154467558Y-108497205D01*
X154565086Y-108537603D01*
X154466263Y-108636426D01*
X154401000Y-108734099D01*
X154336964Y-108670063D01*
X154167446Y-108556795D01*
X153979088Y-108478774D01*
X153779129Y-108439000D01*
X153575251Y-108439000D01*
X153375292Y-108478774D01*
X153186934Y-108556795D01*
X153017416Y-108670063D01*
X152873253Y-108814226D01*
X152759985Y-108983744D01*
X152681964Y-109172102D01*
X152642190Y-109372061D01*
X152642190Y-109575939D01*
X152681964Y-109775898D01*
X152759985Y-109964256D01*
X152873253Y-110133774D01*
X153017416Y-110277937D01*
X153186934Y-110391205D01*
X153375292Y-110469226D01*
X153575251Y-110509000D01*
X153779129Y-110509000D01*
X153979088Y-110469226D01*
X154167446Y-110391205D01*
X154336964Y-110277937D01*
X154481127Y-110133774D01*
X154546390Y-110036101D01*
X154610426Y-110100137D01*
X154779944Y-110213405D01*
X154968302Y-110291426D01*
X155168261Y-110331200D01*
X155372139Y-110331200D01*
X155384500Y-110328741D01*
X155384500Y-116492000D01*
X141617700Y-116492000D01*
X141617700Y-112208061D01*
X144925002Y-112208061D01*
X144925002Y-112411939D01*
X144964776Y-112611898D01*
X145042797Y-112800256D01*
X145156065Y-112969774D01*
X145300228Y-113113937D01*
X145469746Y-113227205D01*
X145658104Y-113305226D01*
X145858063Y-113345000D01*
X146061941Y-113345000D01*
X146261900Y-113305226D01*
X146450258Y-113227205D01*
X146619776Y-113113937D01*
X146763939Y-112969774D01*
X146877207Y-112800256D01*
X146955228Y-112611898D01*
X146995002Y-112411939D01*
X146995002Y-112208061D01*
X146955228Y-112008102D01*
X146877207Y-111819744D01*
X146763939Y-111650226D01*
X146619776Y-111506063D01*
X146450258Y-111392795D01*
X146261900Y-111314774D01*
X146061941Y-111275000D01*
X145858063Y-111275000D01*
X145658104Y-111314774D01*
X145469746Y-111392795D01*
X145300228Y-111506063D01*
X145156065Y-111650226D01*
X145042797Y-111819744D01*
X144964776Y-112008102D01*
X144925002Y-112208061D01*
X141617700Y-112208061D01*
X141617700Y-110126025D01*
X145692964Y-110126025D01*
X145692964Y-110329903D01*
X145732738Y-110529862D01*
X145810759Y-110718220D01*
X145924027Y-110887738D01*
X146068190Y-111031901D01*
X146237708Y-111145169D01*
X146426066Y-111223190D01*
X146626025Y-111262964D01*
X146829903Y-111262964D01*
X147029862Y-111223190D01*
X147218220Y-111145169D01*
X147387738Y-111031901D01*
X147531901Y-110887738D01*
X147645169Y-110718220D01*
X147723190Y-110529862D01*
X147762964Y-110329903D01*
X147762964Y-110126025D01*
X147723190Y-109926066D01*
X147645169Y-109737708D01*
X147531901Y-109568190D01*
X147387738Y-109424027D01*
X147218220Y-109310759D01*
X147029862Y-109232738D01*
X146829903Y-109192964D01*
X146626025Y-109192964D01*
X146426066Y-109232738D01*
X146237708Y-109310759D01*
X146068190Y-109424027D01*
X145924027Y-109568190D01*
X145810759Y-109737708D01*
X145732738Y-109926066D01*
X145692964Y-110126025D01*
X141617700Y-110126025D01*
X141617700Y-108635461D01*
X142754400Y-108635461D01*
X142754400Y-108839339D01*
X142794174Y-109039298D01*
X142872195Y-109227656D01*
X142985463Y-109397174D01*
X143129626Y-109541337D01*
X143299144Y-109654605D01*
X143487502Y-109732626D01*
X143687461Y-109772400D01*
X143891339Y-109772400D01*
X144091298Y-109732626D01*
X144279656Y-109654605D01*
X144449174Y-109541337D01*
X144593337Y-109397174D01*
X144706605Y-109227656D01*
X144784626Y-109039298D01*
X144824400Y-108839339D01*
X144824400Y-108635461D01*
X144784626Y-108435502D01*
X144706605Y-108247144D01*
X144593337Y-108077626D01*
X144449174Y-107933463D01*
X144279656Y-107820195D01*
X144091298Y-107742174D01*
X143891339Y-107702400D01*
X143687461Y-107702400D01*
X143487502Y-107742174D01*
X143299144Y-107820195D01*
X143129626Y-107933463D01*
X142985463Y-108077626D01*
X142872195Y-108247144D01*
X142794174Y-108435502D01*
X142754400Y-108635461D01*
X141617700Y-108635461D01*
X141617700Y-107501184D01*
X147416700Y-107501184D01*
X147416700Y-107698816D01*
X147455256Y-107892652D01*
X147530887Y-108075241D01*
X147640686Y-108239567D01*
X147780433Y-108379314D01*
X147944759Y-108489113D01*
X148127348Y-108564744D01*
X148321184Y-108603300D01*
X148518816Y-108603300D01*
X148712652Y-108564744D01*
X148895241Y-108489113D01*
X149059567Y-108379314D01*
X149190136Y-108248745D01*
X149190686Y-108249567D01*
X149330433Y-108389314D01*
X149494759Y-108499113D01*
X149677348Y-108574744D01*
X149871184Y-108613300D01*
X150068816Y-108613300D01*
X150262652Y-108574744D01*
X150445241Y-108499113D01*
X150609567Y-108389314D01*
X150749314Y-108249567D01*
X150859113Y-108085241D01*
X150934744Y-107902652D01*
X150973300Y-107708816D01*
X150973300Y-107511184D01*
X150934744Y-107317348D01*
X150859113Y-107134759D01*
X150749314Y-106970433D01*
X150609567Y-106830686D01*
X150445241Y-106720887D01*
X150262652Y-106645256D01*
X150068816Y-106606700D01*
X149871184Y-106606700D01*
X149677348Y-106645256D01*
X149494759Y-106720887D01*
X149330433Y-106830686D01*
X149199864Y-106961255D01*
X149199314Y-106960433D01*
X149059567Y-106820686D01*
X148895241Y-106710887D01*
X148712652Y-106635256D01*
X148518816Y-106596700D01*
X148321184Y-106596700D01*
X148127348Y-106635256D01*
X147944759Y-106710887D01*
X147780433Y-106820686D01*
X147640686Y-106960433D01*
X147530887Y-107124759D01*
X147455256Y-107307348D01*
X147416700Y-107501184D01*
X141617700Y-107501184D01*
X141617700Y-105054061D01*
X149333000Y-105054061D01*
X149333000Y-105257939D01*
X149372774Y-105457898D01*
X149450795Y-105646256D01*
X149564063Y-105815774D01*
X149708226Y-105959937D01*
X149877744Y-106073205D01*
X150066102Y-106151226D01*
X150266061Y-106191000D01*
X150469939Y-106191000D01*
X150669898Y-106151226D01*
X150858256Y-106073205D01*
X151027774Y-105959937D01*
X151171937Y-105815774D01*
X151285205Y-105646256D01*
X151363226Y-105457898D01*
X151403000Y-105257939D01*
X151403000Y-105054061D01*
X151363226Y-104854102D01*
X151285205Y-104665744D01*
X151171937Y-104496226D01*
X151027774Y-104352063D01*
X150858256Y-104238795D01*
X150669898Y-104160774D01*
X150469939Y-104121000D01*
X150266061Y-104121000D01*
X150066102Y-104160774D01*
X149877744Y-104238795D01*
X149708226Y-104352063D01*
X149564063Y-104496226D01*
X149450795Y-104665744D01*
X149372774Y-104854102D01*
X149333000Y-105054061D01*
X141617700Y-105054061D01*
X141617700Y-102641061D01*
X144126000Y-102641061D01*
X144126000Y-102844939D01*
X144165774Y-103044898D01*
X144243795Y-103233256D01*
X144357063Y-103402774D01*
X144454518Y-103500229D01*
X144419774Y-103584108D01*
X144380000Y-103784067D01*
X144380000Y-103987945D01*
X144419774Y-104187904D01*
X144497795Y-104376262D01*
X144611063Y-104545780D01*
X144755226Y-104689943D01*
X144924744Y-104803211D01*
X145113102Y-104881232D01*
X145313061Y-104921006D01*
X145516939Y-104921006D01*
X145716898Y-104881232D01*
X145905256Y-104803211D01*
X146074774Y-104689943D01*
X146218937Y-104545780D01*
X146332205Y-104376262D01*
X146369777Y-104285556D01*
X146524759Y-104389111D01*
X146707348Y-104464742D01*
X146901184Y-104503298D01*
X147098816Y-104503298D01*
X147292652Y-104464742D01*
X147475241Y-104389111D01*
X147614980Y-104295741D01*
X147683686Y-104398567D01*
X147823433Y-104538314D01*
X147987759Y-104648113D01*
X148170348Y-104723744D01*
X148364184Y-104762300D01*
X148561816Y-104762300D01*
X148755652Y-104723744D01*
X148938241Y-104648113D01*
X149102567Y-104538314D01*
X149242314Y-104398567D01*
X149352113Y-104234241D01*
X149427744Y-104051652D01*
X149466300Y-103857816D01*
X149466300Y-103660184D01*
X149427744Y-103466348D01*
X149352113Y-103283759D01*
X149242314Y-103119433D01*
X149102567Y-102979686D01*
X149066728Y-102955739D01*
X150095000Y-102955739D01*
X150095000Y-103159617D01*
X150134774Y-103359576D01*
X150212795Y-103547934D01*
X150326063Y-103717452D01*
X150470226Y-103861615D01*
X150639744Y-103974883D01*
X150828102Y-104052904D01*
X151028061Y-104092678D01*
X151231939Y-104092678D01*
X151431898Y-104052904D01*
X151620256Y-103974883D01*
X151789774Y-103861615D01*
X151933937Y-103717452D01*
X152047205Y-103547934D01*
X152125226Y-103359576D01*
X152165000Y-103159617D01*
X152165000Y-102955739D01*
X152125226Y-102755780D01*
X152047205Y-102567422D01*
X151933937Y-102397904D01*
X151789774Y-102253741D01*
X151620256Y-102140473D01*
X151431898Y-102062452D01*
X151231939Y-102022678D01*
X151028061Y-102022678D01*
X150828102Y-102062452D01*
X150639744Y-102140473D01*
X150470226Y-102253741D01*
X150326063Y-102397904D01*
X150212795Y-102567422D01*
X150134774Y-102755780D01*
X150095000Y-102955739D01*
X149066728Y-102955739D01*
X148938241Y-102869887D01*
X148755652Y-102794256D01*
X148657368Y-102774706D01*
X148747205Y-102640256D01*
X148825226Y-102451898D01*
X148865000Y-102251939D01*
X148865000Y-102048061D01*
X148825226Y-101848102D01*
X148747205Y-101659744D01*
X148633937Y-101490226D01*
X148489774Y-101346063D01*
X148320256Y-101232795D01*
X148131898Y-101154774D01*
X147931939Y-101115000D01*
X147728061Y-101115000D01*
X147528102Y-101154774D01*
X147339744Y-101232795D01*
X147170226Y-101346063D01*
X147026063Y-101490226D01*
X146912795Y-101659744D01*
X146834774Y-101848102D01*
X146795000Y-102048061D01*
X146795000Y-102251939D01*
X146834774Y-102451898D01*
X146856973Y-102505492D01*
X146707348Y-102535254D01*
X146524759Y-102610885D01*
X146360433Y-102720684D01*
X146220686Y-102860431D01*
X146181149Y-102919603D01*
X146196000Y-102844939D01*
X146196000Y-102641061D01*
X146156226Y-102441102D01*
X146078205Y-102252744D01*
X145964937Y-102083226D01*
X145820774Y-101939063D01*
X145651256Y-101825795D01*
X145462898Y-101747774D01*
X145262939Y-101708000D01*
X145059061Y-101708000D01*
X144859102Y-101747774D01*
X144670744Y-101825795D01*
X144501226Y-101939063D01*
X144357063Y-102083226D01*
X144243795Y-102252744D01*
X144165774Y-102441102D01*
X144126000Y-102641061D01*
X141617700Y-102641061D01*
X141617700Y-96905013D01*
X144085000Y-94436606D01*
X144085000Y-94541939D01*
X144124774Y-94741898D01*
X144202795Y-94930256D01*
X144316063Y-95099774D01*
X144460226Y-95243937D01*
X144629744Y-95357205D01*
X144661398Y-95370317D01*
X144511639Y-95520076D01*
X144387941Y-95705202D01*
X144302737Y-95910904D01*
X144259300Y-96129275D01*
X144259300Y-96245000D01*
X144208061Y-96245000D01*
X144008102Y-96284774D01*
X143819744Y-96362795D01*
X143650226Y-96476063D01*
X143506063Y-96620226D01*
X143392795Y-96789744D01*
X143314774Y-96978102D01*
X143275000Y-97178061D01*
X143275000Y-97381939D01*
X143314774Y-97581898D01*
X143392795Y-97770256D01*
X143506063Y-97939774D01*
X143650226Y-98083937D01*
X143819744Y-98197205D01*
X144008102Y-98275226D01*
X144208061Y-98315000D01*
X144411939Y-98315000D01*
X144611898Y-98275226D01*
X144636485Y-98265042D01*
X144653456Y-98350362D01*
X144729087Y-98532951D01*
X144838886Y-98697277D01*
X144978633Y-98837024D01*
X145142959Y-98946823D01*
X145325548Y-99022454D01*
X145519384Y-99061010D01*
X145717016Y-99061010D01*
X145910852Y-99022454D01*
X146093441Y-98946823D01*
X146257767Y-98837024D01*
X146397514Y-98697277D01*
X146507313Y-98532951D01*
X146582944Y-98350362D01*
X146596529Y-98282064D01*
X146604174Y-98320498D01*
X146682195Y-98508856D01*
X146795463Y-98678374D01*
X146939626Y-98822537D01*
X147109144Y-98935805D01*
X147297502Y-99013826D01*
X147497461Y-99053600D01*
X147701339Y-99053600D01*
X147901298Y-99013826D01*
X148089656Y-98935805D01*
X148259174Y-98822537D01*
X148403337Y-98678374D01*
X148516605Y-98508856D01*
X148594626Y-98320498D01*
X148634400Y-98120539D01*
X148634400Y-97916661D01*
X148594626Y-97716702D01*
X148516605Y-97528344D01*
X148403337Y-97358826D01*
X148259174Y-97214663D01*
X148089656Y-97101395D01*
X147901298Y-97023374D01*
X147701339Y-96983600D01*
X147497461Y-96983600D01*
X147297502Y-97023374D01*
X147109144Y-97101395D01*
X146939626Y-97214663D01*
X146795463Y-97358826D01*
X146682195Y-97528344D01*
X146604174Y-97716702D01*
X146588750Y-97794246D01*
X146582944Y-97765058D01*
X146507313Y-97582469D01*
X146397514Y-97418143D01*
X146257767Y-97278396D01*
X146093441Y-97168597D01*
X146057513Y-97153715D01*
X146110124Y-97118561D01*
X146267561Y-96961124D01*
X146391259Y-96775998D01*
X146476463Y-96570296D01*
X146519900Y-96351925D01*
X146519900Y-96129275D01*
X146476463Y-95910904D01*
X146391259Y-95705202D01*
X146267561Y-95520076D01*
X146110124Y-95362639D01*
X145924998Y-95238941D01*
X145825842Y-95197869D01*
X145923937Y-95099774D01*
X146037205Y-94930256D01*
X146115226Y-94741898D01*
X146155000Y-94541939D01*
X146155000Y-94338061D01*
X146130562Y-94215200D01*
X147006489Y-94215200D01*
X146934373Y-94389301D01*
G37*
X146934373Y-94389301D02*
X146894599Y-94589260D01*
X146894599Y-94793138D01*
X146934373Y-94993097D01*
X147012394Y-95181455D01*
X147125662Y-95350973D01*
X147269825Y-95495136D01*
X147439343Y-95608404D01*
X147627701Y-95686425D01*
X147827660Y-95726199D01*
X148031538Y-95726199D01*
X148231497Y-95686425D01*
X148419855Y-95608404D01*
X148589373Y-95495136D01*
X148733536Y-95350973D01*
X148846804Y-95181455D01*
X148924825Y-94993097D01*
X148964599Y-94793138D01*
X148964599Y-94589260D01*
X148924825Y-94389301D01*
X148852709Y-94215200D01*
X149952891Y-94215200D01*
X149934202Y-94222941D01*
X149749076Y-94346639D01*
X149591639Y-94504076D01*
X149467941Y-94689202D01*
X149382737Y-94894904D01*
X149339300Y-95113275D01*
X149339300Y-95335925D01*
X149382737Y-95554296D01*
X149467941Y-95759998D01*
X149591639Y-95945124D01*
X149749076Y-96102561D01*
X149934202Y-96226259D01*
X149968824Y-96240600D01*
X149934202Y-96254941D01*
X149749076Y-96378639D01*
X149591639Y-96536076D01*
X149467941Y-96721202D01*
X149382737Y-96926904D01*
X149339300Y-97145275D01*
X149339300Y-97367925D01*
X149375367Y-97549244D01*
X149337512Y-97556774D01*
X149149154Y-97634795D01*
X148979636Y-97748063D01*
X148835473Y-97892226D01*
X148722205Y-98061744D01*
X148644184Y-98250102D01*
X148604410Y-98450061D01*
X148604410Y-98653939D01*
X148644184Y-98853898D01*
X148722205Y-99042256D01*
X148835473Y-99211774D01*
X148979636Y-99355937D01*
X149149154Y-99469205D01*
X149337512Y-99547226D01*
X149537471Y-99587000D01*
X149741349Y-99587000D01*
X149941308Y-99547226D01*
X150129666Y-99469205D01*
X150299184Y-99355937D01*
X150443347Y-99211774D01*
X150556615Y-99042256D01*
X150634636Y-98853898D01*
X150674410Y-98653939D01*
X150674410Y-98450061D01*
X150658767Y-98371416D01*
X150799296Y-98343463D01*
X151004998Y-98258259D01*
X151190124Y-98134561D01*
X151347561Y-97977124D01*
X151471259Y-97791998D01*
X151556463Y-97586296D01*
X151599900Y-97367925D01*
X151599900Y-97145275D01*
X151556463Y-96926904D01*
X151471259Y-96721202D01*
X151347561Y-96536076D01*
X151190124Y-96378639D01*
X151004998Y-96254941D01*
X150970376Y-96240600D01*
X151004998Y-96226259D01*
X151190124Y-96102561D01*
X151347561Y-95945124D01*
X151359563Y-95927162D01*
X151528744Y-96040205D01*
X151717102Y-96118226D01*
X151917061Y-96158000D01*
X152120939Y-96158000D01*
X152320898Y-96118226D01*
X152509256Y-96040205D01*
X152678774Y-95926937D01*
X152822937Y-95782774D01*
X152936205Y-95613256D01*
X153014226Y-95424898D01*
X153054000Y-95224939D01*
X153054000Y-95021061D01*
X153014226Y-94821102D01*
X152936205Y-94632744D01*
X152822937Y-94463226D01*
X152678774Y-94319063D01*
X152523332Y-94215200D01*
X152694891Y-94215200D01*
X155384501Y-96904811D01*
X155384501Y-106636463D01*
X155259712Y-106584774D01*
X155059753Y-106545000D01*
X154855875Y-106545000D01*
X154655916Y-106584774D01*
X154467558Y-106662795D01*
X154298040Y-106776063D01*
X154153877Y-106920226D01*
X154040609Y-107089744D01*
X153962588Y-107278102D01*
X153922814Y-107478061D01*
X153922814Y-107681939D01*
X153962588Y-107881898D01*
X154040609Y-108070256D01*
X154153877Y-108239774D01*
X154298040Y-108383937D01*
X154467558Y-108497205D01*
X154565086Y-108537603D01*
X154466263Y-108636426D01*
X154401000Y-108734099D01*
X154336964Y-108670063D01*
X154167446Y-108556795D01*
X153979088Y-108478774D01*
X153779129Y-108439000D01*
X153575251Y-108439000D01*
X153375292Y-108478774D01*
X153186934Y-108556795D01*
X153017416Y-108670063D01*
X152873253Y-108814226D01*
X152759985Y-108983744D01*
X152681964Y-109172102D01*
X152642190Y-109372061D01*
X152642190Y-109575939D01*
X152681964Y-109775898D01*
X152759985Y-109964256D01*
X152873253Y-110133774D01*
X153017416Y-110277937D01*
X153186934Y-110391205D01*
X153375292Y-110469226D01*
X153575251Y-110509000D01*
X153779129Y-110509000D01*
X153979088Y-110469226D01*
X154167446Y-110391205D01*
X154336964Y-110277937D01*
X154481127Y-110133774D01*
X154546390Y-110036101D01*
X154610426Y-110100137D01*
X154779944Y-110213405D01*
X154968302Y-110291426D01*
X155168261Y-110331200D01*
X155372139Y-110331200D01*
X155384500Y-110328741D01*
X155384500Y-116492000D01*
X141617700Y-116492000D01*
X141617700Y-112208061D01*
X144925002Y-112208061D01*
X144925002Y-112411939D01*
X144964776Y-112611898D01*
X145042797Y-112800256D01*
X145156065Y-112969774D01*
X145300228Y-113113937D01*
X145469746Y-113227205D01*
X145658104Y-113305226D01*
X145858063Y-113345000D01*
X146061941Y-113345000D01*
X146261900Y-113305226D01*
X146450258Y-113227205D01*
X146619776Y-113113937D01*
X146763939Y-112969774D01*
X146877207Y-112800256D01*
X146955228Y-112611898D01*
X146995002Y-112411939D01*
X146995002Y-112208061D01*
X146955228Y-112008102D01*
X146877207Y-111819744D01*
X146763939Y-111650226D01*
X146619776Y-111506063D01*
X146450258Y-111392795D01*
X146261900Y-111314774D01*
X146061941Y-111275000D01*
X145858063Y-111275000D01*
X145658104Y-111314774D01*
X145469746Y-111392795D01*
X145300228Y-111506063D01*
X145156065Y-111650226D01*
X145042797Y-111819744D01*
X144964776Y-112008102D01*
X144925002Y-112208061D01*
X141617700Y-112208061D01*
X141617700Y-110126025D01*
X145692964Y-110126025D01*
X145692964Y-110329903D01*
X145732738Y-110529862D01*
X145810759Y-110718220D01*
X145924027Y-110887738D01*
X146068190Y-111031901D01*
X146237708Y-111145169D01*
X146426066Y-111223190D01*
X146626025Y-111262964D01*
X146829903Y-111262964D01*
X147029862Y-111223190D01*
X147218220Y-111145169D01*
X147387738Y-111031901D01*
X147531901Y-110887738D01*
X147645169Y-110718220D01*
X147723190Y-110529862D01*
X147762964Y-110329903D01*
X147762964Y-110126025D01*
X147723190Y-109926066D01*
X147645169Y-109737708D01*
X147531901Y-109568190D01*
X147387738Y-109424027D01*
X147218220Y-109310759D01*
X147029862Y-109232738D01*
X146829903Y-109192964D01*
X146626025Y-109192964D01*
X146426066Y-109232738D01*
X146237708Y-109310759D01*
X146068190Y-109424027D01*
X145924027Y-109568190D01*
X145810759Y-109737708D01*
X145732738Y-109926066D01*
X145692964Y-110126025D01*
X141617700Y-110126025D01*
X141617700Y-108635461D01*
X142754400Y-108635461D01*
X142754400Y-108839339D01*
X142794174Y-109039298D01*
X142872195Y-109227656D01*
X142985463Y-109397174D01*
X143129626Y-109541337D01*
X143299144Y-109654605D01*
X143487502Y-109732626D01*
X143687461Y-109772400D01*
X143891339Y-109772400D01*
X144091298Y-109732626D01*
X144279656Y-109654605D01*
X144449174Y-109541337D01*
X144593337Y-109397174D01*
X144706605Y-109227656D01*
X144784626Y-109039298D01*
X144824400Y-108839339D01*
X144824400Y-108635461D01*
X144784626Y-108435502D01*
X144706605Y-108247144D01*
X144593337Y-108077626D01*
X144449174Y-107933463D01*
X144279656Y-107820195D01*
X144091298Y-107742174D01*
X143891339Y-107702400D01*
X143687461Y-107702400D01*
X143487502Y-107742174D01*
X143299144Y-107820195D01*
X143129626Y-107933463D01*
X142985463Y-108077626D01*
X142872195Y-108247144D01*
X142794174Y-108435502D01*
X142754400Y-108635461D01*
X141617700Y-108635461D01*
X141617700Y-107501184D01*
X147416700Y-107501184D01*
X147416700Y-107698816D01*
X147455256Y-107892652D01*
X147530887Y-108075241D01*
X147640686Y-108239567D01*
X147780433Y-108379314D01*
X147944759Y-108489113D01*
X148127348Y-108564744D01*
X148321184Y-108603300D01*
X148518816Y-108603300D01*
X148712652Y-108564744D01*
X148895241Y-108489113D01*
X149059567Y-108379314D01*
X149190136Y-108248745D01*
X149190686Y-108249567D01*
X149330433Y-108389314D01*
X149494759Y-108499113D01*
X149677348Y-108574744D01*
X149871184Y-108613300D01*
X150068816Y-108613300D01*
X150262652Y-108574744D01*
X150445241Y-108499113D01*
X150609567Y-108389314D01*
X150749314Y-108249567D01*
X150859113Y-108085241D01*
X150934744Y-107902652D01*
X150973300Y-107708816D01*
X150973300Y-107511184D01*
X150934744Y-107317348D01*
X150859113Y-107134759D01*
X150749314Y-106970433D01*
X150609567Y-106830686D01*
X150445241Y-106720887D01*
X150262652Y-106645256D01*
X150068816Y-106606700D01*
X149871184Y-106606700D01*
X149677348Y-106645256D01*
X149494759Y-106720887D01*
X149330433Y-106830686D01*
X149199864Y-106961255D01*
X149199314Y-106960433D01*
X149059567Y-106820686D01*
X148895241Y-106710887D01*
X148712652Y-106635256D01*
X148518816Y-106596700D01*
X148321184Y-106596700D01*
X148127348Y-106635256D01*
X147944759Y-106710887D01*
X147780433Y-106820686D01*
X147640686Y-106960433D01*
X147530887Y-107124759D01*
X147455256Y-107307348D01*
X147416700Y-107501184D01*
X141617700Y-107501184D01*
X141617700Y-105054061D01*
X149333000Y-105054061D01*
X149333000Y-105257939D01*
X149372774Y-105457898D01*
X149450795Y-105646256D01*
X149564063Y-105815774D01*
X149708226Y-105959937D01*
X149877744Y-106073205D01*
X150066102Y-106151226D01*
X150266061Y-106191000D01*
X150469939Y-106191000D01*
X150669898Y-106151226D01*
X150858256Y-106073205D01*
X151027774Y-105959937D01*
X151171937Y-105815774D01*
X151285205Y-105646256D01*
X151363226Y-105457898D01*
X151403000Y-105257939D01*
X151403000Y-105054061D01*
X151363226Y-104854102D01*
X151285205Y-104665744D01*
X151171937Y-104496226D01*
X151027774Y-104352063D01*
X150858256Y-104238795D01*
X150669898Y-104160774D01*
X150469939Y-104121000D01*
X150266061Y-104121000D01*
X150066102Y-104160774D01*
X149877744Y-104238795D01*
X149708226Y-104352063D01*
X149564063Y-104496226D01*
X149450795Y-104665744D01*
X149372774Y-104854102D01*
X149333000Y-105054061D01*
X141617700Y-105054061D01*
X141617700Y-102641061D01*
X144126000Y-102641061D01*
X144126000Y-102844939D01*
X144165774Y-103044898D01*
X144243795Y-103233256D01*
X144357063Y-103402774D01*
X144454518Y-103500229D01*
X144419774Y-103584108D01*
X144380000Y-103784067D01*
X144380000Y-103987945D01*
X144419774Y-104187904D01*
X144497795Y-104376262D01*
X144611063Y-104545780D01*
X144755226Y-104689943D01*
X144924744Y-104803211D01*
X145113102Y-104881232D01*
X145313061Y-104921006D01*
X145516939Y-104921006D01*
X145716898Y-104881232D01*
X145905256Y-104803211D01*
X146074774Y-104689943D01*
X146218937Y-104545780D01*
X146332205Y-104376262D01*
X146369777Y-104285556D01*
X146524759Y-104389111D01*
X146707348Y-104464742D01*
X146901184Y-104503298D01*
X147098816Y-104503298D01*
X147292652Y-104464742D01*
X147475241Y-104389111D01*
X147614980Y-104295741D01*
X147683686Y-104398567D01*
X147823433Y-104538314D01*
X147987759Y-104648113D01*
X148170348Y-104723744D01*
X148364184Y-104762300D01*
X148561816Y-104762300D01*
X148755652Y-104723744D01*
X148938241Y-104648113D01*
X149102567Y-104538314D01*
X149242314Y-104398567D01*
X149352113Y-104234241D01*
X149427744Y-104051652D01*
X149466300Y-103857816D01*
X149466300Y-103660184D01*
X149427744Y-103466348D01*
X149352113Y-103283759D01*
X149242314Y-103119433D01*
X149102567Y-102979686D01*
X149066728Y-102955739D01*
X150095000Y-102955739D01*
X150095000Y-103159617D01*
X150134774Y-103359576D01*
X150212795Y-103547934D01*
X150326063Y-103717452D01*
X150470226Y-103861615D01*
X150639744Y-103974883D01*
X150828102Y-104052904D01*
X151028061Y-104092678D01*
X151231939Y-104092678D01*
X151431898Y-104052904D01*
X151620256Y-103974883D01*
X151789774Y-103861615D01*
X151933937Y-103717452D01*
X152047205Y-103547934D01*
X152125226Y-103359576D01*
X152165000Y-103159617D01*
X152165000Y-102955739D01*
X152125226Y-102755780D01*
X152047205Y-102567422D01*
X151933937Y-102397904D01*
X151789774Y-102253741D01*
X151620256Y-102140473D01*
X151431898Y-102062452D01*
X151231939Y-102022678D01*
X151028061Y-102022678D01*
X150828102Y-102062452D01*
X150639744Y-102140473D01*
X150470226Y-102253741D01*
X150326063Y-102397904D01*
X150212795Y-102567422D01*
X150134774Y-102755780D01*
X150095000Y-102955739D01*
X149066728Y-102955739D01*
X148938241Y-102869887D01*
X148755652Y-102794256D01*
X148657368Y-102774706D01*
X148747205Y-102640256D01*
X148825226Y-102451898D01*
X148865000Y-102251939D01*
X148865000Y-102048061D01*
X148825226Y-101848102D01*
X148747205Y-101659744D01*
X148633937Y-101490226D01*
X148489774Y-101346063D01*
X148320256Y-101232795D01*
X148131898Y-101154774D01*
X147931939Y-101115000D01*
X147728061Y-101115000D01*
X147528102Y-101154774D01*
X147339744Y-101232795D01*
X147170226Y-101346063D01*
X147026063Y-101490226D01*
X146912795Y-101659744D01*
X146834774Y-101848102D01*
X146795000Y-102048061D01*
X146795000Y-102251939D01*
X146834774Y-102451898D01*
X146856973Y-102505492D01*
X146707348Y-102535254D01*
X146524759Y-102610885D01*
X146360433Y-102720684D01*
X146220686Y-102860431D01*
X146181149Y-102919603D01*
X146196000Y-102844939D01*
X146196000Y-102641061D01*
X146156226Y-102441102D01*
X146078205Y-102252744D01*
X145964937Y-102083226D01*
X145820774Y-101939063D01*
X145651256Y-101825795D01*
X145462898Y-101747774D01*
X145262939Y-101708000D01*
X145059061Y-101708000D01*
X144859102Y-101747774D01*
X144670744Y-101825795D01*
X144501226Y-101939063D01*
X144357063Y-102083226D01*
X144243795Y-102252744D01*
X144165774Y-102441102D01*
X144126000Y-102641061D01*
X141617700Y-102641061D01*
X141617700Y-96905013D01*
X144085000Y-94436606D01*
X144085000Y-94541939D01*
X144124774Y-94741898D01*
X144202795Y-94930256D01*
X144316063Y-95099774D01*
X144460226Y-95243937D01*
X144629744Y-95357205D01*
X144661398Y-95370317D01*
X144511639Y-95520076D01*
X144387941Y-95705202D01*
X144302737Y-95910904D01*
X144259300Y-96129275D01*
X144259300Y-96245000D01*
X144208061Y-96245000D01*
X144008102Y-96284774D01*
X143819744Y-96362795D01*
X143650226Y-96476063D01*
X143506063Y-96620226D01*
X143392795Y-96789744D01*
X143314774Y-96978102D01*
X143275000Y-97178061D01*
X143275000Y-97381939D01*
X143314774Y-97581898D01*
X143392795Y-97770256D01*
X143506063Y-97939774D01*
X143650226Y-98083937D01*
X143819744Y-98197205D01*
X144008102Y-98275226D01*
X144208061Y-98315000D01*
X144411939Y-98315000D01*
X144611898Y-98275226D01*
X144636485Y-98265042D01*
X144653456Y-98350362D01*
X144729087Y-98532951D01*
X144838886Y-98697277D01*
X144978633Y-98837024D01*
X145142959Y-98946823D01*
X145325548Y-99022454D01*
X145519384Y-99061010D01*
X145717016Y-99061010D01*
X145910852Y-99022454D01*
X146093441Y-98946823D01*
X146257767Y-98837024D01*
X146397514Y-98697277D01*
X146507313Y-98532951D01*
X146582944Y-98350362D01*
X146596529Y-98282064D01*
X146604174Y-98320498D01*
X146682195Y-98508856D01*
X146795463Y-98678374D01*
X146939626Y-98822537D01*
X147109144Y-98935805D01*
X147297502Y-99013826D01*
X147497461Y-99053600D01*
X147701339Y-99053600D01*
X147901298Y-99013826D01*
X148089656Y-98935805D01*
X148259174Y-98822537D01*
X148403337Y-98678374D01*
X148516605Y-98508856D01*
X148594626Y-98320498D01*
X148634400Y-98120539D01*
X148634400Y-97916661D01*
X148594626Y-97716702D01*
X148516605Y-97528344D01*
X148403337Y-97358826D01*
X148259174Y-97214663D01*
X148089656Y-97101395D01*
X147901298Y-97023374D01*
X147701339Y-96983600D01*
X147497461Y-96983600D01*
X147297502Y-97023374D01*
X147109144Y-97101395D01*
X146939626Y-97214663D01*
X146795463Y-97358826D01*
X146682195Y-97528344D01*
X146604174Y-97716702D01*
X146588750Y-97794246D01*
X146582944Y-97765058D01*
X146507313Y-97582469D01*
X146397514Y-97418143D01*
X146257767Y-97278396D01*
X146093441Y-97168597D01*
X146057513Y-97153715D01*
X146110124Y-97118561D01*
X146267561Y-96961124D01*
X146391259Y-96775998D01*
X146476463Y-96570296D01*
X146519900Y-96351925D01*
X146519900Y-96129275D01*
X146476463Y-95910904D01*
X146391259Y-95705202D01*
X146267561Y-95520076D01*
X146110124Y-95362639D01*
X145924998Y-95238941D01*
X145825842Y-95197869D01*
X145923937Y-95099774D01*
X146037205Y-94930256D01*
X146115226Y-94741898D01*
X146155000Y-94541939D01*
X146155000Y-94338061D01*
X146130562Y-94215200D01*
X147006489Y-94215200D01*
X146934373Y-94389301D01*
M02*
