G04 #@! TF.GenerationSoftware,KiCad,Pcbnew,(5.1.5)-3*
G04 #@! TF.CreationDate,2020-04-21T17:30:06+02:00*
G04 #@! TF.ProjectId,Wegard_Logger,57656761-7264-45f4-9c6f-676765722e6b,rev?*
G04 #@! TF.SameCoordinates,Original*
G04 #@! TF.FileFunction,Paste,Top*
G04 #@! TF.FilePolarity,Positive*
%FSLAX46Y46*%
G04 Gerber Fmt 4.6, Leading zero omitted, Abs format (unit mm)*
G04 Created by KiCad (PCBNEW (5.1.5)-3) date 2020-04-21 17:30:06*
%MOMM*%
%LPD*%
G04 APERTURE LIST*
%ADD10R,1.060000X0.650000*%
%ADD11C,0.100000*%
%ADD12R,1.900000X0.400000*%
%ADD13R,1.846667X3.480000*%
%ADD14R,0.558800X1.270000*%
%ADD15R,1.270000X0.558800*%
%ADD16R,1.000000X1.100000*%
G04 APERTURE END LIST*
D10*
X154714121Y-108501141D03*
X154714121Y-110401141D03*
X152514121Y-110401141D03*
X152514121Y-109451141D03*
X152514121Y-108501141D03*
D11*
G36*
X149541491Y-111590853D02*
G01*
X149562726Y-111594003D01*
X149583550Y-111599219D01*
X149603762Y-111606451D01*
X149623168Y-111615630D01*
X149641581Y-111626666D01*
X149658824Y-111639454D01*
X149674730Y-111653870D01*
X149689146Y-111669776D01*
X149701934Y-111687019D01*
X149712970Y-111705432D01*
X149722149Y-111724838D01*
X149729381Y-111745050D01*
X149734597Y-111765874D01*
X149737747Y-111787109D01*
X149738800Y-111808550D01*
X149738800Y-112321050D01*
X149737747Y-112342491D01*
X149734597Y-112363726D01*
X149729381Y-112384550D01*
X149722149Y-112404762D01*
X149712970Y-112424168D01*
X149701934Y-112442581D01*
X149689146Y-112459824D01*
X149674730Y-112475730D01*
X149658824Y-112490146D01*
X149641581Y-112502934D01*
X149623168Y-112513970D01*
X149603762Y-112523149D01*
X149583550Y-112530381D01*
X149562726Y-112535597D01*
X149541491Y-112538747D01*
X149520050Y-112539800D01*
X149082550Y-112539800D01*
X149061109Y-112538747D01*
X149039874Y-112535597D01*
X149019050Y-112530381D01*
X148998838Y-112523149D01*
X148979432Y-112513970D01*
X148961019Y-112502934D01*
X148943776Y-112490146D01*
X148927870Y-112475730D01*
X148913454Y-112459824D01*
X148900666Y-112442581D01*
X148889630Y-112424168D01*
X148880451Y-112404762D01*
X148873219Y-112384550D01*
X148868003Y-112363726D01*
X148864853Y-112342491D01*
X148863800Y-112321050D01*
X148863800Y-111808550D01*
X148864853Y-111787109D01*
X148868003Y-111765874D01*
X148873219Y-111745050D01*
X148880451Y-111724838D01*
X148889630Y-111705432D01*
X148900666Y-111687019D01*
X148913454Y-111669776D01*
X148927870Y-111653870D01*
X148943776Y-111639454D01*
X148961019Y-111626666D01*
X148979432Y-111615630D01*
X148998838Y-111606451D01*
X149019050Y-111599219D01*
X149039874Y-111594003D01*
X149061109Y-111590853D01*
X149082550Y-111589800D01*
X149520050Y-111589800D01*
X149541491Y-111590853D01*
G37*
G36*
X147966491Y-111590853D02*
G01*
X147987726Y-111594003D01*
X148008550Y-111599219D01*
X148028762Y-111606451D01*
X148048168Y-111615630D01*
X148066581Y-111626666D01*
X148083824Y-111639454D01*
X148099730Y-111653870D01*
X148114146Y-111669776D01*
X148126934Y-111687019D01*
X148137970Y-111705432D01*
X148147149Y-111724838D01*
X148154381Y-111745050D01*
X148159597Y-111765874D01*
X148162747Y-111787109D01*
X148163800Y-111808550D01*
X148163800Y-112321050D01*
X148162747Y-112342491D01*
X148159597Y-112363726D01*
X148154381Y-112384550D01*
X148147149Y-112404762D01*
X148137970Y-112424168D01*
X148126934Y-112442581D01*
X148114146Y-112459824D01*
X148099730Y-112475730D01*
X148083824Y-112490146D01*
X148066581Y-112502934D01*
X148048168Y-112513970D01*
X148028762Y-112523149D01*
X148008550Y-112530381D01*
X147987726Y-112535597D01*
X147966491Y-112538747D01*
X147945050Y-112539800D01*
X147507550Y-112539800D01*
X147486109Y-112538747D01*
X147464874Y-112535597D01*
X147444050Y-112530381D01*
X147423838Y-112523149D01*
X147404432Y-112513970D01*
X147386019Y-112502934D01*
X147368776Y-112490146D01*
X147352870Y-112475730D01*
X147338454Y-112459824D01*
X147325666Y-112442581D01*
X147314630Y-112424168D01*
X147305451Y-112404762D01*
X147298219Y-112384550D01*
X147293003Y-112363726D01*
X147289853Y-112342491D01*
X147288800Y-112321050D01*
X147288800Y-111808550D01*
X147289853Y-111787109D01*
X147293003Y-111765874D01*
X147298219Y-111745050D01*
X147305451Y-111724838D01*
X147314630Y-111705432D01*
X147325666Y-111687019D01*
X147338454Y-111669776D01*
X147352870Y-111653870D01*
X147368776Y-111639454D01*
X147386019Y-111626666D01*
X147404432Y-111615630D01*
X147423838Y-111606451D01*
X147444050Y-111599219D01*
X147464874Y-111594003D01*
X147486109Y-111590853D01*
X147507550Y-111589800D01*
X147945050Y-111589800D01*
X147966491Y-111590853D01*
G37*
G36*
X153021291Y-111565453D02*
G01*
X153042526Y-111568603D01*
X153063350Y-111573819D01*
X153083562Y-111581051D01*
X153102968Y-111590230D01*
X153121381Y-111601266D01*
X153138624Y-111614054D01*
X153154530Y-111628470D01*
X153168946Y-111644376D01*
X153181734Y-111661619D01*
X153192770Y-111680032D01*
X153201949Y-111699438D01*
X153209181Y-111719650D01*
X153214397Y-111740474D01*
X153217547Y-111761709D01*
X153218600Y-111783150D01*
X153218600Y-112295650D01*
X153217547Y-112317091D01*
X153214397Y-112338326D01*
X153209181Y-112359150D01*
X153201949Y-112379362D01*
X153192770Y-112398768D01*
X153181734Y-112417181D01*
X153168946Y-112434424D01*
X153154530Y-112450330D01*
X153138624Y-112464746D01*
X153121381Y-112477534D01*
X153102968Y-112488570D01*
X153083562Y-112497749D01*
X153063350Y-112504981D01*
X153042526Y-112510197D01*
X153021291Y-112513347D01*
X152999850Y-112514400D01*
X152562350Y-112514400D01*
X152540909Y-112513347D01*
X152519674Y-112510197D01*
X152498850Y-112504981D01*
X152478638Y-112497749D01*
X152459232Y-112488570D01*
X152440819Y-112477534D01*
X152423576Y-112464746D01*
X152407670Y-112450330D01*
X152393254Y-112434424D01*
X152380466Y-112417181D01*
X152369430Y-112398768D01*
X152360251Y-112379362D01*
X152353019Y-112359150D01*
X152347803Y-112338326D01*
X152344653Y-112317091D01*
X152343600Y-112295650D01*
X152343600Y-111783150D01*
X152344653Y-111761709D01*
X152347803Y-111740474D01*
X152353019Y-111719650D01*
X152360251Y-111699438D01*
X152369430Y-111680032D01*
X152380466Y-111661619D01*
X152393254Y-111644376D01*
X152407670Y-111628470D01*
X152423576Y-111614054D01*
X152440819Y-111601266D01*
X152459232Y-111590230D01*
X152478638Y-111581051D01*
X152498850Y-111573819D01*
X152519674Y-111568603D01*
X152540909Y-111565453D01*
X152562350Y-111564400D01*
X152999850Y-111564400D01*
X153021291Y-111565453D01*
G37*
G36*
X151446291Y-111565453D02*
G01*
X151467526Y-111568603D01*
X151488350Y-111573819D01*
X151508562Y-111581051D01*
X151527968Y-111590230D01*
X151546381Y-111601266D01*
X151563624Y-111614054D01*
X151579530Y-111628470D01*
X151593946Y-111644376D01*
X151606734Y-111661619D01*
X151617770Y-111680032D01*
X151626949Y-111699438D01*
X151634181Y-111719650D01*
X151639397Y-111740474D01*
X151642547Y-111761709D01*
X151643600Y-111783150D01*
X151643600Y-112295650D01*
X151642547Y-112317091D01*
X151639397Y-112338326D01*
X151634181Y-112359150D01*
X151626949Y-112379362D01*
X151617770Y-112398768D01*
X151606734Y-112417181D01*
X151593946Y-112434424D01*
X151579530Y-112450330D01*
X151563624Y-112464746D01*
X151546381Y-112477534D01*
X151527968Y-112488570D01*
X151508562Y-112497749D01*
X151488350Y-112504981D01*
X151467526Y-112510197D01*
X151446291Y-112513347D01*
X151424850Y-112514400D01*
X150987350Y-112514400D01*
X150965909Y-112513347D01*
X150944674Y-112510197D01*
X150923850Y-112504981D01*
X150903638Y-112497749D01*
X150884232Y-112488570D01*
X150865819Y-112477534D01*
X150848576Y-112464746D01*
X150832670Y-112450330D01*
X150818254Y-112434424D01*
X150805466Y-112417181D01*
X150794430Y-112398768D01*
X150785251Y-112379362D01*
X150778019Y-112359150D01*
X150772803Y-112338326D01*
X150769653Y-112317091D01*
X150768600Y-112295650D01*
X150768600Y-111783150D01*
X150769653Y-111761709D01*
X150772803Y-111740474D01*
X150778019Y-111719650D01*
X150785251Y-111699438D01*
X150794430Y-111680032D01*
X150805466Y-111661619D01*
X150818254Y-111644376D01*
X150832670Y-111628470D01*
X150848576Y-111614054D01*
X150865819Y-111601266D01*
X150884232Y-111590230D01*
X150903638Y-111581051D01*
X150923850Y-111573819D01*
X150944674Y-111568603D01*
X150965909Y-111565453D01*
X150987350Y-111564400D01*
X151424850Y-111564400D01*
X151446291Y-111565453D01*
G37*
G36*
X142390691Y-103119253D02*
G01*
X142411926Y-103122403D01*
X142432750Y-103127619D01*
X142452962Y-103134851D01*
X142472368Y-103144030D01*
X142490781Y-103155066D01*
X142508024Y-103167854D01*
X142523930Y-103182270D01*
X142538346Y-103198176D01*
X142551134Y-103215419D01*
X142562170Y-103233832D01*
X142571349Y-103253238D01*
X142578581Y-103273450D01*
X142583797Y-103294274D01*
X142586947Y-103315509D01*
X142588000Y-103336950D01*
X142588000Y-103774450D01*
X142586947Y-103795891D01*
X142583797Y-103817126D01*
X142578581Y-103837950D01*
X142571349Y-103858162D01*
X142562170Y-103877568D01*
X142551134Y-103895981D01*
X142538346Y-103913224D01*
X142523930Y-103929130D01*
X142508024Y-103943546D01*
X142490781Y-103956334D01*
X142472368Y-103967370D01*
X142452962Y-103976549D01*
X142432750Y-103983781D01*
X142411926Y-103988997D01*
X142390691Y-103992147D01*
X142369250Y-103993200D01*
X141856750Y-103993200D01*
X141835309Y-103992147D01*
X141814074Y-103988997D01*
X141793250Y-103983781D01*
X141773038Y-103976549D01*
X141753632Y-103967370D01*
X141735219Y-103956334D01*
X141717976Y-103943546D01*
X141702070Y-103929130D01*
X141687654Y-103913224D01*
X141674866Y-103895981D01*
X141663830Y-103877568D01*
X141654651Y-103858162D01*
X141647419Y-103837950D01*
X141642203Y-103817126D01*
X141639053Y-103795891D01*
X141638000Y-103774450D01*
X141638000Y-103336950D01*
X141639053Y-103315509D01*
X141642203Y-103294274D01*
X141647419Y-103273450D01*
X141654651Y-103253238D01*
X141663830Y-103233832D01*
X141674866Y-103215419D01*
X141687654Y-103198176D01*
X141702070Y-103182270D01*
X141717976Y-103167854D01*
X141735219Y-103155066D01*
X141753632Y-103144030D01*
X141773038Y-103134851D01*
X141793250Y-103127619D01*
X141814074Y-103122403D01*
X141835309Y-103119253D01*
X141856750Y-103118200D01*
X142369250Y-103118200D01*
X142390691Y-103119253D01*
G37*
G36*
X142390691Y-104694253D02*
G01*
X142411926Y-104697403D01*
X142432750Y-104702619D01*
X142452962Y-104709851D01*
X142472368Y-104719030D01*
X142490781Y-104730066D01*
X142508024Y-104742854D01*
X142523930Y-104757270D01*
X142538346Y-104773176D01*
X142551134Y-104790419D01*
X142562170Y-104808832D01*
X142571349Y-104828238D01*
X142578581Y-104848450D01*
X142583797Y-104869274D01*
X142586947Y-104890509D01*
X142588000Y-104911950D01*
X142588000Y-105349450D01*
X142586947Y-105370891D01*
X142583797Y-105392126D01*
X142578581Y-105412950D01*
X142571349Y-105433162D01*
X142562170Y-105452568D01*
X142551134Y-105470981D01*
X142538346Y-105488224D01*
X142523930Y-105504130D01*
X142508024Y-105518546D01*
X142490781Y-105531334D01*
X142472368Y-105542370D01*
X142452962Y-105551549D01*
X142432750Y-105558781D01*
X142411926Y-105563997D01*
X142390691Y-105567147D01*
X142369250Y-105568200D01*
X141856750Y-105568200D01*
X141835309Y-105567147D01*
X141814074Y-105563997D01*
X141793250Y-105558781D01*
X141773038Y-105551549D01*
X141753632Y-105542370D01*
X141735219Y-105531334D01*
X141717976Y-105518546D01*
X141702070Y-105504130D01*
X141687654Y-105488224D01*
X141674866Y-105470981D01*
X141663830Y-105452568D01*
X141654651Y-105433162D01*
X141647419Y-105412950D01*
X141642203Y-105392126D01*
X141639053Y-105370891D01*
X141638000Y-105349450D01*
X141638000Y-104911950D01*
X141639053Y-104890509D01*
X141642203Y-104869274D01*
X141647419Y-104848450D01*
X141654651Y-104828238D01*
X141663830Y-104808832D01*
X141674866Y-104790419D01*
X141687654Y-104773176D01*
X141702070Y-104757270D01*
X141717976Y-104742854D01*
X141735219Y-104730066D01*
X141753632Y-104719030D01*
X141773038Y-104709851D01*
X141793250Y-104702619D01*
X141814074Y-104697403D01*
X141835309Y-104694253D01*
X141856750Y-104693200D01*
X142369250Y-104693200D01*
X142390691Y-104694253D01*
G37*
G36*
X142177831Y-99604591D02*
G01*
X142199066Y-99607741D01*
X142219890Y-99612957D01*
X142240102Y-99620189D01*
X142259508Y-99629368D01*
X142277921Y-99640404D01*
X142295164Y-99653192D01*
X142311070Y-99667608D01*
X142325486Y-99683514D01*
X142338274Y-99700757D01*
X142349310Y-99719170D01*
X142358489Y-99738576D01*
X142365721Y-99758788D01*
X142370937Y-99779612D01*
X142374087Y-99800847D01*
X142375140Y-99822288D01*
X142375140Y-100334788D01*
X142374087Y-100356229D01*
X142370937Y-100377464D01*
X142365721Y-100398288D01*
X142358489Y-100418500D01*
X142349310Y-100437906D01*
X142338274Y-100456319D01*
X142325486Y-100473562D01*
X142311070Y-100489468D01*
X142295164Y-100503884D01*
X142277921Y-100516672D01*
X142259508Y-100527708D01*
X142240102Y-100536887D01*
X142219890Y-100544119D01*
X142199066Y-100549335D01*
X142177831Y-100552485D01*
X142156390Y-100553538D01*
X141718890Y-100553538D01*
X141697449Y-100552485D01*
X141676214Y-100549335D01*
X141655390Y-100544119D01*
X141635178Y-100536887D01*
X141615772Y-100527708D01*
X141597359Y-100516672D01*
X141580116Y-100503884D01*
X141564210Y-100489468D01*
X141549794Y-100473562D01*
X141537006Y-100456319D01*
X141525970Y-100437906D01*
X141516791Y-100418500D01*
X141509559Y-100398288D01*
X141504343Y-100377464D01*
X141501193Y-100356229D01*
X141500140Y-100334788D01*
X141500140Y-99822288D01*
X141501193Y-99800847D01*
X141504343Y-99779612D01*
X141509559Y-99758788D01*
X141516791Y-99738576D01*
X141525970Y-99719170D01*
X141537006Y-99700757D01*
X141549794Y-99683514D01*
X141564210Y-99667608D01*
X141580116Y-99653192D01*
X141597359Y-99640404D01*
X141615772Y-99629368D01*
X141635178Y-99620189D01*
X141655390Y-99612957D01*
X141676214Y-99607741D01*
X141697449Y-99604591D01*
X141718890Y-99603538D01*
X142156390Y-99603538D01*
X142177831Y-99604591D01*
G37*
G36*
X143752831Y-99604591D02*
G01*
X143774066Y-99607741D01*
X143794890Y-99612957D01*
X143815102Y-99620189D01*
X143834508Y-99629368D01*
X143852921Y-99640404D01*
X143870164Y-99653192D01*
X143886070Y-99667608D01*
X143900486Y-99683514D01*
X143913274Y-99700757D01*
X143924310Y-99719170D01*
X143933489Y-99738576D01*
X143940721Y-99758788D01*
X143945937Y-99779612D01*
X143949087Y-99800847D01*
X143950140Y-99822288D01*
X143950140Y-100334788D01*
X143949087Y-100356229D01*
X143945937Y-100377464D01*
X143940721Y-100398288D01*
X143933489Y-100418500D01*
X143924310Y-100437906D01*
X143913274Y-100456319D01*
X143900486Y-100473562D01*
X143886070Y-100489468D01*
X143870164Y-100503884D01*
X143852921Y-100516672D01*
X143834508Y-100527708D01*
X143815102Y-100536887D01*
X143794890Y-100544119D01*
X143774066Y-100549335D01*
X143752831Y-100552485D01*
X143731390Y-100553538D01*
X143293890Y-100553538D01*
X143272449Y-100552485D01*
X143251214Y-100549335D01*
X143230390Y-100544119D01*
X143210178Y-100536887D01*
X143190772Y-100527708D01*
X143172359Y-100516672D01*
X143155116Y-100503884D01*
X143139210Y-100489468D01*
X143124794Y-100473562D01*
X143112006Y-100456319D01*
X143100970Y-100437906D01*
X143091791Y-100418500D01*
X143084559Y-100398288D01*
X143079343Y-100377464D01*
X143076193Y-100356229D01*
X143075140Y-100334788D01*
X143075140Y-99822288D01*
X143076193Y-99800847D01*
X143079343Y-99779612D01*
X143084559Y-99758788D01*
X143091791Y-99738576D01*
X143100970Y-99719170D01*
X143112006Y-99700757D01*
X143124794Y-99683514D01*
X143139210Y-99667608D01*
X143155116Y-99653192D01*
X143172359Y-99640404D01*
X143190772Y-99629368D01*
X143210178Y-99620189D01*
X143230390Y-99612957D01*
X143251214Y-99607741D01*
X143272449Y-99604591D01*
X143293890Y-99603538D01*
X143731390Y-99603538D01*
X143752831Y-99604591D01*
G37*
G36*
X142289091Y-111196653D02*
G01*
X142310326Y-111199803D01*
X142331150Y-111205019D01*
X142351362Y-111212251D01*
X142370768Y-111221430D01*
X142389181Y-111232466D01*
X142406424Y-111245254D01*
X142422330Y-111259670D01*
X142436746Y-111275576D01*
X142449534Y-111292819D01*
X142460570Y-111311232D01*
X142469749Y-111330638D01*
X142476981Y-111350850D01*
X142482197Y-111371674D01*
X142485347Y-111392909D01*
X142486400Y-111414350D01*
X142486400Y-111851850D01*
X142485347Y-111873291D01*
X142482197Y-111894526D01*
X142476981Y-111915350D01*
X142469749Y-111935562D01*
X142460570Y-111954968D01*
X142449534Y-111973381D01*
X142436746Y-111990624D01*
X142422330Y-112006530D01*
X142406424Y-112020946D01*
X142389181Y-112033734D01*
X142370768Y-112044770D01*
X142351362Y-112053949D01*
X142331150Y-112061181D01*
X142310326Y-112066397D01*
X142289091Y-112069547D01*
X142267650Y-112070600D01*
X141755150Y-112070600D01*
X141733709Y-112069547D01*
X141712474Y-112066397D01*
X141691650Y-112061181D01*
X141671438Y-112053949D01*
X141652032Y-112044770D01*
X141633619Y-112033734D01*
X141616376Y-112020946D01*
X141600470Y-112006530D01*
X141586054Y-111990624D01*
X141573266Y-111973381D01*
X141562230Y-111954968D01*
X141553051Y-111935562D01*
X141545819Y-111915350D01*
X141540603Y-111894526D01*
X141537453Y-111873291D01*
X141536400Y-111851850D01*
X141536400Y-111414350D01*
X141537453Y-111392909D01*
X141540603Y-111371674D01*
X141545819Y-111350850D01*
X141553051Y-111330638D01*
X141562230Y-111311232D01*
X141573266Y-111292819D01*
X141586054Y-111275576D01*
X141600470Y-111259670D01*
X141616376Y-111245254D01*
X141633619Y-111232466D01*
X141652032Y-111221430D01*
X141671438Y-111212251D01*
X141691650Y-111205019D01*
X141712474Y-111199803D01*
X141733709Y-111196653D01*
X141755150Y-111195600D01*
X142267650Y-111195600D01*
X142289091Y-111196653D01*
G37*
G36*
X142289091Y-109621653D02*
G01*
X142310326Y-109624803D01*
X142331150Y-109630019D01*
X142351362Y-109637251D01*
X142370768Y-109646430D01*
X142389181Y-109657466D01*
X142406424Y-109670254D01*
X142422330Y-109684670D01*
X142436746Y-109700576D01*
X142449534Y-109717819D01*
X142460570Y-109736232D01*
X142469749Y-109755638D01*
X142476981Y-109775850D01*
X142482197Y-109796674D01*
X142485347Y-109817909D01*
X142486400Y-109839350D01*
X142486400Y-110276850D01*
X142485347Y-110298291D01*
X142482197Y-110319526D01*
X142476981Y-110340350D01*
X142469749Y-110360562D01*
X142460570Y-110379968D01*
X142449534Y-110398381D01*
X142436746Y-110415624D01*
X142422330Y-110431530D01*
X142406424Y-110445946D01*
X142389181Y-110458734D01*
X142370768Y-110469770D01*
X142351362Y-110478949D01*
X142331150Y-110486181D01*
X142310326Y-110491397D01*
X142289091Y-110494547D01*
X142267650Y-110495600D01*
X141755150Y-110495600D01*
X141733709Y-110494547D01*
X141712474Y-110491397D01*
X141691650Y-110486181D01*
X141671438Y-110478949D01*
X141652032Y-110469770D01*
X141633619Y-110458734D01*
X141616376Y-110445946D01*
X141600470Y-110431530D01*
X141586054Y-110415624D01*
X141573266Y-110398381D01*
X141562230Y-110379968D01*
X141553051Y-110360562D01*
X141545819Y-110340350D01*
X141540603Y-110319526D01*
X141537453Y-110298291D01*
X141536400Y-110276850D01*
X141536400Y-109839350D01*
X141537453Y-109817909D01*
X141540603Y-109796674D01*
X141545819Y-109775850D01*
X141553051Y-109755638D01*
X141562230Y-109736232D01*
X141573266Y-109717819D01*
X141586054Y-109700576D01*
X141600470Y-109684670D01*
X141616376Y-109670254D01*
X141633619Y-109657466D01*
X141652032Y-109646430D01*
X141671438Y-109637251D01*
X141691650Y-109630019D01*
X141712474Y-109624803D01*
X141733709Y-109621653D01*
X141755150Y-109620600D01*
X142267650Y-109620600D01*
X142289091Y-109621653D01*
G37*
G36*
X153717047Y-98474300D02*
G01*
X153738282Y-98477450D01*
X153759106Y-98482666D01*
X153779318Y-98489898D01*
X153798724Y-98499077D01*
X153817137Y-98510113D01*
X153834380Y-98522901D01*
X153850286Y-98537317D01*
X153864702Y-98553223D01*
X153877490Y-98570466D01*
X153888526Y-98588879D01*
X153897705Y-98608285D01*
X153904937Y-98628497D01*
X153910153Y-98649321D01*
X153913303Y-98670556D01*
X153914356Y-98691997D01*
X153914356Y-99204497D01*
X153913303Y-99225938D01*
X153910153Y-99247173D01*
X153904937Y-99267997D01*
X153897705Y-99288209D01*
X153888526Y-99307615D01*
X153877490Y-99326028D01*
X153864702Y-99343271D01*
X153850286Y-99359177D01*
X153834380Y-99373593D01*
X153817137Y-99386381D01*
X153798724Y-99397417D01*
X153779318Y-99406596D01*
X153759106Y-99413828D01*
X153738282Y-99419044D01*
X153717047Y-99422194D01*
X153695606Y-99423247D01*
X153258106Y-99423247D01*
X153236665Y-99422194D01*
X153215430Y-99419044D01*
X153194606Y-99413828D01*
X153174394Y-99406596D01*
X153154988Y-99397417D01*
X153136575Y-99386381D01*
X153119332Y-99373593D01*
X153103426Y-99359177D01*
X153089010Y-99343271D01*
X153076222Y-99326028D01*
X153065186Y-99307615D01*
X153056007Y-99288209D01*
X153048775Y-99267997D01*
X153043559Y-99247173D01*
X153040409Y-99225938D01*
X153039356Y-99204497D01*
X153039356Y-98691997D01*
X153040409Y-98670556D01*
X153043559Y-98649321D01*
X153048775Y-98628497D01*
X153056007Y-98608285D01*
X153065186Y-98588879D01*
X153076222Y-98570466D01*
X153089010Y-98553223D01*
X153103426Y-98537317D01*
X153119332Y-98522901D01*
X153136575Y-98510113D01*
X153154988Y-98499077D01*
X153174394Y-98489898D01*
X153194606Y-98482666D01*
X153215430Y-98477450D01*
X153236665Y-98474300D01*
X153258106Y-98473247D01*
X153695606Y-98473247D01*
X153717047Y-98474300D01*
G37*
G36*
X155292047Y-98474300D02*
G01*
X155313282Y-98477450D01*
X155334106Y-98482666D01*
X155354318Y-98489898D01*
X155373724Y-98499077D01*
X155392137Y-98510113D01*
X155409380Y-98522901D01*
X155425286Y-98537317D01*
X155439702Y-98553223D01*
X155452490Y-98570466D01*
X155463526Y-98588879D01*
X155472705Y-98608285D01*
X155479937Y-98628497D01*
X155485153Y-98649321D01*
X155488303Y-98670556D01*
X155489356Y-98691997D01*
X155489356Y-99204497D01*
X155488303Y-99225938D01*
X155485153Y-99247173D01*
X155479937Y-99267997D01*
X155472705Y-99288209D01*
X155463526Y-99307615D01*
X155452490Y-99326028D01*
X155439702Y-99343271D01*
X155425286Y-99359177D01*
X155409380Y-99373593D01*
X155392137Y-99386381D01*
X155373724Y-99397417D01*
X155354318Y-99406596D01*
X155334106Y-99413828D01*
X155313282Y-99419044D01*
X155292047Y-99422194D01*
X155270606Y-99423247D01*
X154833106Y-99423247D01*
X154811665Y-99422194D01*
X154790430Y-99419044D01*
X154769606Y-99413828D01*
X154749394Y-99406596D01*
X154729988Y-99397417D01*
X154711575Y-99386381D01*
X154694332Y-99373593D01*
X154678426Y-99359177D01*
X154664010Y-99343271D01*
X154651222Y-99326028D01*
X154640186Y-99307615D01*
X154631007Y-99288209D01*
X154623775Y-99267997D01*
X154618559Y-99247173D01*
X154615409Y-99225938D01*
X154614356Y-99204497D01*
X154614356Y-98691997D01*
X154615409Y-98670556D01*
X154618559Y-98649321D01*
X154623775Y-98628497D01*
X154631007Y-98608285D01*
X154640186Y-98588879D01*
X154651222Y-98570466D01*
X154664010Y-98553223D01*
X154678426Y-98537317D01*
X154694332Y-98522901D01*
X154711575Y-98510113D01*
X154729988Y-98499077D01*
X154749394Y-98489898D01*
X154769606Y-98482666D01*
X154790430Y-98477450D01*
X154811665Y-98474300D01*
X154833106Y-98473247D01*
X155270606Y-98473247D01*
X155292047Y-98474300D01*
G37*
G36*
X144067091Y-109570853D02*
G01*
X144088326Y-109574003D01*
X144109150Y-109579219D01*
X144129362Y-109586451D01*
X144148768Y-109595630D01*
X144167181Y-109606666D01*
X144184424Y-109619454D01*
X144200330Y-109633870D01*
X144214746Y-109649776D01*
X144227534Y-109667019D01*
X144238570Y-109685432D01*
X144247749Y-109704838D01*
X144254981Y-109725050D01*
X144260197Y-109745874D01*
X144263347Y-109767109D01*
X144264400Y-109788550D01*
X144264400Y-110226050D01*
X144263347Y-110247491D01*
X144260197Y-110268726D01*
X144254981Y-110289550D01*
X144247749Y-110309762D01*
X144238570Y-110329168D01*
X144227534Y-110347581D01*
X144214746Y-110364824D01*
X144200330Y-110380730D01*
X144184424Y-110395146D01*
X144167181Y-110407934D01*
X144148768Y-110418970D01*
X144129362Y-110428149D01*
X144109150Y-110435381D01*
X144088326Y-110440597D01*
X144067091Y-110443747D01*
X144045650Y-110444800D01*
X143533150Y-110444800D01*
X143511709Y-110443747D01*
X143490474Y-110440597D01*
X143469650Y-110435381D01*
X143449438Y-110428149D01*
X143430032Y-110418970D01*
X143411619Y-110407934D01*
X143394376Y-110395146D01*
X143378470Y-110380730D01*
X143364054Y-110364824D01*
X143351266Y-110347581D01*
X143340230Y-110329168D01*
X143331051Y-110309762D01*
X143323819Y-110289550D01*
X143318603Y-110268726D01*
X143315453Y-110247491D01*
X143314400Y-110226050D01*
X143314400Y-109788550D01*
X143315453Y-109767109D01*
X143318603Y-109745874D01*
X143323819Y-109725050D01*
X143331051Y-109704838D01*
X143340230Y-109685432D01*
X143351266Y-109667019D01*
X143364054Y-109649776D01*
X143378470Y-109633870D01*
X143394376Y-109619454D01*
X143411619Y-109606666D01*
X143430032Y-109595630D01*
X143449438Y-109586451D01*
X143469650Y-109579219D01*
X143490474Y-109574003D01*
X143511709Y-109570853D01*
X143533150Y-109569800D01*
X144045650Y-109569800D01*
X144067091Y-109570853D01*
G37*
G36*
X144067091Y-111145853D02*
G01*
X144088326Y-111149003D01*
X144109150Y-111154219D01*
X144129362Y-111161451D01*
X144148768Y-111170630D01*
X144167181Y-111181666D01*
X144184424Y-111194454D01*
X144200330Y-111208870D01*
X144214746Y-111224776D01*
X144227534Y-111242019D01*
X144238570Y-111260432D01*
X144247749Y-111279838D01*
X144254981Y-111300050D01*
X144260197Y-111320874D01*
X144263347Y-111342109D01*
X144264400Y-111363550D01*
X144264400Y-111801050D01*
X144263347Y-111822491D01*
X144260197Y-111843726D01*
X144254981Y-111864550D01*
X144247749Y-111884762D01*
X144238570Y-111904168D01*
X144227534Y-111922581D01*
X144214746Y-111939824D01*
X144200330Y-111955730D01*
X144184424Y-111970146D01*
X144167181Y-111982934D01*
X144148768Y-111993970D01*
X144129362Y-112003149D01*
X144109150Y-112010381D01*
X144088326Y-112015597D01*
X144067091Y-112018747D01*
X144045650Y-112019800D01*
X143533150Y-112019800D01*
X143511709Y-112018747D01*
X143490474Y-112015597D01*
X143469650Y-112010381D01*
X143449438Y-112003149D01*
X143430032Y-111993970D01*
X143411619Y-111982934D01*
X143394376Y-111970146D01*
X143378470Y-111955730D01*
X143364054Y-111939824D01*
X143351266Y-111922581D01*
X143340230Y-111904168D01*
X143331051Y-111884762D01*
X143323819Y-111864550D01*
X143318603Y-111843726D01*
X143315453Y-111822491D01*
X143314400Y-111801050D01*
X143314400Y-111363550D01*
X143315453Y-111342109D01*
X143318603Y-111320874D01*
X143323819Y-111300050D01*
X143331051Y-111279838D01*
X143340230Y-111260432D01*
X143351266Y-111242019D01*
X143364054Y-111224776D01*
X143378470Y-111208870D01*
X143394376Y-111194454D01*
X143411619Y-111181666D01*
X143430032Y-111170630D01*
X143449438Y-111161451D01*
X143469650Y-111154219D01*
X143490474Y-111149003D01*
X143511709Y-111145853D01*
X143533150Y-111144800D01*
X144045650Y-111144800D01*
X144067091Y-111145853D01*
G37*
G36*
X155204991Y-105913453D02*
G01*
X155226226Y-105916603D01*
X155247050Y-105921819D01*
X155267262Y-105929051D01*
X155286668Y-105938230D01*
X155305081Y-105949266D01*
X155322324Y-105962054D01*
X155338230Y-105976470D01*
X155352646Y-105992376D01*
X155365434Y-106009619D01*
X155376470Y-106028032D01*
X155385649Y-106047438D01*
X155392881Y-106067650D01*
X155398097Y-106088474D01*
X155401247Y-106109709D01*
X155402300Y-106131150D01*
X155402300Y-106568650D01*
X155401247Y-106590091D01*
X155398097Y-106611326D01*
X155392881Y-106632150D01*
X155385649Y-106652362D01*
X155376470Y-106671768D01*
X155365434Y-106690181D01*
X155352646Y-106707424D01*
X155338230Y-106723330D01*
X155322324Y-106737746D01*
X155305081Y-106750534D01*
X155286668Y-106761570D01*
X155267262Y-106770749D01*
X155247050Y-106777981D01*
X155226226Y-106783197D01*
X155204991Y-106786347D01*
X155183550Y-106787400D01*
X154671050Y-106787400D01*
X154649609Y-106786347D01*
X154628374Y-106783197D01*
X154607550Y-106777981D01*
X154587338Y-106770749D01*
X154567932Y-106761570D01*
X154549519Y-106750534D01*
X154532276Y-106737746D01*
X154516370Y-106723330D01*
X154501954Y-106707424D01*
X154489166Y-106690181D01*
X154478130Y-106671768D01*
X154468951Y-106652362D01*
X154461719Y-106632150D01*
X154456503Y-106611326D01*
X154453353Y-106590091D01*
X154452300Y-106568650D01*
X154452300Y-106131150D01*
X154453353Y-106109709D01*
X154456503Y-106088474D01*
X154461719Y-106067650D01*
X154468951Y-106047438D01*
X154478130Y-106028032D01*
X154489166Y-106009619D01*
X154501954Y-105992376D01*
X154516370Y-105976470D01*
X154532276Y-105962054D01*
X154549519Y-105949266D01*
X154567932Y-105938230D01*
X154587338Y-105929051D01*
X154607550Y-105921819D01*
X154628374Y-105916603D01*
X154649609Y-105913453D01*
X154671050Y-105912400D01*
X155183550Y-105912400D01*
X155204991Y-105913453D01*
G37*
G36*
X155204991Y-104338453D02*
G01*
X155226226Y-104341603D01*
X155247050Y-104346819D01*
X155267262Y-104354051D01*
X155286668Y-104363230D01*
X155305081Y-104374266D01*
X155322324Y-104387054D01*
X155338230Y-104401470D01*
X155352646Y-104417376D01*
X155365434Y-104434619D01*
X155376470Y-104453032D01*
X155385649Y-104472438D01*
X155392881Y-104492650D01*
X155398097Y-104513474D01*
X155401247Y-104534709D01*
X155402300Y-104556150D01*
X155402300Y-104993650D01*
X155401247Y-105015091D01*
X155398097Y-105036326D01*
X155392881Y-105057150D01*
X155385649Y-105077362D01*
X155376470Y-105096768D01*
X155365434Y-105115181D01*
X155352646Y-105132424D01*
X155338230Y-105148330D01*
X155322324Y-105162746D01*
X155305081Y-105175534D01*
X155286668Y-105186570D01*
X155267262Y-105195749D01*
X155247050Y-105202981D01*
X155226226Y-105208197D01*
X155204991Y-105211347D01*
X155183550Y-105212400D01*
X154671050Y-105212400D01*
X154649609Y-105211347D01*
X154628374Y-105208197D01*
X154607550Y-105202981D01*
X154587338Y-105195749D01*
X154567932Y-105186570D01*
X154549519Y-105175534D01*
X154532276Y-105162746D01*
X154516370Y-105148330D01*
X154501954Y-105132424D01*
X154489166Y-105115181D01*
X154478130Y-105096768D01*
X154468951Y-105077362D01*
X154461719Y-105057150D01*
X154456503Y-105036326D01*
X154453353Y-105015091D01*
X154452300Y-104993650D01*
X154452300Y-104556150D01*
X154453353Y-104534709D01*
X154456503Y-104513474D01*
X154461719Y-104492650D01*
X154468951Y-104472438D01*
X154478130Y-104453032D01*
X154489166Y-104434619D01*
X154501954Y-104417376D01*
X154516370Y-104401470D01*
X154532276Y-104387054D01*
X154549519Y-104374266D01*
X154567932Y-104363230D01*
X154587338Y-104354051D01*
X154607550Y-104346819D01*
X154628374Y-104341603D01*
X154649609Y-104338453D01*
X154671050Y-104337400D01*
X155183550Y-104337400D01*
X155204991Y-104338453D01*
G37*
D12*
X154686000Y-103104800D03*
X154686000Y-101904800D03*
X154686000Y-100704800D03*
D13*
X152770400Y-115239800D03*
X150000400Y-115239800D03*
X147230400Y-115239800D03*
X144460400Y-115239800D03*
D11*
G36*
X142230621Y-98215282D02*
G01*
X142245182Y-98217442D01*
X142259461Y-98221019D01*
X142273321Y-98225978D01*
X142286628Y-98232272D01*
X142299254Y-98239840D01*
X142311077Y-98248608D01*
X142321984Y-98258494D01*
X142331870Y-98269401D01*
X142340638Y-98281224D01*
X142348206Y-98293850D01*
X142354500Y-98307157D01*
X142359459Y-98321017D01*
X142363036Y-98335296D01*
X142365196Y-98349857D01*
X142365918Y-98364560D01*
X142365918Y-99064560D01*
X142365196Y-99079263D01*
X142363036Y-99093824D01*
X142359459Y-99108103D01*
X142354500Y-99121963D01*
X142348206Y-99135270D01*
X142340638Y-99147896D01*
X142331870Y-99159719D01*
X142321984Y-99170626D01*
X142311077Y-99180512D01*
X142299254Y-99189280D01*
X142286628Y-99196848D01*
X142273321Y-99203142D01*
X142259461Y-99208101D01*
X142245182Y-99211678D01*
X142230621Y-99213838D01*
X142215918Y-99214560D01*
X141515918Y-99214560D01*
X141501215Y-99213838D01*
X141486654Y-99211678D01*
X141472375Y-99208101D01*
X141458515Y-99203142D01*
X141445208Y-99196848D01*
X141432582Y-99189280D01*
X141420759Y-99180512D01*
X141409852Y-99170626D01*
X141399966Y-99159719D01*
X141391198Y-99147896D01*
X141383630Y-99135270D01*
X141377336Y-99121963D01*
X141372377Y-99108103D01*
X141368800Y-99093824D01*
X141366640Y-99079263D01*
X141365918Y-99064560D01*
X141365918Y-98364560D01*
X141366640Y-98349857D01*
X141368800Y-98335296D01*
X141372377Y-98321017D01*
X141377336Y-98307157D01*
X141383630Y-98293850D01*
X141391198Y-98281224D01*
X141399966Y-98269401D01*
X141409852Y-98258494D01*
X141420759Y-98248608D01*
X141432582Y-98239840D01*
X141445208Y-98232272D01*
X141458515Y-98225978D01*
X141472375Y-98221019D01*
X141486654Y-98217442D01*
X141501215Y-98215282D01*
X141515918Y-98214560D01*
X142215918Y-98214560D01*
X142230621Y-98215282D01*
G37*
G36*
X143984621Y-98215282D02*
G01*
X143999182Y-98217442D01*
X144013461Y-98221019D01*
X144027321Y-98225978D01*
X144040628Y-98232272D01*
X144053254Y-98239840D01*
X144065077Y-98248608D01*
X144075984Y-98258494D01*
X144085870Y-98269401D01*
X144094638Y-98281224D01*
X144102206Y-98293850D01*
X144108500Y-98307157D01*
X144113459Y-98321017D01*
X144117036Y-98335296D01*
X144119196Y-98349857D01*
X144119918Y-98364560D01*
X144119918Y-99064560D01*
X144119196Y-99079263D01*
X144117036Y-99093824D01*
X144113459Y-99108103D01*
X144108500Y-99121963D01*
X144102206Y-99135270D01*
X144094638Y-99147896D01*
X144085870Y-99159719D01*
X144075984Y-99170626D01*
X144065077Y-99180512D01*
X144053254Y-99189280D01*
X144040628Y-99196848D01*
X144027321Y-99203142D01*
X144013461Y-99208101D01*
X143999182Y-99211678D01*
X143984621Y-99213838D01*
X143969918Y-99214560D01*
X143269918Y-99214560D01*
X143255215Y-99213838D01*
X143240654Y-99211678D01*
X143226375Y-99208101D01*
X143212515Y-99203142D01*
X143199208Y-99196848D01*
X143186582Y-99189280D01*
X143174759Y-99180512D01*
X143163852Y-99170626D01*
X143153966Y-99159719D01*
X143145198Y-99147896D01*
X143137630Y-99135270D01*
X143131336Y-99121963D01*
X143126377Y-99108103D01*
X143122800Y-99093824D01*
X143120640Y-99079263D01*
X143119918Y-99064560D01*
X143119918Y-98364560D01*
X143120640Y-98349857D01*
X143122800Y-98335296D01*
X143126377Y-98321017D01*
X143131336Y-98307157D01*
X143137630Y-98293850D01*
X143145198Y-98281224D01*
X143153966Y-98269401D01*
X143163852Y-98258494D01*
X143174759Y-98248608D01*
X143186582Y-98239840D01*
X143199208Y-98232272D01*
X143212515Y-98225978D01*
X143226375Y-98221019D01*
X143240654Y-98217442D01*
X143255215Y-98215282D01*
X143269918Y-98214560D01*
X143969918Y-98214560D01*
X143984621Y-98215282D01*
G37*
G36*
X155483199Y-97163722D02*
G01*
X155497760Y-97165882D01*
X155512039Y-97169459D01*
X155525899Y-97174418D01*
X155539206Y-97180712D01*
X155551832Y-97188280D01*
X155563655Y-97197048D01*
X155574562Y-97206934D01*
X155584448Y-97217841D01*
X155593216Y-97229664D01*
X155600784Y-97242290D01*
X155607078Y-97255597D01*
X155612037Y-97269457D01*
X155615614Y-97283736D01*
X155617774Y-97298297D01*
X155618496Y-97313000D01*
X155618496Y-98013000D01*
X155617774Y-98027703D01*
X155615614Y-98042264D01*
X155612037Y-98056543D01*
X155607078Y-98070403D01*
X155600784Y-98083710D01*
X155593216Y-98096336D01*
X155584448Y-98108159D01*
X155574562Y-98119066D01*
X155563655Y-98128952D01*
X155551832Y-98137720D01*
X155539206Y-98145288D01*
X155525899Y-98151582D01*
X155512039Y-98156541D01*
X155497760Y-98160118D01*
X155483199Y-98162278D01*
X155468496Y-98163000D01*
X154768496Y-98163000D01*
X154753793Y-98162278D01*
X154739232Y-98160118D01*
X154724953Y-98156541D01*
X154711093Y-98151582D01*
X154697786Y-98145288D01*
X154685160Y-98137720D01*
X154673337Y-98128952D01*
X154662430Y-98119066D01*
X154652544Y-98108159D01*
X154643776Y-98096336D01*
X154636208Y-98083710D01*
X154629914Y-98070403D01*
X154624955Y-98056543D01*
X154621378Y-98042264D01*
X154619218Y-98027703D01*
X154618496Y-98013000D01*
X154618496Y-97313000D01*
X154619218Y-97298297D01*
X154621378Y-97283736D01*
X154624955Y-97269457D01*
X154629914Y-97255597D01*
X154636208Y-97242290D01*
X154643776Y-97229664D01*
X154652544Y-97217841D01*
X154662430Y-97206934D01*
X154673337Y-97197048D01*
X154685160Y-97188280D01*
X154697786Y-97180712D01*
X154711093Y-97174418D01*
X154724953Y-97169459D01*
X154739232Y-97165882D01*
X154753793Y-97163722D01*
X154768496Y-97163000D01*
X155468496Y-97163000D01*
X155483199Y-97163722D01*
G37*
G36*
X153729199Y-97163722D02*
G01*
X153743760Y-97165882D01*
X153758039Y-97169459D01*
X153771899Y-97174418D01*
X153785206Y-97180712D01*
X153797832Y-97188280D01*
X153809655Y-97197048D01*
X153820562Y-97206934D01*
X153830448Y-97217841D01*
X153839216Y-97229664D01*
X153846784Y-97242290D01*
X153853078Y-97255597D01*
X153858037Y-97269457D01*
X153861614Y-97283736D01*
X153863774Y-97298297D01*
X153864496Y-97313000D01*
X153864496Y-98013000D01*
X153863774Y-98027703D01*
X153861614Y-98042264D01*
X153858037Y-98056543D01*
X153853078Y-98070403D01*
X153846784Y-98083710D01*
X153839216Y-98096336D01*
X153830448Y-98108159D01*
X153820562Y-98119066D01*
X153809655Y-98128952D01*
X153797832Y-98137720D01*
X153785206Y-98145288D01*
X153771899Y-98151582D01*
X153758039Y-98156541D01*
X153743760Y-98160118D01*
X153729199Y-98162278D01*
X153714496Y-98163000D01*
X153014496Y-98163000D01*
X152999793Y-98162278D01*
X152985232Y-98160118D01*
X152970953Y-98156541D01*
X152957093Y-98151582D01*
X152943786Y-98145288D01*
X152931160Y-98137720D01*
X152919337Y-98128952D01*
X152908430Y-98119066D01*
X152898544Y-98108159D01*
X152889776Y-98096336D01*
X152882208Y-98083710D01*
X152875914Y-98070403D01*
X152870955Y-98056543D01*
X152867378Y-98042264D01*
X152865218Y-98027703D01*
X152864496Y-98013000D01*
X152864496Y-97313000D01*
X152865218Y-97298297D01*
X152867378Y-97283736D01*
X152870955Y-97269457D01*
X152875914Y-97255597D01*
X152882208Y-97242290D01*
X152889776Y-97229664D01*
X152898544Y-97217841D01*
X152908430Y-97206934D01*
X152919337Y-97197048D01*
X152931160Y-97188280D01*
X152943786Y-97180712D01*
X152957093Y-97174418D01*
X152970953Y-97169459D01*
X152985232Y-97165882D01*
X152999793Y-97163722D01*
X153014496Y-97163000D01*
X153714496Y-97163000D01*
X153729199Y-97163722D01*
G37*
D14*
X150793100Y-108661200D03*
X149993100Y-108661200D03*
X149193100Y-108661200D03*
X148393100Y-108661200D03*
X147593100Y-108661200D03*
X146793100Y-108661200D03*
X145993100Y-108661200D03*
X145193100Y-108661200D03*
D15*
X143700500Y-107168600D03*
X143700500Y-106368600D03*
X143700500Y-105568600D03*
X143700500Y-104768600D03*
X143700500Y-103968600D03*
X143700500Y-103168600D03*
X143700500Y-102368600D03*
X143700500Y-101568600D03*
D14*
X145193100Y-100076000D03*
X145993100Y-100076000D03*
X146793100Y-100076000D03*
X147593100Y-100076000D03*
X148393100Y-100076000D03*
X149193100Y-100076000D03*
X149993100Y-100076000D03*
X150793100Y-100076000D03*
D15*
X152285700Y-101568600D03*
X152285700Y-102368600D03*
X152285700Y-103168600D03*
X152285700Y-103968600D03*
X152285700Y-104768600D03*
X152285700Y-105568600D03*
X152285700Y-106368600D03*
X152285700Y-107168600D03*
D16*
X153708100Y-104712400D03*
X153708100Y-106412400D03*
M02*
