G04 #@! TF.GenerationSoftware,KiCad,Pcbnew,(5.1.5)-3*
G04 #@! TF.CreationDate,2020-04-21T17:30:06+02:00*
G04 #@! TF.ProjectId,Wegard_Logger,57656761-7264-45f4-9c6f-676765722e6b,rev?*
G04 #@! TF.SameCoordinates,Original*
G04 #@! TF.FileFunction,Copper,L1,Top*
G04 #@! TF.FilePolarity,Positive*
%FSLAX46Y46*%
G04 Gerber Fmt 4.6, Leading zero omitted, Abs format (unit mm)*
G04 Created by KiCad (PCBNEW (5.1.5)-3) date 2020-04-21 17:30:06*
%MOMM*%
%LPD*%
G04 APERTURE LIST*
%ADD10R,1.060000X0.650000*%
%ADD11C,0.100000*%
%ADD12C,0.787400*%
%ADD13R,1.900000X0.400000*%
%ADD14R,1.846667X3.480000*%
%ADD15R,0.558800X1.270000*%
%ADD16R,1.270000X0.558800*%
%ADD17R,1.000000X1.100000*%
%ADD18C,0.800000*%
%ADD19C,0.736600*%
%ADD20C,0.500000*%
%ADD21C,0.250000*%
%ADD22C,0.203200*%
%ADD23C,0.101600*%
G04 APERTURE END LIST*
D10*
X154714121Y-108501141D03*
X154714121Y-110401141D03*
X152514121Y-110401141D03*
X152514121Y-109451141D03*
X152514121Y-108501141D03*
G04 #@! TA.AperFunction,SMDPad,CuDef*
D11*
G36*
X149541491Y-111590853D02*
G01*
X149562726Y-111594003D01*
X149583550Y-111599219D01*
X149603762Y-111606451D01*
X149623168Y-111615630D01*
X149641581Y-111626666D01*
X149658824Y-111639454D01*
X149674730Y-111653870D01*
X149689146Y-111669776D01*
X149701934Y-111687019D01*
X149712970Y-111705432D01*
X149722149Y-111724838D01*
X149729381Y-111745050D01*
X149734597Y-111765874D01*
X149737747Y-111787109D01*
X149738800Y-111808550D01*
X149738800Y-112321050D01*
X149737747Y-112342491D01*
X149734597Y-112363726D01*
X149729381Y-112384550D01*
X149722149Y-112404762D01*
X149712970Y-112424168D01*
X149701934Y-112442581D01*
X149689146Y-112459824D01*
X149674730Y-112475730D01*
X149658824Y-112490146D01*
X149641581Y-112502934D01*
X149623168Y-112513970D01*
X149603762Y-112523149D01*
X149583550Y-112530381D01*
X149562726Y-112535597D01*
X149541491Y-112538747D01*
X149520050Y-112539800D01*
X149082550Y-112539800D01*
X149061109Y-112538747D01*
X149039874Y-112535597D01*
X149019050Y-112530381D01*
X148998838Y-112523149D01*
X148979432Y-112513970D01*
X148961019Y-112502934D01*
X148943776Y-112490146D01*
X148927870Y-112475730D01*
X148913454Y-112459824D01*
X148900666Y-112442581D01*
X148889630Y-112424168D01*
X148880451Y-112404762D01*
X148873219Y-112384550D01*
X148868003Y-112363726D01*
X148864853Y-112342491D01*
X148863800Y-112321050D01*
X148863800Y-111808550D01*
X148864853Y-111787109D01*
X148868003Y-111765874D01*
X148873219Y-111745050D01*
X148880451Y-111724838D01*
X148889630Y-111705432D01*
X148900666Y-111687019D01*
X148913454Y-111669776D01*
X148927870Y-111653870D01*
X148943776Y-111639454D01*
X148961019Y-111626666D01*
X148979432Y-111615630D01*
X148998838Y-111606451D01*
X149019050Y-111599219D01*
X149039874Y-111594003D01*
X149061109Y-111590853D01*
X149082550Y-111589800D01*
X149520050Y-111589800D01*
X149541491Y-111590853D01*
G37*
G04 #@! TD.AperFunction*
G04 #@! TA.AperFunction,SMDPad,CuDef*
G36*
X147966491Y-111590853D02*
G01*
X147987726Y-111594003D01*
X148008550Y-111599219D01*
X148028762Y-111606451D01*
X148048168Y-111615630D01*
X148066581Y-111626666D01*
X148083824Y-111639454D01*
X148099730Y-111653870D01*
X148114146Y-111669776D01*
X148126934Y-111687019D01*
X148137970Y-111705432D01*
X148147149Y-111724838D01*
X148154381Y-111745050D01*
X148159597Y-111765874D01*
X148162747Y-111787109D01*
X148163800Y-111808550D01*
X148163800Y-112321050D01*
X148162747Y-112342491D01*
X148159597Y-112363726D01*
X148154381Y-112384550D01*
X148147149Y-112404762D01*
X148137970Y-112424168D01*
X148126934Y-112442581D01*
X148114146Y-112459824D01*
X148099730Y-112475730D01*
X148083824Y-112490146D01*
X148066581Y-112502934D01*
X148048168Y-112513970D01*
X148028762Y-112523149D01*
X148008550Y-112530381D01*
X147987726Y-112535597D01*
X147966491Y-112538747D01*
X147945050Y-112539800D01*
X147507550Y-112539800D01*
X147486109Y-112538747D01*
X147464874Y-112535597D01*
X147444050Y-112530381D01*
X147423838Y-112523149D01*
X147404432Y-112513970D01*
X147386019Y-112502934D01*
X147368776Y-112490146D01*
X147352870Y-112475730D01*
X147338454Y-112459824D01*
X147325666Y-112442581D01*
X147314630Y-112424168D01*
X147305451Y-112404762D01*
X147298219Y-112384550D01*
X147293003Y-112363726D01*
X147289853Y-112342491D01*
X147288800Y-112321050D01*
X147288800Y-111808550D01*
X147289853Y-111787109D01*
X147293003Y-111765874D01*
X147298219Y-111745050D01*
X147305451Y-111724838D01*
X147314630Y-111705432D01*
X147325666Y-111687019D01*
X147338454Y-111669776D01*
X147352870Y-111653870D01*
X147368776Y-111639454D01*
X147386019Y-111626666D01*
X147404432Y-111615630D01*
X147423838Y-111606451D01*
X147444050Y-111599219D01*
X147464874Y-111594003D01*
X147486109Y-111590853D01*
X147507550Y-111589800D01*
X147945050Y-111589800D01*
X147966491Y-111590853D01*
G37*
G04 #@! TD.AperFunction*
G04 #@! TA.AperFunction,SMDPad,CuDef*
G36*
X153021291Y-111565453D02*
G01*
X153042526Y-111568603D01*
X153063350Y-111573819D01*
X153083562Y-111581051D01*
X153102968Y-111590230D01*
X153121381Y-111601266D01*
X153138624Y-111614054D01*
X153154530Y-111628470D01*
X153168946Y-111644376D01*
X153181734Y-111661619D01*
X153192770Y-111680032D01*
X153201949Y-111699438D01*
X153209181Y-111719650D01*
X153214397Y-111740474D01*
X153217547Y-111761709D01*
X153218600Y-111783150D01*
X153218600Y-112295650D01*
X153217547Y-112317091D01*
X153214397Y-112338326D01*
X153209181Y-112359150D01*
X153201949Y-112379362D01*
X153192770Y-112398768D01*
X153181734Y-112417181D01*
X153168946Y-112434424D01*
X153154530Y-112450330D01*
X153138624Y-112464746D01*
X153121381Y-112477534D01*
X153102968Y-112488570D01*
X153083562Y-112497749D01*
X153063350Y-112504981D01*
X153042526Y-112510197D01*
X153021291Y-112513347D01*
X152999850Y-112514400D01*
X152562350Y-112514400D01*
X152540909Y-112513347D01*
X152519674Y-112510197D01*
X152498850Y-112504981D01*
X152478638Y-112497749D01*
X152459232Y-112488570D01*
X152440819Y-112477534D01*
X152423576Y-112464746D01*
X152407670Y-112450330D01*
X152393254Y-112434424D01*
X152380466Y-112417181D01*
X152369430Y-112398768D01*
X152360251Y-112379362D01*
X152353019Y-112359150D01*
X152347803Y-112338326D01*
X152344653Y-112317091D01*
X152343600Y-112295650D01*
X152343600Y-111783150D01*
X152344653Y-111761709D01*
X152347803Y-111740474D01*
X152353019Y-111719650D01*
X152360251Y-111699438D01*
X152369430Y-111680032D01*
X152380466Y-111661619D01*
X152393254Y-111644376D01*
X152407670Y-111628470D01*
X152423576Y-111614054D01*
X152440819Y-111601266D01*
X152459232Y-111590230D01*
X152478638Y-111581051D01*
X152498850Y-111573819D01*
X152519674Y-111568603D01*
X152540909Y-111565453D01*
X152562350Y-111564400D01*
X152999850Y-111564400D01*
X153021291Y-111565453D01*
G37*
G04 #@! TD.AperFunction*
G04 #@! TA.AperFunction,SMDPad,CuDef*
G36*
X151446291Y-111565453D02*
G01*
X151467526Y-111568603D01*
X151488350Y-111573819D01*
X151508562Y-111581051D01*
X151527968Y-111590230D01*
X151546381Y-111601266D01*
X151563624Y-111614054D01*
X151579530Y-111628470D01*
X151593946Y-111644376D01*
X151606734Y-111661619D01*
X151617770Y-111680032D01*
X151626949Y-111699438D01*
X151634181Y-111719650D01*
X151639397Y-111740474D01*
X151642547Y-111761709D01*
X151643600Y-111783150D01*
X151643600Y-112295650D01*
X151642547Y-112317091D01*
X151639397Y-112338326D01*
X151634181Y-112359150D01*
X151626949Y-112379362D01*
X151617770Y-112398768D01*
X151606734Y-112417181D01*
X151593946Y-112434424D01*
X151579530Y-112450330D01*
X151563624Y-112464746D01*
X151546381Y-112477534D01*
X151527968Y-112488570D01*
X151508562Y-112497749D01*
X151488350Y-112504981D01*
X151467526Y-112510197D01*
X151446291Y-112513347D01*
X151424850Y-112514400D01*
X150987350Y-112514400D01*
X150965909Y-112513347D01*
X150944674Y-112510197D01*
X150923850Y-112504981D01*
X150903638Y-112497749D01*
X150884232Y-112488570D01*
X150865819Y-112477534D01*
X150848576Y-112464746D01*
X150832670Y-112450330D01*
X150818254Y-112434424D01*
X150805466Y-112417181D01*
X150794430Y-112398768D01*
X150785251Y-112379362D01*
X150778019Y-112359150D01*
X150772803Y-112338326D01*
X150769653Y-112317091D01*
X150768600Y-112295650D01*
X150768600Y-111783150D01*
X150769653Y-111761709D01*
X150772803Y-111740474D01*
X150778019Y-111719650D01*
X150785251Y-111699438D01*
X150794430Y-111680032D01*
X150805466Y-111661619D01*
X150818254Y-111644376D01*
X150832670Y-111628470D01*
X150848576Y-111614054D01*
X150865819Y-111601266D01*
X150884232Y-111590230D01*
X150903638Y-111581051D01*
X150923850Y-111573819D01*
X150944674Y-111568603D01*
X150965909Y-111565453D01*
X150987350Y-111564400D01*
X151424850Y-111564400D01*
X151446291Y-111565453D01*
G37*
G04 #@! TD.AperFunction*
G04 #@! TA.AperFunction,SMDPad,CuDef*
G36*
X142390691Y-103119253D02*
G01*
X142411926Y-103122403D01*
X142432750Y-103127619D01*
X142452962Y-103134851D01*
X142472368Y-103144030D01*
X142490781Y-103155066D01*
X142508024Y-103167854D01*
X142523930Y-103182270D01*
X142538346Y-103198176D01*
X142551134Y-103215419D01*
X142562170Y-103233832D01*
X142571349Y-103253238D01*
X142578581Y-103273450D01*
X142583797Y-103294274D01*
X142586947Y-103315509D01*
X142588000Y-103336950D01*
X142588000Y-103774450D01*
X142586947Y-103795891D01*
X142583797Y-103817126D01*
X142578581Y-103837950D01*
X142571349Y-103858162D01*
X142562170Y-103877568D01*
X142551134Y-103895981D01*
X142538346Y-103913224D01*
X142523930Y-103929130D01*
X142508024Y-103943546D01*
X142490781Y-103956334D01*
X142472368Y-103967370D01*
X142452962Y-103976549D01*
X142432750Y-103983781D01*
X142411926Y-103988997D01*
X142390691Y-103992147D01*
X142369250Y-103993200D01*
X141856750Y-103993200D01*
X141835309Y-103992147D01*
X141814074Y-103988997D01*
X141793250Y-103983781D01*
X141773038Y-103976549D01*
X141753632Y-103967370D01*
X141735219Y-103956334D01*
X141717976Y-103943546D01*
X141702070Y-103929130D01*
X141687654Y-103913224D01*
X141674866Y-103895981D01*
X141663830Y-103877568D01*
X141654651Y-103858162D01*
X141647419Y-103837950D01*
X141642203Y-103817126D01*
X141639053Y-103795891D01*
X141638000Y-103774450D01*
X141638000Y-103336950D01*
X141639053Y-103315509D01*
X141642203Y-103294274D01*
X141647419Y-103273450D01*
X141654651Y-103253238D01*
X141663830Y-103233832D01*
X141674866Y-103215419D01*
X141687654Y-103198176D01*
X141702070Y-103182270D01*
X141717976Y-103167854D01*
X141735219Y-103155066D01*
X141753632Y-103144030D01*
X141773038Y-103134851D01*
X141793250Y-103127619D01*
X141814074Y-103122403D01*
X141835309Y-103119253D01*
X141856750Y-103118200D01*
X142369250Y-103118200D01*
X142390691Y-103119253D01*
G37*
G04 #@! TD.AperFunction*
G04 #@! TA.AperFunction,SMDPad,CuDef*
G36*
X142390691Y-104694253D02*
G01*
X142411926Y-104697403D01*
X142432750Y-104702619D01*
X142452962Y-104709851D01*
X142472368Y-104719030D01*
X142490781Y-104730066D01*
X142508024Y-104742854D01*
X142523930Y-104757270D01*
X142538346Y-104773176D01*
X142551134Y-104790419D01*
X142562170Y-104808832D01*
X142571349Y-104828238D01*
X142578581Y-104848450D01*
X142583797Y-104869274D01*
X142586947Y-104890509D01*
X142588000Y-104911950D01*
X142588000Y-105349450D01*
X142586947Y-105370891D01*
X142583797Y-105392126D01*
X142578581Y-105412950D01*
X142571349Y-105433162D01*
X142562170Y-105452568D01*
X142551134Y-105470981D01*
X142538346Y-105488224D01*
X142523930Y-105504130D01*
X142508024Y-105518546D01*
X142490781Y-105531334D01*
X142472368Y-105542370D01*
X142452962Y-105551549D01*
X142432750Y-105558781D01*
X142411926Y-105563997D01*
X142390691Y-105567147D01*
X142369250Y-105568200D01*
X141856750Y-105568200D01*
X141835309Y-105567147D01*
X141814074Y-105563997D01*
X141793250Y-105558781D01*
X141773038Y-105551549D01*
X141753632Y-105542370D01*
X141735219Y-105531334D01*
X141717976Y-105518546D01*
X141702070Y-105504130D01*
X141687654Y-105488224D01*
X141674866Y-105470981D01*
X141663830Y-105452568D01*
X141654651Y-105433162D01*
X141647419Y-105412950D01*
X141642203Y-105392126D01*
X141639053Y-105370891D01*
X141638000Y-105349450D01*
X141638000Y-104911950D01*
X141639053Y-104890509D01*
X141642203Y-104869274D01*
X141647419Y-104848450D01*
X141654651Y-104828238D01*
X141663830Y-104808832D01*
X141674866Y-104790419D01*
X141687654Y-104773176D01*
X141702070Y-104757270D01*
X141717976Y-104742854D01*
X141735219Y-104730066D01*
X141753632Y-104719030D01*
X141773038Y-104709851D01*
X141793250Y-104702619D01*
X141814074Y-104697403D01*
X141835309Y-104694253D01*
X141856750Y-104693200D01*
X142369250Y-104693200D01*
X142390691Y-104694253D01*
G37*
G04 #@! TD.AperFunction*
G04 #@! TA.AperFunction,SMDPad,CuDef*
G36*
X142177831Y-99604591D02*
G01*
X142199066Y-99607741D01*
X142219890Y-99612957D01*
X142240102Y-99620189D01*
X142259508Y-99629368D01*
X142277921Y-99640404D01*
X142295164Y-99653192D01*
X142311070Y-99667608D01*
X142325486Y-99683514D01*
X142338274Y-99700757D01*
X142349310Y-99719170D01*
X142358489Y-99738576D01*
X142365721Y-99758788D01*
X142370937Y-99779612D01*
X142374087Y-99800847D01*
X142375140Y-99822288D01*
X142375140Y-100334788D01*
X142374087Y-100356229D01*
X142370937Y-100377464D01*
X142365721Y-100398288D01*
X142358489Y-100418500D01*
X142349310Y-100437906D01*
X142338274Y-100456319D01*
X142325486Y-100473562D01*
X142311070Y-100489468D01*
X142295164Y-100503884D01*
X142277921Y-100516672D01*
X142259508Y-100527708D01*
X142240102Y-100536887D01*
X142219890Y-100544119D01*
X142199066Y-100549335D01*
X142177831Y-100552485D01*
X142156390Y-100553538D01*
X141718890Y-100553538D01*
X141697449Y-100552485D01*
X141676214Y-100549335D01*
X141655390Y-100544119D01*
X141635178Y-100536887D01*
X141615772Y-100527708D01*
X141597359Y-100516672D01*
X141580116Y-100503884D01*
X141564210Y-100489468D01*
X141549794Y-100473562D01*
X141537006Y-100456319D01*
X141525970Y-100437906D01*
X141516791Y-100418500D01*
X141509559Y-100398288D01*
X141504343Y-100377464D01*
X141501193Y-100356229D01*
X141500140Y-100334788D01*
X141500140Y-99822288D01*
X141501193Y-99800847D01*
X141504343Y-99779612D01*
X141509559Y-99758788D01*
X141516791Y-99738576D01*
X141525970Y-99719170D01*
X141537006Y-99700757D01*
X141549794Y-99683514D01*
X141564210Y-99667608D01*
X141580116Y-99653192D01*
X141597359Y-99640404D01*
X141615772Y-99629368D01*
X141635178Y-99620189D01*
X141655390Y-99612957D01*
X141676214Y-99607741D01*
X141697449Y-99604591D01*
X141718890Y-99603538D01*
X142156390Y-99603538D01*
X142177831Y-99604591D01*
G37*
G04 #@! TD.AperFunction*
G04 #@! TA.AperFunction,SMDPad,CuDef*
G36*
X143752831Y-99604591D02*
G01*
X143774066Y-99607741D01*
X143794890Y-99612957D01*
X143815102Y-99620189D01*
X143834508Y-99629368D01*
X143852921Y-99640404D01*
X143870164Y-99653192D01*
X143886070Y-99667608D01*
X143900486Y-99683514D01*
X143913274Y-99700757D01*
X143924310Y-99719170D01*
X143933489Y-99738576D01*
X143940721Y-99758788D01*
X143945937Y-99779612D01*
X143949087Y-99800847D01*
X143950140Y-99822288D01*
X143950140Y-100334788D01*
X143949087Y-100356229D01*
X143945937Y-100377464D01*
X143940721Y-100398288D01*
X143933489Y-100418500D01*
X143924310Y-100437906D01*
X143913274Y-100456319D01*
X143900486Y-100473562D01*
X143886070Y-100489468D01*
X143870164Y-100503884D01*
X143852921Y-100516672D01*
X143834508Y-100527708D01*
X143815102Y-100536887D01*
X143794890Y-100544119D01*
X143774066Y-100549335D01*
X143752831Y-100552485D01*
X143731390Y-100553538D01*
X143293890Y-100553538D01*
X143272449Y-100552485D01*
X143251214Y-100549335D01*
X143230390Y-100544119D01*
X143210178Y-100536887D01*
X143190772Y-100527708D01*
X143172359Y-100516672D01*
X143155116Y-100503884D01*
X143139210Y-100489468D01*
X143124794Y-100473562D01*
X143112006Y-100456319D01*
X143100970Y-100437906D01*
X143091791Y-100418500D01*
X143084559Y-100398288D01*
X143079343Y-100377464D01*
X143076193Y-100356229D01*
X143075140Y-100334788D01*
X143075140Y-99822288D01*
X143076193Y-99800847D01*
X143079343Y-99779612D01*
X143084559Y-99758788D01*
X143091791Y-99738576D01*
X143100970Y-99719170D01*
X143112006Y-99700757D01*
X143124794Y-99683514D01*
X143139210Y-99667608D01*
X143155116Y-99653192D01*
X143172359Y-99640404D01*
X143190772Y-99629368D01*
X143210178Y-99620189D01*
X143230390Y-99612957D01*
X143251214Y-99607741D01*
X143272449Y-99604591D01*
X143293890Y-99603538D01*
X143731390Y-99603538D01*
X143752831Y-99604591D01*
G37*
G04 #@! TD.AperFunction*
G04 #@! TA.AperFunction,SMDPad,CuDef*
G36*
X142289091Y-111196653D02*
G01*
X142310326Y-111199803D01*
X142331150Y-111205019D01*
X142351362Y-111212251D01*
X142370768Y-111221430D01*
X142389181Y-111232466D01*
X142406424Y-111245254D01*
X142422330Y-111259670D01*
X142436746Y-111275576D01*
X142449534Y-111292819D01*
X142460570Y-111311232D01*
X142469749Y-111330638D01*
X142476981Y-111350850D01*
X142482197Y-111371674D01*
X142485347Y-111392909D01*
X142486400Y-111414350D01*
X142486400Y-111851850D01*
X142485347Y-111873291D01*
X142482197Y-111894526D01*
X142476981Y-111915350D01*
X142469749Y-111935562D01*
X142460570Y-111954968D01*
X142449534Y-111973381D01*
X142436746Y-111990624D01*
X142422330Y-112006530D01*
X142406424Y-112020946D01*
X142389181Y-112033734D01*
X142370768Y-112044770D01*
X142351362Y-112053949D01*
X142331150Y-112061181D01*
X142310326Y-112066397D01*
X142289091Y-112069547D01*
X142267650Y-112070600D01*
X141755150Y-112070600D01*
X141733709Y-112069547D01*
X141712474Y-112066397D01*
X141691650Y-112061181D01*
X141671438Y-112053949D01*
X141652032Y-112044770D01*
X141633619Y-112033734D01*
X141616376Y-112020946D01*
X141600470Y-112006530D01*
X141586054Y-111990624D01*
X141573266Y-111973381D01*
X141562230Y-111954968D01*
X141553051Y-111935562D01*
X141545819Y-111915350D01*
X141540603Y-111894526D01*
X141537453Y-111873291D01*
X141536400Y-111851850D01*
X141536400Y-111414350D01*
X141537453Y-111392909D01*
X141540603Y-111371674D01*
X141545819Y-111350850D01*
X141553051Y-111330638D01*
X141562230Y-111311232D01*
X141573266Y-111292819D01*
X141586054Y-111275576D01*
X141600470Y-111259670D01*
X141616376Y-111245254D01*
X141633619Y-111232466D01*
X141652032Y-111221430D01*
X141671438Y-111212251D01*
X141691650Y-111205019D01*
X141712474Y-111199803D01*
X141733709Y-111196653D01*
X141755150Y-111195600D01*
X142267650Y-111195600D01*
X142289091Y-111196653D01*
G37*
G04 #@! TD.AperFunction*
G04 #@! TA.AperFunction,SMDPad,CuDef*
G36*
X142289091Y-109621653D02*
G01*
X142310326Y-109624803D01*
X142331150Y-109630019D01*
X142351362Y-109637251D01*
X142370768Y-109646430D01*
X142389181Y-109657466D01*
X142406424Y-109670254D01*
X142422330Y-109684670D01*
X142436746Y-109700576D01*
X142449534Y-109717819D01*
X142460570Y-109736232D01*
X142469749Y-109755638D01*
X142476981Y-109775850D01*
X142482197Y-109796674D01*
X142485347Y-109817909D01*
X142486400Y-109839350D01*
X142486400Y-110276850D01*
X142485347Y-110298291D01*
X142482197Y-110319526D01*
X142476981Y-110340350D01*
X142469749Y-110360562D01*
X142460570Y-110379968D01*
X142449534Y-110398381D01*
X142436746Y-110415624D01*
X142422330Y-110431530D01*
X142406424Y-110445946D01*
X142389181Y-110458734D01*
X142370768Y-110469770D01*
X142351362Y-110478949D01*
X142331150Y-110486181D01*
X142310326Y-110491397D01*
X142289091Y-110494547D01*
X142267650Y-110495600D01*
X141755150Y-110495600D01*
X141733709Y-110494547D01*
X141712474Y-110491397D01*
X141691650Y-110486181D01*
X141671438Y-110478949D01*
X141652032Y-110469770D01*
X141633619Y-110458734D01*
X141616376Y-110445946D01*
X141600470Y-110431530D01*
X141586054Y-110415624D01*
X141573266Y-110398381D01*
X141562230Y-110379968D01*
X141553051Y-110360562D01*
X141545819Y-110340350D01*
X141540603Y-110319526D01*
X141537453Y-110298291D01*
X141536400Y-110276850D01*
X141536400Y-109839350D01*
X141537453Y-109817909D01*
X141540603Y-109796674D01*
X141545819Y-109775850D01*
X141553051Y-109755638D01*
X141562230Y-109736232D01*
X141573266Y-109717819D01*
X141586054Y-109700576D01*
X141600470Y-109684670D01*
X141616376Y-109670254D01*
X141633619Y-109657466D01*
X141652032Y-109646430D01*
X141671438Y-109637251D01*
X141691650Y-109630019D01*
X141712474Y-109624803D01*
X141733709Y-109621653D01*
X141755150Y-109620600D01*
X142267650Y-109620600D01*
X142289091Y-109621653D01*
G37*
G04 #@! TD.AperFunction*
G04 #@! TA.AperFunction,SMDPad,CuDef*
G36*
X153717047Y-98474300D02*
G01*
X153738282Y-98477450D01*
X153759106Y-98482666D01*
X153779318Y-98489898D01*
X153798724Y-98499077D01*
X153817137Y-98510113D01*
X153834380Y-98522901D01*
X153850286Y-98537317D01*
X153864702Y-98553223D01*
X153877490Y-98570466D01*
X153888526Y-98588879D01*
X153897705Y-98608285D01*
X153904937Y-98628497D01*
X153910153Y-98649321D01*
X153913303Y-98670556D01*
X153914356Y-98691997D01*
X153914356Y-99204497D01*
X153913303Y-99225938D01*
X153910153Y-99247173D01*
X153904937Y-99267997D01*
X153897705Y-99288209D01*
X153888526Y-99307615D01*
X153877490Y-99326028D01*
X153864702Y-99343271D01*
X153850286Y-99359177D01*
X153834380Y-99373593D01*
X153817137Y-99386381D01*
X153798724Y-99397417D01*
X153779318Y-99406596D01*
X153759106Y-99413828D01*
X153738282Y-99419044D01*
X153717047Y-99422194D01*
X153695606Y-99423247D01*
X153258106Y-99423247D01*
X153236665Y-99422194D01*
X153215430Y-99419044D01*
X153194606Y-99413828D01*
X153174394Y-99406596D01*
X153154988Y-99397417D01*
X153136575Y-99386381D01*
X153119332Y-99373593D01*
X153103426Y-99359177D01*
X153089010Y-99343271D01*
X153076222Y-99326028D01*
X153065186Y-99307615D01*
X153056007Y-99288209D01*
X153048775Y-99267997D01*
X153043559Y-99247173D01*
X153040409Y-99225938D01*
X153039356Y-99204497D01*
X153039356Y-98691997D01*
X153040409Y-98670556D01*
X153043559Y-98649321D01*
X153048775Y-98628497D01*
X153056007Y-98608285D01*
X153065186Y-98588879D01*
X153076222Y-98570466D01*
X153089010Y-98553223D01*
X153103426Y-98537317D01*
X153119332Y-98522901D01*
X153136575Y-98510113D01*
X153154988Y-98499077D01*
X153174394Y-98489898D01*
X153194606Y-98482666D01*
X153215430Y-98477450D01*
X153236665Y-98474300D01*
X153258106Y-98473247D01*
X153695606Y-98473247D01*
X153717047Y-98474300D01*
G37*
G04 #@! TD.AperFunction*
G04 #@! TA.AperFunction,SMDPad,CuDef*
G36*
X155292047Y-98474300D02*
G01*
X155313282Y-98477450D01*
X155334106Y-98482666D01*
X155354318Y-98489898D01*
X155373724Y-98499077D01*
X155392137Y-98510113D01*
X155409380Y-98522901D01*
X155425286Y-98537317D01*
X155439702Y-98553223D01*
X155452490Y-98570466D01*
X155463526Y-98588879D01*
X155472705Y-98608285D01*
X155479937Y-98628497D01*
X155485153Y-98649321D01*
X155488303Y-98670556D01*
X155489356Y-98691997D01*
X155489356Y-99204497D01*
X155488303Y-99225938D01*
X155485153Y-99247173D01*
X155479937Y-99267997D01*
X155472705Y-99288209D01*
X155463526Y-99307615D01*
X155452490Y-99326028D01*
X155439702Y-99343271D01*
X155425286Y-99359177D01*
X155409380Y-99373593D01*
X155392137Y-99386381D01*
X155373724Y-99397417D01*
X155354318Y-99406596D01*
X155334106Y-99413828D01*
X155313282Y-99419044D01*
X155292047Y-99422194D01*
X155270606Y-99423247D01*
X154833106Y-99423247D01*
X154811665Y-99422194D01*
X154790430Y-99419044D01*
X154769606Y-99413828D01*
X154749394Y-99406596D01*
X154729988Y-99397417D01*
X154711575Y-99386381D01*
X154694332Y-99373593D01*
X154678426Y-99359177D01*
X154664010Y-99343271D01*
X154651222Y-99326028D01*
X154640186Y-99307615D01*
X154631007Y-99288209D01*
X154623775Y-99267997D01*
X154618559Y-99247173D01*
X154615409Y-99225938D01*
X154614356Y-99204497D01*
X154614356Y-98691997D01*
X154615409Y-98670556D01*
X154618559Y-98649321D01*
X154623775Y-98628497D01*
X154631007Y-98608285D01*
X154640186Y-98588879D01*
X154651222Y-98570466D01*
X154664010Y-98553223D01*
X154678426Y-98537317D01*
X154694332Y-98522901D01*
X154711575Y-98510113D01*
X154729988Y-98499077D01*
X154749394Y-98489898D01*
X154769606Y-98482666D01*
X154790430Y-98477450D01*
X154811665Y-98474300D01*
X154833106Y-98473247D01*
X155270606Y-98473247D01*
X155292047Y-98474300D01*
G37*
G04 #@! TD.AperFunction*
G04 #@! TA.AperFunction,SMDPad,CuDef*
G36*
X144067091Y-109570853D02*
G01*
X144088326Y-109574003D01*
X144109150Y-109579219D01*
X144129362Y-109586451D01*
X144148768Y-109595630D01*
X144167181Y-109606666D01*
X144184424Y-109619454D01*
X144200330Y-109633870D01*
X144214746Y-109649776D01*
X144227534Y-109667019D01*
X144238570Y-109685432D01*
X144247749Y-109704838D01*
X144254981Y-109725050D01*
X144260197Y-109745874D01*
X144263347Y-109767109D01*
X144264400Y-109788550D01*
X144264400Y-110226050D01*
X144263347Y-110247491D01*
X144260197Y-110268726D01*
X144254981Y-110289550D01*
X144247749Y-110309762D01*
X144238570Y-110329168D01*
X144227534Y-110347581D01*
X144214746Y-110364824D01*
X144200330Y-110380730D01*
X144184424Y-110395146D01*
X144167181Y-110407934D01*
X144148768Y-110418970D01*
X144129362Y-110428149D01*
X144109150Y-110435381D01*
X144088326Y-110440597D01*
X144067091Y-110443747D01*
X144045650Y-110444800D01*
X143533150Y-110444800D01*
X143511709Y-110443747D01*
X143490474Y-110440597D01*
X143469650Y-110435381D01*
X143449438Y-110428149D01*
X143430032Y-110418970D01*
X143411619Y-110407934D01*
X143394376Y-110395146D01*
X143378470Y-110380730D01*
X143364054Y-110364824D01*
X143351266Y-110347581D01*
X143340230Y-110329168D01*
X143331051Y-110309762D01*
X143323819Y-110289550D01*
X143318603Y-110268726D01*
X143315453Y-110247491D01*
X143314400Y-110226050D01*
X143314400Y-109788550D01*
X143315453Y-109767109D01*
X143318603Y-109745874D01*
X143323819Y-109725050D01*
X143331051Y-109704838D01*
X143340230Y-109685432D01*
X143351266Y-109667019D01*
X143364054Y-109649776D01*
X143378470Y-109633870D01*
X143394376Y-109619454D01*
X143411619Y-109606666D01*
X143430032Y-109595630D01*
X143449438Y-109586451D01*
X143469650Y-109579219D01*
X143490474Y-109574003D01*
X143511709Y-109570853D01*
X143533150Y-109569800D01*
X144045650Y-109569800D01*
X144067091Y-109570853D01*
G37*
G04 #@! TD.AperFunction*
G04 #@! TA.AperFunction,SMDPad,CuDef*
G36*
X144067091Y-111145853D02*
G01*
X144088326Y-111149003D01*
X144109150Y-111154219D01*
X144129362Y-111161451D01*
X144148768Y-111170630D01*
X144167181Y-111181666D01*
X144184424Y-111194454D01*
X144200330Y-111208870D01*
X144214746Y-111224776D01*
X144227534Y-111242019D01*
X144238570Y-111260432D01*
X144247749Y-111279838D01*
X144254981Y-111300050D01*
X144260197Y-111320874D01*
X144263347Y-111342109D01*
X144264400Y-111363550D01*
X144264400Y-111801050D01*
X144263347Y-111822491D01*
X144260197Y-111843726D01*
X144254981Y-111864550D01*
X144247749Y-111884762D01*
X144238570Y-111904168D01*
X144227534Y-111922581D01*
X144214746Y-111939824D01*
X144200330Y-111955730D01*
X144184424Y-111970146D01*
X144167181Y-111982934D01*
X144148768Y-111993970D01*
X144129362Y-112003149D01*
X144109150Y-112010381D01*
X144088326Y-112015597D01*
X144067091Y-112018747D01*
X144045650Y-112019800D01*
X143533150Y-112019800D01*
X143511709Y-112018747D01*
X143490474Y-112015597D01*
X143469650Y-112010381D01*
X143449438Y-112003149D01*
X143430032Y-111993970D01*
X143411619Y-111982934D01*
X143394376Y-111970146D01*
X143378470Y-111955730D01*
X143364054Y-111939824D01*
X143351266Y-111922581D01*
X143340230Y-111904168D01*
X143331051Y-111884762D01*
X143323819Y-111864550D01*
X143318603Y-111843726D01*
X143315453Y-111822491D01*
X143314400Y-111801050D01*
X143314400Y-111363550D01*
X143315453Y-111342109D01*
X143318603Y-111320874D01*
X143323819Y-111300050D01*
X143331051Y-111279838D01*
X143340230Y-111260432D01*
X143351266Y-111242019D01*
X143364054Y-111224776D01*
X143378470Y-111208870D01*
X143394376Y-111194454D01*
X143411619Y-111181666D01*
X143430032Y-111170630D01*
X143449438Y-111161451D01*
X143469650Y-111154219D01*
X143490474Y-111149003D01*
X143511709Y-111145853D01*
X143533150Y-111144800D01*
X144045650Y-111144800D01*
X144067091Y-111145853D01*
G37*
G04 #@! TD.AperFunction*
G04 #@! TA.AperFunction,SMDPad,CuDef*
G36*
X155204991Y-105913453D02*
G01*
X155226226Y-105916603D01*
X155247050Y-105921819D01*
X155267262Y-105929051D01*
X155286668Y-105938230D01*
X155305081Y-105949266D01*
X155322324Y-105962054D01*
X155338230Y-105976470D01*
X155352646Y-105992376D01*
X155365434Y-106009619D01*
X155376470Y-106028032D01*
X155385649Y-106047438D01*
X155392881Y-106067650D01*
X155398097Y-106088474D01*
X155401247Y-106109709D01*
X155402300Y-106131150D01*
X155402300Y-106568650D01*
X155401247Y-106590091D01*
X155398097Y-106611326D01*
X155392881Y-106632150D01*
X155385649Y-106652362D01*
X155376470Y-106671768D01*
X155365434Y-106690181D01*
X155352646Y-106707424D01*
X155338230Y-106723330D01*
X155322324Y-106737746D01*
X155305081Y-106750534D01*
X155286668Y-106761570D01*
X155267262Y-106770749D01*
X155247050Y-106777981D01*
X155226226Y-106783197D01*
X155204991Y-106786347D01*
X155183550Y-106787400D01*
X154671050Y-106787400D01*
X154649609Y-106786347D01*
X154628374Y-106783197D01*
X154607550Y-106777981D01*
X154587338Y-106770749D01*
X154567932Y-106761570D01*
X154549519Y-106750534D01*
X154532276Y-106737746D01*
X154516370Y-106723330D01*
X154501954Y-106707424D01*
X154489166Y-106690181D01*
X154478130Y-106671768D01*
X154468951Y-106652362D01*
X154461719Y-106632150D01*
X154456503Y-106611326D01*
X154453353Y-106590091D01*
X154452300Y-106568650D01*
X154452300Y-106131150D01*
X154453353Y-106109709D01*
X154456503Y-106088474D01*
X154461719Y-106067650D01*
X154468951Y-106047438D01*
X154478130Y-106028032D01*
X154489166Y-106009619D01*
X154501954Y-105992376D01*
X154516370Y-105976470D01*
X154532276Y-105962054D01*
X154549519Y-105949266D01*
X154567932Y-105938230D01*
X154587338Y-105929051D01*
X154607550Y-105921819D01*
X154628374Y-105916603D01*
X154649609Y-105913453D01*
X154671050Y-105912400D01*
X155183550Y-105912400D01*
X155204991Y-105913453D01*
G37*
G04 #@! TD.AperFunction*
G04 #@! TA.AperFunction,SMDPad,CuDef*
G36*
X155204991Y-104338453D02*
G01*
X155226226Y-104341603D01*
X155247050Y-104346819D01*
X155267262Y-104354051D01*
X155286668Y-104363230D01*
X155305081Y-104374266D01*
X155322324Y-104387054D01*
X155338230Y-104401470D01*
X155352646Y-104417376D01*
X155365434Y-104434619D01*
X155376470Y-104453032D01*
X155385649Y-104472438D01*
X155392881Y-104492650D01*
X155398097Y-104513474D01*
X155401247Y-104534709D01*
X155402300Y-104556150D01*
X155402300Y-104993650D01*
X155401247Y-105015091D01*
X155398097Y-105036326D01*
X155392881Y-105057150D01*
X155385649Y-105077362D01*
X155376470Y-105096768D01*
X155365434Y-105115181D01*
X155352646Y-105132424D01*
X155338230Y-105148330D01*
X155322324Y-105162746D01*
X155305081Y-105175534D01*
X155286668Y-105186570D01*
X155267262Y-105195749D01*
X155247050Y-105202981D01*
X155226226Y-105208197D01*
X155204991Y-105211347D01*
X155183550Y-105212400D01*
X154671050Y-105212400D01*
X154649609Y-105211347D01*
X154628374Y-105208197D01*
X154607550Y-105202981D01*
X154587338Y-105195749D01*
X154567932Y-105186570D01*
X154549519Y-105175534D01*
X154532276Y-105162746D01*
X154516370Y-105148330D01*
X154501954Y-105132424D01*
X154489166Y-105115181D01*
X154478130Y-105096768D01*
X154468951Y-105077362D01*
X154461719Y-105057150D01*
X154456503Y-105036326D01*
X154453353Y-105015091D01*
X154452300Y-104993650D01*
X154452300Y-104556150D01*
X154453353Y-104534709D01*
X154456503Y-104513474D01*
X154461719Y-104492650D01*
X154468951Y-104472438D01*
X154478130Y-104453032D01*
X154489166Y-104434619D01*
X154501954Y-104417376D01*
X154516370Y-104401470D01*
X154532276Y-104387054D01*
X154549519Y-104374266D01*
X154567932Y-104363230D01*
X154587338Y-104354051D01*
X154607550Y-104346819D01*
X154628374Y-104341603D01*
X154649609Y-104338453D01*
X154671050Y-104337400D01*
X155183550Y-104337400D01*
X155204991Y-104338453D01*
G37*
G04 #@! TD.AperFunction*
D12*
X149199600Y-95605600D03*
X149199600Y-96875600D03*
X147929600Y-95605600D03*
X147929600Y-96875600D03*
X146659600Y-95605600D03*
X146659600Y-96875600D03*
D13*
X154686000Y-103104800D03*
X154686000Y-101904800D03*
X154686000Y-100704800D03*
D14*
X152770400Y-115239800D03*
X150000400Y-115239800D03*
X147230400Y-115239800D03*
X144460400Y-115239800D03*
G04 #@! TA.AperFunction,SMDPad,CuDef*
D11*
G36*
X142230621Y-98215282D02*
G01*
X142245182Y-98217442D01*
X142259461Y-98221019D01*
X142273321Y-98225978D01*
X142286628Y-98232272D01*
X142299254Y-98239840D01*
X142311077Y-98248608D01*
X142321984Y-98258494D01*
X142331870Y-98269401D01*
X142340638Y-98281224D01*
X142348206Y-98293850D01*
X142354500Y-98307157D01*
X142359459Y-98321017D01*
X142363036Y-98335296D01*
X142365196Y-98349857D01*
X142365918Y-98364560D01*
X142365918Y-99064560D01*
X142365196Y-99079263D01*
X142363036Y-99093824D01*
X142359459Y-99108103D01*
X142354500Y-99121963D01*
X142348206Y-99135270D01*
X142340638Y-99147896D01*
X142331870Y-99159719D01*
X142321984Y-99170626D01*
X142311077Y-99180512D01*
X142299254Y-99189280D01*
X142286628Y-99196848D01*
X142273321Y-99203142D01*
X142259461Y-99208101D01*
X142245182Y-99211678D01*
X142230621Y-99213838D01*
X142215918Y-99214560D01*
X141515918Y-99214560D01*
X141501215Y-99213838D01*
X141486654Y-99211678D01*
X141472375Y-99208101D01*
X141458515Y-99203142D01*
X141445208Y-99196848D01*
X141432582Y-99189280D01*
X141420759Y-99180512D01*
X141409852Y-99170626D01*
X141399966Y-99159719D01*
X141391198Y-99147896D01*
X141383630Y-99135270D01*
X141377336Y-99121963D01*
X141372377Y-99108103D01*
X141368800Y-99093824D01*
X141366640Y-99079263D01*
X141365918Y-99064560D01*
X141365918Y-98364560D01*
X141366640Y-98349857D01*
X141368800Y-98335296D01*
X141372377Y-98321017D01*
X141377336Y-98307157D01*
X141383630Y-98293850D01*
X141391198Y-98281224D01*
X141399966Y-98269401D01*
X141409852Y-98258494D01*
X141420759Y-98248608D01*
X141432582Y-98239840D01*
X141445208Y-98232272D01*
X141458515Y-98225978D01*
X141472375Y-98221019D01*
X141486654Y-98217442D01*
X141501215Y-98215282D01*
X141515918Y-98214560D01*
X142215918Y-98214560D01*
X142230621Y-98215282D01*
G37*
G04 #@! TD.AperFunction*
G04 #@! TA.AperFunction,SMDPad,CuDef*
G36*
X143984621Y-98215282D02*
G01*
X143999182Y-98217442D01*
X144013461Y-98221019D01*
X144027321Y-98225978D01*
X144040628Y-98232272D01*
X144053254Y-98239840D01*
X144065077Y-98248608D01*
X144075984Y-98258494D01*
X144085870Y-98269401D01*
X144094638Y-98281224D01*
X144102206Y-98293850D01*
X144108500Y-98307157D01*
X144113459Y-98321017D01*
X144117036Y-98335296D01*
X144119196Y-98349857D01*
X144119918Y-98364560D01*
X144119918Y-99064560D01*
X144119196Y-99079263D01*
X144117036Y-99093824D01*
X144113459Y-99108103D01*
X144108500Y-99121963D01*
X144102206Y-99135270D01*
X144094638Y-99147896D01*
X144085870Y-99159719D01*
X144075984Y-99170626D01*
X144065077Y-99180512D01*
X144053254Y-99189280D01*
X144040628Y-99196848D01*
X144027321Y-99203142D01*
X144013461Y-99208101D01*
X143999182Y-99211678D01*
X143984621Y-99213838D01*
X143969918Y-99214560D01*
X143269918Y-99214560D01*
X143255215Y-99213838D01*
X143240654Y-99211678D01*
X143226375Y-99208101D01*
X143212515Y-99203142D01*
X143199208Y-99196848D01*
X143186582Y-99189280D01*
X143174759Y-99180512D01*
X143163852Y-99170626D01*
X143153966Y-99159719D01*
X143145198Y-99147896D01*
X143137630Y-99135270D01*
X143131336Y-99121963D01*
X143126377Y-99108103D01*
X143122800Y-99093824D01*
X143120640Y-99079263D01*
X143119918Y-99064560D01*
X143119918Y-98364560D01*
X143120640Y-98349857D01*
X143122800Y-98335296D01*
X143126377Y-98321017D01*
X143131336Y-98307157D01*
X143137630Y-98293850D01*
X143145198Y-98281224D01*
X143153966Y-98269401D01*
X143163852Y-98258494D01*
X143174759Y-98248608D01*
X143186582Y-98239840D01*
X143199208Y-98232272D01*
X143212515Y-98225978D01*
X143226375Y-98221019D01*
X143240654Y-98217442D01*
X143255215Y-98215282D01*
X143269918Y-98214560D01*
X143969918Y-98214560D01*
X143984621Y-98215282D01*
G37*
G04 #@! TD.AperFunction*
G04 #@! TA.AperFunction,SMDPad,CuDef*
G36*
X155483199Y-97163722D02*
G01*
X155497760Y-97165882D01*
X155512039Y-97169459D01*
X155525899Y-97174418D01*
X155539206Y-97180712D01*
X155551832Y-97188280D01*
X155563655Y-97197048D01*
X155574562Y-97206934D01*
X155584448Y-97217841D01*
X155593216Y-97229664D01*
X155600784Y-97242290D01*
X155607078Y-97255597D01*
X155612037Y-97269457D01*
X155615614Y-97283736D01*
X155617774Y-97298297D01*
X155618496Y-97313000D01*
X155618496Y-98013000D01*
X155617774Y-98027703D01*
X155615614Y-98042264D01*
X155612037Y-98056543D01*
X155607078Y-98070403D01*
X155600784Y-98083710D01*
X155593216Y-98096336D01*
X155584448Y-98108159D01*
X155574562Y-98119066D01*
X155563655Y-98128952D01*
X155551832Y-98137720D01*
X155539206Y-98145288D01*
X155525899Y-98151582D01*
X155512039Y-98156541D01*
X155497760Y-98160118D01*
X155483199Y-98162278D01*
X155468496Y-98163000D01*
X154768496Y-98163000D01*
X154753793Y-98162278D01*
X154739232Y-98160118D01*
X154724953Y-98156541D01*
X154711093Y-98151582D01*
X154697786Y-98145288D01*
X154685160Y-98137720D01*
X154673337Y-98128952D01*
X154662430Y-98119066D01*
X154652544Y-98108159D01*
X154643776Y-98096336D01*
X154636208Y-98083710D01*
X154629914Y-98070403D01*
X154624955Y-98056543D01*
X154621378Y-98042264D01*
X154619218Y-98027703D01*
X154618496Y-98013000D01*
X154618496Y-97313000D01*
X154619218Y-97298297D01*
X154621378Y-97283736D01*
X154624955Y-97269457D01*
X154629914Y-97255597D01*
X154636208Y-97242290D01*
X154643776Y-97229664D01*
X154652544Y-97217841D01*
X154662430Y-97206934D01*
X154673337Y-97197048D01*
X154685160Y-97188280D01*
X154697786Y-97180712D01*
X154711093Y-97174418D01*
X154724953Y-97169459D01*
X154739232Y-97165882D01*
X154753793Y-97163722D01*
X154768496Y-97163000D01*
X155468496Y-97163000D01*
X155483199Y-97163722D01*
G37*
G04 #@! TD.AperFunction*
G04 #@! TA.AperFunction,SMDPad,CuDef*
G36*
X153729199Y-97163722D02*
G01*
X153743760Y-97165882D01*
X153758039Y-97169459D01*
X153771899Y-97174418D01*
X153785206Y-97180712D01*
X153797832Y-97188280D01*
X153809655Y-97197048D01*
X153820562Y-97206934D01*
X153830448Y-97217841D01*
X153839216Y-97229664D01*
X153846784Y-97242290D01*
X153853078Y-97255597D01*
X153858037Y-97269457D01*
X153861614Y-97283736D01*
X153863774Y-97298297D01*
X153864496Y-97313000D01*
X153864496Y-98013000D01*
X153863774Y-98027703D01*
X153861614Y-98042264D01*
X153858037Y-98056543D01*
X153853078Y-98070403D01*
X153846784Y-98083710D01*
X153839216Y-98096336D01*
X153830448Y-98108159D01*
X153820562Y-98119066D01*
X153809655Y-98128952D01*
X153797832Y-98137720D01*
X153785206Y-98145288D01*
X153771899Y-98151582D01*
X153758039Y-98156541D01*
X153743760Y-98160118D01*
X153729199Y-98162278D01*
X153714496Y-98163000D01*
X153014496Y-98163000D01*
X152999793Y-98162278D01*
X152985232Y-98160118D01*
X152970953Y-98156541D01*
X152957093Y-98151582D01*
X152943786Y-98145288D01*
X152931160Y-98137720D01*
X152919337Y-98128952D01*
X152908430Y-98119066D01*
X152898544Y-98108159D01*
X152889776Y-98096336D01*
X152882208Y-98083710D01*
X152875914Y-98070403D01*
X152870955Y-98056543D01*
X152867378Y-98042264D01*
X152865218Y-98027703D01*
X152864496Y-98013000D01*
X152864496Y-97313000D01*
X152865218Y-97298297D01*
X152867378Y-97283736D01*
X152870955Y-97269457D01*
X152875914Y-97255597D01*
X152882208Y-97242290D01*
X152889776Y-97229664D01*
X152898544Y-97217841D01*
X152908430Y-97206934D01*
X152919337Y-97197048D01*
X152931160Y-97188280D01*
X152943786Y-97180712D01*
X152957093Y-97174418D01*
X152970953Y-97169459D01*
X152985232Y-97165882D01*
X152999793Y-97163722D01*
X153014496Y-97163000D01*
X153714496Y-97163000D01*
X153729199Y-97163722D01*
G37*
G04 #@! TD.AperFunction*
D15*
X150793100Y-108661200D03*
X149993100Y-108661200D03*
X149193100Y-108661200D03*
X148393100Y-108661200D03*
X147593100Y-108661200D03*
X146793100Y-108661200D03*
X145993100Y-108661200D03*
X145193100Y-108661200D03*
D16*
X143700500Y-107168600D03*
X143700500Y-106368600D03*
X143700500Y-105568600D03*
X143700500Y-104768600D03*
X143700500Y-103968600D03*
X143700500Y-103168600D03*
X143700500Y-102368600D03*
X143700500Y-101568600D03*
D15*
X145193100Y-100076000D03*
X145993100Y-100076000D03*
X146793100Y-100076000D03*
X147593100Y-100076000D03*
X148393100Y-100076000D03*
X149193100Y-100076000D03*
X149993100Y-100076000D03*
X150793100Y-100076000D03*
D16*
X152285700Y-101568600D03*
X152285700Y-102368600D03*
X152285700Y-103168600D03*
X152285700Y-103968600D03*
X152285700Y-104768600D03*
X152285700Y-105568600D03*
X152285700Y-106368600D03*
X152285700Y-107168600D03*
G04 #@! TA.AperFunction,SMDPad,CuDef*
D11*
G36*
X153072346Y-94743834D02*
G01*
X153109330Y-94749320D01*
X153145599Y-94758405D01*
X153180803Y-94771001D01*
X153214603Y-94786987D01*
X153246673Y-94806209D01*
X153276705Y-94828482D01*
X153304409Y-94853591D01*
X153329518Y-94881295D01*
X153351791Y-94911327D01*
X153371013Y-94943397D01*
X153386999Y-94977197D01*
X153399595Y-95012401D01*
X153408680Y-95048670D01*
X153414166Y-95085654D01*
X153416001Y-95122999D01*
X153416001Y-95123001D01*
X153414166Y-95160346D01*
X153408680Y-95197330D01*
X153399595Y-95233599D01*
X153386999Y-95268803D01*
X153371013Y-95302603D01*
X153351791Y-95334673D01*
X153329518Y-95364705D01*
X153304409Y-95392409D01*
X153276705Y-95417518D01*
X153246673Y-95439791D01*
X153214603Y-95459013D01*
X153180803Y-95474999D01*
X153145599Y-95487595D01*
X153109330Y-95496680D01*
X153072346Y-95502166D01*
X153035001Y-95504001D01*
X153034999Y-95504001D01*
X152997654Y-95502166D01*
X152960670Y-95496680D01*
X152924401Y-95487595D01*
X152889197Y-95474999D01*
X152855397Y-95459013D01*
X152823327Y-95439791D01*
X152793295Y-95417518D01*
X152765591Y-95392409D01*
X152740482Y-95364705D01*
X152718209Y-95334673D01*
X152698987Y-95302603D01*
X152683001Y-95268803D01*
X152670405Y-95233599D01*
X152661320Y-95197330D01*
X152655834Y-95160346D01*
X152653999Y-95123001D01*
X152653999Y-95122999D01*
X152655834Y-95085654D01*
X152661320Y-95048670D01*
X152670405Y-95012401D01*
X152683001Y-94977197D01*
X152698987Y-94943397D01*
X152718209Y-94911327D01*
X152740482Y-94881295D01*
X152765591Y-94853591D01*
X152793295Y-94828482D01*
X152823327Y-94806209D01*
X152855397Y-94786987D01*
X152889197Y-94771001D01*
X152924401Y-94758405D01*
X152960670Y-94749320D01*
X152997654Y-94743834D01*
X153034999Y-94741999D01*
X153035001Y-94741999D01*
X153072346Y-94743834D01*
G37*
G04 #@! TD.AperFunction*
D17*
X153708100Y-104712400D03*
X153708100Y-106412400D03*
D18*
X149199600Y-94361000D03*
D19*
X154960000Y-101900000D03*
X146913600Y-105105200D03*
D18*
X142770000Y-97370000D03*
D19*
X152146000Y-96393000D03*
X145288000Y-105105194D03*
X152145994Y-97663000D03*
D18*
X150885504Y-104101766D03*
D19*
X150908681Y-106094079D03*
D18*
X151060000Y-110110000D03*
X142550000Y-112700000D03*
X147800000Y-111190000D03*
X143789400Y-108737400D03*
X155270200Y-109296200D03*
X145161000Y-102743000D03*
X152019000Y-95123000D03*
X145415000Y-103886006D03*
X150368000Y-105156000D03*
X151130000Y-103057678D03*
X154957814Y-107580000D03*
X147830000Y-102150000D03*
X149639410Y-98552000D03*
D19*
X148420000Y-107600000D03*
D18*
X147599400Y-98018600D03*
D19*
X145618200Y-98057710D03*
D18*
X153677190Y-109474000D03*
X145960002Y-112310000D03*
X145120000Y-94440000D03*
X144310000Y-97280000D03*
X147929599Y-94691199D03*
D19*
X147000000Y-103499998D03*
X148463000Y-103759000D03*
D18*
X146727964Y-110227964D03*
D19*
X149970000Y-107610000D03*
D20*
X143700500Y-104768600D02*
X144951406Y-104768600D01*
X144951406Y-104768600D02*
X145288000Y-105105194D01*
X142537600Y-104768600D02*
X143700500Y-104768600D01*
X142113000Y-105193200D02*
X142537600Y-104768600D01*
X153708100Y-106412400D02*
X154927300Y-106412400D01*
D21*
X152864300Y-105568600D02*
X153708100Y-106412400D01*
X152285700Y-105568600D02*
X152864300Y-105568600D01*
D20*
X153364496Y-97663000D02*
X152145994Y-97663000D01*
X150928994Y-104101766D02*
X150885504Y-104101766D01*
X150973264Y-104146036D02*
X150928994Y-104101766D01*
X152285700Y-103968600D02*
X152257898Y-103996402D01*
X152257898Y-103996402D02*
X150990868Y-103996402D01*
X150990868Y-103996402D02*
X150885504Y-104101766D01*
X147720000Y-112900000D02*
X147720000Y-112071100D01*
X147230400Y-115239800D02*
X147230400Y-113389600D01*
X147720000Y-112071100D02*
X147726300Y-112064800D01*
X147230400Y-113389600D02*
X147720000Y-112900000D01*
X151276980Y-105725780D02*
X150908681Y-106094079D01*
X152246921Y-105607379D02*
X151395381Y-105607379D01*
X152285700Y-105568600D02*
X152246921Y-105607379D01*
X151395381Y-105607379D02*
X151276980Y-105725780D01*
D21*
X151718859Y-109451141D02*
X151459999Y-109710001D01*
X151459999Y-109710001D02*
X151060000Y-110110000D01*
X152514121Y-109451141D02*
X151718859Y-109451141D01*
D20*
X147726300Y-112064800D02*
X147726300Y-111263700D01*
X147726300Y-111263700D02*
X147800000Y-111190000D01*
D22*
X152285700Y-104768600D02*
X151784100Y-104768600D01*
X151782881Y-104767382D02*
X151784100Y-104768600D01*
X143700500Y-102368600D02*
X143716759Y-102384860D01*
X142171100Y-103968600D02*
X142151100Y-103948600D01*
X153307100Y-104768600D02*
X153708100Y-105169600D01*
D20*
X143738600Y-109995600D02*
X143789400Y-109944800D01*
X142011400Y-109995600D02*
X143738600Y-109995600D01*
X143789400Y-109944800D02*
X143789400Y-108737400D01*
X142588400Y-103968600D02*
X142113000Y-103493200D01*
X143700500Y-103968600D02*
X142588400Y-103968600D01*
X153651900Y-104768600D02*
X153708100Y-104712400D01*
X152285700Y-104768600D02*
X153651900Y-104768600D01*
X154927300Y-104712400D02*
X153708100Y-104712400D01*
X144835500Y-102368600D02*
X145161000Y-102694100D01*
X145161000Y-102694100D02*
X145161000Y-102743000D01*
X143700500Y-102368600D02*
X144835500Y-102368600D01*
X145332406Y-103968600D02*
X145415000Y-103886006D01*
X143700500Y-103968600D02*
X145332406Y-103968600D01*
X151282850Y-104929568D02*
X150594432Y-104929568D01*
X152285700Y-104768600D02*
X151443818Y-104768600D01*
X150594432Y-104929568D02*
X150368000Y-105156000D01*
X151443818Y-104768600D02*
X151282850Y-104929568D01*
X151130000Y-103147900D02*
X151130000Y-103057678D01*
X152285700Y-103168600D02*
X151150700Y-103168600D01*
X151150700Y-103168600D02*
X151130000Y-103147900D01*
X153035000Y-95123000D02*
X152019000Y-95123000D01*
X154957814Y-108983814D02*
X154957814Y-107580000D01*
X155270200Y-109296200D02*
X154957814Y-108983814D01*
D22*
X149639410Y-97315410D02*
X149639410Y-98552000D01*
X149199600Y-96875600D02*
X149639410Y-97315410D01*
X148393100Y-107626900D02*
X148420000Y-107600000D01*
X148393100Y-108661200D02*
X148393100Y-107626900D01*
D21*
X143738600Y-111633100D02*
X143789400Y-111582300D01*
X142011400Y-111633100D02*
X143738600Y-111633100D01*
X148393100Y-108661200D02*
X148393100Y-109556752D01*
X144264400Y-111582300D02*
X143789400Y-111582300D01*
X146367552Y-111582300D02*
X144264400Y-111582300D01*
X148393100Y-109556752D02*
X146367552Y-111582300D01*
D22*
X141875140Y-100078538D02*
X141967518Y-100170916D01*
X141967518Y-100170916D02*
X141967518Y-98816160D01*
X141967518Y-98816160D02*
X141865918Y-98714560D01*
X143700500Y-101568600D02*
X143700500Y-100203897D01*
X143700500Y-100203897D02*
X143575140Y-100078538D01*
X147929600Y-96875600D02*
X147929600Y-97688400D01*
X147929600Y-97688400D02*
X147599400Y-98018600D01*
X143700500Y-99975410D02*
X145249901Y-98426009D01*
X143700500Y-100203897D02*
X143700500Y-99975410D01*
X145249901Y-98426009D02*
X145618200Y-98057710D01*
D21*
X152314021Y-108501141D02*
X153270016Y-108501141D01*
X153677190Y-108908315D02*
X153677190Y-109474000D01*
X153677190Y-110039685D02*
X153677190Y-109474000D01*
X152314021Y-110401141D02*
X153315734Y-110401141D01*
X153315734Y-110401141D02*
X153677190Y-110039685D01*
X153270016Y-108501141D02*
X153677190Y-108908315D01*
X145280000Y-112310000D02*
X145960002Y-112310000D01*
X144460400Y-115239800D02*
X144460400Y-113129600D01*
X144460400Y-113129600D02*
X145280000Y-112310000D01*
D22*
X146659600Y-95605600D02*
X145494000Y-94440000D01*
X145494000Y-94440000D02*
X145120000Y-94440000D01*
X153790500Y-103104800D02*
X154508200Y-103104800D01*
X152285700Y-102368600D02*
X153054300Y-102368600D01*
X153054300Y-102368600D02*
X153790500Y-103104800D01*
X153650800Y-100704800D02*
X154508200Y-100704800D01*
X152285700Y-101568600D02*
X152787000Y-101568600D01*
X152787000Y-101568600D02*
X153650800Y-100704800D01*
X145193100Y-100076000D02*
X145193100Y-99421600D01*
D21*
X146659600Y-97432375D02*
X146659600Y-96875600D01*
X145193100Y-100076000D02*
X145193100Y-99476040D01*
X146659600Y-98009540D02*
X146659600Y-97432375D01*
X145193100Y-99476040D02*
X146659600Y-98009540D01*
D22*
X146255200Y-97280000D02*
X144310000Y-97280000D01*
X146659600Y-96875600D02*
X146255200Y-97280000D01*
X147929600Y-95605600D02*
X147929599Y-95048824D01*
X147929599Y-95048824D02*
X147929599Y-94691199D01*
X145993100Y-100076000D02*
X145993100Y-102493098D01*
X145993100Y-102493098D02*
X146631701Y-103131699D01*
X146631701Y-103131699D02*
X147000000Y-103499998D01*
X146793100Y-100076000D02*
X146793100Y-102089100D01*
X146793100Y-102089100D02*
X148463000Y-103759000D01*
D21*
X145193100Y-109546200D02*
X145874864Y-110227964D01*
X145874864Y-110227964D02*
X146727964Y-110227964D01*
X145193100Y-108661200D02*
X145193100Y-109546200D01*
D22*
X155118496Y-97663000D02*
X155118496Y-98729800D01*
X149993100Y-107633100D02*
X149970000Y-107610000D01*
X149993100Y-108661200D02*
X149993100Y-107633100D01*
D21*
X149389200Y-112039400D02*
X149363800Y-112064800D01*
X151143600Y-112039400D02*
X149389200Y-112039400D01*
X149193100Y-111894100D02*
X149363800Y-112064800D01*
X149193100Y-108661200D02*
X149193100Y-111894100D01*
X152843600Y-115166600D02*
X152843600Y-112039400D01*
X152770400Y-115239800D02*
X152843600Y-115166600D01*
D22*
X152486353Y-98948247D02*
X153414356Y-98948247D01*
X150793100Y-100076000D02*
X151358600Y-100076000D01*
X151358600Y-100076000D02*
X152486353Y-98948247D01*
D23*
G36*
X144961157Y-112021014D02*
G01*
X144171415Y-112810757D01*
X144155016Y-112824215D01*
X144137736Y-112845271D01*
X144101306Y-112889661D01*
X144061396Y-112964328D01*
X144036820Y-113045345D01*
X144028521Y-113129600D01*
X144030601Y-113150717D01*
X144030601Y-113193526D01*
X143537067Y-113193526D01*
X143477316Y-113199411D01*
X143419861Y-113216840D01*
X143366910Y-113245142D01*
X143320499Y-113283232D01*
X143282409Y-113329643D01*
X143254107Y-113382594D01*
X143236678Y-113440049D01*
X143230793Y-113499800D01*
X143230793Y-116822200D01*
X141287500Y-116822200D01*
X141287500Y-112085338D01*
X141318608Y-112143538D01*
X141383902Y-112223098D01*
X141463462Y-112288392D01*
X141554232Y-112336909D01*
X141652723Y-112366786D01*
X141755150Y-112376874D01*
X142267650Y-112376874D01*
X142370077Y-112366786D01*
X142468568Y-112336909D01*
X142559338Y-112288392D01*
X142638898Y-112223098D01*
X142704192Y-112143538D01*
X142747293Y-112062900D01*
X143080659Y-112062900D01*
X143096608Y-112092738D01*
X143161902Y-112172298D01*
X143241462Y-112237592D01*
X143332232Y-112286109D01*
X143430723Y-112315986D01*
X143533150Y-112326074D01*
X144045650Y-112326074D01*
X144148077Y-112315986D01*
X144246568Y-112286109D01*
X144337338Y-112237592D01*
X144416898Y-112172298D01*
X144482192Y-112092738D01*
X144525293Y-112012100D01*
X144968472Y-112012100D01*
X144961157Y-112021014D01*
G37*
X144961157Y-112021014D02*
X144171415Y-112810757D01*
X144155016Y-112824215D01*
X144137736Y-112845271D01*
X144101306Y-112889661D01*
X144061396Y-112964328D01*
X144036820Y-113045345D01*
X144028521Y-113129600D01*
X144030601Y-113150717D01*
X144030601Y-113193526D01*
X143537067Y-113193526D01*
X143477316Y-113199411D01*
X143419861Y-113216840D01*
X143366910Y-113245142D01*
X143320499Y-113283232D01*
X143282409Y-113329643D01*
X143254107Y-113382594D01*
X143236678Y-113440049D01*
X143230793Y-113499800D01*
X143230793Y-116822200D01*
X141287500Y-116822200D01*
X141287500Y-112085338D01*
X141318608Y-112143538D01*
X141383902Y-112223098D01*
X141463462Y-112288392D01*
X141554232Y-112336909D01*
X141652723Y-112366786D01*
X141755150Y-112376874D01*
X142267650Y-112376874D01*
X142370077Y-112366786D01*
X142468568Y-112336909D01*
X142559338Y-112288392D01*
X142638898Y-112223098D01*
X142704192Y-112143538D01*
X142747293Y-112062900D01*
X143080659Y-112062900D01*
X143096608Y-112092738D01*
X143161902Y-112172298D01*
X143241462Y-112237592D01*
X143332232Y-112286109D01*
X143430723Y-112315986D01*
X143533150Y-112326074D01*
X144045650Y-112326074D01*
X144148077Y-112315986D01*
X144246568Y-112286109D01*
X144337338Y-112237592D01*
X144416898Y-112172298D01*
X144482192Y-112092738D01*
X144525293Y-112012100D01*
X144968472Y-112012100D01*
X144961157Y-112021014D01*
G36*
X144670716Y-93892546D02*
G01*
X144572546Y-93990716D01*
X144495415Y-94106152D01*
X144442285Y-94234417D01*
X144415200Y-94370583D01*
X144415200Y-94509417D01*
X144442285Y-94645583D01*
X144495415Y-94773848D01*
X144572546Y-94889284D01*
X144670716Y-94987454D01*
X144786152Y-95064585D01*
X144914417Y-95117715D01*
X145050583Y-95144800D01*
X145189417Y-95144800D01*
X145325583Y-95117715D01*
X145453848Y-95064585D01*
X145507800Y-95028536D01*
X145970220Y-95490956D01*
X145961100Y-95536804D01*
X145961100Y-95674396D01*
X145962637Y-95682125D01*
X145899634Y-95619122D01*
X145768589Y-95531561D01*
X145622980Y-95471248D01*
X145468403Y-95440500D01*
X145310797Y-95440500D01*
X145156220Y-95471248D01*
X145010611Y-95531561D01*
X144879566Y-95619122D01*
X144768122Y-95730566D01*
X144680561Y-95861611D01*
X144620248Y-96007220D01*
X144589500Y-96161797D01*
X144589500Y-96319403D01*
X144620248Y-96473980D01*
X144680561Y-96619589D01*
X144753416Y-96728625D01*
X144643848Y-96655415D01*
X144515583Y-96602285D01*
X144379417Y-96575200D01*
X144240583Y-96575200D01*
X144104417Y-96602285D01*
X143976152Y-96655415D01*
X143860716Y-96732546D01*
X143762546Y-96830716D01*
X143685415Y-96946152D01*
X143632285Y-97074417D01*
X143605200Y-97210583D01*
X143605200Y-97349417D01*
X143632285Y-97485583D01*
X143685415Y-97613848D01*
X143762546Y-97729284D01*
X143860716Y-97827454D01*
X143976152Y-97904585D01*
X143988367Y-97909645D01*
X143771718Y-97910560D01*
X143695718Y-97986560D01*
X143695718Y-98638760D01*
X143715718Y-98638760D01*
X143715718Y-98790360D01*
X143695718Y-98790360D01*
X143695718Y-98810360D01*
X143544118Y-98810360D01*
X143544118Y-98790360D01*
X142891918Y-98790360D01*
X142815918Y-98866360D01*
X142814447Y-99214560D01*
X142820317Y-99274154D01*
X142837700Y-99331459D01*
X142865928Y-99384271D01*
X142903917Y-99430561D01*
X142925756Y-99448484D01*
X142922642Y-99451040D01*
X142857348Y-99530600D01*
X142808831Y-99621370D01*
X142778954Y-99719861D01*
X142768866Y-99822288D01*
X142768866Y-100334788D01*
X142778954Y-100437215D01*
X142808831Y-100535706D01*
X142857348Y-100626476D01*
X142922642Y-100706036D01*
X143002202Y-100771330D01*
X143092972Y-100819847D01*
X143191463Y-100849724D01*
X143293890Y-100859812D01*
X143294101Y-100859812D01*
X143294100Y-100982926D01*
X143065500Y-100982926D01*
X143005749Y-100988811D01*
X142948294Y-101006240D01*
X142895343Y-101034542D01*
X142848932Y-101072632D01*
X142810842Y-101119043D01*
X142782540Y-101171994D01*
X142765111Y-101229449D01*
X142759226Y-101289200D01*
X142759226Y-101848000D01*
X142765111Y-101907751D01*
X142782540Y-101965206D01*
X142784354Y-101968600D01*
X142782540Y-101971994D01*
X142765111Y-102029449D01*
X142759226Y-102089200D01*
X142759226Y-102648000D01*
X142765111Y-102707751D01*
X142782540Y-102765206D01*
X142784354Y-102768600D01*
X142782540Y-102771994D01*
X142765111Y-102829449D01*
X142759226Y-102889200D01*
X142759226Y-102988522D01*
X142740498Y-102965702D01*
X142660938Y-102900408D01*
X142570168Y-102851891D01*
X142471677Y-102822014D01*
X142369250Y-102811926D01*
X141856750Y-102811926D01*
X141754323Y-102822014D01*
X141655832Y-102851891D01*
X141565062Y-102900408D01*
X141485502Y-102965702D01*
X141420208Y-103045262D01*
X141371691Y-103136032D01*
X141341814Y-103234523D01*
X141331726Y-103336950D01*
X141331726Y-103774450D01*
X141341814Y-103876877D01*
X141371691Y-103975368D01*
X141420208Y-104066138D01*
X141485502Y-104145698D01*
X141565062Y-104210992D01*
X141655832Y-104259509D01*
X141754323Y-104289386D01*
X141856750Y-104299474D01*
X141933661Y-104299474D01*
X141944224Y-104308143D01*
X142014825Y-104345880D01*
X142091432Y-104369119D01*
X142171099Y-104376965D01*
X142207134Y-104373416D01*
X142247476Y-104406524D01*
X142188800Y-104465200D01*
X142188800Y-105054900D01*
X142208800Y-105054900D01*
X142208800Y-105206500D01*
X142188800Y-105206500D01*
X142188800Y-105796200D01*
X142264800Y-105872200D01*
X142588000Y-105873671D01*
X142647594Y-105867801D01*
X142704899Y-105850418D01*
X142757711Y-105822190D01*
X142759226Y-105820947D01*
X142759226Y-105848000D01*
X142765111Y-105907751D01*
X142782540Y-105965206D01*
X142784354Y-105968600D01*
X142782540Y-105971994D01*
X142765111Y-106029449D01*
X142759226Y-106089200D01*
X142759226Y-106648000D01*
X142765111Y-106707751D01*
X142782540Y-106765206D01*
X142784354Y-106768600D01*
X142782540Y-106771994D01*
X142765111Y-106829449D01*
X142759226Y-106889200D01*
X142759226Y-107448000D01*
X142765111Y-107507751D01*
X142782540Y-107565206D01*
X142810842Y-107618157D01*
X142848932Y-107664568D01*
X142895343Y-107702658D01*
X142948294Y-107730960D01*
X143005749Y-107748389D01*
X143065500Y-107754274D01*
X144335500Y-107754274D01*
X144395251Y-107748389D01*
X144452706Y-107730960D01*
X144505657Y-107702658D01*
X144552068Y-107664568D01*
X144590158Y-107618157D01*
X144618460Y-107565206D01*
X144635889Y-107507751D01*
X144641774Y-107448000D01*
X144641774Y-106889200D01*
X144635889Y-106829449D01*
X144618460Y-106771994D01*
X144616646Y-106768600D01*
X144618460Y-106765206D01*
X144635889Y-106707751D01*
X144641774Y-106648000D01*
X144641774Y-106089200D01*
X144635889Y-106029449D01*
X144618460Y-105971994D01*
X144616646Y-105968600D01*
X144618460Y-105965206D01*
X144635889Y-105907751D01*
X144641774Y-105848000D01*
X144641774Y-105289200D01*
X144635889Y-105229449D01*
X144618460Y-105171994D01*
X144616193Y-105167752D01*
X144617718Y-105164899D01*
X144635101Y-105107594D01*
X144640971Y-105048000D01*
X144639500Y-104920400D01*
X144563500Y-104844400D01*
X143776300Y-104844400D01*
X143776300Y-104864400D01*
X143624700Y-104864400D01*
X143624700Y-104844400D01*
X143604700Y-104844400D01*
X143604700Y-104692800D01*
X143624700Y-104692800D01*
X143624700Y-104672800D01*
X143776300Y-104672800D01*
X143776300Y-104692800D01*
X144563500Y-104692800D01*
X144639500Y-104616800D01*
X144640577Y-104523400D01*
X145112075Y-104523400D01*
X145209417Y-104563721D01*
X145345583Y-104590806D01*
X145484417Y-104590806D01*
X145620583Y-104563721D01*
X145748848Y-104510591D01*
X145864284Y-104433460D01*
X145962454Y-104335290D01*
X146039585Y-104219854D01*
X146092715Y-104091589D01*
X146119800Y-103955423D01*
X146119800Y-103816589D01*
X146092715Y-103680423D01*
X146039585Y-103552158D01*
X145962454Y-103436722D01*
X145864284Y-103338552D01*
X145748848Y-103261421D01*
X145671398Y-103229340D01*
X145708454Y-103192284D01*
X145785585Y-103076848D01*
X145838715Y-102948583D01*
X145844544Y-102919278D01*
X146332221Y-103406955D01*
X146326900Y-103433703D01*
X146326900Y-103566293D01*
X146352767Y-103696334D01*
X146403506Y-103818830D01*
X146477169Y-103929074D01*
X146570924Y-104022829D01*
X146681168Y-104096492D01*
X146803664Y-104147231D01*
X146933705Y-104173098D01*
X147066295Y-104173098D01*
X147196336Y-104147231D01*
X147318832Y-104096492D01*
X147429076Y-104022829D01*
X147522831Y-103929074D01*
X147596494Y-103818830D01*
X147647233Y-103696334D01*
X147673100Y-103566293D01*
X147673100Y-103543836D01*
X147795221Y-103665957D01*
X147789900Y-103692705D01*
X147789900Y-103825295D01*
X147815767Y-103955336D01*
X147866506Y-104077832D01*
X147940169Y-104188076D01*
X148033924Y-104281831D01*
X148144168Y-104355494D01*
X148266664Y-104406233D01*
X148396705Y-104432100D01*
X148529295Y-104432100D01*
X148659336Y-104406233D01*
X148781832Y-104355494D01*
X148892076Y-104281831D01*
X148985831Y-104188076D01*
X149059494Y-104077832D01*
X149110233Y-103955336D01*
X149136100Y-103825295D01*
X149136100Y-103692705D01*
X149110233Y-103562664D01*
X149059494Y-103440168D01*
X148985831Y-103329924D01*
X148892076Y-103236169D01*
X148781832Y-103162506D01*
X148659336Y-103111767D01*
X148529295Y-103085900D01*
X148396705Y-103085900D01*
X148369957Y-103091221D01*
X148085694Y-102806958D01*
X148163848Y-102774585D01*
X148279284Y-102697454D01*
X148377454Y-102599284D01*
X148454585Y-102483848D01*
X148507715Y-102355583D01*
X148534800Y-102219417D01*
X148534800Y-102080583D01*
X148507715Y-101944417D01*
X148454585Y-101816152D01*
X148377454Y-101700716D01*
X148279284Y-101602546D01*
X148163848Y-101525415D01*
X148035583Y-101472285D01*
X147899417Y-101445200D01*
X147760583Y-101445200D01*
X147624417Y-101472285D01*
X147496152Y-101525415D01*
X147380716Y-101602546D01*
X147282546Y-101700716D01*
X147205415Y-101816152D01*
X147199500Y-101830432D01*
X147199500Y-100994872D01*
X147253949Y-101011389D01*
X147313700Y-101017274D01*
X147872500Y-101017274D01*
X147932251Y-101011389D01*
X147989706Y-100993960D01*
X147993100Y-100992146D01*
X147996494Y-100993960D01*
X148053949Y-101011389D01*
X148113700Y-101017274D01*
X148672500Y-101017274D01*
X148732251Y-101011389D01*
X148789706Y-100993960D01*
X148793100Y-100992146D01*
X148796494Y-100993960D01*
X148853949Y-101011389D01*
X148913700Y-101017274D01*
X149472500Y-101017274D01*
X149532251Y-101011389D01*
X149589706Y-100993960D01*
X149593100Y-100992146D01*
X149596494Y-100993960D01*
X149653949Y-101011389D01*
X149713700Y-101017274D01*
X150272500Y-101017274D01*
X150332251Y-101011389D01*
X150389706Y-100993960D01*
X150393100Y-100992146D01*
X150396494Y-100993960D01*
X150453949Y-101011389D01*
X150513700Y-101017274D01*
X151072500Y-101017274D01*
X151132251Y-101011389D01*
X151189706Y-100993960D01*
X151242657Y-100965658D01*
X151289068Y-100927568D01*
X151327158Y-100881157D01*
X151355460Y-100828206D01*
X151372889Y-100770751D01*
X151378774Y-100711000D01*
X151378774Y-100482379D01*
X151438268Y-100476519D01*
X151514875Y-100453281D01*
X151585476Y-100415544D01*
X151647358Y-100364758D01*
X151660082Y-100349254D01*
X152654690Y-99354647D01*
X152757647Y-99354647D01*
X152773047Y-99405415D01*
X152821564Y-99496185D01*
X152886858Y-99575745D01*
X152966418Y-99641039D01*
X153057188Y-99689556D01*
X153155679Y-99719433D01*
X153258106Y-99729521D01*
X153695606Y-99729521D01*
X153798033Y-99719433D01*
X153896524Y-99689556D01*
X153987294Y-99641039D01*
X154066854Y-99575745D01*
X154132148Y-99496185D01*
X154180665Y-99405415D01*
X154210542Y-99306924D01*
X154220630Y-99204497D01*
X154220630Y-98691997D01*
X154210542Y-98589570D01*
X154180665Y-98491079D01*
X154132148Y-98400309D01*
X154097579Y-98358187D01*
X154118486Y-98332711D01*
X154146714Y-98279899D01*
X154164097Y-98222594D01*
X154169967Y-98163000D01*
X154168496Y-97814800D01*
X154092496Y-97738800D01*
X153440296Y-97738800D01*
X153440296Y-97758800D01*
X153288696Y-97758800D01*
X153288696Y-97738800D01*
X152636496Y-97738800D01*
X152560496Y-97814800D01*
X152559025Y-98163000D01*
X152564895Y-98222594D01*
X152582278Y-98279899D01*
X152610506Y-98332711D01*
X152648495Y-98379001D01*
X152694785Y-98416990D01*
X152747597Y-98445218D01*
X152790589Y-98458259D01*
X152773047Y-98491079D01*
X152757647Y-98541847D01*
X152506306Y-98541847D01*
X152486353Y-98539882D01*
X152466400Y-98541847D01*
X152466393Y-98541847D01*
X152413957Y-98547012D01*
X152406684Y-98547728D01*
X152371879Y-98558286D01*
X152330078Y-98570966D01*
X152259477Y-98608703D01*
X152234099Y-98629530D01*
X152213098Y-98646765D01*
X152213093Y-98646770D01*
X152197595Y-98659489D01*
X152184876Y-98674988D01*
X151378774Y-99481090D01*
X151378774Y-99441000D01*
X151372889Y-99381249D01*
X151355460Y-99323794D01*
X151327158Y-99270843D01*
X151289068Y-99224432D01*
X151242657Y-99186342D01*
X151189706Y-99158040D01*
X151132251Y-99140611D01*
X151072500Y-99134726D01*
X150513700Y-99134726D01*
X150453949Y-99140611D01*
X150396494Y-99158040D01*
X150393100Y-99159854D01*
X150389706Y-99158040D01*
X150332251Y-99140611D01*
X150272500Y-99134726D01*
X150035905Y-99134726D01*
X150088694Y-99099454D01*
X150186864Y-99001284D01*
X150263995Y-98885848D01*
X150317125Y-98757583D01*
X150344210Y-98621417D01*
X150344210Y-98482583D01*
X150317125Y-98346417D01*
X150263995Y-98218152D01*
X150186864Y-98102716D01*
X150088694Y-98004546D01*
X150045810Y-97975892D01*
X150045810Y-97935704D01*
X150090611Y-97965639D01*
X150236220Y-98025952D01*
X150390797Y-98056700D01*
X150548403Y-98056700D01*
X150702980Y-98025952D01*
X150848589Y-97965639D01*
X150979634Y-97878078D01*
X151091078Y-97766634D01*
X151178639Y-97635589D01*
X151238952Y-97489980D01*
X151269700Y-97335403D01*
X151269700Y-97177797D01*
X151266757Y-97163000D01*
X152559025Y-97163000D01*
X152560496Y-97511200D01*
X152636496Y-97587200D01*
X153288696Y-97587200D01*
X153288696Y-96935000D01*
X153440296Y-96935000D01*
X153440296Y-97587200D01*
X154092496Y-97587200D01*
X154168496Y-97511200D01*
X154169967Y-97163000D01*
X154164097Y-97103406D01*
X154146714Y-97046101D01*
X154118486Y-96993289D01*
X154080497Y-96946999D01*
X154034207Y-96909010D01*
X153981395Y-96880782D01*
X153924090Y-96863399D01*
X153864496Y-96857529D01*
X153516296Y-96859000D01*
X153440296Y-96935000D01*
X153288696Y-96935000D01*
X153212696Y-96859000D01*
X152864496Y-96857529D01*
X152804902Y-96863399D01*
X152747597Y-96880782D01*
X152694785Y-96909010D01*
X152648495Y-96946999D01*
X152610506Y-96993289D01*
X152582278Y-97046101D01*
X152564895Y-97103406D01*
X152559025Y-97163000D01*
X151266757Y-97163000D01*
X151238952Y-97023220D01*
X151178639Y-96877611D01*
X151091078Y-96746566D01*
X150979634Y-96635122D01*
X150848589Y-96547561D01*
X150702980Y-96487248D01*
X150548403Y-96456500D01*
X150390797Y-96456500D01*
X150236220Y-96487248D01*
X150090611Y-96547561D01*
X149959566Y-96635122D01*
X149879814Y-96714874D01*
X149871257Y-96671855D01*
X149818603Y-96544736D01*
X149742161Y-96430332D01*
X149644868Y-96333039D01*
X149530464Y-96256597D01*
X149492222Y-96240757D01*
X149511947Y-96233251D01*
X149547943Y-96214011D01*
X149584735Y-96097932D01*
X149199600Y-95712797D01*
X148814465Y-96097932D01*
X148851257Y-96214011D01*
X148908996Y-96239921D01*
X148868736Y-96256597D01*
X148754332Y-96333039D01*
X148657039Y-96430332D01*
X148580597Y-96544736D01*
X148564600Y-96583356D01*
X148548603Y-96544736D01*
X148472161Y-96430332D01*
X148374868Y-96333039D01*
X148260464Y-96256597D01*
X148221844Y-96240600D01*
X148260464Y-96224603D01*
X148374868Y-96148161D01*
X148472161Y-96050868D01*
X148548603Y-95936464D01*
X148564443Y-95898222D01*
X148571949Y-95917947D01*
X148591189Y-95953943D01*
X148707268Y-95990735D01*
X149092403Y-95605600D01*
X148707268Y-95220465D01*
X148591189Y-95257257D01*
X148565279Y-95314996D01*
X148548603Y-95274736D01*
X148472161Y-95160332D01*
X148464683Y-95152854D01*
X148477053Y-95140483D01*
X148495237Y-95113268D01*
X148814465Y-95113268D01*
X149199600Y-95498403D01*
X149213743Y-95484261D01*
X149320940Y-95591458D01*
X149306797Y-95605600D01*
X149691932Y-95990735D01*
X149808011Y-95953943D01*
X149864278Y-95828554D01*
X149878787Y-95765299D01*
X149959566Y-95846078D01*
X150090611Y-95933639D01*
X150236220Y-95993952D01*
X150390797Y-96024700D01*
X150548403Y-96024700D01*
X150702980Y-95993952D01*
X150848589Y-95933639D01*
X150979634Y-95846078D01*
X151091078Y-95734634D01*
X151178639Y-95603589D01*
X151238952Y-95457980D01*
X151269700Y-95303403D01*
X151269700Y-95145797D01*
X151251358Y-95053583D01*
X151314200Y-95053583D01*
X151314200Y-95192417D01*
X151341285Y-95328583D01*
X151394415Y-95456848D01*
X151471546Y-95572284D01*
X151569716Y-95670454D01*
X151685152Y-95747585D01*
X151813417Y-95800715D01*
X151949583Y-95827800D01*
X152088417Y-95827800D01*
X152224583Y-95800715D01*
X152352848Y-95747585D01*
X152457290Y-95677800D01*
X152632884Y-95677800D01*
X152653170Y-95694448D01*
X152771991Y-95757959D01*
X152900918Y-95797069D01*
X153034999Y-95810275D01*
X153035001Y-95810275D01*
X153169082Y-95797069D01*
X153298009Y-95757959D01*
X153416830Y-95694448D01*
X153520977Y-95608977D01*
X153606448Y-95504830D01*
X153669959Y-95386009D01*
X153709069Y-95257082D01*
X153722275Y-95123001D01*
X153722275Y-95122999D01*
X153709069Y-94988918D01*
X153669959Y-94859991D01*
X153606448Y-94741170D01*
X153520977Y-94637023D01*
X153416830Y-94551552D01*
X153298009Y-94488041D01*
X153169082Y-94448931D01*
X153035001Y-94435725D01*
X153034999Y-94435725D01*
X152900918Y-94448931D01*
X152771991Y-94488041D01*
X152653170Y-94551552D01*
X152632884Y-94568200D01*
X152457290Y-94568200D01*
X152352848Y-94498415D01*
X152224583Y-94445285D01*
X152088417Y-94418200D01*
X151949583Y-94418200D01*
X151813417Y-94445285D01*
X151685152Y-94498415D01*
X151569716Y-94575546D01*
X151471546Y-94673716D01*
X151394415Y-94789152D01*
X151341285Y-94917417D01*
X151314200Y-95053583D01*
X151251358Y-95053583D01*
X151238952Y-94991220D01*
X151178639Y-94845611D01*
X151091078Y-94714566D01*
X150979634Y-94603122D01*
X150848589Y-94515561D01*
X150702980Y-94455248D01*
X150548403Y-94424500D01*
X150390797Y-94424500D01*
X150236220Y-94455248D01*
X150090611Y-94515561D01*
X149959566Y-94603122D01*
X149848122Y-94714566D01*
X149760561Y-94845611D01*
X149700248Y-94991220D01*
X149679691Y-95094567D01*
X149641562Y-95056438D01*
X149584734Y-95113266D01*
X149547943Y-94997189D01*
X149422554Y-94940922D01*
X149288598Y-94910197D01*
X149151221Y-94906196D01*
X149015703Y-94929073D01*
X148887253Y-94977949D01*
X148851257Y-94997189D01*
X148814465Y-95113268D01*
X148495237Y-95113268D01*
X148554184Y-95025047D01*
X148607314Y-94896782D01*
X148634399Y-94760616D01*
X148634399Y-94621782D01*
X148607314Y-94485616D01*
X148554184Y-94357351D01*
X148477053Y-94241915D01*
X148378883Y-94143745D01*
X148263447Y-94066614D01*
X148135182Y-94013484D01*
X147999016Y-93986399D01*
X147860182Y-93986399D01*
X147724016Y-94013484D01*
X147595751Y-94066614D01*
X147480315Y-94143745D01*
X147382145Y-94241915D01*
X147305014Y-94357351D01*
X147251884Y-94485616D01*
X147224799Y-94621782D01*
X147224799Y-94760616D01*
X147251884Y-94896782D01*
X147305014Y-95025047D01*
X147382145Y-95140483D01*
X147394517Y-95152855D01*
X147387039Y-95160332D01*
X147310597Y-95274736D01*
X147294600Y-95313356D01*
X147278603Y-95274736D01*
X147202161Y-95160332D01*
X147104868Y-95063039D01*
X146990464Y-94986597D01*
X146863345Y-94933943D01*
X146728396Y-94907100D01*
X146590804Y-94907100D01*
X146544956Y-94916220D01*
X145795482Y-94166746D01*
X145782758Y-94151242D01*
X145753221Y-94127001D01*
X145744585Y-94106152D01*
X145667454Y-93990716D01*
X145569284Y-93892546D01*
X145557990Y-93885000D01*
X152831664Y-93885000D01*
X155714701Y-96768038D01*
X155714701Y-96929727D01*
X155643105Y-96891458D01*
X155557511Y-96865493D01*
X155468496Y-96856726D01*
X154768496Y-96856726D01*
X154679481Y-96865493D01*
X154593887Y-96891458D01*
X154515004Y-96933622D01*
X154445862Y-96990366D01*
X154389118Y-97059508D01*
X154346954Y-97138391D01*
X154320989Y-97223985D01*
X154312222Y-97313000D01*
X154312222Y-98013000D01*
X154320989Y-98102015D01*
X154346954Y-98187609D01*
X154389118Y-98266492D01*
X154445862Y-98335634D01*
X154448121Y-98337488D01*
X154396564Y-98400309D01*
X154348047Y-98491079D01*
X154318170Y-98589570D01*
X154308082Y-98691997D01*
X154308082Y-99204497D01*
X154318170Y-99306924D01*
X154348047Y-99405415D01*
X154396564Y-99496185D01*
X154461858Y-99575745D01*
X154541418Y-99641039D01*
X154632188Y-99689556D01*
X154730679Y-99719433D01*
X154833106Y-99729521D01*
X155270606Y-99729521D01*
X155373033Y-99719433D01*
X155471524Y-99689556D01*
X155562294Y-99641039D01*
X155641854Y-99575745D01*
X155707148Y-99496185D01*
X155714701Y-99482054D01*
X155714701Y-100210159D01*
X155695751Y-100204411D01*
X155636000Y-100198526D01*
X153736000Y-100198526D01*
X153676249Y-100204411D01*
X153618794Y-100221840D01*
X153565843Y-100250142D01*
X153519432Y-100288232D01*
X153481455Y-100334505D01*
X153423924Y-100365256D01*
X153409027Y-100377482D01*
X153377545Y-100403318D01*
X153377540Y-100403323D01*
X153362042Y-100416042D01*
X153349322Y-100431541D01*
X152797938Y-100982926D01*
X151650700Y-100982926D01*
X151590949Y-100988811D01*
X151533494Y-101006240D01*
X151480543Y-101034542D01*
X151434132Y-101072632D01*
X151396042Y-101119043D01*
X151367740Y-101171994D01*
X151350311Y-101229449D01*
X151344426Y-101289200D01*
X151344426Y-101848000D01*
X151350311Y-101907751D01*
X151367740Y-101965206D01*
X151369554Y-101968600D01*
X151367740Y-101971994D01*
X151350311Y-102029449D01*
X151344426Y-102089200D01*
X151344426Y-102383626D01*
X151335583Y-102379963D01*
X151199417Y-102352878D01*
X151060583Y-102352878D01*
X150924417Y-102379963D01*
X150796152Y-102433093D01*
X150680716Y-102510224D01*
X150582546Y-102608394D01*
X150505415Y-102723830D01*
X150452285Y-102852095D01*
X150425200Y-102988261D01*
X150425200Y-103127095D01*
X150452285Y-103263261D01*
X150505415Y-103391526D01*
X150582546Y-103506962D01*
X150680716Y-103605132D01*
X150796152Y-103682263D01*
X150924417Y-103735393D01*
X151060583Y-103762478D01*
X151199417Y-103762478D01*
X151335583Y-103735393D01*
X151345713Y-103731197D01*
X151346700Y-103816800D01*
X151422700Y-103892800D01*
X152209900Y-103892800D01*
X152209900Y-103872800D01*
X152361500Y-103872800D01*
X152361500Y-103892800D01*
X152381500Y-103892800D01*
X152381500Y-104044400D01*
X152361500Y-104044400D01*
X152361500Y-104064400D01*
X152209900Y-104064400D01*
X152209900Y-104044400D01*
X151422700Y-104044400D01*
X151346700Y-104120400D01*
X151345543Y-104220795D01*
X151335058Y-104221828D01*
X151230478Y-104253552D01*
X151134096Y-104305069D01*
X151049617Y-104374399D01*
X151049314Y-104374768D01*
X150621682Y-104374768D01*
X150594431Y-104372084D01*
X150485672Y-104382796D01*
X150381092Y-104414520D01*
X150312468Y-104451200D01*
X150298583Y-104451200D01*
X150162417Y-104478285D01*
X150034152Y-104531415D01*
X149918716Y-104608546D01*
X149820546Y-104706716D01*
X149743415Y-104822152D01*
X149690285Y-104950417D01*
X149663200Y-105086583D01*
X149663200Y-105225417D01*
X149690285Y-105361583D01*
X149743415Y-105489848D01*
X149820546Y-105605284D01*
X149918716Y-105703454D01*
X150034152Y-105780585D01*
X150162417Y-105833715D01*
X150298583Y-105860800D01*
X150437417Y-105860800D01*
X150573583Y-105833715D01*
X150701848Y-105780585D01*
X150817284Y-105703454D01*
X150915454Y-105605284D01*
X150992585Y-105489848D01*
X150994855Y-105484368D01*
X151255599Y-105484368D01*
X151282850Y-105487052D01*
X151310101Y-105484368D01*
X151391610Y-105476340D01*
X151402835Y-105472935D01*
X151422700Y-105492800D01*
X152209900Y-105492800D01*
X152209900Y-105472800D01*
X152361500Y-105472800D01*
X152361500Y-105492800D01*
X152381500Y-105492800D01*
X152381500Y-105644400D01*
X152361500Y-105644400D01*
X152361500Y-105664400D01*
X152209900Y-105664400D01*
X152209900Y-105644400D01*
X151422700Y-105644400D01*
X151346700Y-105720400D01*
X151345229Y-105848000D01*
X151351099Y-105907594D01*
X151368482Y-105964899D01*
X151370007Y-105967752D01*
X151367740Y-105971994D01*
X151350311Y-106029449D01*
X151344426Y-106089200D01*
X151344426Y-106648000D01*
X151350311Y-106707751D01*
X151367740Y-106765206D01*
X151369554Y-106768600D01*
X151367740Y-106771994D01*
X151350311Y-106829449D01*
X151344426Y-106889200D01*
X151344426Y-107448000D01*
X151350311Y-107507751D01*
X151367740Y-107565206D01*
X151396042Y-107618157D01*
X151434132Y-107664568D01*
X151480543Y-107702658D01*
X151533494Y-107730960D01*
X151590949Y-107748389D01*
X151650700Y-107754274D01*
X152920700Y-107754274D01*
X152980451Y-107748389D01*
X153037906Y-107730960D01*
X153090857Y-107702658D01*
X153137268Y-107664568D01*
X153175358Y-107618157D01*
X153203660Y-107565206D01*
X153221089Y-107507751D01*
X153226974Y-107448000D01*
X153226974Y-107267791D01*
X153556300Y-107266400D01*
X153632300Y-107190400D01*
X153632300Y-106488200D01*
X153612300Y-106488200D01*
X153612300Y-106336600D01*
X153632300Y-106336600D01*
X153632300Y-106316600D01*
X153783900Y-106316600D01*
X153783900Y-106336600D01*
X154436100Y-106336600D01*
X154498600Y-106274100D01*
X154851500Y-106274100D01*
X154851500Y-105684400D01*
X155003100Y-105684400D01*
X155003100Y-106274100D01*
X155630300Y-106274100D01*
X155706300Y-106198100D01*
X155707771Y-105912400D01*
X155701901Y-105852806D01*
X155684518Y-105795501D01*
X155656290Y-105742689D01*
X155618301Y-105696399D01*
X155572011Y-105658410D01*
X155519199Y-105630182D01*
X155461894Y-105612799D01*
X155402300Y-105606929D01*
X155079100Y-105608400D01*
X155003100Y-105684400D01*
X154851500Y-105684400D01*
X154775500Y-105608400D01*
X154452300Y-105606929D01*
X154392706Y-105612799D01*
X154385736Y-105614913D01*
X154377811Y-105608410D01*
X154324999Y-105580182D01*
X154267708Y-105562803D01*
X154267851Y-105562789D01*
X154325306Y-105545360D01*
X154378257Y-105517058D01*
X154424668Y-105478968D01*
X154438678Y-105461897D01*
X154470132Y-105478709D01*
X154568623Y-105508586D01*
X154671050Y-105518674D01*
X155183550Y-105518674D01*
X155285977Y-105508586D01*
X155384468Y-105478709D01*
X155475238Y-105430192D01*
X155554798Y-105364898D01*
X155620092Y-105285338D01*
X155668609Y-105194568D01*
X155698486Y-105096077D01*
X155708574Y-104993650D01*
X155708574Y-104556150D01*
X155698486Y-104453723D01*
X155668609Y-104355232D01*
X155620092Y-104264462D01*
X155554798Y-104184902D01*
X155475238Y-104119608D01*
X155384468Y-104071091D01*
X155285977Y-104041214D01*
X155183550Y-104031126D01*
X154671050Y-104031126D01*
X154568623Y-104041214D01*
X154496490Y-104063095D01*
X154491060Y-104045194D01*
X154462758Y-103992243D01*
X154424668Y-103945832D01*
X154378257Y-103907742D01*
X154325306Y-103879440D01*
X154267851Y-103862011D01*
X154208100Y-103856126D01*
X153208100Y-103856126D01*
X153182891Y-103858609D01*
X153224700Y-103816800D01*
X153226171Y-103689200D01*
X153220301Y-103629606D01*
X153202918Y-103572301D01*
X153201393Y-103569448D01*
X153203660Y-103565206D01*
X153221089Y-103507751D01*
X153226974Y-103448000D01*
X153226974Y-103116011D01*
X153431251Y-103320288D01*
X153435611Y-103364551D01*
X153453040Y-103422006D01*
X153481342Y-103474957D01*
X153519432Y-103521368D01*
X153565843Y-103559458D01*
X153618794Y-103587760D01*
X153676249Y-103605189D01*
X153736000Y-103611074D01*
X155636000Y-103611074D01*
X155695751Y-103605189D01*
X155714701Y-103599441D01*
X155714700Y-108745550D01*
X155604048Y-108671615D01*
X155550395Y-108649391D01*
X155550395Y-108176141D01*
X155544510Y-108116390D01*
X155527081Y-108058935D01*
X155512614Y-108031868D01*
X155512614Y-108018290D01*
X155582399Y-107913848D01*
X155635529Y-107785583D01*
X155662614Y-107649417D01*
X155662614Y-107510583D01*
X155635529Y-107374417D01*
X155582399Y-107246152D01*
X155505268Y-107130716D01*
X155461584Y-107087032D01*
X155461894Y-107087001D01*
X155519199Y-107069618D01*
X155572011Y-107041390D01*
X155618301Y-107003401D01*
X155656290Y-106957111D01*
X155684518Y-106904299D01*
X155701901Y-106846994D01*
X155707771Y-106787400D01*
X155706300Y-106501700D01*
X155630300Y-106425700D01*
X155003100Y-106425700D01*
X155003100Y-106445700D01*
X154851500Y-106445700D01*
X154851500Y-106425700D01*
X154224300Y-106425700D01*
X154161800Y-106488200D01*
X153783900Y-106488200D01*
X153783900Y-107190400D01*
X153859900Y-107266400D01*
X154208100Y-107267871D01*
X154267694Y-107262001D01*
X154324999Y-107244618D01*
X154339396Y-107236923D01*
X154333229Y-107246152D01*
X154280099Y-107374417D01*
X154253014Y-107510583D01*
X154253014Y-107649417D01*
X154280099Y-107785583D01*
X154315011Y-107869867D01*
X154184121Y-107869867D01*
X154124370Y-107875752D01*
X154066915Y-107893181D01*
X154013964Y-107921483D01*
X153967553Y-107959573D01*
X153929463Y-108005984D01*
X153901161Y-108058935D01*
X153883732Y-108116390D01*
X153877847Y-108176141D01*
X153877847Y-108501143D01*
X153588863Y-108212160D01*
X153575401Y-108195756D01*
X153509955Y-108142047D01*
X153435289Y-108102137D01*
X153354271Y-108077560D01*
X153332068Y-108075373D01*
X153327081Y-108058935D01*
X153298779Y-108005984D01*
X153260689Y-107959573D01*
X153214278Y-107921483D01*
X153161327Y-107893181D01*
X153103872Y-107875752D01*
X153044121Y-107869867D01*
X151984121Y-107869867D01*
X151924370Y-107875752D01*
X151866915Y-107893181D01*
X151813964Y-107921483D01*
X151767553Y-107959573D01*
X151729463Y-108005984D01*
X151701161Y-108058935D01*
X151683732Y-108116390D01*
X151677847Y-108176141D01*
X151677847Y-108826141D01*
X151683732Y-108885892D01*
X151701161Y-108943347D01*
X151719142Y-108976989D01*
X151701903Y-109009242D01*
X151684520Y-109066547D01*
X151678650Y-109126141D01*
X151680121Y-109299341D01*
X151756121Y-109375341D01*
X152438321Y-109375341D01*
X152438321Y-109355341D01*
X152589921Y-109355341D01*
X152589921Y-109375341D01*
X152609921Y-109375341D01*
X152609921Y-109526941D01*
X152589921Y-109526941D01*
X152589921Y-109546941D01*
X152438321Y-109546941D01*
X152438321Y-109526941D01*
X151756121Y-109526941D01*
X151680121Y-109602941D01*
X151678650Y-109776141D01*
X151684520Y-109835735D01*
X151701903Y-109893040D01*
X151719142Y-109925293D01*
X151701161Y-109958935D01*
X151683732Y-110016390D01*
X151677847Y-110076141D01*
X151677847Y-110726141D01*
X151683732Y-110785892D01*
X151701161Y-110843347D01*
X151729463Y-110896298D01*
X151767553Y-110942709D01*
X151813964Y-110980799D01*
X151866915Y-111009101D01*
X151924370Y-111026530D01*
X151984121Y-111032415D01*
X153044121Y-111032415D01*
X153103872Y-111026530D01*
X153161327Y-111009101D01*
X153214278Y-110980799D01*
X153260689Y-110942709D01*
X153298779Y-110896298D01*
X153327081Y-110843347D01*
X153330660Y-110831550D01*
X153336841Y-110830941D01*
X153336843Y-110830941D01*
X153399989Y-110824722D01*
X153481007Y-110800145D01*
X153555673Y-110760235D01*
X153621119Y-110706526D01*
X153634581Y-110690122D01*
X153877847Y-110446857D01*
X153877847Y-110726141D01*
X153883732Y-110785892D01*
X153901161Y-110843347D01*
X153929463Y-110896298D01*
X153967553Y-110942709D01*
X154013964Y-110980799D01*
X154066915Y-111009101D01*
X154124370Y-111026530D01*
X154184121Y-111032415D01*
X155244121Y-111032415D01*
X155303872Y-111026530D01*
X155361327Y-111009101D01*
X155414278Y-110980799D01*
X155460689Y-110942709D01*
X155498779Y-110896298D01*
X155527081Y-110843347D01*
X155544510Y-110785892D01*
X155550395Y-110726141D01*
X155550395Y-110076141D01*
X155544510Y-110016390D01*
X155527081Y-109958935D01*
X155524338Y-109953803D01*
X155604048Y-109920785D01*
X155714700Y-109846850D01*
X155714700Y-116822200D01*
X154000007Y-116822200D01*
X154000007Y-113499800D01*
X153994122Y-113440049D01*
X153976693Y-113382594D01*
X153948391Y-113329643D01*
X153910301Y-113283232D01*
X153863890Y-113245142D01*
X153810939Y-113216840D01*
X153753484Y-113199411D01*
X153693733Y-113193526D01*
X153273400Y-113193526D01*
X153273400Y-112741887D01*
X153291538Y-112732192D01*
X153371098Y-112666898D01*
X153436392Y-112587338D01*
X153484909Y-112496568D01*
X153514786Y-112398077D01*
X153524874Y-112295650D01*
X153524874Y-111783150D01*
X153514786Y-111680723D01*
X153484909Y-111582232D01*
X153436392Y-111491462D01*
X153371098Y-111411902D01*
X153291538Y-111346608D01*
X153200768Y-111298091D01*
X153102277Y-111268214D01*
X152999850Y-111258126D01*
X152562350Y-111258126D01*
X152459923Y-111268214D01*
X152361432Y-111298091D01*
X152270662Y-111346608D01*
X152191102Y-111411902D01*
X152125808Y-111491462D01*
X152077291Y-111582232D01*
X152047414Y-111680723D01*
X152037326Y-111783150D01*
X152037326Y-112295650D01*
X152047414Y-112398077D01*
X152077291Y-112496568D01*
X152125808Y-112587338D01*
X152191102Y-112666898D01*
X152270662Y-112732192D01*
X152361432Y-112780709D01*
X152413801Y-112796595D01*
X152413801Y-113193526D01*
X151847067Y-113193526D01*
X151787316Y-113199411D01*
X151729861Y-113216840D01*
X151676910Y-113245142D01*
X151630499Y-113283232D01*
X151592409Y-113329643D01*
X151564107Y-113382594D01*
X151546678Y-113440049D01*
X151540793Y-113499800D01*
X151540793Y-116822200D01*
X151230007Y-116822200D01*
X151230007Y-113499800D01*
X151224122Y-113440049D01*
X151206693Y-113382594D01*
X151178391Y-113329643D01*
X151140301Y-113283232D01*
X151093890Y-113245142D01*
X151040939Y-113216840D01*
X150983484Y-113199411D01*
X150923733Y-113193526D01*
X149077067Y-113193526D01*
X149017316Y-113199411D01*
X148959861Y-113216840D01*
X148906910Y-113245142D01*
X148860499Y-113283232D01*
X148822409Y-113329643D01*
X148794107Y-113382594D01*
X148776678Y-113440049D01*
X148770793Y-113499800D01*
X148770793Y-116822200D01*
X148459058Y-116822200D01*
X148457733Y-115391600D01*
X148381733Y-115315600D01*
X147306200Y-115315600D01*
X147306200Y-115335600D01*
X147154600Y-115335600D01*
X147154600Y-115315600D01*
X146079067Y-115315600D01*
X146003067Y-115391600D01*
X146001742Y-116822200D01*
X145690007Y-116822200D01*
X145690007Y-113499800D01*
X146001596Y-113499800D01*
X146003067Y-115088000D01*
X146079067Y-115164000D01*
X147154600Y-115164000D01*
X147154600Y-113271800D01*
X147306200Y-113271800D01*
X147306200Y-115164000D01*
X148381733Y-115164000D01*
X148457733Y-115088000D01*
X148459204Y-113499800D01*
X148453334Y-113440206D01*
X148435951Y-113382901D01*
X148407723Y-113330089D01*
X148369734Y-113283799D01*
X148323444Y-113245810D01*
X148270632Y-113217582D01*
X148213327Y-113200199D01*
X148153733Y-113194329D01*
X147382200Y-113195800D01*
X147306200Y-113271800D01*
X147154600Y-113271800D01*
X147078600Y-113195800D01*
X146307067Y-113194329D01*
X146247473Y-113200199D01*
X146190168Y-113217582D01*
X146137356Y-113245810D01*
X146091066Y-113283799D01*
X146053077Y-113330089D01*
X146024849Y-113382901D01*
X146007466Y-113440206D01*
X146001596Y-113499800D01*
X145690007Y-113499800D01*
X145684122Y-113440049D01*
X145666693Y-113382594D01*
X145638391Y-113329643D01*
X145600301Y-113283232D01*
X145553890Y-113245142D01*
X145500939Y-113216840D01*
X145443484Y-113199411D01*
X145383733Y-113193526D01*
X145004302Y-113193526D01*
X145425546Y-112772282D01*
X145510718Y-112857454D01*
X145626154Y-112934585D01*
X145754419Y-112987715D01*
X145890585Y-113014800D01*
X146029419Y-113014800D01*
X146165585Y-112987715D01*
X146293850Y-112934585D01*
X146409286Y-112857454D01*
X146507456Y-112759284D01*
X146584587Y-112643848D01*
X146627685Y-112539800D01*
X146983329Y-112539800D01*
X146989199Y-112599394D01*
X147006582Y-112656699D01*
X147034810Y-112709511D01*
X147072799Y-112755801D01*
X147119089Y-112793790D01*
X147171901Y-112822018D01*
X147229206Y-112839401D01*
X147288800Y-112845271D01*
X147574500Y-112843800D01*
X147650500Y-112767800D01*
X147650500Y-112140600D01*
X147802100Y-112140600D01*
X147802100Y-112767800D01*
X147878100Y-112843800D01*
X148163800Y-112845271D01*
X148223394Y-112839401D01*
X148280699Y-112822018D01*
X148333511Y-112793790D01*
X148379801Y-112755801D01*
X148417790Y-112709511D01*
X148446018Y-112656699D01*
X148463401Y-112599394D01*
X148469271Y-112539800D01*
X148467800Y-112216600D01*
X148391800Y-112140600D01*
X147802100Y-112140600D01*
X147650500Y-112140600D01*
X147060800Y-112140600D01*
X146984800Y-112216600D01*
X146983329Y-112539800D01*
X146627685Y-112539800D01*
X146637717Y-112515583D01*
X146664802Y-112379417D01*
X146664802Y-112240583D01*
X146637717Y-112104417D01*
X146584587Y-111976152D01*
X146573502Y-111959562D01*
X146607491Y-111941394D01*
X146672937Y-111887685D01*
X146686400Y-111871280D01*
X146985017Y-111572663D01*
X146983329Y-111589800D01*
X146984800Y-111913000D01*
X147060800Y-111989000D01*
X147650500Y-111989000D01*
X147650500Y-111361800D01*
X147802100Y-111361800D01*
X147802100Y-111989000D01*
X148391800Y-111989000D01*
X148467800Y-111913000D01*
X148469271Y-111589800D01*
X148463401Y-111530206D01*
X148446018Y-111472901D01*
X148417790Y-111420089D01*
X148379801Y-111373799D01*
X148333511Y-111335810D01*
X148280699Y-111307582D01*
X148223394Y-111290199D01*
X148163800Y-111284329D01*
X147878100Y-111285800D01*
X147802100Y-111361800D01*
X147650500Y-111361800D01*
X147574500Y-111285800D01*
X147288800Y-111284329D01*
X147271663Y-111286017D01*
X148682086Y-109875595D01*
X148698485Y-109862137D01*
X148743038Y-109807848D01*
X148752193Y-109796693D01*
X148763300Y-109775912D01*
X148763301Y-111394627D01*
X148711302Y-111437302D01*
X148646008Y-111516862D01*
X148597491Y-111607632D01*
X148567614Y-111706123D01*
X148557526Y-111808550D01*
X148557526Y-112321050D01*
X148567614Y-112423477D01*
X148597491Y-112521968D01*
X148646008Y-112612738D01*
X148711302Y-112692298D01*
X148790862Y-112757592D01*
X148881632Y-112806109D01*
X148980123Y-112835986D01*
X149082550Y-112846074D01*
X149520050Y-112846074D01*
X149622477Y-112835986D01*
X149720968Y-112806109D01*
X149811738Y-112757592D01*
X149891298Y-112692298D01*
X149956592Y-112612738D01*
X150005109Y-112521968D01*
X150021116Y-112469200D01*
X150493989Y-112469200D01*
X150502291Y-112496568D01*
X150550808Y-112587338D01*
X150616102Y-112666898D01*
X150695662Y-112732192D01*
X150786432Y-112780709D01*
X150884923Y-112810586D01*
X150987350Y-112820674D01*
X151424850Y-112820674D01*
X151527277Y-112810586D01*
X151625768Y-112780709D01*
X151716538Y-112732192D01*
X151796098Y-112666898D01*
X151861392Y-112587338D01*
X151909909Y-112496568D01*
X151939786Y-112398077D01*
X151949874Y-112295650D01*
X151949874Y-111783150D01*
X151939786Y-111680723D01*
X151909909Y-111582232D01*
X151861392Y-111491462D01*
X151796098Y-111411902D01*
X151716538Y-111346608D01*
X151625768Y-111298091D01*
X151527277Y-111268214D01*
X151424850Y-111258126D01*
X150987350Y-111258126D01*
X150884923Y-111268214D01*
X150786432Y-111298091D01*
X150695662Y-111346608D01*
X150616102Y-111411902D01*
X150550808Y-111491462D01*
X150502291Y-111582232D01*
X150493989Y-111609600D01*
X150005706Y-111609600D01*
X150005109Y-111607632D01*
X149956592Y-111516862D01*
X149891298Y-111437302D01*
X149811738Y-111372008D01*
X149720968Y-111323491D01*
X149622900Y-111293742D01*
X149622900Y-109587170D01*
X149653949Y-109596589D01*
X149713700Y-109602474D01*
X150272500Y-109602474D01*
X150332251Y-109596589D01*
X150389706Y-109579160D01*
X150393100Y-109577346D01*
X150396494Y-109579160D01*
X150453949Y-109596589D01*
X150513700Y-109602474D01*
X151072500Y-109602474D01*
X151132251Y-109596589D01*
X151189706Y-109579160D01*
X151242657Y-109550858D01*
X151289068Y-109512768D01*
X151327158Y-109466357D01*
X151355460Y-109413406D01*
X151372889Y-109355951D01*
X151378774Y-109296200D01*
X151378774Y-108026200D01*
X151372889Y-107966449D01*
X151355460Y-107908994D01*
X151327158Y-107856043D01*
X151289068Y-107809632D01*
X151242657Y-107771542D01*
X151189706Y-107743240D01*
X151132251Y-107725811D01*
X151072500Y-107719926D01*
X150634421Y-107719926D01*
X150643100Y-107676295D01*
X150643100Y-107543705D01*
X150617233Y-107413664D01*
X150566494Y-107291168D01*
X150492831Y-107180924D01*
X150399076Y-107087169D01*
X150288832Y-107013506D01*
X150166336Y-106962767D01*
X150036295Y-106936900D01*
X149903705Y-106936900D01*
X149773664Y-106962767D01*
X149651168Y-107013506D01*
X149540924Y-107087169D01*
X149447169Y-107180924D01*
X149373506Y-107291168D01*
X149322767Y-107413664D01*
X149296900Y-107543705D01*
X149296900Y-107676295D01*
X149305579Y-107719926D01*
X149082432Y-107719926D01*
X149093100Y-107666295D01*
X149093100Y-107533705D01*
X149067233Y-107403664D01*
X149016494Y-107281168D01*
X148942831Y-107170924D01*
X148849076Y-107077169D01*
X148738832Y-107003506D01*
X148616336Y-106952767D01*
X148486295Y-106926900D01*
X148353705Y-106926900D01*
X148223664Y-106952767D01*
X148101168Y-107003506D01*
X147990924Y-107077169D01*
X147897169Y-107170924D01*
X147823506Y-107281168D01*
X147772767Y-107403664D01*
X147746900Y-107533705D01*
X147746900Y-107666295D01*
X147757568Y-107719926D01*
X147313700Y-107719926D01*
X147253949Y-107725811D01*
X147196494Y-107743240D01*
X147193100Y-107745054D01*
X147189706Y-107743240D01*
X147132251Y-107725811D01*
X147072500Y-107719926D01*
X146513700Y-107719926D01*
X146453949Y-107725811D01*
X146396494Y-107743240D01*
X146393100Y-107745054D01*
X146389706Y-107743240D01*
X146332251Y-107725811D01*
X146272500Y-107719926D01*
X145713700Y-107719926D01*
X145653949Y-107725811D01*
X145596494Y-107743240D01*
X145593100Y-107745054D01*
X145589706Y-107743240D01*
X145532251Y-107725811D01*
X145472500Y-107719926D01*
X144913700Y-107719926D01*
X144853949Y-107725811D01*
X144796494Y-107743240D01*
X144743543Y-107771542D01*
X144697132Y-107809632D01*
X144659042Y-107856043D01*
X144630740Y-107908994D01*
X144613311Y-107966449D01*
X144607426Y-108026200D01*
X144607426Y-109296200D01*
X144613311Y-109355951D01*
X144630740Y-109413406D01*
X144659042Y-109466357D01*
X144697132Y-109512768D01*
X144743543Y-109550858D01*
X144762688Y-109561091D01*
X144769520Y-109630455D01*
X144794096Y-109711472D01*
X144834006Y-109786139D01*
X144854613Y-109811248D01*
X144887716Y-109851585D01*
X144904115Y-109865043D01*
X145556021Y-110516950D01*
X145569479Y-110533349D01*
X145593527Y-110553084D01*
X145634924Y-110587058D01*
X145709591Y-110626968D01*
X145790609Y-110651545D01*
X145853755Y-110657764D01*
X145853757Y-110657764D01*
X145874864Y-110659843D01*
X145895971Y-110657764D01*
X146167491Y-110657764D01*
X146180510Y-110677248D01*
X146278680Y-110775418D01*
X146394116Y-110852549D01*
X146461545Y-110880479D01*
X146189524Y-111152500D01*
X144525293Y-111152500D01*
X144482192Y-111071862D01*
X144416898Y-110992302D01*
X144337338Y-110927008D01*
X144246568Y-110878491D01*
X144148077Y-110848614D01*
X144045650Y-110838526D01*
X143533150Y-110838526D01*
X143430723Y-110848614D01*
X143332232Y-110878491D01*
X143241462Y-110927008D01*
X143161902Y-110992302D01*
X143096608Y-111071862D01*
X143048091Y-111162632D01*
X143035754Y-111203300D01*
X142747293Y-111203300D01*
X142704192Y-111122662D01*
X142638898Y-111043102D01*
X142559338Y-110977808D01*
X142468568Y-110929291D01*
X142370077Y-110899414D01*
X142267650Y-110889326D01*
X141755150Y-110889326D01*
X141652723Y-110899414D01*
X141554232Y-110929291D01*
X141463462Y-110977808D01*
X141383902Y-111043102D01*
X141318608Y-111122662D01*
X141287500Y-111180862D01*
X141287500Y-110510338D01*
X141318608Y-110568538D01*
X141383902Y-110648098D01*
X141463462Y-110713392D01*
X141554232Y-110761909D01*
X141652723Y-110791786D01*
X141755150Y-110801874D01*
X142267650Y-110801874D01*
X142370077Y-110791786D01*
X142468568Y-110761909D01*
X142559338Y-110713392D01*
X142638898Y-110648098D01*
X142704192Y-110568538D01*
X142713887Y-110550400D01*
X143123413Y-110550400D01*
X143161902Y-110597298D01*
X143241462Y-110662592D01*
X143332232Y-110711109D01*
X143430723Y-110740986D01*
X143533150Y-110751074D01*
X144045650Y-110751074D01*
X144148077Y-110740986D01*
X144246568Y-110711109D01*
X144337338Y-110662592D01*
X144416898Y-110597298D01*
X144482192Y-110517738D01*
X144530709Y-110426968D01*
X144560586Y-110328477D01*
X144570674Y-110226050D01*
X144570674Y-109788550D01*
X144560586Y-109686123D01*
X144530709Y-109587632D01*
X144482192Y-109496862D01*
X144416898Y-109417302D01*
X144344200Y-109357640D01*
X144344200Y-109175690D01*
X144413985Y-109071248D01*
X144467115Y-108942983D01*
X144494200Y-108806817D01*
X144494200Y-108667983D01*
X144467115Y-108531817D01*
X144413985Y-108403552D01*
X144336854Y-108288116D01*
X144238684Y-108189946D01*
X144123248Y-108112815D01*
X143994983Y-108059685D01*
X143858817Y-108032600D01*
X143719983Y-108032600D01*
X143583817Y-108059685D01*
X143455552Y-108112815D01*
X143340116Y-108189946D01*
X143241946Y-108288116D01*
X143164815Y-108403552D01*
X143111685Y-108531817D01*
X143084600Y-108667983D01*
X143084600Y-108806817D01*
X143111685Y-108942983D01*
X143164815Y-109071248D01*
X143234601Y-109175691D01*
X143234600Y-109357639D01*
X143161902Y-109417302D01*
X143142617Y-109440800D01*
X142605631Y-109440800D01*
X142559338Y-109402808D01*
X142468568Y-109354291D01*
X142370077Y-109324414D01*
X142267650Y-109314326D01*
X141755150Y-109314326D01*
X141652723Y-109324414D01*
X141554232Y-109354291D01*
X141463462Y-109402808D01*
X141383902Y-109468102D01*
X141318608Y-109547662D01*
X141287500Y-109605862D01*
X141287500Y-105568200D01*
X141332529Y-105568200D01*
X141338399Y-105627794D01*
X141355782Y-105685099D01*
X141384010Y-105737911D01*
X141421999Y-105784201D01*
X141468289Y-105822190D01*
X141521101Y-105850418D01*
X141578406Y-105867801D01*
X141638000Y-105873671D01*
X141961200Y-105872200D01*
X142037200Y-105796200D01*
X142037200Y-105206500D01*
X141410000Y-105206500D01*
X141334000Y-105282500D01*
X141332529Y-105568200D01*
X141287500Y-105568200D01*
X141287500Y-104693200D01*
X141332529Y-104693200D01*
X141334000Y-104978900D01*
X141410000Y-105054900D01*
X142037200Y-105054900D01*
X142037200Y-104465200D01*
X141961200Y-104389200D01*
X141638000Y-104387729D01*
X141578406Y-104393599D01*
X141521101Y-104410982D01*
X141468289Y-104439210D01*
X141421999Y-104477199D01*
X141384010Y-104523489D01*
X141355782Y-104576301D01*
X141338399Y-104633606D01*
X141332529Y-104693200D01*
X141287500Y-104693200D01*
X141287500Y-100632754D01*
X141347642Y-100706036D01*
X141427202Y-100771330D01*
X141517972Y-100819847D01*
X141616463Y-100849724D01*
X141718890Y-100859812D01*
X142156390Y-100859812D01*
X142258817Y-100849724D01*
X142357308Y-100819847D01*
X142448078Y-100771330D01*
X142527638Y-100706036D01*
X142592932Y-100626476D01*
X142641449Y-100535706D01*
X142671326Y-100437215D01*
X142681414Y-100334788D01*
X142681414Y-99822288D01*
X142671326Y-99719861D01*
X142641449Y-99621370D01*
X142592932Y-99530600D01*
X142527638Y-99451040D01*
X142494197Y-99423595D01*
X142538552Y-99387194D01*
X142595296Y-99318052D01*
X142637460Y-99239169D01*
X142663425Y-99153575D01*
X142672192Y-99064560D01*
X142672192Y-98364560D01*
X142663425Y-98275545D01*
X142644926Y-98214560D01*
X142814447Y-98214560D01*
X142815918Y-98562760D01*
X142891918Y-98638760D01*
X143544118Y-98638760D01*
X143544118Y-97986560D01*
X143468118Y-97910560D01*
X143119918Y-97909089D01*
X143060324Y-97914959D01*
X143003019Y-97932342D01*
X142950207Y-97960570D01*
X142903917Y-97998559D01*
X142865928Y-98044849D01*
X142837700Y-98097661D01*
X142820317Y-98154966D01*
X142814447Y-98214560D01*
X142644926Y-98214560D01*
X142637460Y-98189951D01*
X142595296Y-98111068D01*
X142538552Y-98041926D01*
X142469410Y-97985182D01*
X142390527Y-97943018D01*
X142304933Y-97917053D01*
X142215918Y-97908286D01*
X141515918Y-97908286D01*
X141426903Y-97917053D01*
X141341309Y-97943018D01*
X141287500Y-97971780D01*
X141287500Y-96768281D01*
X144169490Y-93885000D01*
X144682010Y-93885000D01*
X144670716Y-93892546D01*
G37*
X144670716Y-93892546D02*
X144572546Y-93990716D01*
X144495415Y-94106152D01*
X144442285Y-94234417D01*
X144415200Y-94370583D01*
X144415200Y-94509417D01*
X144442285Y-94645583D01*
X144495415Y-94773848D01*
X144572546Y-94889284D01*
X144670716Y-94987454D01*
X144786152Y-95064585D01*
X144914417Y-95117715D01*
X145050583Y-95144800D01*
X145189417Y-95144800D01*
X145325583Y-95117715D01*
X145453848Y-95064585D01*
X145507800Y-95028536D01*
X145970220Y-95490956D01*
X145961100Y-95536804D01*
X145961100Y-95674396D01*
X145962637Y-95682125D01*
X145899634Y-95619122D01*
X145768589Y-95531561D01*
X145622980Y-95471248D01*
X145468403Y-95440500D01*
X145310797Y-95440500D01*
X145156220Y-95471248D01*
X145010611Y-95531561D01*
X144879566Y-95619122D01*
X144768122Y-95730566D01*
X144680561Y-95861611D01*
X144620248Y-96007220D01*
X144589500Y-96161797D01*
X144589500Y-96319403D01*
X144620248Y-96473980D01*
X144680561Y-96619589D01*
X144753416Y-96728625D01*
X144643848Y-96655415D01*
X144515583Y-96602285D01*
X144379417Y-96575200D01*
X144240583Y-96575200D01*
X144104417Y-96602285D01*
X143976152Y-96655415D01*
X143860716Y-96732546D01*
X143762546Y-96830716D01*
X143685415Y-96946152D01*
X143632285Y-97074417D01*
X143605200Y-97210583D01*
X143605200Y-97349417D01*
X143632285Y-97485583D01*
X143685415Y-97613848D01*
X143762546Y-97729284D01*
X143860716Y-97827454D01*
X143976152Y-97904585D01*
X143988367Y-97909645D01*
X143771718Y-97910560D01*
X143695718Y-97986560D01*
X143695718Y-98638760D01*
X143715718Y-98638760D01*
X143715718Y-98790360D01*
X143695718Y-98790360D01*
X143695718Y-98810360D01*
X143544118Y-98810360D01*
X143544118Y-98790360D01*
X142891918Y-98790360D01*
X142815918Y-98866360D01*
X142814447Y-99214560D01*
X142820317Y-99274154D01*
X142837700Y-99331459D01*
X142865928Y-99384271D01*
X142903917Y-99430561D01*
X142925756Y-99448484D01*
X142922642Y-99451040D01*
X142857348Y-99530600D01*
X142808831Y-99621370D01*
X142778954Y-99719861D01*
X142768866Y-99822288D01*
X142768866Y-100334788D01*
X142778954Y-100437215D01*
X142808831Y-100535706D01*
X142857348Y-100626476D01*
X142922642Y-100706036D01*
X143002202Y-100771330D01*
X143092972Y-100819847D01*
X143191463Y-100849724D01*
X143293890Y-100859812D01*
X143294101Y-100859812D01*
X143294100Y-100982926D01*
X143065500Y-100982926D01*
X143005749Y-100988811D01*
X142948294Y-101006240D01*
X142895343Y-101034542D01*
X142848932Y-101072632D01*
X142810842Y-101119043D01*
X142782540Y-101171994D01*
X142765111Y-101229449D01*
X142759226Y-101289200D01*
X142759226Y-101848000D01*
X142765111Y-101907751D01*
X142782540Y-101965206D01*
X142784354Y-101968600D01*
X142782540Y-101971994D01*
X142765111Y-102029449D01*
X142759226Y-102089200D01*
X142759226Y-102648000D01*
X142765111Y-102707751D01*
X142782540Y-102765206D01*
X142784354Y-102768600D01*
X142782540Y-102771994D01*
X142765111Y-102829449D01*
X142759226Y-102889200D01*
X142759226Y-102988522D01*
X142740498Y-102965702D01*
X142660938Y-102900408D01*
X142570168Y-102851891D01*
X142471677Y-102822014D01*
X142369250Y-102811926D01*
X141856750Y-102811926D01*
X141754323Y-102822014D01*
X141655832Y-102851891D01*
X141565062Y-102900408D01*
X141485502Y-102965702D01*
X141420208Y-103045262D01*
X141371691Y-103136032D01*
X141341814Y-103234523D01*
X141331726Y-103336950D01*
X141331726Y-103774450D01*
X141341814Y-103876877D01*
X141371691Y-103975368D01*
X141420208Y-104066138D01*
X141485502Y-104145698D01*
X141565062Y-104210992D01*
X141655832Y-104259509D01*
X141754323Y-104289386D01*
X141856750Y-104299474D01*
X141933661Y-104299474D01*
X141944224Y-104308143D01*
X142014825Y-104345880D01*
X142091432Y-104369119D01*
X142171099Y-104376965D01*
X142207134Y-104373416D01*
X142247476Y-104406524D01*
X142188800Y-104465200D01*
X142188800Y-105054900D01*
X142208800Y-105054900D01*
X142208800Y-105206500D01*
X142188800Y-105206500D01*
X142188800Y-105796200D01*
X142264800Y-105872200D01*
X142588000Y-105873671D01*
X142647594Y-105867801D01*
X142704899Y-105850418D01*
X142757711Y-105822190D01*
X142759226Y-105820947D01*
X142759226Y-105848000D01*
X142765111Y-105907751D01*
X142782540Y-105965206D01*
X142784354Y-105968600D01*
X142782540Y-105971994D01*
X142765111Y-106029449D01*
X142759226Y-106089200D01*
X142759226Y-106648000D01*
X142765111Y-106707751D01*
X142782540Y-106765206D01*
X142784354Y-106768600D01*
X142782540Y-106771994D01*
X142765111Y-106829449D01*
X142759226Y-106889200D01*
X142759226Y-107448000D01*
X142765111Y-107507751D01*
X142782540Y-107565206D01*
X142810842Y-107618157D01*
X142848932Y-107664568D01*
X142895343Y-107702658D01*
X142948294Y-107730960D01*
X143005749Y-107748389D01*
X143065500Y-107754274D01*
X144335500Y-107754274D01*
X144395251Y-107748389D01*
X144452706Y-107730960D01*
X144505657Y-107702658D01*
X144552068Y-107664568D01*
X144590158Y-107618157D01*
X144618460Y-107565206D01*
X144635889Y-107507751D01*
X144641774Y-107448000D01*
X144641774Y-106889200D01*
X144635889Y-106829449D01*
X144618460Y-106771994D01*
X144616646Y-106768600D01*
X144618460Y-106765206D01*
X144635889Y-106707751D01*
X144641774Y-106648000D01*
X144641774Y-106089200D01*
X144635889Y-106029449D01*
X144618460Y-105971994D01*
X144616646Y-105968600D01*
X144618460Y-105965206D01*
X144635889Y-105907751D01*
X144641774Y-105848000D01*
X144641774Y-105289200D01*
X144635889Y-105229449D01*
X144618460Y-105171994D01*
X144616193Y-105167752D01*
X144617718Y-105164899D01*
X144635101Y-105107594D01*
X144640971Y-105048000D01*
X144639500Y-104920400D01*
X144563500Y-104844400D01*
X143776300Y-104844400D01*
X143776300Y-104864400D01*
X143624700Y-104864400D01*
X143624700Y-104844400D01*
X143604700Y-104844400D01*
X143604700Y-104692800D01*
X143624700Y-104692800D01*
X143624700Y-104672800D01*
X143776300Y-104672800D01*
X143776300Y-104692800D01*
X144563500Y-104692800D01*
X144639500Y-104616800D01*
X144640577Y-104523400D01*
X145112075Y-104523400D01*
X145209417Y-104563721D01*
X145345583Y-104590806D01*
X145484417Y-104590806D01*
X145620583Y-104563721D01*
X145748848Y-104510591D01*
X145864284Y-104433460D01*
X145962454Y-104335290D01*
X146039585Y-104219854D01*
X146092715Y-104091589D01*
X146119800Y-103955423D01*
X146119800Y-103816589D01*
X146092715Y-103680423D01*
X146039585Y-103552158D01*
X145962454Y-103436722D01*
X145864284Y-103338552D01*
X145748848Y-103261421D01*
X145671398Y-103229340D01*
X145708454Y-103192284D01*
X145785585Y-103076848D01*
X145838715Y-102948583D01*
X145844544Y-102919278D01*
X146332221Y-103406955D01*
X146326900Y-103433703D01*
X146326900Y-103566293D01*
X146352767Y-103696334D01*
X146403506Y-103818830D01*
X146477169Y-103929074D01*
X146570924Y-104022829D01*
X146681168Y-104096492D01*
X146803664Y-104147231D01*
X146933705Y-104173098D01*
X147066295Y-104173098D01*
X147196336Y-104147231D01*
X147318832Y-104096492D01*
X147429076Y-104022829D01*
X147522831Y-103929074D01*
X147596494Y-103818830D01*
X147647233Y-103696334D01*
X147673100Y-103566293D01*
X147673100Y-103543836D01*
X147795221Y-103665957D01*
X147789900Y-103692705D01*
X147789900Y-103825295D01*
X147815767Y-103955336D01*
X147866506Y-104077832D01*
X147940169Y-104188076D01*
X148033924Y-104281831D01*
X148144168Y-104355494D01*
X148266664Y-104406233D01*
X148396705Y-104432100D01*
X148529295Y-104432100D01*
X148659336Y-104406233D01*
X148781832Y-104355494D01*
X148892076Y-104281831D01*
X148985831Y-104188076D01*
X149059494Y-104077832D01*
X149110233Y-103955336D01*
X149136100Y-103825295D01*
X149136100Y-103692705D01*
X149110233Y-103562664D01*
X149059494Y-103440168D01*
X148985831Y-103329924D01*
X148892076Y-103236169D01*
X148781832Y-103162506D01*
X148659336Y-103111767D01*
X148529295Y-103085900D01*
X148396705Y-103085900D01*
X148369957Y-103091221D01*
X148085694Y-102806958D01*
X148163848Y-102774585D01*
X148279284Y-102697454D01*
X148377454Y-102599284D01*
X148454585Y-102483848D01*
X148507715Y-102355583D01*
X148534800Y-102219417D01*
X148534800Y-102080583D01*
X148507715Y-101944417D01*
X148454585Y-101816152D01*
X148377454Y-101700716D01*
X148279284Y-101602546D01*
X148163848Y-101525415D01*
X148035583Y-101472285D01*
X147899417Y-101445200D01*
X147760583Y-101445200D01*
X147624417Y-101472285D01*
X147496152Y-101525415D01*
X147380716Y-101602546D01*
X147282546Y-101700716D01*
X147205415Y-101816152D01*
X147199500Y-101830432D01*
X147199500Y-100994872D01*
X147253949Y-101011389D01*
X147313700Y-101017274D01*
X147872500Y-101017274D01*
X147932251Y-101011389D01*
X147989706Y-100993960D01*
X147993100Y-100992146D01*
X147996494Y-100993960D01*
X148053949Y-101011389D01*
X148113700Y-101017274D01*
X148672500Y-101017274D01*
X148732251Y-101011389D01*
X148789706Y-100993960D01*
X148793100Y-100992146D01*
X148796494Y-100993960D01*
X148853949Y-101011389D01*
X148913700Y-101017274D01*
X149472500Y-101017274D01*
X149532251Y-101011389D01*
X149589706Y-100993960D01*
X149593100Y-100992146D01*
X149596494Y-100993960D01*
X149653949Y-101011389D01*
X149713700Y-101017274D01*
X150272500Y-101017274D01*
X150332251Y-101011389D01*
X150389706Y-100993960D01*
X150393100Y-100992146D01*
X150396494Y-100993960D01*
X150453949Y-101011389D01*
X150513700Y-101017274D01*
X151072500Y-101017274D01*
X151132251Y-101011389D01*
X151189706Y-100993960D01*
X151242657Y-100965658D01*
X151289068Y-100927568D01*
X151327158Y-100881157D01*
X151355460Y-100828206D01*
X151372889Y-100770751D01*
X151378774Y-100711000D01*
X151378774Y-100482379D01*
X151438268Y-100476519D01*
X151514875Y-100453281D01*
X151585476Y-100415544D01*
X151647358Y-100364758D01*
X151660082Y-100349254D01*
X152654690Y-99354647D01*
X152757647Y-99354647D01*
X152773047Y-99405415D01*
X152821564Y-99496185D01*
X152886858Y-99575745D01*
X152966418Y-99641039D01*
X153057188Y-99689556D01*
X153155679Y-99719433D01*
X153258106Y-99729521D01*
X153695606Y-99729521D01*
X153798033Y-99719433D01*
X153896524Y-99689556D01*
X153987294Y-99641039D01*
X154066854Y-99575745D01*
X154132148Y-99496185D01*
X154180665Y-99405415D01*
X154210542Y-99306924D01*
X154220630Y-99204497D01*
X154220630Y-98691997D01*
X154210542Y-98589570D01*
X154180665Y-98491079D01*
X154132148Y-98400309D01*
X154097579Y-98358187D01*
X154118486Y-98332711D01*
X154146714Y-98279899D01*
X154164097Y-98222594D01*
X154169967Y-98163000D01*
X154168496Y-97814800D01*
X154092496Y-97738800D01*
X153440296Y-97738800D01*
X153440296Y-97758800D01*
X153288696Y-97758800D01*
X153288696Y-97738800D01*
X152636496Y-97738800D01*
X152560496Y-97814800D01*
X152559025Y-98163000D01*
X152564895Y-98222594D01*
X152582278Y-98279899D01*
X152610506Y-98332711D01*
X152648495Y-98379001D01*
X152694785Y-98416990D01*
X152747597Y-98445218D01*
X152790589Y-98458259D01*
X152773047Y-98491079D01*
X152757647Y-98541847D01*
X152506306Y-98541847D01*
X152486353Y-98539882D01*
X152466400Y-98541847D01*
X152466393Y-98541847D01*
X152413957Y-98547012D01*
X152406684Y-98547728D01*
X152371879Y-98558286D01*
X152330078Y-98570966D01*
X152259477Y-98608703D01*
X152234099Y-98629530D01*
X152213098Y-98646765D01*
X152213093Y-98646770D01*
X152197595Y-98659489D01*
X152184876Y-98674988D01*
X151378774Y-99481090D01*
X151378774Y-99441000D01*
X151372889Y-99381249D01*
X151355460Y-99323794D01*
X151327158Y-99270843D01*
X151289068Y-99224432D01*
X151242657Y-99186342D01*
X151189706Y-99158040D01*
X151132251Y-99140611D01*
X151072500Y-99134726D01*
X150513700Y-99134726D01*
X150453949Y-99140611D01*
X150396494Y-99158040D01*
X150393100Y-99159854D01*
X150389706Y-99158040D01*
X150332251Y-99140611D01*
X150272500Y-99134726D01*
X150035905Y-99134726D01*
X150088694Y-99099454D01*
X150186864Y-99001284D01*
X150263995Y-98885848D01*
X150317125Y-98757583D01*
X150344210Y-98621417D01*
X150344210Y-98482583D01*
X150317125Y-98346417D01*
X150263995Y-98218152D01*
X150186864Y-98102716D01*
X150088694Y-98004546D01*
X150045810Y-97975892D01*
X150045810Y-97935704D01*
X150090611Y-97965639D01*
X150236220Y-98025952D01*
X150390797Y-98056700D01*
X150548403Y-98056700D01*
X150702980Y-98025952D01*
X150848589Y-97965639D01*
X150979634Y-97878078D01*
X151091078Y-97766634D01*
X151178639Y-97635589D01*
X151238952Y-97489980D01*
X151269700Y-97335403D01*
X151269700Y-97177797D01*
X151266757Y-97163000D01*
X152559025Y-97163000D01*
X152560496Y-97511200D01*
X152636496Y-97587200D01*
X153288696Y-97587200D01*
X153288696Y-96935000D01*
X153440296Y-96935000D01*
X153440296Y-97587200D01*
X154092496Y-97587200D01*
X154168496Y-97511200D01*
X154169967Y-97163000D01*
X154164097Y-97103406D01*
X154146714Y-97046101D01*
X154118486Y-96993289D01*
X154080497Y-96946999D01*
X154034207Y-96909010D01*
X153981395Y-96880782D01*
X153924090Y-96863399D01*
X153864496Y-96857529D01*
X153516296Y-96859000D01*
X153440296Y-96935000D01*
X153288696Y-96935000D01*
X153212696Y-96859000D01*
X152864496Y-96857529D01*
X152804902Y-96863399D01*
X152747597Y-96880782D01*
X152694785Y-96909010D01*
X152648495Y-96946999D01*
X152610506Y-96993289D01*
X152582278Y-97046101D01*
X152564895Y-97103406D01*
X152559025Y-97163000D01*
X151266757Y-97163000D01*
X151238952Y-97023220D01*
X151178639Y-96877611D01*
X151091078Y-96746566D01*
X150979634Y-96635122D01*
X150848589Y-96547561D01*
X150702980Y-96487248D01*
X150548403Y-96456500D01*
X150390797Y-96456500D01*
X150236220Y-96487248D01*
X150090611Y-96547561D01*
X149959566Y-96635122D01*
X149879814Y-96714874D01*
X149871257Y-96671855D01*
X149818603Y-96544736D01*
X149742161Y-96430332D01*
X149644868Y-96333039D01*
X149530464Y-96256597D01*
X149492222Y-96240757D01*
X149511947Y-96233251D01*
X149547943Y-96214011D01*
X149584735Y-96097932D01*
X149199600Y-95712797D01*
X148814465Y-96097932D01*
X148851257Y-96214011D01*
X148908996Y-96239921D01*
X148868736Y-96256597D01*
X148754332Y-96333039D01*
X148657039Y-96430332D01*
X148580597Y-96544736D01*
X148564600Y-96583356D01*
X148548603Y-96544736D01*
X148472161Y-96430332D01*
X148374868Y-96333039D01*
X148260464Y-96256597D01*
X148221844Y-96240600D01*
X148260464Y-96224603D01*
X148374868Y-96148161D01*
X148472161Y-96050868D01*
X148548603Y-95936464D01*
X148564443Y-95898222D01*
X148571949Y-95917947D01*
X148591189Y-95953943D01*
X148707268Y-95990735D01*
X149092403Y-95605600D01*
X148707268Y-95220465D01*
X148591189Y-95257257D01*
X148565279Y-95314996D01*
X148548603Y-95274736D01*
X148472161Y-95160332D01*
X148464683Y-95152854D01*
X148477053Y-95140483D01*
X148495237Y-95113268D01*
X148814465Y-95113268D01*
X149199600Y-95498403D01*
X149213743Y-95484261D01*
X149320940Y-95591458D01*
X149306797Y-95605600D01*
X149691932Y-95990735D01*
X149808011Y-95953943D01*
X149864278Y-95828554D01*
X149878787Y-95765299D01*
X149959566Y-95846078D01*
X150090611Y-95933639D01*
X150236220Y-95993952D01*
X150390797Y-96024700D01*
X150548403Y-96024700D01*
X150702980Y-95993952D01*
X150848589Y-95933639D01*
X150979634Y-95846078D01*
X151091078Y-95734634D01*
X151178639Y-95603589D01*
X151238952Y-95457980D01*
X151269700Y-95303403D01*
X151269700Y-95145797D01*
X151251358Y-95053583D01*
X151314200Y-95053583D01*
X151314200Y-95192417D01*
X151341285Y-95328583D01*
X151394415Y-95456848D01*
X151471546Y-95572284D01*
X151569716Y-95670454D01*
X151685152Y-95747585D01*
X151813417Y-95800715D01*
X151949583Y-95827800D01*
X152088417Y-95827800D01*
X152224583Y-95800715D01*
X152352848Y-95747585D01*
X152457290Y-95677800D01*
X152632884Y-95677800D01*
X152653170Y-95694448D01*
X152771991Y-95757959D01*
X152900918Y-95797069D01*
X153034999Y-95810275D01*
X153035001Y-95810275D01*
X153169082Y-95797069D01*
X153298009Y-95757959D01*
X153416830Y-95694448D01*
X153520977Y-95608977D01*
X153606448Y-95504830D01*
X153669959Y-95386009D01*
X153709069Y-95257082D01*
X153722275Y-95123001D01*
X153722275Y-95122999D01*
X153709069Y-94988918D01*
X153669959Y-94859991D01*
X153606448Y-94741170D01*
X153520977Y-94637023D01*
X153416830Y-94551552D01*
X153298009Y-94488041D01*
X153169082Y-94448931D01*
X153035001Y-94435725D01*
X153034999Y-94435725D01*
X152900918Y-94448931D01*
X152771991Y-94488041D01*
X152653170Y-94551552D01*
X152632884Y-94568200D01*
X152457290Y-94568200D01*
X152352848Y-94498415D01*
X152224583Y-94445285D01*
X152088417Y-94418200D01*
X151949583Y-94418200D01*
X151813417Y-94445285D01*
X151685152Y-94498415D01*
X151569716Y-94575546D01*
X151471546Y-94673716D01*
X151394415Y-94789152D01*
X151341285Y-94917417D01*
X151314200Y-95053583D01*
X151251358Y-95053583D01*
X151238952Y-94991220D01*
X151178639Y-94845611D01*
X151091078Y-94714566D01*
X150979634Y-94603122D01*
X150848589Y-94515561D01*
X150702980Y-94455248D01*
X150548403Y-94424500D01*
X150390797Y-94424500D01*
X150236220Y-94455248D01*
X150090611Y-94515561D01*
X149959566Y-94603122D01*
X149848122Y-94714566D01*
X149760561Y-94845611D01*
X149700248Y-94991220D01*
X149679691Y-95094567D01*
X149641562Y-95056438D01*
X149584734Y-95113266D01*
X149547943Y-94997189D01*
X149422554Y-94940922D01*
X149288598Y-94910197D01*
X149151221Y-94906196D01*
X149015703Y-94929073D01*
X148887253Y-94977949D01*
X148851257Y-94997189D01*
X148814465Y-95113268D01*
X148495237Y-95113268D01*
X148554184Y-95025047D01*
X148607314Y-94896782D01*
X148634399Y-94760616D01*
X148634399Y-94621782D01*
X148607314Y-94485616D01*
X148554184Y-94357351D01*
X148477053Y-94241915D01*
X148378883Y-94143745D01*
X148263447Y-94066614D01*
X148135182Y-94013484D01*
X147999016Y-93986399D01*
X147860182Y-93986399D01*
X147724016Y-94013484D01*
X147595751Y-94066614D01*
X147480315Y-94143745D01*
X147382145Y-94241915D01*
X147305014Y-94357351D01*
X147251884Y-94485616D01*
X147224799Y-94621782D01*
X147224799Y-94760616D01*
X147251884Y-94896782D01*
X147305014Y-95025047D01*
X147382145Y-95140483D01*
X147394517Y-95152855D01*
X147387039Y-95160332D01*
X147310597Y-95274736D01*
X147294600Y-95313356D01*
X147278603Y-95274736D01*
X147202161Y-95160332D01*
X147104868Y-95063039D01*
X146990464Y-94986597D01*
X146863345Y-94933943D01*
X146728396Y-94907100D01*
X146590804Y-94907100D01*
X146544956Y-94916220D01*
X145795482Y-94166746D01*
X145782758Y-94151242D01*
X145753221Y-94127001D01*
X145744585Y-94106152D01*
X145667454Y-93990716D01*
X145569284Y-93892546D01*
X145557990Y-93885000D01*
X152831664Y-93885000D01*
X155714701Y-96768038D01*
X155714701Y-96929727D01*
X155643105Y-96891458D01*
X155557511Y-96865493D01*
X155468496Y-96856726D01*
X154768496Y-96856726D01*
X154679481Y-96865493D01*
X154593887Y-96891458D01*
X154515004Y-96933622D01*
X154445862Y-96990366D01*
X154389118Y-97059508D01*
X154346954Y-97138391D01*
X154320989Y-97223985D01*
X154312222Y-97313000D01*
X154312222Y-98013000D01*
X154320989Y-98102015D01*
X154346954Y-98187609D01*
X154389118Y-98266492D01*
X154445862Y-98335634D01*
X154448121Y-98337488D01*
X154396564Y-98400309D01*
X154348047Y-98491079D01*
X154318170Y-98589570D01*
X154308082Y-98691997D01*
X154308082Y-99204497D01*
X154318170Y-99306924D01*
X154348047Y-99405415D01*
X154396564Y-99496185D01*
X154461858Y-99575745D01*
X154541418Y-99641039D01*
X154632188Y-99689556D01*
X154730679Y-99719433D01*
X154833106Y-99729521D01*
X155270606Y-99729521D01*
X155373033Y-99719433D01*
X155471524Y-99689556D01*
X155562294Y-99641039D01*
X155641854Y-99575745D01*
X155707148Y-99496185D01*
X155714701Y-99482054D01*
X155714701Y-100210159D01*
X155695751Y-100204411D01*
X155636000Y-100198526D01*
X153736000Y-100198526D01*
X153676249Y-100204411D01*
X153618794Y-100221840D01*
X153565843Y-100250142D01*
X153519432Y-100288232D01*
X153481455Y-100334505D01*
X153423924Y-100365256D01*
X153409027Y-100377482D01*
X153377545Y-100403318D01*
X153377540Y-100403323D01*
X153362042Y-100416042D01*
X153349322Y-100431541D01*
X152797938Y-100982926D01*
X151650700Y-100982926D01*
X151590949Y-100988811D01*
X151533494Y-101006240D01*
X151480543Y-101034542D01*
X151434132Y-101072632D01*
X151396042Y-101119043D01*
X151367740Y-101171994D01*
X151350311Y-101229449D01*
X151344426Y-101289200D01*
X151344426Y-101848000D01*
X151350311Y-101907751D01*
X151367740Y-101965206D01*
X151369554Y-101968600D01*
X151367740Y-101971994D01*
X151350311Y-102029449D01*
X151344426Y-102089200D01*
X151344426Y-102383626D01*
X151335583Y-102379963D01*
X151199417Y-102352878D01*
X151060583Y-102352878D01*
X150924417Y-102379963D01*
X150796152Y-102433093D01*
X150680716Y-102510224D01*
X150582546Y-102608394D01*
X150505415Y-102723830D01*
X150452285Y-102852095D01*
X150425200Y-102988261D01*
X150425200Y-103127095D01*
X150452285Y-103263261D01*
X150505415Y-103391526D01*
X150582546Y-103506962D01*
X150680716Y-103605132D01*
X150796152Y-103682263D01*
X150924417Y-103735393D01*
X151060583Y-103762478D01*
X151199417Y-103762478D01*
X151335583Y-103735393D01*
X151345713Y-103731197D01*
X151346700Y-103816800D01*
X151422700Y-103892800D01*
X152209900Y-103892800D01*
X152209900Y-103872800D01*
X152361500Y-103872800D01*
X152361500Y-103892800D01*
X152381500Y-103892800D01*
X152381500Y-104044400D01*
X152361500Y-104044400D01*
X152361500Y-104064400D01*
X152209900Y-104064400D01*
X152209900Y-104044400D01*
X151422700Y-104044400D01*
X151346700Y-104120400D01*
X151345543Y-104220795D01*
X151335058Y-104221828D01*
X151230478Y-104253552D01*
X151134096Y-104305069D01*
X151049617Y-104374399D01*
X151049314Y-104374768D01*
X150621682Y-104374768D01*
X150594431Y-104372084D01*
X150485672Y-104382796D01*
X150381092Y-104414520D01*
X150312468Y-104451200D01*
X150298583Y-104451200D01*
X150162417Y-104478285D01*
X150034152Y-104531415D01*
X149918716Y-104608546D01*
X149820546Y-104706716D01*
X149743415Y-104822152D01*
X149690285Y-104950417D01*
X149663200Y-105086583D01*
X149663200Y-105225417D01*
X149690285Y-105361583D01*
X149743415Y-105489848D01*
X149820546Y-105605284D01*
X149918716Y-105703454D01*
X150034152Y-105780585D01*
X150162417Y-105833715D01*
X150298583Y-105860800D01*
X150437417Y-105860800D01*
X150573583Y-105833715D01*
X150701848Y-105780585D01*
X150817284Y-105703454D01*
X150915454Y-105605284D01*
X150992585Y-105489848D01*
X150994855Y-105484368D01*
X151255599Y-105484368D01*
X151282850Y-105487052D01*
X151310101Y-105484368D01*
X151391610Y-105476340D01*
X151402835Y-105472935D01*
X151422700Y-105492800D01*
X152209900Y-105492800D01*
X152209900Y-105472800D01*
X152361500Y-105472800D01*
X152361500Y-105492800D01*
X152381500Y-105492800D01*
X152381500Y-105644400D01*
X152361500Y-105644400D01*
X152361500Y-105664400D01*
X152209900Y-105664400D01*
X152209900Y-105644400D01*
X151422700Y-105644400D01*
X151346700Y-105720400D01*
X151345229Y-105848000D01*
X151351099Y-105907594D01*
X151368482Y-105964899D01*
X151370007Y-105967752D01*
X151367740Y-105971994D01*
X151350311Y-106029449D01*
X151344426Y-106089200D01*
X151344426Y-106648000D01*
X151350311Y-106707751D01*
X151367740Y-106765206D01*
X151369554Y-106768600D01*
X151367740Y-106771994D01*
X151350311Y-106829449D01*
X151344426Y-106889200D01*
X151344426Y-107448000D01*
X151350311Y-107507751D01*
X151367740Y-107565206D01*
X151396042Y-107618157D01*
X151434132Y-107664568D01*
X151480543Y-107702658D01*
X151533494Y-107730960D01*
X151590949Y-107748389D01*
X151650700Y-107754274D01*
X152920700Y-107754274D01*
X152980451Y-107748389D01*
X153037906Y-107730960D01*
X153090857Y-107702658D01*
X153137268Y-107664568D01*
X153175358Y-107618157D01*
X153203660Y-107565206D01*
X153221089Y-107507751D01*
X153226974Y-107448000D01*
X153226974Y-107267791D01*
X153556300Y-107266400D01*
X153632300Y-107190400D01*
X153632300Y-106488200D01*
X153612300Y-106488200D01*
X153612300Y-106336600D01*
X153632300Y-106336600D01*
X153632300Y-106316600D01*
X153783900Y-106316600D01*
X153783900Y-106336600D01*
X154436100Y-106336600D01*
X154498600Y-106274100D01*
X154851500Y-106274100D01*
X154851500Y-105684400D01*
X155003100Y-105684400D01*
X155003100Y-106274100D01*
X155630300Y-106274100D01*
X155706300Y-106198100D01*
X155707771Y-105912400D01*
X155701901Y-105852806D01*
X155684518Y-105795501D01*
X155656290Y-105742689D01*
X155618301Y-105696399D01*
X155572011Y-105658410D01*
X155519199Y-105630182D01*
X155461894Y-105612799D01*
X155402300Y-105606929D01*
X155079100Y-105608400D01*
X155003100Y-105684400D01*
X154851500Y-105684400D01*
X154775500Y-105608400D01*
X154452300Y-105606929D01*
X154392706Y-105612799D01*
X154385736Y-105614913D01*
X154377811Y-105608410D01*
X154324999Y-105580182D01*
X154267708Y-105562803D01*
X154267851Y-105562789D01*
X154325306Y-105545360D01*
X154378257Y-105517058D01*
X154424668Y-105478968D01*
X154438678Y-105461897D01*
X154470132Y-105478709D01*
X154568623Y-105508586D01*
X154671050Y-105518674D01*
X155183550Y-105518674D01*
X155285977Y-105508586D01*
X155384468Y-105478709D01*
X155475238Y-105430192D01*
X155554798Y-105364898D01*
X155620092Y-105285338D01*
X155668609Y-105194568D01*
X155698486Y-105096077D01*
X155708574Y-104993650D01*
X155708574Y-104556150D01*
X155698486Y-104453723D01*
X155668609Y-104355232D01*
X155620092Y-104264462D01*
X155554798Y-104184902D01*
X155475238Y-104119608D01*
X155384468Y-104071091D01*
X155285977Y-104041214D01*
X155183550Y-104031126D01*
X154671050Y-104031126D01*
X154568623Y-104041214D01*
X154496490Y-104063095D01*
X154491060Y-104045194D01*
X154462758Y-103992243D01*
X154424668Y-103945832D01*
X154378257Y-103907742D01*
X154325306Y-103879440D01*
X154267851Y-103862011D01*
X154208100Y-103856126D01*
X153208100Y-103856126D01*
X153182891Y-103858609D01*
X153224700Y-103816800D01*
X153226171Y-103689200D01*
X153220301Y-103629606D01*
X153202918Y-103572301D01*
X153201393Y-103569448D01*
X153203660Y-103565206D01*
X153221089Y-103507751D01*
X153226974Y-103448000D01*
X153226974Y-103116011D01*
X153431251Y-103320288D01*
X153435611Y-103364551D01*
X153453040Y-103422006D01*
X153481342Y-103474957D01*
X153519432Y-103521368D01*
X153565843Y-103559458D01*
X153618794Y-103587760D01*
X153676249Y-103605189D01*
X153736000Y-103611074D01*
X155636000Y-103611074D01*
X155695751Y-103605189D01*
X155714701Y-103599441D01*
X155714700Y-108745550D01*
X155604048Y-108671615D01*
X155550395Y-108649391D01*
X155550395Y-108176141D01*
X155544510Y-108116390D01*
X155527081Y-108058935D01*
X155512614Y-108031868D01*
X155512614Y-108018290D01*
X155582399Y-107913848D01*
X155635529Y-107785583D01*
X155662614Y-107649417D01*
X155662614Y-107510583D01*
X155635529Y-107374417D01*
X155582399Y-107246152D01*
X155505268Y-107130716D01*
X155461584Y-107087032D01*
X155461894Y-107087001D01*
X155519199Y-107069618D01*
X155572011Y-107041390D01*
X155618301Y-107003401D01*
X155656290Y-106957111D01*
X155684518Y-106904299D01*
X155701901Y-106846994D01*
X155707771Y-106787400D01*
X155706300Y-106501700D01*
X155630300Y-106425700D01*
X155003100Y-106425700D01*
X155003100Y-106445700D01*
X154851500Y-106445700D01*
X154851500Y-106425700D01*
X154224300Y-106425700D01*
X154161800Y-106488200D01*
X153783900Y-106488200D01*
X153783900Y-107190400D01*
X153859900Y-107266400D01*
X154208100Y-107267871D01*
X154267694Y-107262001D01*
X154324999Y-107244618D01*
X154339396Y-107236923D01*
X154333229Y-107246152D01*
X154280099Y-107374417D01*
X154253014Y-107510583D01*
X154253014Y-107649417D01*
X154280099Y-107785583D01*
X154315011Y-107869867D01*
X154184121Y-107869867D01*
X154124370Y-107875752D01*
X154066915Y-107893181D01*
X154013964Y-107921483D01*
X153967553Y-107959573D01*
X153929463Y-108005984D01*
X153901161Y-108058935D01*
X153883732Y-108116390D01*
X153877847Y-108176141D01*
X153877847Y-108501143D01*
X153588863Y-108212160D01*
X153575401Y-108195756D01*
X153509955Y-108142047D01*
X153435289Y-108102137D01*
X153354271Y-108077560D01*
X153332068Y-108075373D01*
X153327081Y-108058935D01*
X153298779Y-108005984D01*
X153260689Y-107959573D01*
X153214278Y-107921483D01*
X153161327Y-107893181D01*
X153103872Y-107875752D01*
X153044121Y-107869867D01*
X151984121Y-107869867D01*
X151924370Y-107875752D01*
X151866915Y-107893181D01*
X151813964Y-107921483D01*
X151767553Y-107959573D01*
X151729463Y-108005984D01*
X151701161Y-108058935D01*
X151683732Y-108116390D01*
X151677847Y-108176141D01*
X151677847Y-108826141D01*
X151683732Y-108885892D01*
X151701161Y-108943347D01*
X151719142Y-108976989D01*
X151701903Y-109009242D01*
X151684520Y-109066547D01*
X151678650Y-109126141D01*
X151680121Y-109299341D01*
X151756121Y-109375341D01*
X152438321Y-109375341D01*
X152438321Y-109355341D01*
X152589921Y-109355341D01*
X152589921Y-109375341D01*
X152609921Y-109375341D01*
X152609921Y-109526941D01*
X152589921Y-109526941D01*
X152589921Y-109546941D01*
X152438321Y-109546941D01*
X152438321Y-109526941D01*
X151756121Y-109526941D01*
X151680121Y-109602941D01*
X151678650Y-109776141D01*
X151684520Y-109835735D01*
X151701903Y-109893040D01*
X151719142Y-109925293D01*
X151701161Y-109958935D01*
X151683732Y-110016390D01*
X151677847Y-110076141D01*
X151677847Y-110726141D01*
X151683732Y-110785892D01*
X151701161Y-110843347D01*
X151729463Y-110896298D01*
X151767553Y-110942709D01*
X151813964Y-110980799D01*
X151866915Y-111009101D01*
X151924370Y-111026530D01*
X151984121Y-111032415D01*
X153044121Y-111032415D01*
X153103872Y-111026530D01*
X153161327Y-111009101D01*
X153214278Y-110980799D01*
X153260689Y-110942709D01*
X153298779Y-110896298D01*
X153327081Y-110843347D01*
X153330660Y-110831550D01*
X153336841Y-110830941D01*
X153336843Y-110830941D01*
X153399989Y-110824722D01*
X153481007Y-110800145D01*
X153555673Y-110760235D01*
X153621119Y-110706526D01*
X153634581Y-110690122D01*
X153877847Y-110446857D01*
X153877847Y-110726141D01*
X153883732Y-110785892D01*
X153901161Y-110843347D01*
X153929463Y-110896298D01*
X153967553Y-110942709D01*
X154013964Y-110980799D01*
X154066915Y-111009101D01*
X154124370Y-111026530D01*
X154184121Y-111032415D01*
X155244121Y-111032415D01*
X155303872Y-111026530D01*
X155361327Y-111009101D01*
X155414278Y-110980799D01*
X155460689Y-110942709D01*
X155498779Y-110896298D01*
X155527081Y-110843347D01*
X155544510Y-110785892D01*
X155550395Y-110726141D01*
X155550395Y-110076141D01*
X155544510Y-110016390D01*
X155527081Y-109958935D01*
X155524338Y-109953803D01*
X155604048Y-109920785D01*
X155714700Y-109846850D01*
X155714700Y-116822200D01*
X154000007Y-116822200D01*
X154000007Y-113499800D01*
X153994122Y-113440049D01*
X153976693Y-113382594D01*
X153948391Y-113329643D01*
X153910301Y-113283232D01*
X153863890Y-113245142D01*
X153810939Y-113216840D01*
X153753484Y-113199411D01*
X153693733Y-113193526D01*
X153273400Y-113193526D01*
X153273400Y-112741887D01*
X153291538Y-112732192D01*
X153371098Y-112666898D01*
X153436392Y-112587338D01*
X153484909Y-112496568D01*
X153514786Y-112398077D01*
X153524874Y-112295650D01*
X153524874Y-111783150D01*
X153514786Y-111680723D01*
X153484909Y-111582232D01*
X153436392Y-111491462D01*
X153371098Y-111411902D01*
X153291538Y-111346608D01*
X153200768Y-111298091D01*
X153102277Y-111268214D01*
X152999850Y-111258126D01*
X152562350Y-111258126D01*
X152459923Y-111268214D01*
X152361432Y-111298091D01*
X152270662Y-111346608D01*
X152191102Y-111411902D01*
X152125808Y-111491462D01*
X152077291Y-111582232D01*
X152047414Y-111680723D01*
X152037326Y-111783150D01*
X152037326Y-112295650D01*
X152047414Y-112398077D01*
X152077291Y-112496568D01*
X152125808Y-112587338D01*
X152191102Y-112666898D01*
X152270662Y-112732192D01*
X152361432Y-112780709D01*
X152413801Y-112796595D01*
X152413801Y-113193526D01*
X151847067Y-113193526D01*
X151787316Y-113199411D01*
X151729861Y-113216840D01*
X151676910Y-113245142D01*
X151630499Y-113283232D01*
X151592409Y-113329643D01*
X151564107Y-113382594D01*
X151546678Y-113440049D01*
X151540793Y-113499800D01*
X151540793Y-116822200D01*
X151230007Y-116822200D01*
X151230007Y-113499800D01*
X151224122Y-113440049D01*
X151206693Y-113382594D01*
X151178391Y-113329643D01*
X151140301Y-113283232D01*
X151093890Y-113245142D01*
X151040939Y-113216840D01*
X150983484Y-113199411D01*
X150923733Y-113193526D01*
X149077067Y-113193526D01*
X149017316Y-113199411D01*
X148959861Y-113216840D01*
X148906910Y-113245142D01*
X148860499Y-113283232D01*
X148822409Y-113329643D01*
X148794107Y-113382594D01*
X148776678Y-113440049D01*
X148770793Y-113499800D01*
X148770793Y-116822200D01*
X148459058Y-116822200D01*
X148457733Y-115391600D01*
X148381733Y-115315600D01*
X147306200Y-115315600D01*
X147306200Y-115335600D01*
X147154600Y-115335600D01*
X147154600Y-115315600D01*
X146079067Y-115315600D01*
X146003067Y-115391600D01*
X146001742Y-116822200D01*
X145690007Y-116822200D01*
X145690007Y-113499800D01*
X146001596Y-113499800D01*
X146003067Y-115088000D01*
X146079067Y-115164000D01*
X147154600Y-115164000D01*
X147154600Y-113271800D01*
X147306200Y-113271800D01*
X147306200Y-115164000D01*
X148381733Y-115164000D01*
X148457733Y-115088000D01*
X148459204Y-113499800D01*
X148453334Y-113440206D01*
X148435951Y-113382901D01*
X148407723Y-113330089D01*
X148369734Y-113283799D01*
X148323444Y-113245810D01*
X148270632Y-113217582D01*
X148213327Y-113200199D01*
X148153733Y-113194329D01*
X147382200Y-113195800D01*
X147306200Y-113271800D01*
X147154600Y-113271800D01*
X147078600Y-113195800D01*
X146307067Y-113194329D01*
X146247473Y-113200199D01*
X146190168Y-113217582D01*
X146137356Y-113245810D01*
X146091066Y-113283799D01*
X146053077Y-113330089D01*
X146024849Y-113382901D01*
X146007466Y-113440206D01*
X146001596Y-113499800D01*
X145690007Y-113499800D01*
X145684122Y-113440049D01*
X145666693Y-113382594D01*
X145638391Y-113329643D01*
X145600301Y-113283232D01*
X145553890Y-113245142D01*
X145500939Y-113216840D01*
X145443484Y-113199411D01*
X145383733Y-113193526D01*
X145004302Y-113193526D01*
X145425546Y-112772282D01*
X145510718Y-112857454D01*
X145626154Y-112934585D01*
X145754419Y-112987715D01*
X145890585Y-113014800D01*
X146029419Y-113014800D01*
X146165585Y-112987715D01*
X146293850Y-112934585D01*
X146409286Y-112857454D01*
X146507456Y-112759284D01*
X146584587Y-112643848D01*
X146627685Y-112539800D01*
X146983329Y-112539800D01*
X146989199Y-112599394D01*
X147006582Y-112656699D01*
X147034810Y-112709511D01*
X147072799Y-112755801D01*
X147119089Y-112793790D01*
X147171901Y-112822018D01*
X147229206Y-112839401D01*
X147288800Y-112845271D01*
X147574500Y-112843800D01*
X147650500Y-112767800D01*
X147650500Y-112140600D01*
X147802100Y-112140600D01*
X147802100Y-112767800D01*
X147878100Y-112843800D01*
X148163800Y-112845271D01*
X148223394Y-112839401D01*
X148280699Y-112822018D01*
X148333511Y-112793790D01*
X148379801Y-112755801D01*
X148417790Y-112709511D01*
X148446018Y-112656699D01*
X148463401Y-112599394D01*
X148469271Y-112539800D01*
X148467800Y-112216600D01*
X148391800Y-112140600D01*
X147802100Y-112140600D01*
X147650500Y-112140600D01*
X147060800Y-112140600D01*
X146984800Y-112216600D01*
X146983329Y-112539800D01*
X146627685Y-112539800D01*
X146637717Y-112515583D01*
X146664802Y-112379417D01*
X146664802Y-112240583D01*
X146637717Y-112104417D01*
X146584587Y-111976152D01*
X146573502Y-111959562D01*
X146607491Y-111941394D01*
X146672937Y-111887685D01*
X146686400Y-111871280D01*
X146985017Y-111572663D01*
X146983329Y-111589800D01*
X146984800Y-111913000D01*
X147060800Y-111989000D01*
X147650500Y-111989000D01*
X147650500Y-111361800D01*
X147802100Y-111361800D01*
X147802100Y-111989000D01*
X148391800Y-111989000D01*
X148467800Y-111913000D01*
X148469271Y-111589800D01*
X148463401Y-111530206D01*
X148446018Y-111472901D01*
X148417790Y-111420089D01*
X148379801Y-111373799D01*
X148333511Y-111335810D01*
X148280699Y-111307582D01*
X148223394Y-111290199D01*
X148163800Y-111284329D01*
X147878100Y-111285800D01*
X147802100Y-111361800D01*
X147650500Y-111361800D01*
X147574500Y-111285800D01*
X147288800Y-111284329D01*
X147271663Y-111286017D01*
X148682086Y-109875595D01*
X148698485Y-109862137D01*
X148743038Y-109807848D01*
X148752193Y-109796693D01*
X148763300Y-109775912D01*
X148763301Y-111394627D01*
X148711302Y-111437302D01*
X148646008Y-111516862D01*
X148597491Y-111607632D01*
X148567614Y-111706123D01*
X148557526Y-111808550D01*
X148557526Y-112321050D01*
X148567614Y-112423477D01*
X148597491Y-112521968D01*
X148646008Y-112612738D01*
X148711302Y-112692298D01*
X148790862Y-112757592D01*
X148881632Y-112806109D01*
X148980123Y-112835986D01*
X149082550Y-112846074D01*
X149520050Y-112846074D01*
X149622477Y-112835986D01*
X149720968Y-112806109D01*
X149811738Y-112757592D01*
X149891298Y-112692298D01*
X149956592Y-112612738D01*
X150005109Y-112521968D01*
X150021116Y-112469200D01*
X150493989Y-112469200D01*
X150502291Y-112496568D01*
X150550808Y-112587338D01*
X150616102Y-112666898D01*
X150695662Y-112732192D01*
X150786432Y-112780709D01*
X150884923Y-112810586D01*
X150987350Y-112820674D01*
X151424850Y-112820674D01*
X151527277Y-112810586D01*
X151625768Y-112780709D01*
X151716538Y-112732192D01*
X151796098Y-112666898D01*
X151861392Y-112587338D01*
X151909909Y-112496568D01*
X151939786Y-112398077D01*
X151949874Y-112295650D01*
X151949874Y-111783150D01*
X151939786Y-111680723D01*
X151909909Y-111582232D01*
X151861392Y-111491462D01*
X151796098Y-111411902D01*
X151716538Y-111346608D01*
X151625768Y-111298091D01*
X151527277Y-111268214D01*
X151424850Y-111258126D01*
X150987350Y-111258126D01*
X150884923Y-111268214D01*
X150786432Y-111298091D01*
X150695662Y-111346608D01*
X150616102Y-111411902D01*
X150550808Y-111491462D01*
X150502291Y-111582232D01*
X150493989Y-111609600D01*
X150005706Y-111609600D01*
X150005109Y-111607632D01*
X149956592Y-111516862D01*
X149891298Y-111437302D01*
X149811738Y-111372008D01*
X149720968Y-111323491D01*
X149622900Y-111293742D01*
X149622900Y-109587170D01*
X149653949Y-109596589D01*
X149713700Y-109602474D01*
X150272500Y-109602474D01*
X150332251Y-109596589D01*
X150389706Y-109579160D01*
X150393100Y-109577346D01*
X150396494Y-109579160D01*
X150453949Y-109596589D01*
X150513700Y-109602474D01*
X151072500Y-109602474D01*
X151132251Y-109596589D01*
X151189706Y-109579160D01*
X151242657Y-109550858D01*
X151289068Y-109512768D01*
X151327158Y-109466357D01*
X151355460Y-109413406D01*
X151372889Y-109355951D01*
X151378774Y-109296200D01*
X151378774Y-108026200D01*
X151372889Y-107966449D01*
X151355460Y-107908994D01*
X151327158Y-107856043D01*
X151289068Y-107809632D01*
X151242657Y-107771542D01*
X151189706Y-107743240D01*
X151132251Y-107725811D01*
X151072500Y-107719926D01*
X150634421Y-107719926D01*
X150643100Y-107676295D01*
X150643100Y-107543705D01*
X150617233Y-107413664D01*
X150566494Y-107291168D01*
X150492831Y-107180924D01*
X150399076Y-107087169D01*
X150288832Y-107013506D01*
X150166336Y-106962767D01*
X150036295Y-106936900D01*
X149903705Y-106936900D01*
X149773664Y-106962767D01*
X149651168Y-107013506D01*
X149540924Y-107087169D01*
X149447169Y-107180924D01*
X149373506Y-107291168D01*
X149322767Y-107413664D01*
X149296900Y-107543705D01*
X149296900Y-107676295D01*
X149305579Y-107719926D01*
X149082432Y-107719926D01*
X149093100Y-107666295D01*
X149093100Y-107533705D01*
X149067233Y-107403664D01*
X149016494Y-107281168D01*
X148942831Y-107170924D01*
X148849076Y-107077169D01*
X148738832Y-107003506D01*
X148616336Y-106952767D01*
X148486295Y-106926900D01*
X148353705Y-106926900D01*
X148223664Y-106952767D01*
X148101168Y-107003506D01*
X147990924Y-107077169D01*
X147897169Y-107170924D01*
X147823506Y-107281168D01*
X147772767Y-107403664D01*
X147746900Y-107533705D01*
X147746900Y-107666295D01*
X147757568Y-107719926D01*
X147313700Y-107719926D01*
X147253949Y-107725811D01*
X147196494Y-107743240D01*
X147193100Y-107745054D01*
X147189706Y-107743240D01*
X147132251Y-107725811D01*
X147072500Y-107719926D01*
X146513700Y-107719926D01*
X146453949Y-107725811D01*
X146396494Y-107743240D01*
X146393100Y-107745054D01*
X146389706Y-107743240D01*
X146332251Y-107725811D01*
X146272500Y-107719926D01*
X145713700Y-107719926D01*
X145653949Y-107725811D01*
X145596494Y-107743240D01*
X145593100Y-107745054D01*
X145589706Y-107743240D01*
X145532251Y-107725811D01*
X145472500Y-107719926D01*
X144913700Y-107719926D01*
X144853949Y-107725811D01*
X144796494Y-107743240D01*
X144743543Y-107771542D01*
X144697132Y-107809632D01*
X144659042Y-107856043D01*
X144630740Y-107908994D01*
X144613311Y-107966449D01*
X144607426Y-108026200D01*
X144607426Y-109296200D01*
X144613311Y-109355951D01*
X144630740Y-109413406D01*
X144659042Y-109466357D01*
X144697132Y-109512768D01*
X144743543Y-109550858D01*
X144762688Y-109561091D01*
X144769520Y-109630455D01*
X144794096Y-109711472D01*
X144834006Y-109786139D01*
X144854613Y-109811248D01*
X144887716Y-109851585D01*
X144904115Y-109865043D01*
X145556021Y-110516950D01*
X145569479Y-110533349D01*
X145593527Y-110553084D01*
X145634924Y-110587058D01*
X145709591Y-110626968D01*
X145790609Y-110651545D01*
X145853755Y-110657764D01*
X145853757Y-110657764D01*
X145874864Y-110659843D01*
X145895971Y-110657764D01*
X146167491Y-110657764D01*
X146180510Y-110677248D01*
X146278680Y-110775418D01*
X146394116Y-110852549D01*
X146461545Y-110880479D01*
X146189524Y-111152500D01*
X144525293Y-111152500D01*
X144482192Y-111071862D01*
X144416898Y-110992302D01*
X144337338Y-110927008D01*
X144246568Y-110878491D01*
X144148077Y-110848614D01*
X144045650Y-110838526D01*
X143533150Y-110838526D01*
X143430723Y-110848614D01*
X143332232Y-110878491D01*
X143241462Y-110927008D01*
X143161902Y-110992302D01*
X143096608Y-111071862D01*
X143048091Y-111162632D01*
X143035754Y-111203300D01*
X142747293Y-111203300D01*
X142704192Y-111122662D01*
X142638898Y-111043102D01*
X142559338Y-110977808D01*
X142468568Y-110929291D01*
X142370077Y-110899414D01*
X142267650Y-110889326D01*
X141755150Y-110889326D01*
X141652723Y-110899414D01*
X141554232Y-110929291D01*
X141463462Y-110977808D01*
X141383902Y-111043102D01*
X141318608Y-111122662D01*
X141287500Y-111180862D01*
X141287500Y-110510338D01*
X141318608Y-110568538D01*
X141383902Y-110648098D01*
X141463462Y-110713392D01*
X141554232Y-110761909D01*
X141652723Y-110791786D01*
X141755150Y-110801874D01*
X142267650Y-110801874D01*
X142370077Y-110791786D01*
X142468568Y-110761909D01*
X142559338Y-110713392D01*
X142638898Y-110648098D01*
X142704192Y-110568538D01*
X142713887Y-110550400D01*
X143123413Y-110550400D01*
X143161902Y-110597298D01*
X143241462Y-110662592D01*
X143332232Y-110711109D01*
X143430723Y-110740986D01*
X143533150Y-110751074D01*
X144045650Y-110751074D01*
X144148077Y-110740986D01*
X144246568Y-110711109D01*
X144337338Y-110662592D01*
X144416898Y-110597298D01*
X144482192Y-110517738D01*
X144530709Y-110426968D01*
X144560586Y-110328477D01*
X144570674Y-110226050D01*
X144570674Y-109788550D01*
X144560586Y-109686123D01*
X144530709Y-109587632D01*
X144482192Y-109496862D01*
X144416898Y-109417302D01*
X144344200Y-109357640D01*
X144344200Y-109175690D01*
X144413985Y-109071248D01*
X144467115Y-108942983D01*
X144494200Y-108806817D01*
X144494200Y-108667983D01*
X144467115Y-108531817D01*
X144413985Y-108403552D01*
X144336854Y-108288116D01*
X144238684Y-108189946D01*
X144123248Y-108112815D01*
X143994983Y-108059685D01*
X143858817Y-108032600D01*
X143719983Y-108032600D01*
X143583817Y-108059685D01*
X143455552Y-108112815D01*
X143340116Y-108189946D01*
X143241946Y-108288116D01*
X143164815Y-108403552D01*
X143111685Y-108531817D01*
X143084600Y-108667983D01*
X143084600Y-108806817D01*
X143111685Y-108942983D01*
X143164815Y-109071248D01*
X143234601Y-109175691D01*
X143234600Y-109357639D01*
X143161902Y-109417302D01*
X143142617Y-109440800D01*
X142605631Y-109440800D01*
X142559338Y-109402808D01*
X142468568Y-109354291D01*
X142370077Y-109324414D01*
X142267650Y-109314326D01*
X141755150Y-109314326D01*
X141652723Y-109324414D01*
X141554232Y-109354291D01*
X141463462Y-109402808D01*
X141383902Y-109468102D01*
X141318608Y-109547662D01*
X141287500Y-109605862D01*
X141287500Y-105568200D01*
X141332529Y-105568200D01*
X141338399Y-105627794D01*
X141355782Y-105685099D01*
X141384010Y-105737911D01*
X141421999Y-105784201D01*
X141468289Y-105822190D01*
X141521101Y-105850418D01*
X141578406Y-105867801D01*
X141638000Y-105873671D01*
X141961200Y-105872200D01*
X142037200Y-105796200D01*
X142037200Y-105206500D01*
X141410000Y-105206500D01*
X141334000Y-105282500D01*
X141332529Y-105568200D01*
X141287500Y-105568200D01*
X141287500Y-104693200D01*
X141332529Y-104693200D01*
X141334000Y-104978900D01*
X141410000Y-105054900D01*
X142037200Y-105054900D01*
X142037200Y-104465200D01*
X141961200Y-104389200D01*
X141638000Y-104387729D01*
X141578406Y-104393599D01*
X141521101Y-104410982D01*
X141468289Y-104439210D01*
X141421999Y-104477199D01*
X141384010Y-104523489D01*
X141355782Y-104576301D01*
X141338399Y-104633606D01*
X141332529Y-104693200D01*
X141287500Y-104693200D01*
X141287500Y-100632754D01*
X141347642Y-100706036D01*
X141427202Y-100771330D01*
X141517972Y-100819847D01*
X141616463Y-100849724D01*
X141718890Y-100859812D01*
X142156390Y-100859812D01*
X142258817Y-100849724D01*
X142357308Y-100819847D01*
X142448078Y-100771330D01*
X142527638Y-100706036D01*
X142592932Y-100626476D01*
X142641449Y-100535706D01*
X142671326Y-100437215D01*
X142681414Y-100334788D01*
X142681414Y-99822288D01*
X142671326Y-99719861D01*
X142641449Y-99621370D01*
X142592932Y-99530600D01*
X142527638Y-99451040D01*
X142494197Y-99423595D01*
X142538552Y-99387194D01*
X142595296Y-99318052D01*
X142637460Y-99239169D01*
X142663425Y-99153575D01*
X142672192Y-99064560D01*
X142672192Y-98364560D01*
X142663425Y-98275545D01*
X142644926Y-98214560D01*
X142814447Y-98214560D01*
X142815918Y-98562760D01*
X142891918Y-98638760D01*
X143544118Y-98638760D01*
X143544118Y-97986560D01*
X143468118Y-97910560D01*
X143119918Y-97909089D01*
X143060324Y-97914959D01*
X143003019Y-97932342D01*
X142950207Y-97960570D01*
X142903917Y-97998559D01*
X142865928Y-98044849D01*
X142837700Y-98097661D01*
X142820317Y-98154966D01*
X142814447Y-98214560D01*
X142644926Y-98214560D01*
X142637460Y-98189951D01*
X142595296Y-98111068D01*
X142538552Y-98041926D01*
X142469410Y-97985182D01*
X142390527Y-97943018D01*
X142304933Y-97917053D01*
X142215918Y-97908286D01*
X141515918Y-97908286D01*
X141426903Y-97917053D01*
X141341309Y-97943018D01*
X141287500Y-97971780D01*
X141287500Y-96768281D01*
X144169490Y-93885000D01*
X144682010Y-93885000D01*
X144670716Y-93892546D01*
G36*
X155714701Y-101410995D02*
G01*
X155695594Y-101405199D01*
X155636000Y-101399329D01*
X154837800Y-101400800D01*
X154761800Y-101476800D01*
X154761800Y-101829000D01*
X154781800Y-101829000D01*
X154781800Y-101980600D01*
X154761800Y-101980600D01*
X154761800Y-102332800D01*
X154837800Y-102408800D01*
X155636000Y-102410271D01*
X155695594Y-102404401D01*
X155714701Y-102398605D01*
X155714701Y-102610159D01*
X155695751Y-102604411D01*
X155636000Y-102598526D01*
X153858963Y-102598526D01*
X153659800Y-102399364D01*
X153676406Y-102404401D01*
X153736000Y-102410271D01*
X154534200Y-102408800D01*
X154610200Y-102332800D01*
X154610200Y-101980600D01*
X153508000Y-101980600D01*
X153432000Y-102056600D01*
X153430529Y-102104800D01*
X153436399Y-102164394D01*
X153441436Y-102181000D01*
X153355782Y-102095346D01*
X153343058Y-102079842D01*
X153281176Y-102029056D01*
X153210575Y-101991319D01*
X153209416Y-101990967D01*
X153203660Y-101971994D01*
X153201846Y-101968600D01*
X153203660Y-101965206D01*
X153221089Y-101907751D01*
X153226974Y-101848000D01*
X153226974Y-101704800D01*
X153430529Y-101704800D01*
X153432000Y-101753000D01*
X153508000Y-101829000D01*
X154610200Y-101829000D01*
X154610200Y-101476800D01*
X154534200Y-101400800D01*
X153736000Y-101399329D01*
X153676406Y-101405199D01*
X153619101Y-101422582D01*
X153566289Y-101450810D01*
X153519999Y-101488799D01*
X153482010Y-101535089D01*
X153453782Y-101587901D01*
X153436399Y-101645206D01*
X153430529Y-101704800D01*
X153226974Y-101704800D01*
X153226974Y-101703362D01*
X153720763Y-101209573D01*
X153736000Y-101211074D01*
X155636000Y-101211074D01*
X155695751Y-101205189D01*
X155714701Y-101199441D01*
X155714701Y-101410995D01*
G37*
X155714701Y-101410995D02*
X155695594Y-101405199D01*
X155636000Y-101399329D01*
X154837800Y-101400800D01*
X154761800Y-101476800D01*
X154761800Y-101829000D01*
X154781800Y-101829000D01*
X154781800Y-101980600D01*
X154761800Y-101980600D01*
X154761800Y-102332800D01*
X154837800Y-102408800D01*
X155636000Y-102410271D01*
X155695594Y-102404401D01*
X155714701Y-102398605D01*
X155714701Y-102610159D01*
X155695751Y-102604411D01*
X155636000Y-102598526D01*
X153858963Y-102598526D01*
X153659800Y-102399364D01*
X153676406Y-102404401D01*
X153736000Y-102410271D01*
X154534200Y-102408800D01*
X154610200Y-102332800D01*
X154610200Y-101980600D01*
X153508000Y-101980600D01*
X153432000Y-102056600D01*
X153430529Y-102104800D01*
X153436399Y-102164394D01*
X153441436Y-102181000D01*
X153355782Y-102095346D01*
X153343058Y-102079842D01*
X153281176Y-102029056D01*
X153210575Y-101991319D01*
X153209416Y-101990967D01*
X153203660Y-101971994D01*
X153201846Y-101968600D01*
X153203660Y-101965206D01*
X153221089Y-101907751D01*
X153226974Y-101848000D01*
X153226974Y-101704800D01*
X153430529Y-101704800D01*
X153432000Y-101753000D01*
X153508000Y-101829000D01*
X154610200Y-101829000D01*
X154610200Y-101476800D01*
X154534200Y-101400800D01*
X153736000Y-101399329D01*
X153676406Y-101405199D01*
X153619101Y-101422582D01*
X153566289Y-101450810D01*
X153519999Y-101488799D01*
X153482010Y-101535089D01*
X153453782Y-101587901D01*
X153436399Y-101645206D01*
X153430529Y-101704800D01*
X153226974Y-101704800D01*
X153226974Y-101703362D01*
X153720763Y-101209573D01*
X153736000Y-101211074D01*
X155636000Y-101211074D01*
X155695751Y-101205189D01*
X155714701Y-101199441D01*
X155714701Y-101410995D01*
M02*
