G04 #@! TF.GenerationSoftware,KiCad,Pcbnew,(5.1.5)-3*
G04 #@! TF.CreationDate,2020-04-21T17:30:06+02:00*
G04 #@! TF.ProjectId,Wegard_Logger,57656761-7264-45f4-9c6f-676765722e6b,rev?*
G04 #@! TF.SameCoordinates,Original*
G04 #@! TF.FileFunction,Soldermask,Bot*
G04 #@! TF.FilePolarity,Negative*
%FSLAX46Y46*%
G04 Gerber Fmt 4.6, Leading zero omitted, Abs format (unit mm)*
G04 Created by KiCad (PCBNEW (5.1.5)-3) date 2020-04-21 17:30:06*
%MOMM*%
%LPD*%
G04 APERTURE LIST*
%ADD10C,0.100000*%
G04 APERTURE END LIST*
D10*
G36*
X152359733Y-117030800D02*
G01*
X150411067Y-117030800D01*
X150411067Y-113448800D01*
X152359733Y-113448800D01*
X152359733Y-117030800D01*
G37*
G36*
X144049733Y-117030800D02*
G01*
X142101067Y-117030800D01*
X142101067Y-113448800D01*
X144049733Y-113448800D01*
X144049733Y-117030800D01*
G37*
G36*
X146819733Y-117030800D02*
G01*
X144871067Y-117030800D01*
X144871067Y-113448800D01*
X146819733Y-113448800D01*
X146819733Y-117030800D01*
G37*
G36*
X149589733Y-117030800D02*
G01*
X147641067Y-117030800D01*
X147641067Y-113448800D01*
X149589733Y-113448800D01*
X149589733Y-117030800D01*
G37*
G36*
X155129733Y-117030800D02*
G01*
X153181067Y-117030800D01*
X153181067Y-113448800D01*
X155129733Y-113448800D01*
X155129733Y-117030800D01*
G37*
G36*
X145311000Y-112681000D02*
G01*
X143309000Y-112681000D01*
X143309000Y-111229000D01*
X145311000Y-111229000D01*
X145311000Y-112681000D01*
G37*
G36*
X151281000Y-112681000D02*
G01*
X149279000Y-112681000D01*
X149279000Y-111229000D01*
X151281000Y-111229000D01*
X151281000Y-112681000D01*
G37*
G36*
X154431000Y-111531000D02*
G01*
X153129000Y-111531000D01*
X153129000Y-110429000D01*
X154431000Y-110429000D01*
X154431000Y-111531000D01*
G37*
G36*
X154431000Y-107831000D02*
G01*
X153129000Y-107831000D01*
X153129000Y-106729000D01*
X154431000Y-106729000D01*
X154431000Y-107831000D01*
G37*
G36*
X151621000Y-101731000D02*
G01*
X143045999Y-101731000D01*
X143021613Y-101733402D01*
X142998164Y-101740515D01*
X142976553Y-101752066D01*
X142957611Y-101767611D01*
X142942066Y-101786553D01*
X142930515Y-101808164D01*
X142923402Y-101831613D01*
X142921000Y-101855999D01*
X142921000Y-102431000D01*
X141649000Y-102431000D01*
X141649000Y-100529000D01*
X151621000Y-100529000D01*
X151621000Y-101731000D01*
G37*
G36*
X154431000Y-101981000D02*
G01*
X152779000Y-101981000D01*
X152779000Y-100529000D01*
X154431000Y-100529000D01*
X154431000Y-101981000D01*
G37*
G36*
X150576178Y-96720797D02*
G01*
X150628950Y-96731294D01*
X150728370Y-96772475D01*
X150817846Y-96832261D01*
X150893939Y-96908354D01*
X150953725Y-96997830D01*
X150994906Y-97097250D01*
X151015900Y-97202794D01*
X151015900Y-97310406D01*
X150994906Y-97415950D01*
X150953725Y-97515370D01*
X150893939Y-97604846D01*
X150817846Y-97680939D01*
X150728370Y-97740725D01*
X150628950Y-97781906D01*
X150576178Y-97792403D01*
X150523407Y-97802900D01*
X150415793Y-97802900D01*
X150363022Y-97792403D01*
X150310250Y-97781906D01*
X150210830Y-97740725D01*
X150121354Y-97680939D01*
X150045261Y-97604846D01*
X149985475Y-97515370D01*
X149944294Y-97415950D01*
X149923300Y-97310406D01*
X149923300Y-97202794D01*
X149944294Y-97097250D01*
X149985475Y-96997830D01*
X150045261Y-96908354D01*
X150121354Y-96832261D01*
X150210830Y-96772475D01*
X150310250Y-96731294D01*
X150363022Y-96720797D01*
X150415793Y-96710300D01*
X150523407Y-96710300D01*
X150576178Y-96720797D01*
G37*
G36*
X145496178Y-95704797D02*
G01*
X145548950Y-95715294D01*
X145648370Y-95756475D01*
X145737846Y-95816261D01*
X145813939Y-95892354D01*
X145873725Y-95981830D01*
X145914906Y-96081250D01*
X145935900Y-96186794D01*
X145935900Y-96294406D01*
X145914906Y-96399950D01*
X145873725Y-96499370D01*
X145813939Y-96588846D01*
X145737846Y-96664939D01*
X145648370Y-96724725D01*
X145548950Y-96765906D01*
X145515925Y-96772475D01*
X145443407Y-96786900D01*
X145335793Y-96786900D01*
X145263275Y-96772475D01*
X145230250Y-96765906D01*
X145130830Y-96724725D01*
X145041354Y-96664939D01*
X144965261Y-96588846D01*
X144905475Y-96499370D01*
X144864294Y-96399950D01*
X144843300Y-96294406D01*
X144843300Y-96186794D01*
X144864294Y-96081250D01*
X144905475Y-95981830D01*
X144965261Y-95892354D01*
X145041354Y-95816261D01*
X145130830Y-95756475D01*
X145230250Y-95715294D01*
X145283022Y-95704797D01*
X145335793Y-95694300D01*
X145443407Y-95694300D01*
X145496178Y-95704797D01*
G37*
G36*
X150576178Y-94688797D02*
G01*
X150628950Y-94699294D01*
X150728370Y-94740475D01*
X150817846Y-94800261D01*
X150893939Y-94876354D01*
X150953725Y-94965830D01*
X150994906Y-95065250D01*
X151015900Y-95170794D01*
X151015900Y-95278406D01*
X150994906Y-95383950D01*
X150953725Y-95483370D01*
X150893939Y-95572846D01*
X150817846Y-95648939D01*
X150728370Y-95708725D01*
X150628950Y-95749906D01*
X150595925Y-95756475D01*
X150523407Y-95770900D01*
X150415793Y-95770900D01*
X150343275Y-95756475D01*
X150310250Y-95749906D01*
X150210830Y-95708725D01*
X150121354Y-95648939D01*
X150045261Y-95572846D01*
X149985475Y-95483370D01*
X149944294Y-95383950D01*
X149923300Y-95278406D01*
X149923300Y-95170794D01*
X149944294Y-95065250D01*
X149985475Y-94965830D01*
X150045261Y-94876354D01*
X150121354Y-94800261D01*
X150210830Y-94740475D01*
X150310250Y-94699294D01*
X150363022Y-94688797D01*
X150415793Y-94678300D01*
X150523407Y-94678300D01*
X150576178Y-94688797D01*
G37*
M02*
