G04 #@! TF.GenerationSoftware,KiCad,Pcbnew,(5.1.5)-3*
G04 #@! TF.CreationDate,2020-04-21T17:30:06+02:00*
G04 #@! TF.ProjectId,Wegard_Logger,57656761-7264-45f4-9c6f-676765722e6b,rev?*
G04 #@! TF.SameCoordinates,Original*
G04 #@! TF.FileFunction,Soldermask,Top*
G04 #@! TF.FilePolarity,Negative*
%FSLAX46Y46*%
G04 Gerber Fmt 4.6, Leading zero omitted, Abs format (unit mm)*
G04 Created by KiCad (PCBNEW (5.1.5)-3) date 2020-04-21 17:30:06*
%MOMM*%
%LPD*%
G04 APERTURE LIST*
%ADD10C,0.100000*%
G04 APERTURE END LIST*
D10*
G36*
X153744733Y-117030800D02*
G01*
X151796067Y-117030800D01*
X151796067Y-113448800D01*
X153744733Y-113448800D01*
X153744733Y-117030800D01*
G37*
G36*
X148204733Y-117030800D02*
G01*
X146256067Y-117030800D01*
X146256067Y-113448800D01*
X148204733Y-113448800D01*
X148204733Y-117030800D01*
G37*
G36*
X145434733Y-117030800D02*
G01*
X143486067Y-117030800D01*
X143486067Y-113448800D01*
X145434733Y-113448800D01*
X145434733Y-117030800D01*
G37*
G36*
X150974733Y-117030800D02*
G01*
X149026067Y-117030800D01*
X149026067Y-113448800D01*
X150974733Y-113448800D01*
X150974733Y-117030800D01*
G37*
G36*
X149643391Y-111542885D02*
G01*
X149677369Y-111553193D01*
X149708690Y-111569934D01*
X149736139Y-111592461D01*
X149758666Y-111619910D01*
X149775407Y-111651231D01*
X149785715Y-111685209D01*
X149789800Y-111726690D01*
X149789800Y-112402910D01*
X149785715Y-112444391D01*
X149775407Y-112478369D01*
X149758666Y-112509690D01*
X149736139Y-112537139D01*
X149708690Y-112559666D01*
X149677369Y-112576407D01*
X149643391Y-112586715D01*
X149601910Y-112590800D01*
X149000690Y-112590800D01*
X148959209Y-112586715D01*
X148925231Y-112576407D01*
X148893910Y-112559666D01*
X148866461Y-112537139D01*
X148843934Y-112509690D01*
X148827193Y-112478369D01*
X148816885Y-112444391D01*
X148812800Y-112402910D01*
X148812800Y-111726690D01*
X148816885Y-111685209D01*
X148827193Y-111651231D01*
X148843934Y-111619910D01*
X148866461Y-111592461D01*
X148893910Y-111569934D01*
X148925231Y-111553193D01*
X148959209Y-111542885D01*
X149000690Y-111538800D01*
X149601910Y-111538800D01*
X149643391Y-111542885D01*
G37*
G36*
X148068391Y-111542885D02*
G01*
X148102369Y-111553193D01*
X148133690Y-111569934D01*
X148161139Y-111592461D01*
X148183666Y-111619910D01*
X148200407Y-111651231D01*
X148210715Y-111685209D01*
X148214800Y-111726690D01*
X148214800Y-112402910D01*
X148210715Y-112444391D01*
X148200407Y-112478369D01*
X148183666Y-112509690D01*
X148161139Y-112537139D01*
X148133690Y-112559666D01*
X148102369Y-112576407D01*
X148068391Y-112586715D01*
X148026910Y-112590800D01*
X147425690Y-112590800D01*
X147384209Y-112586715D01*
X147350231Y-112576407D01*
X147318910Y-112559666D01*
X147291461Y-112537139D01*
X147268934Y-112509690D01*
X147252193Y-112478369D01*
X147241885Y-112444391D01*
X147237800Y-112402910D01*
X147237800Y-111726690D01*
X147241885Y-111685209D01*
X147252193Y-111651231D01*
X147268934Y-111619910D01*
X147291461Y-111592461D01*
X147318910Y-111569934D01*
X147350231Y-111553193D01*
X147384209Y-111542885D01*
X147425690Y-111538800D01*
X148026910Y-111538800D01*
X148068391Y-111542885D01*
G37*
G36*
X151548191Y-111517485D02*
G01*
X151582169Y-111527793D01*
X151613490Y-111544534D01*
X151640939Y-111567061D01*
X151663466Y-111594510D01*
X151680207Y-111625831D01*
X151690515Y-111659809D01*
X151694600Y-111701290D01*
X151694600Y-112377510D01*
X151690515Y-112418991D01*
X151680207Y-112452969D01*
X151663466Y-112484290D01*
X151640939Y-112511739D01*
X151613490Y-112534266D01*
X151582169Y-112551007D01*
X151548191Y-112561315D01*
X151506710Y-112565400D01*
X150905490Y-112565400D01*
X150864009Y-112561315D01*
X150830031Y-112551007D01*
X150798710Y-112534266D01*
X150771261Y-112511739D01*
X150748734Y-112484290D01*
X150731993Y-112452969D01*
X150721685Y-112418991D01*
X150717600Y-112377510D01*
X150717600Y-111701290D01*
X150721685Y-111659809D01*
X150731993Y-111625831D01*
X150748734Y-111594510D01*
X150771261Y-111567061D01*
X150798710Y-111544534D01*
X150830031Y-111527793D01*
X150864009Y-111517485D01*
X150905490Y-111513400D01*
X151506710Y-111513400D01*
X151548191Y-111517485D01*
G37*
G36*
X153123191Y-111517485D02*
G01*
X153157169Y-111527793D01*
X153188490Y-111544534D01*
X153215939Y-111567061D01*
X153238466Y-111594510D01*
X153255207Y-111625831D01*
X153265515Y-111659809D01*
X153269600Y-111701290D01*
X153269600Y-112377510D01*
X153265515Y-112418991D01*
X153255207Y-112452969D01*
X153238466Y-112484290D01*
X153215939Y-112511739D01*
X153188490Y-112534266D01*
X153157169Y-112551007D01*
X153123191Y-112561315D01*
X153081710Y-112565400D01*
X152480490Y-112565400D01*
X152439009Y-112561315D01*
X152405031Y-112551007D01*
X152373710Y-112534266D01*
X152346261Y-112511739D01*
X152323734Y-112484290D01*
X152306993Y-112452969D01*
X152296685Y-112418991D01*
X152292600Y-112377510D01*
X152292600Y-111701290D01*
X152296685Y-111659809D01*
X152306993Y-111625831D01*
X152323734Y-111594510D01*
X152346261Y-111567061D01*
X152373710Y-111544534D01*
X152405031Y-111527793D01*
X152439009Y-111517485D01*
X152480490Y-111513400D01*
X153081710Y-111513400D01*
X153123191Y-111517485D01*
G37*
G36*
X142390991Y-111148685D02*
G01*
X142424969Y-111158993D01*
X142456290Y-111175734D01*
X142483739Y-111198261D01*
X142506266Y-111225710D01*
X142523007Y-111257031D01*
X142533315Y-111291009D01*
X142537400Y-111332490D01*
X142537400Y-111933710D01*
X142533315Y-111975191D01*
X142523007Y-112009169D01*
X142506266Y-112040490D01*
X142483739Y-112067939D01*
X142456290Y-112090466D01*
X142424969Y-112107207D01*
X142390991Y-112117515D01*
X142349510Y-112121600D01*
X141673290Y-112121600D01*
X141631809Y-112117515D01*
X141597831Y-112107207D01*
X141566510Y-112090466D01*
X141539061Y-112067939D01*
X141516534Y-112040490D01*
X141499793Y-112009169D01*
X141489485Y-111975191D01*
X141485400Y-111933710D01*
X141485400Y-111332490D01*
X141489485Y-111291009D01*
X141499793Y-111257031D01*
X141516534Y-111225710D01*
X141539061Y-111198261D01*
X141566510Y-111175734D01*
X141597831Y-111158993D01*
X141631809Y-111148685D01*
X141673290Y-111144600D01*
X142349510Y-111144600D01*
X142390991Y-111148685D01*
G37*
G36*
X144168991Y-111097885D02*
G01*
X144202969Y-111108193D01*
X144234290Y-111124934D01*
X144261739Y-111147461D01*
X144284266Y-111174910D01*
X144301007Y-111206231D01*
X144311315Y-111240209D01*
X144315400Y-111281690D01*
X144315400Y-111882910D01*
X144311315Y-111924391D01*
X144301007Y-111958369D01*
X144284266Y-111989690D01*
X144261739Y-112017139D01*
X144234290Y-112039666D01*
X144202969Y-112056407D01*
X144168991Y-112066715D01*
X144127510Y-112070800D01*
X143451290Y-112070800D01*
X143409809Y-112066715D01*
X143375831Y-112056407D01*
X143344510Y-112039666D01*
X143317061Y-112017139D01*
X143294534Y-111989690D01*
X143277793Y-111958369D01*
X143267485Y-111924391D01*
X143263400Y-111882910D01*
X143263400Y-111281690D01*
X143267485Y-111240209D01*
X143277793Y-111206231D01*
X143294534Y-111174910D01*
X143317061Y-111147461D01*
X143344510Y-111124934D01*
X143375831Y-111108193D01*
X143409809Y-111097885D01*
X143451290Y-111093800D01*
X144127510Y-111093800D01*
X144168991Y-111097885D01*
G37*
G36*
X153095121Y-110777141D02*
G01*
X151933121Y-110777141D01*
X151933121Y-108125141D01*
X153095121Y-108125141D01*
X153095121Y-110777141D01*
G37*
G36*
X155295121Y-110777141D02*
G01*
X154133121Y-110777141D01*
X154133121Y-110025141D01*
X155295121Y-110025141D01*
X155295121Y-110777141D01*
G37*
G36*
X142390991Y-109573685D02*
G01*
X142424969Y-109583993D01*
X142456290Y-109600734D01*
X142483739Y-109623261D01*
X142506266Y-109650710D01*
X142523007Y-109682031D01*
X142533315Y-109716009D01*
X142537400Y-109757490D01*
X142537400Y-110358710D01*
X142533315Y-110400191D01*
X142523007Y-110434169D01*
X142506266Y-110465490D01*
X142483739Y-110492939D01*
X142456290Y-110515466D01*
X142424969Y-110532207D01*
X142390991Y-110542515D01*
X142349510Y-110546600D01*
X141673290Y-110546600D01*
X141631809Y-110542515D01*
X141597831Y-110532207D01*
X141566510Y-110515466D01*
X141539061Y-110492939D01*
X141516534Y-110465490D01*
X141499793Y-110434169D01*
X141489485Y-110400191D01*
X141485400Y-110358710D01*
X141485400Y-109757490D01*
X141489485Y-109716009D01*
X141499793Y-109682031D01*
X141516534Y-109650710D01*
X141539061Y-109623261D01*
X141566510Y-109600734D01*
X141597831Y-109583993D01*
X141631809Y-109573685D01*
X141673290Y-109569600D01*
X142349510Y-109569600D01*
X142390991Y-109573685D01*
G37*
G36*
X144168991Y-109522885D02*
G01*
X144202969Y-109533193D01*
X144234290Y-109549934D01*
X144261739Y-109572461D01*
X144284266Y-109599910D01*
X144301007Y-109631231D01*
X144311315Y-109665209D01*
X144315400Y-109706690D01*
X144315400Y-110307910D01*
X144311315Y-110349391D01*
X144301007Y-110383369D01*
X144284266Y-110414690D01*
X144261739Y-110442139D01*
X144234290Y-110464666D01*
X144202969Y-110481407D01*
X144168991Y-110491715D01*
X144127510Y-110495800D01*
X143451290Y-110495800D01*
X143409809Y-110491715D01*
X143375831Y-110481407D01*
X143344510Y-110464666D01*
X143317061Y-110442139D01*
X143294534Y-110414690D01*
X143277793Y-110383369D01*
X143267485Y-110349391D01*
X143263400Y-110307910D01*
X143263400Y-109706690D01*
X143267485Y-109665209D01*
X143277793Y-109631231D01*
X143294534Y-109599910D01*
X143317061Y-109572461D01*
X143344510Y-109549934D01*
X143375831Y-109533193D01*
X143409809Y-109522885D01*
X143451290Y-109518800D01*
X144127510Y-109518800D01*
X144168991Y-109522885D01*
G37*
G36*
X151174100Y-109397800D02*
G01*
X144812100Y-109397800D01*
X144812100Y-107924600D01*
X151174100Y-107924600D01*
X151174100Y-109397800D01*
G37*
G36*
X155295121Y-108877141D02*
G01*
X154133121Y-108877141D01*
X154133121Y-108125141D01*
X155295121Y-108125141D01*
X155295121Y-108877141D01*
G37*
G36*
X144437100Y-107549600D02*
G01*
X142963900Y-107549600D01*
X142963900Y-101187600D01*
X144437100Y-101187600D01*
X144437100Y-107549600D01*
G37*
G36*
X153022300Y-103935801D02*
G01*
X153024702Y-103960187D01*
X153031815Y-103983636D01*
X153043366Y-104005247D01*
X153058911Y-104024189D01*
X153077853Y-104039734D01*
X153099464Y-104051285D01*
X153122913Y-104058398D01*
X153147299Y-104060800D01*
X154309700Y-104060800D01*
X154309700Y-104201301D01*
X154312102Y-104225687D01*
X154319215Y-104249136D01*
X154330766Y-104270747D01*
X154346311Y-104289689D01*
X154365253Y-104305234D01*
X154386864Y-104316785D01*
X154410313Y-104323898D01*
X154434699Y-104326300D01*
X154459085Y-104323898D01*
X154493623Y-104311540D01*
X154513729Y-104300793D01*
X154547709Y-104290485D01*
X154589190Y-104286400D01*
X155265410Y-104286400D01*
X155306891Y-104290485D01*
X155340869Y-104300793D01*
X155372190Y-104317534D01*
X155399639Y-104340061D01*
X155422166Y-104367510D01*
X155438907Y-104398831D01*
X155449215Y-104432809D01*
X155453300Y-104474290D01*
X155453300Y-105075510D01*
X155449215Y-105116991D01*
X155438907Y-105150969D01*
X155422166Y-105182290D01*
X155399639Y-105209739D01*
X155372190Y-105232266D01*
X155340869Y-105249007D01*
X155306891Y-105259315D01*
X155265410Y-105263400D01*
X154589190Y-105263400D01*
X154547709Y-105259315D01*
X154513729Y-105249007D01*
X154493623Y-105238260D01*
X154470984Y-105228882D01*
X154446951Y-105224102D01*
X154422447Y-105224102D01*
X154398414Y-105228882D01*
X154375775Y-105238260D01*
X154355400Y-105251874D01*
X154338073Y-105269201D01*
X154324460Y-105289575D01*
X154315082Y-105312214D01*
X154309700Y-105348499D01*
X154309700Y-105364000D01*
X153147299Y-105364000D01*
X153122913Y-105366402D01*
X153099464Y-105373515D01*
X153077853Y-105385066D01*
X153058911Y-105400611D01*
X153043366Y-105419553D01*
X153031815Y-105441164D01*
X153024702Y-105464613D01*
X153022300Y-105488999D01*
X153022300Y-105635801D01*
X153024702Y-105660187D01*
X153031815Y-105683636D01*
X153043366Y-105705247D01*
X153058911Y-105724189D01*
X153077853Y-105739734D01*
X153099464Y-105751285D01*
X153122913Y-105758398D01*
X153147299Y-105760800D01*
X154309700Y-105760800D01*
X154309700Y-105776301D01*
X154312102Y-105800687D01*
X154319215Y-105824136D01*
X154330766Y-105845747D01*
X154346311Y-105864689D01*
X154365253Y-105880234D01*
X154386864Y-105891785D01*
X154410313Y-105898898D01*
X154434699Y-105901300D01*
X154459085Y-105898898D01*
X154493623Y-105886540D01*
X154513729Y-105875793D01*
X154547709Y-105865485D01*
X154589190Y-105861400D01*
X155265410Y-105861400D01*
X155306891Y-105865485D01*
X155340869Y-105875793D01*
X155372190Y-105892534D01*
X155399639Y-105915061D01*
X155422166Y-105942510D01*
X155438907Y-105973831D01*
X155449215Y-106007809D01*
X155453300Y-106049290D01*
X155453300Y-106650510D01*
X155449215Y-106691991D01*
X155438907Y-106725969D01*
X155422166Y-106757290D01*
X155399639Y-106784739D01*
X155372190Y-106807266D01*
X155340869Y-106824007D01*
X155306891Y-106834315D01*
X155265410Y-106838400D01*
X154589190Y-106838400D01*
X154547709Y-106834315D01*
X154513729Y-106824007D01*
X154493623Y-106813260D01*
X154470984Y-106803882D01*
X154446951Y-106799102D01*
X154422447Y-106799102D01*
X154398414Y-106803882D01*
X154375775Y-106813260D01*
X154355400Y-106826874D01*
X154338073Y-106844201D01*
X154324460Y-106864575D01*
X154315082Y-106887214D01*
X154309700Y-106923499D01*
X154309700Y-107064000D01*
X153147299Y-107064000D01*
X153122913Y-107066402D01*
X153099464Y-107073515D01*
X153077853Y-107085066D01*
X153058911Y-107100611D01*
X153043366Y-107119553D01*
X153031815Y-107141164D01*
X153024702Y-107164613D01*
X153022300Y-107188999D01*
X153022300Y-107549600D01*
X151549100Y-107549600D01*
X151549100Y-101187600D01*
X153022300Y-101187600D01*
X153022300Y-103935801D01*
G37*
G36*
X142492591Y-104646285D02*
G01*
X142526569Y-104656593D01*
X142557890Y-104673334D01*
X142585339Y-104695861D01*
X142607866Y-104723310D01*
X142624607Y-104754631D01*
X142634915Y-104788609D01*
X142639000Y-104830090D01*
X142639000Y-105431310D01*
X142634915Y-105472791D01*
X142624607Y-105506769D01*
X142607866Y-105538090D01*
X142585339Y-105565539D01*
X142557890Y-105588066D01*
X142526569Y-105604807D01*
X142492591Y-105615115D01*
X142451110Y-105619200D01*
X141774890Y-105619200D01*
X141733409Y-105615115D01*
X141699431Y-105604807D01*
X141668110Y-105588066D01*
X141640661Y-105565539D01*
X141618134Y-105538090D01*
X141601393Y-105506769D01*
X141591085Y-105472791D01*
X141587000Y-105431310D01*
X141587000Y-104830090D01*
X141591085Y-104788609D01*
X141601393Y-104754631D01*
X141618134Y-104723310D01*
X141640661Y-104695861D01*
X141668110Y-104673334D01*
X141699431Y-104656593D01*
X141733409Y-104646285D01*
X141774890Y-104642200D01*
X142451110Y-104642200D01*
X142492591Y-104646285D01*
G37*
G36*
X142492591Y-103071285D02*
G01*
X142526569Y-103081593D01*
X142557890Y-103098334D01*
X142585339Y-103120861D01*
X142607866Y-103148310D01*
X142624607Y-103179631D01*
X142634915Y-103213609D01*
X142639000Y-103255090D01*
X142639000Y-103856310D01*
X142634915Y-103897791D01*
X142624607Y-103931769D01*
X142607866Y-103963090D01*
X142585339Y-103990539D01*
X142557890Y-104013066D01*
X142526569Y-104029807D01*
X142492591Y-104040115D01*
X142451110Y-104044200D01*
X141774890Y-104044200D01*
X141733409Y-104040115D01*
X141699431Y-104029807D01*
X141668110Y-104013066D01*
X141640661Y-103990539D01*
X141618134Y-103963090D01*
X141601393Y-103931769D01*
X141591085Y-103897791D01*
X141587000Y-103856310D01*
X141587000Y-103255090D01*
X141591085Y-103213609D01*
X141601393Y-103179631D01*
X141618134Y-103148310D01*
X141640661Y-103120861D01*
X141668110Y-103098334D01*
X141699431Y-103081593D01*
X141733409Y-103071285D01*
X141774890Y-103067200D01*
X142451110Y-103067200D01*
X142492591Y-103071285D01*
G37*
G36*
X155687000Y-103355800D02*
G01*
X153685000Y-103355800D01*
X153685000Y-102853800D01*
X155687000Y-102853800D01*
X155687000Y-103355800D01*
G37*
G36*
X155687000Y-102155800D02*
G01*
X153685000Y-102155800D01*
X153685000Y-101653800D01*
X155687000Y-101653800D01*
X155687000Y-102155800D01*
G37*
G36*
X155687000Y-100955800D02*
G01*
X153685000Y-100955800D01*
X153685000Y-100453800D01*
X155687000Y-100453800D01*
X155687000Y-100955800D01*
G37*
G36*
X151174100Y-100812600D02*
G01*
X144812100Y-100812600D01*
X144812100Y-99339400D01*
X151174100Y-99339400D01*
X151174100Y-100812600D01*
G37*
G36*
X142392557Y-98115339D02*
G01*
X142409889Y-98120597D01*
X142425857Y-98129132D01*
X142439857Y-98140621D01*
X142451346Y-98154621D01*
X142459881Y-98170589D01*
X142465139Y-98187921D01*
X142467518Y-98212078D01*
X142467518Y-99217042D01*
X142465139Y-99241199D01*
X142459881Y-99258531D01*
X142451346Y-99274499D01*
X142439857Y-99288499D01*
X142425857Y-99299988D01*
X142409889Y-99308523D01*
X142392557Y-99313781D01*
X142368400Y-99316160D01*
X142329703Y-99316160D01*
X142305317Y-99318562D01*
X142281868Y-99325675D01*
X142260257Y-99337226D01*
X142241315Y-99352771D01*
X142225770Y-99371713D01*
X142214219Y-99393324D01*
X142207106Y-99416773D01*
X142204704Y-99441159D01*
X142207106Y-99465545D01*
X142214219Y-99488994D01*
X142225770Y-99510605D01*
X142241315Y-99529547D01*
X142260257Y-99545092D01*
X142293417Y-99560775D01*
X142313709Y-99566930D01*
X142345030Y-99583672D01*
X142372479Y-99606199D01*
X142395006Y-99633648D01*
X142411747Y-99664969D01*
X142422055Y-99698947D01*
X142426140Y-99740428D01*
X142426140Y-100416648D01*
X142422055Y-100458129D01*
X142411747Y-100492107D01*
X142395006Y-100523428D01*
X142372479Y-100550877D01*
X142345030Y-100573404D01*
X142313709Y-100590145D01*
X142279731Y-100600453D01*
X142238250Y-100604538D01*
X141637030Y-100604538D01*
X141595549Y-100600453D01*
X141561571Y-100590145D01*
X141530250Y-100573404D01*
X141502801Y-100550877D01*
X141480274Y-100523428D01*
X141463533Y-100492107D01*
X141453225Y-100458129D01*
X141449140Y-100416648D01*
X141449140Y-99740428D01*
X141453225Y-99698947D01*
X141463533Y-99664969D01*
X141480274Y-99633648D01*
X141502801Y-99606199D01*
X141530250Y-99583672D01*
X141561571Y-99566930D01*
X141581863Y-99560775D01*
X141604502Y-99551398D01*
X141624876Y-99537784D01*
X141642203Y-99520457D01*
X141655817Y-99500083D01*
X141665194Y-99477444D01*
X141669974Y-99453410D01*
X141669974Y-99428906D01*
X141665193Y-99404873D01*
X141655816Y-99382234D01*
X141642202Y-99361860D01*
X141624875Y-99344533D01*
X141604501Y-99330919D01*
X141581862Y-99321542D01*
X141545577Y-99316160D01*
X141363436Y-99316160D01*
X141339279Y-99313781D01*
X141321947Y-99308523D01*
X141305979Y-99299988D01*
X141291979Y-99288499D01*
X141280490Y-99274499D01*
X141271955Y-99258531D01*
X141266697Y-99241199D01*
X141264318Y-99217042D01*
X141264318Y-98212078D01*
X141266697Y-98187921D01*
X141271955Y-98170589D01*
X141280490Y-98154621D01*
X141291979Y-98140621D01*
X141305979Y-98129132D01*
X141321947Y-98120597D01*
X141339279Y-98115339D01*
X141363436Y-98112960D01*
X142368400Y-98112960D01*
X142392557Y-98115339D01*
G37*
G36*
X144146557Y-98115339D02*
G01*
X144163889Y-98120597D01*
X144179857Y-98129132D01*
X144193857Y-98140621D01*
X144205346Y-98154621D01*
X144213881Y-98170589D01*
X144219139Y-98187921D01*
X144221518Y-98212078D01*
X144221518Y-99217042D01*
X144219139Y-99241199D01*
X144213881Y-99258531D01*
X144205346Y-99274499D01*
X144193857Y-99288499D01*
X144179857Y-99299988D01*
X144163889Y-99308523D01*
X144146557Y-99313781D01*
X144122400Y-99316160D01*
X143904703Y-99316160D01*
X143880317Y-99318562D01*
X143856868Y-99325675D01*
X143835257Y-99337226D01*
X143816315Y-99352771D01*
X143800770Y-99371713D01*
X143789219Y-99393324D01*
X143782106Y-99416773D01*
X143779704Y-99441159D01*
X143782106Y-99465545D01*
X143789219Y-99488994D01*
X143800770Y-99510605D01*
X143816315Y-99529547D01*
X143835257Y-99545092D01*
X143868417Y-99560775D01*
X143888709Y-99566930D01*
X143920030Y-99583672D01*
X143947479Y-99606199D01*
X143970006Y-99633648D01*
X143986747Y-99664969D01*
X143997055Y-99698947D01*
X144001140Y-99740428D01*
X144001140Y-100416648D01*
X143997055Y-100458129D01*
X143986747Y-100492107D01*
X143970006Y-100523428D01*
X143947479Y-100550877D01*
X143920030Y-100573404D01*
X143888709Y-100590145D01*
X143854731Y-100600453D01*
X143813250Y-100604538D01*
X143212030Y-100604538D01*
X143170549Y-100600453D01*
X143136571Y-100590145D01*
X143105250Y-100573404D01*
X143077801Y-100550877D01*
X143055274Y-100523428D01*
X143038533Y-100492107D01*
X143028225Y-100458129D01*
X143024140Y-100416648D01*
X143024140Y-99740428D01*
X143028225Y-99698947D01*
X143038533Y-99664969D01*
X143055274Y-99633648D01*
X143077801Y-99606199D01*
X143105250Y-99583672D01*
X143136571Y-99566930D01*
X143156863Y-99560775D01*
X143179502Y-99551398D01*
X143199876Y-99537784D01*
X143217203Y-99520457D01*
X143230817Y-99500083D01*
X143240194Y-99477444D01*
X143244974Y-99453410D01*
X143244974Y-99428906D01*
X143240193Y-99404873D01*
X143230816Y-99382234D01*
X143217202Y-99361860D01*
X143199875Y-99344533D01*
X143179501Y-99330919D01*
X143156862Y-99321542D01*
X143120577Y-99316160D01*
X143117436Y-99316160D01*
X143093279Y-99313781D01*
X143075947Y-99308523D01*
X143059979Y-99299988D01*
X143045979Y-99288499D01*
X143034490Y-99274499D01*
X143025955Y-99258531D01*
X143020697Y-99241199D01*
X143018318Y-99217042D01*
X143018318Y-98212078D01*
X143020697Y-98187921D01*
X143025955Y-98170589D01*
X143034490Y-98154621D01*
X143045979Y-98140621D01*
X143059979Y-98129132D01*
X143075947Y-98120597D01*
X143093279Y-98115339D01*
X143117436Y-98112960D01*
X144122400Y-98112960D01*
X144146557Y-98115339D01*
G37*
G36*
X153891135Y-97063779D02*
G01*
X153908467Y-97069037D01*
X153924435Y-97077572D01*
X153938435Y-97089061D01*
X153949924Y-97103061D01*
X153958459Y-97119029D01*
X153963717Y-97136361D01*
X153966096Y-97160518D01*
X153966096Y-98165482D01*
X153963717Y-98189639D01*
X153958459Y-98206971D01*
X153949924Y-98222939D01*
X153938435Y-98236939D01*
X153924436Y-98248428D01*
X153913849Y-98254086D01*
X153893474Y-98267699D01*
X153876147Y-98285026D01*
X153862532Y-98305400D01*
X153853154Y-98328039D01*
X153848373Y-98352072D01*
X153848373Y-98376576D01*
X153853152Y-98400609D01*
X153862529Y-98423248D01*
X153876142Y-98443623D01*
X153893471Y-98460952D01*
X153911695Y-98475908D01*
X153934222Y-98503357D01*
X153950963Y-98534678D01*
X153961271Y-98568656D01*
X153965356Y-98610137D01*
X153965356Y-99286357D01*
X153961271Y-99327838D01*
X153950963Y-99361816D01*
X153934222Y-99393137D01*
X153911695Y-99420586D01*
X153884246Y-99443113D01*
X153852925Y-99459854D01*
X153818947Y-99470162D01*
X153777466Y-99474247D01*
X153176246Y-99474247D01*
X153134765Y-99470162D01*
X153100787Y-99459854D01*
X153069466Y-99443113D01*
X153042017Y-99420586D01*
X153019490Y-99393137D01*
X153002749Y-99361816D01*
X152992441Y-99327838D01*
X152988356Y-99286357D01*
X152988356Y-98610137D01*
X152992441Y-98568656D01*
X153002749Y-98534678D01*
X153019489Y-98503360D01*
X153047771Y-98468898D01*
X153061384Y-98448523D01*
X153070762Y-98425884D01*
X153075542Y-98401851D01*
X153075542Y-98377347D01*
X153070762Y-98353314D01*
X153061384Y-98330675D01*
X153047771Y-98310300D01*
X153030444Y-98292973D01*
X153010069Y-98279360D01*
X152987430Y-98269982D01*
X152963397Y-98265202D01*
X152951145Y-98264600D01*
X152862014Y-98264600D01*
X152837857Y-98262221D01*
X152820525Y-98256963D01*
X152804557Y-98248428D01*
X152790557Y-98236939D01*
X152779068Y-98222939D01*
X152770533Y-98206971D01*
X152765275Y-98189639D01*
X152762896Y-98165482D01*
X152762896Y-97160518D01*
X152765275Y-97136361D01*
X152770533Y-97119029D01*
X152779068Y-97103061D01*
X152790557Y-97089061D01*
X152804557Y-97077572D01*
X152820525Y-97069037D01*
X152837857Y-97063779D01*
X152862014Y-97061400D01*
X153866978Y-97061400D01*
X153891135Y-97063779D01*
G37*
G36*
X155645135Y-97063779D02*
G01*
X155662467Y-97069037D01*
X155678435Y-97077572D01*
X155692435Y-97089061D01*
X155703924Y-97103061D01*
X155712459Y-97119029D01*
X155717717Y-97136361D01*
X155720096Y-97160518D01*
X155720096Y-98165482D01*
X155717717Y-98189639D01*
X155712459Y-98206971D01*
X155703924Y-98222939D01*
X155692435Y-98236939D01*
X155678435Y-98248428D01*
X155662467Y-98256963D01*
X155645135Y-98262221D01*
X155620978Y-98264600D01*
X155577567Y-98264600D01*
X155553181Y-98267002D01*
X155529732Y-98274115D01*
X155508121Y-98285666D01*
X155489179Y-98301211D01*
X155473634Y-98320153D01*
X155462083Y-98341764D01*
X155454970Y-98365213D01*
X155452568Y-98389599D01*
X155454970Y-98413985D01*
X155462083Y-98437434D01*
X155473634Y-98459045D01*
X155480941Y-98468898D01*
X155509223Y-98503360D01*
X155525963Y-98534678D01*
X155536271Y-98568656D01*
X155540356Y-98610137D01*
X155540356Y-99286357D01*
X155536271Y-99327838D01*
X155525963Y-99361816D01*
X155509222Y-99393137D01*
X155486695Y-99420586D01*
X155459246Y-99443113D01*
X155427925Y-99459854D01*
X155393947Y-99470162D01*
X155352466Y-99474247D01*
X154751246Y-99474247D01*
X154709765Y-99470162D01*
X154675787Y-99459854D01*
X154644466Y-99443113D01*
X154617017Y-99420586D01*
X154594490Y-99393137D01*
X154577749Y-99361816D01*
X154567441Y-99327838D01*
X154563356Y-99286357D01*
X154563356Y-98610137D01*
X154567441Y-98568656D01*
X154577749Y-98534678D01*
X154594490Y-98503357D01*
X154617016Y-98475909D01*
X154619562Y-98473820D01*
X154636889Y-98456493D01*
X154650503Y-98436118D01*
X154659881Y-98413479D01*
X154664661Y-98389446D01*
X154664661Y-98364942D01*
X154659881Y-98340909D01*
X154650503Y-98318270D01*
X154636890Y-98297896D01*
X154619563Y-98280569D01*
X154599188Y-98266955D01*
X154576552Y-98257578D01*
X154574525Y-98256963D01*
X154558557Y-98248428D01*
X154544557Y-98236939D01*
X154533068Y-98222939D01*
X154524533Y-98206971D01*
X154519275Y-98189639D01*
X154516896Y-98165482D01*
X154516896Y-97160518D01*
X154519275Y-97136361D01*
X154524533Y-97119029D01*
X154533068Y-97103061D01*
X154544557Y-97089061D01*
X154558557Y-97077572D01*
X154574525Y-97069037D01*
X154591857Y-97063779D01*
X154616014Y-97061400D01*
X155620978Y-97061400D01*
X155645135Y-97063779D01*
G37*
G36*
X150576178Y-96720797D02*
G01*
X150628950Y-96731294D01*
X150728370Y-96772475D01*
X150817846Y-96832261D01*
X150893939Y-96908354D01*
X150953725Y-96997830D01*
X150994906Y-97097250D01*
X151015900Y-97202794D01*
X151015900Y-97310406D01*
X150994906Y-97415950D01*
X150953725Y-97515370D01*
X150893939Y-97604846D01*
X150817846Y-97680939D01*
X150728370Y-97740725D01*
X150628950Y-97781906D01*
X150576178Y-97792403D01*
X150523407Y-97802900D01*
X150415793Y-97802900D01*
X150363022Y-97792403D01*
X150310250Y-97781906D01*
X150210830Y-97740725D01*
X150121354Y-97680939D01*
X150045261Y-97604846D01*
X149985475Y-97515370D01*
X149944294Y-97415950D01*
X149923300Y-97310406D01*
X149923300Y-97202794D01*
X149944294Y-97097250D01*
X149985475Y-96997830D01*
X150045261Y-96908354D01*
X150121354Y-96832261D01*
X150210830Y-96772475D01*
X150310250Y-96731294D01*
X150363022Y-96720797D01*
X150415793Y-96710300D01*
X150523407Y-96710300D01*
X150576178Y-96720797D01*
G37*
G36*
X146789314Y-96447989D02*
G01*
X146870245Y-96481512D01*
X146943080Y-96530179D01*
X147005021Y-96592120D01*
X147053688Y-96664955D01*
X147087211Y-96745886D01*
X147104300Y-96831801D01*
X147104300Y-96919399D01*
X147087211Y-97005314D01*
X147053688Y-97086245D01*
X147005021Y-97159080D01*
X146943080Y-97221021D01*
X146870245Y-97269688D01*
X146870244Y-97269689D01*
X146870243Y-97269689D01*
X146789314Y-97303211D01*
X146703401Y-97320300D01*
X146615799Y-97320300D01*
X146529886Y-97303211D01*
X146448957Y-97269689D01*
X146448956Y-97269689D01*
X146448955Y-97269688D01*
X146376120Y-97221021D01*
X146314179Y-97159080D01*
X146265512Y-97086245D01*
X146231989Y-97005314D01*
X146214900Y-96919399D01*
X146214900Y-96831801D01*
X146231989Y-96745886D01*
X146265512Y-96664955D01*
X146314179Y-96592120D01*
X146376120Y-96530179D01*
X146448955Y-96481512D01*
X146529886Y-96447989D01*
X146615799Y-96430900D01*
X146703401Y-96430900D01*
X146789314Y-96447989D01*
G37*
G36*
X149329314Y-96447989D02*
G01*
X149410245Y-96481512D01*
X149483080Y-96530179D01*
X149545021Y-96592120D01*
X149593688Y-96664955D01*
X149627211Y-96745886D01*
X149644300Y-96831801D01*
X149644300Y-96919399D01*
X149627211Y-97005314D01*
X149593688Y-97086245D01*
X149545021Y-97159080D01*
X149483080Y-97221021D01*
X149410245Y-97269688D01*
X149410244Y-97269689D01*
X149410243Y-97269689D01*
X149329314Y-97303211D01*
X149243401Y-97320300D01*
X149155799Y-97320300D01*
X149069886Y-97303211D01*
X148988957Y-97269689D01*
X148988956Y-97269689D01*
X148988955Y-97269688D01*
X148916120Y-97221021D01*
X148854179Y-97159080D01*
X148805512Y-97086245D01*
X148771989Y-97005314D01*
X148754900Y-96919399D01*
X148754900Y-96831801D01*
X148771989Y-96745886D01*
X148805512Y-96664955D01*
X148854179Y-96592120D01*
X148916120Y-96530179D01*
X148988955Y-96481512D01*
X149069886Y-96447989D01*
X149155799Y-96430900D01*
X149243401Y-96430900D01*
X149329314Y-96447989D01*
G37*
G36*
X148059314Y-96447989D02*
G01*
X148140245Y-96481512D01*
X148213080Y-96530179D01*
X148275021Y-96592120D01*
X148323688Y-96664955D01*
X148357211Y-96745886D01*
X148374300Y-96831801D01*
X148374300Y-96919399D01*
X148357211Y-97005314D01*
X148323688Y-97086245D01*
X148275021Y-97159080D01*
X148213080Y-97221021D01*
X148140245Y-97269688D01*
X148140244Y-97269689D01*
X148140243Y-97269689D01*
X148059314Y-97303211D01*
X147973401Y-97320300D01*
X147885799Y-97320300D01*
X147799886Y-97303211D01*
X147718957Y-97269689D01*
X147718956Y-97269689D01*
X147718955Y-97269688D01*
X147646120Y-97221021D01*
X147584179Y-97159080D01*
X147535512Y-97086245D01*
X147501989Y-97005314D01*
X147484900Y-96919399D01*
X147484900Y-96831801D01*
X147501989Y-96745886D01*
X147535512Y-96664955D01*
X147584179Y-96592120D01*
X147646120Y-96530179D01*
X147718955Y-96481512D01*
X147799886Y-96447989D01*
X147885799Y-96430900D01*
X147973401Y-96430900D01*
X148059314Y-96447989D01*
G37*
G36*
X145496178Y-95704797D02*
G01*
X145548950Y-95715294D01*
X145648370Y-95756475D01*
X145737846Y-95816261D01*
X145813939Y-95892354D01*
X145873725Y-95981830D01*
X145914906Y-96081250D01*
X145935900Y-96186794D01*
X145935900Y-96294406D01*
X145914906Y-96399950D01*
X145873725Y-96499370D01*
X145813939Y-96588846D01*
X145737846Y-96664939D01*
X145648370Y-96724725D01*
X145548950Y-96765906D01*
X145515925Y-96772475D01*
X145443407Y-96786900D01*
X145335793Y-96786900D01*
X145263275Y-96772475D01*
X145230250Y-96765906D01*
X145130830Y-96724725D01*
X145041354Y-96664939D01*
X144965261Y-96588846D01*
X144905475Y-96499370D01*
X144864294Y-96399950D01*
X144843300Y-96294406D01*
X144843300Y-96186794D01*
X144864294Y-96081250D01*
X144905475Y-95981830D01*
X144965261Y-95892354D01*
X145041354Y-95816261D01*
X145130830Y-95756475D01*
X145230250Y-95715294D01*
X145283022Y-95704797D01*
X145335793Y-95694300D01*
X145443407Y-95694300D01*
X145496178Y-95704797D01*
G37*
G36*
X149329314Y-95177989D02*
G01*
X149410245Y-95211512D01*
X149483080Y-95260179D01*
X149545021Y-95322120D01*
X149591125Y-95391119D01*
X149593689Y-95394957D01*
X149627211Y-95475886D01*
X149636835Y-95524268D01*
X149644300Y-95561801D01*
X149644300Y-95649399D01*
X149627211Y-95735314D01*
X149593688Y-95816245D01*
X149545021Y-95889080D01*
X149483080Y-95951021D01*
X149410245Y-95999688D01*
X149410244Y-95999689D01*
X149410243Y-95999689D01*
X149329314Y-96033211D01*
X149243401Y-96050300D01*
X149155799Y-96050300D01*
X149069886Y-96033211D01*
X148988957Y-95999689D01*
X148988956Y-95999689D01*
X148988955Y-95999688D01*
X148916120Y-95951021D01*
X148854179Y-95889080D01*
X148805512Y-95816245D01*
X148771989Y-95735314D01*
X148754900Y-95649399D01*
X148754900Y-95561801D01*
X148762366Y-95524268D01*
X148771989Y-95475886D01*
X148805511Y-95394957D01*
X148808075Y-95391119D01*
X148854179Y-95322120D01*
X148916120Y-95260179D01*
X148988955Y-95211512D01*
X149069886Y-95177989D01*
X149155799Y-95160900D01*
X149243401Y-95160900D01*
X149329314Y-95177989D01*
G37*
G36*
X148059314Y-95177989D02*
G01*
X148140245Y-95211512D01*
X148213080Y-95260179D01*
X148275021Y-95322120D01*
X148321125Y-95391119D01*
X148323689Y-95394957D01*
X148357211Y-95475886D01*
X148366835Y-95524268D01*
X148374300Y-95561801D01*
X148374300Y-95649399D01*
X148357211Y-95735314D01*
X148323688Y-95816245D01*
X148275021Y-95889080D01*
X148213080Y-95951021D01*
X148140245Y-95999688D01*
X148140244Y-95999689D01*
X148140243Y-95999689D01*
X148059314Y-96033211D01*
X147973401Y-96050300D01*
X147885799Y-96050300D01*
X147799886Y-96033211D01*
X147718957Y-95999689D01*
X147718956Y-95999689D01*
X147718955Y-95999688D01*
X147646120Y-95951021D01*
X147584179Y-95889080D01*
X147535512Y-95816245D01*
X147501989Y-95735314D01*
X147484900Y-95649399D01*
X147484900Y-95561801D01*
X147492366Y-95524268D01*
X147501989Y-95475886D01*
X147535511Y-95394957D01*
X147538075Y-95391119D01*
X147584179Y-95322120D01*
X147646120Y-95260179D01*
X147718955Y-95211512D01*
X147799886Y-95177989D01*
X147885799Y-95160900D01*
X147973401Y-95160900D01*
X148059314Y-95177989D01*
G37*
G36*
X146789314Y-95177989D02*
G01*
X146870245Y-95211512D01*
X146943080Y-95260179D01*
X147005021Y-95322120D01*
X147051125Y-95391119D01*
X147053689Y-95394957D01*
X147087211Y-95475886D01*
X147096835Y-95524268D01*
X147104300Y-95561801D01*
X147104300Y-95649399D01*
X147087211Y-95735314D01*
X147053688Y-95816245D01*
X147005021Y-95889080D01*
X146943080Y-95951021D01*
X146870245Y-95999688D01*
X146870244Y-95999689D01*
X146870243Y-95999689D01*
X146789314Y-96033211D01*
X146703401Y-96050300D01*
X146615799Y-96050300D01*
X146529886Y-96033211D01*
X146448957Y-95999689D01*
X146448956Y-95999689D01*
X146448955Y-95999688D01*
X146376120Y-95951021D01*
X146314179Y-95889080D01*
X146265512Y-95816245D01*
X146231989Y-95735314D01*
X146214900Y-95649399D01*
X146214900Y-95561801D01*
X146222366Y-95524268D01*
X146231989Y-95475886D01*
X146265511Y-95394957D01*
X146268075Y-95391119D01*
X146314179Y-95322120D01*
X146376120Y-95260179D01*
X146448955Y-95211512D01*
X146529886Y-95177989D01*
X146615799Y-95160900D01*
X146703401Y-95160900D01*
X146789314Y-95177989D01*
G37*
G36*
X150576178Y-94688797D02*
G01*
X150628950Y-94699294D01*
X150728370Y-94740475D01*
X150817846Y-94800261D01*
X150893939Y-94876354D01*
X150953725Y-94965830D01*
X150994906Y-95065250D01*
X151015900Y-95170794D01*
X151015900Y-95278406D01*
X150994906Y-95383950D01*
X150953725Y-95483370D01*
X150893939Y-95572846D01*
X150817846Y-95648939D01*
X150728370Y-95708725D01*
X150628950Y-95749906D01*
X150595925Y-95756475D01*
X150523407Y-95770900D01*
X150415793Y-95770900D01*
X150343275Y-95756475D01*
X150310250Y-95749906D01*
X150210830Y-95708725D01*
X150121354Y-95648939D01*
X150045261Y-95572846D01*
X149985475Y-95483370D01*
X149944294Y-95383950D01*
X149923300Y-95278406D01*
X149923300Y-95170794D01*
X149944294Y-95065250D01*
X149985475Y-94965830D01*
X150045261Y-94876354D01*
X150121354Y-94800261D01*
X150210830Y-94740475D01*
X150310250Y-94699294D01*
X150363022Y-94688797D01*
X150415793Y-94678300D01*
X150523407Y-94678300D01*
X150576178Y-94688797D01*
G37*
G36*
X153129152Y-94649672D02*
G01*
X153219684Y-94677135D01*
X153303119Y-94721732D01*
X153376251Y-94781749D01*
X153436268Y-94854881D01*
X153480865Y-94938316D01*
X153508328Y-95028848D01*
X153517601Y-95122999D01*
X153517601Y-95123001D01*
X153508328Y-95217152D01*
X153480865Y-95307684D01*
X153436268Y-95391119D01*
X153376251Y-95464251D01*
X153303119Y-95524268D01*
X153219684Y-95568865D01*
X153129152Y-95596328D01*
X153035001Y-95605601D01*
X153034999Y-95605601D01*
X152940848Y-95596328D01*
X152850316Y-95568865D01*
X152766881Y-95524268D01*
X152693749Y-95464251D01*
X152633732Y-95391119D01*
X152589135Y-95307684D01*
X152561672Y-95217152D01*
X152552399Y-95123001D01*
X152552399Y-95122999D01*
X152561672Y-95028848D01*
X152589135Y-94938316D01*
X152633732Y-94854881D01*
X152693749Y-94781749D01*
X152766881Y-94721732D01*
X152850316Y-94677135D01*
X152940848Y-94649672D01*
X153034999Y-94640399D01*
X153035001Y-94640399D01*
X153129152Y-94649672D01*
G37*
M02*
