G04 #@! TF.GenerationSoftware,KiCad,Pcbnew,(5.1.5)-3*
G04 #@! TF.CreationDate,2020-04-21T17:30:06+02:00*
G04 #@! TF.ProjectId,Wegard_Logger,57656761-7264-45f4-9c6f-676765722e6b,rev?*
G04 #@! TF.SameCoordinates,Original*
G04 #@! TF.FileFunction,Copper,L3,Inr*
G04 #@! TF.FilePolarity,Positive*
%FSLAX46Y46*%
G04 Gerber Fmt 4.6, Leading zero omitted, Abs format (unit mm)*
G04 Created by KiCad (PCBNEW (5.1.5)-3) date 2020-04-21 17:30:06*
%MOMM*%
%LPD*%
G04 APERTURE LIST*
%ADD10C,0.800000*%
%ADD11C,0.736600*%
%ADD12C,0.254000*%
G04 APERTURE END LIST*
D10*
X149199600Y-94361000D03*
D11*
X154960000Y-101900000D03*
X146913600Y-105105200D03*
D10*
X142770000Y-97370000D03*
D11*
X152146000Y-96393000D03*
X145288000Y-105105194D03*
X152145994Y-97663000D03*
D10*
X150885504Y-104101766D03*
D11*
X150908681Y-106094079D03*
D10*
X151060000Y-110110000D03*
X142550000Y-112700000D03*
X147800000Y-111190000D03*
X143789400Y-108737400D03*
X155270200Y-109296200D03*
X145161000Y-102743000D03*
X152019000Y-95123000D03*
X145415000Y-103886006D03*
X150368000Y-105156000D03*
X151130000Y-103057678D03*
X154957814Y-107580000D03*
X147830000Y-102150000D03*
X149639410Y-98552000D03*
D11*
X148420000Y-107600000D03*
D10*
X147599400Y-98018600D03*
D11*
X145618200Y-98057710D03*
D10*
X153677190Y-109474000D03*
X145960002Y-112310000D03*
X145120000Y-94440000D03*
X144310000Y-97280000D03*
X147929599Y-94691199D03*
D11*
X147000000Y-103499998D03*
X148463000Y-103759000D03*
D10*
X146727964Y-110227964D03*
D11*
X149970000Y-107610000D03*
D12*
G36*
X146934373Y-94389301D02*
G01*
X146894599Y-94589260D01*
X146894599Y-94793138D01*
X146934373Y-94993097D01*
X147012394Y-95181455D01*
X147125662Y-95350973D01*
X147269825Y-95495136D01*
X147439343Y-95608404D01*
X147627701Y-95686425D01*
X147827660Y-95726199D01*
X148031538Y-95726199D01*
X148231497Y-95686425D01*
X148419855Y-95608404D01*
X148589373Y-95495136D01*
X148733536Y-95350973D01*
X148766374Y-95301828D01*
X148897702Y-95356226D01*
X149097661Y-95396000D01*
X149301539Y-95396000D01*
X149349358Y-95386488D01*
X149382737Y-95554296D01*
X149467941Y-95759998D01*
X149591639Y-95945124D01*
X149749076Y-96102561D01*
X149934202Y-96226259D01*
X149968824Y-96240600D01*
X149934202Y-96254941D01*
X149749076Y-96378639D01*
X149591639Y-96536076D01*
X149467941Y-96721202D01*
X149382737Y-96926904D01*
X149339300Y-97145275D01*
X149339300Y-97367925D01*
X149375367Y-97549244D01*
X149337512Y-97556774D01*
X149149154Y-97634795D01*
X148979636Y-97748063D01*
X148835473Y-97892226D01*
X148722205Y-98061744D01*
X148644184Y-98250102D01*
X148604410Y-98450061D01*
X148604410Y-98653939D01*
X148644184Y-98853898D01*
X148722205Y-99042256D01*
X148835473Y-99211774D01*
X148979636Y-99355937D01*
X149149154Y-99469205D01*
X149337512Y-99547226D01*
X149537471Y-99587000D01*
X149741349Y-99587000D01*
X149941308Y-99547226D01*
X150129666Y-99469205D01*
X150299184Y-99355937D01*
X150443347Y-99211774D01*
X150556615Y-99042256D01*
X150634636Y-98853898D01*
X150674410Y-98653939D01*
X150674410Y-98450061D01*
X150658767Y-98371416D01*
X150799296Y-98343463D01*
X151004998Y-98258259D01*
X151190124Y-98134561D01*
X151236250Y-98088435D01*
X151256881Y-98138241D01*
X151366680Y-98302567D01*
X151506427Y-98442314D01*
X151670753Y-98552113D01*
X151853342Y-98627744D01*
X152047178Y-98666300D01*
X152244810Y-98666300D01*
X152438646Y-98627744D01*
X152621235Y-98552113D01*
X152785561Y-98442314D01*
X152925308Y-98302567D01*
X153035107Y-98138241D01*
X153110738Y-97955652D01*
X153149294Y-97761816D01*
X153149294Y-97564184D01*
X153110738Y-97370348D01*
X153035107Y-97187759D01*
X152928363Y-97028004D01*
X153035113Y-96868241D01*
X153110744Y-96685652D01*
X153149300Y-96491816D01*
X153149300Y-96294184D01*
X153110744Y-96100348D01*
X153035113Y-95917759D01*
X152925314Y-95753433D01*
X152785567Y-95613686D01*
X152621241Y-95503887D01*
X152438652Y-95428256D01*
X152244816Y-95389700D01*
X152047184Y-95389700D01*
X151853348Y-95428256D01*
X151670759Y-95503887D01*
X151541595Y-95590192D01*
X151556463Y-95554296D01*
X151599900Y-95335925D01*
X151599900Y-95113275D01*
X151556463Y-94894904D01*
X151471259Y-94689202D01*
X151347561Y-94504076D01*
X151190124Y-94346639D01*
X151004998Y-94222941D01*
X150986309Y-94215200D01*
X152694891Y-94215200D01*
X155384501Y-96904811D01*
X155384501Y-100989870D01*
X155252652Y-100935256D01*
X155058816Y-100896700D01*
X154861184Y-100896700D01*
X154667348Y-100935256D01*
X154484759Y-101010887D01*
X154320433Y-101120686D01*
X154180686Y-101260433D01*
X154070887Y-101424759D01*
X153995256Y-101607348D01*
X153956700Y-101801184D01*
X153956700Y-101998816D01*
X153995256Y-102192652D01*
X154070887Y-102375241D01*
X154180686Y-102539567D01*
X154320433Y-102679314D01*
X154484759Y-102789113D01*
X154667348Y-102864744D01*
X154861184Y-102903300D01*
X155058816Y-102903300D01*
X155252652Y-102864744D01*
X155384501Y-102810130D01*
X155384500Y-116492000D01*
X141617700Y-116492000D01*
X141617700Y-113153814D01*
X141632795Y-113190256D01*
X141746063Y-113359774D01*
X141890226Y-113503937D01*
X142059744Y-113617205D01*
X142248102Y-113695226D01*
X142448061Y-113735000D01*
X142651939Y-113735000D01*
X142851898Y-113695226D01*
X143040256Y-113617205D01*
X143209774Y-113503937D01*
X143353937Y-113359774D01*
X143467205Y-113190256D01*
X143545226Y-113001898D01*
X143585000Y-112801939D01*
X143585000Y-112598061D01*
X143545226Y-112398102D01*
X143467205Y-112209744D01*
X143466081Y-112208061D01*
X144925002Y-112208061D01*
X144925002Y-112411939D01*
X144964776Y-112611898D01*
X145042797Y-112800256D01*
X145156065Y-112969774D01*
X145300228Y-113113937D01*
X145469746Y-113227205D01*
X145658104Y-113305226D01*
X145858063Y-113345000D01*
X146061941Y-113345000D01*
X146261900Y-113305226D01*
X146450258Y-113227205D01*
X146619776Y-113113937D01*
X146763939Y-112969774D01*
X146877207Y-112800256D01*
X146955228Y-112611898D01*
X146995002Y-112411939D01*
X146995002Y-112208061D01*
X146955228Y-112008102D01*
X146877207Y-111819744D01*
X146763939Y-111650226D01*
X146619776Y-111506063D01*
X146450258Y-111392795D01*
X146261900Y-111314774D01*
X146061941Y-111275000D01*
X145858063Y-111275000D01*
X145658104Y-111314774D01*
X145469746Y-111392795D01*
X145300228Y-111506063D01*
X145156065Y-111650226D01*
X145042797Y-111819744D01*
X144964776Y-112008102D01*
X144925002Y-112208061D01*
X143466081Y-112208061D01*
X143353937Y-112040226D01*
X143209774Y-111896063D01*
X143040256Y-111782795D01*
X142851898Y-111704774D01*
X142651939Y-111665000D01*
X142448061Y-111665000D01*
X142248102Y-111704774D01*
X142059744Y-111782795D01*
X141890226Y-111896063D01*
X141746063Y-112040226D01*
X141632795Y-112209744D01*
X141617700Y-112246186D01*
X141617700Y-110126025D01*
X145692964Y-110126025D01*
X145692964Y-110329903D01*
X145732738Y-110529862D01*
X145810759Y-110718220D01*
X145924027Y-110887738D01*
X146068190Y-111031901D01*
X146237708Y-111145169D01*
X146426066Y-111223190D01*
X146626025Y-111262964D01*
X146765000Y-111262964D01*
X146765000Y-111291939D01*
X146804774Y-111491898D01*
X146882795Y-111680256D01*
X146996063Y-111849774D01*
X147140226Y-111993937D01*
X147309744Y-112107205D01*
X147498102Y-112185226D01*
X147698061Y-112225000D01*
X147901939Y-112225000D01*
X148101898Y-112185226D01*
X148290256Y-112107205D01*
X148459774Y-111993937D01*
X148603937Y-111849774D01*
X148717205Y-111680256D01*
X148795226Y-111491898D01*
X148835000Y-111291939D01*
X148835000Y-111088061D01*
X148795226Y-110888102D01*
X148717205Y-110699744D01*
X148603937Y-110530226D01*
X148459774Y-110386063D01*
X148290256Y-110272795D01*
X148101898Y-110194774D01*
X147901939Y-110155000D01*
X147762964Y-110155000D01*
X147762964Y-110126025D01*
X147739500Y-110008061D01*
X150025000Y-110008061D01*
X150025000Y-110211939D01*
X150064774Y-110411898D01*
X150142795Y-110600256D01*
X150256063Y-110769774D01*
X150400226Y-110913937D01*
X150569744Y-111027205D01*
X150758102Y-111105226D01*
X150958061Y-111145000D01*
X151161939Y-111145000D01*
X151361898Y-111105226D01*
X151550256Y-111027205D01*
X151719774Y-110913937D01*
X151863937Y-110769774D01*
X151977205Y-110600256D01*
X152055226Y-110411898D01*
X152095000Y-110211939D01*
X152095000Y-110008061D01*
X152055226Y-109808102D01*
X151977205Y-109619744D01*
X151863937Y-109450226D01*
X151785772Y-109372061D01*
X152642190Y-109372061D01*
X152642190Y-109575939D01*
X152681964Y-109775898D01*
X152759985Y-109964256D01*
X152873253Y-110133774D01*
X153017416Y-110277937D01*
X153186934Y-110391205D01*
X153375292Y-110469226D01*
X153575251Y-110509000D01*
X153779129Y-110509000D01*
X153979088Y-110469226D01*
X154167446Y-110391205D01*
X154336964Y-110277937D01*
X154481127Y-110133774D01*
X154594395Y-109964256D01*
X154672416Y-109775898D01*
X154712190Y-109575939D01*
X154712190Y-109372061D01*
X154672416Y-109172102D01*
X154594395Y-108983744D01*
X154481127Y-108814226D01*
X154336964Y-108670063D01*
X154167446Y-108556795D01*
X153979088Y-108478774D01*
X153779129Y-108439000D01*
X153575251Y-108439000D01*
X153375292Y-108478774D01*
X153186934Y-108556795D01*
X153017416Y-108670063D01*
X152873253Y-108814226D01*
X152759985Y-108983744D01*
X152681964Y-109172102D01*
X152642190Y-109372061D01*
X151785772Y-109372061D01*
X151719774Y-109306063D01*
X151550256Y-109192795D01*
X151361898Y-109114774D01*
X151161939Y-109075000D01*
X150958061Y-109075000D01*
X150758102Y-109114774D01*
X150569744Y-109192795D01*
X150400226Y-109306063D01*
X150256063Y-109450226D01*
X150142795Y-109619744D01*
X150064774Y-109808102D01*
X150025000Y-110008061D01*
X147739500Y-110008061D01*
X147723190Y-109926066D01*
X147645169Y-109737708D01*
X147531901Y-109568190D01*
X147387738Y-109424027D01*
X147218220Y-109310759D01*
X147029862Y-109232738D01*
X146829903Y-109192964D01*
X146626025Y-109192964D01*
X146426066Y-109232738D01*
X146237708Y-109310759D01*
X146068190Y-109424027D01*
X145924027Y-109568190D01*
X145810759Y-109737708D01*
X145732738Y-109926066D01*
X145692964Y-110126025D01*
X141617700Y-110126025D01*
X141617700Y-107501184D01*
X147416700Y-107501184D01*
X147416700Y-107698816D01*
X147455256Y-107892652D01*
X147530887Y-108075241D01*
X147640686Y-108239567D01*
X147780433Y-108379314D01*
X147944759Y-108489113D01*
X148127348Y-108564744D01*
X148321184Y-108603300D01*
X148518816Y-108603300D01*
X148712652Y-108564744D01*
X148895241Y-108489113D01*
X149059567Y-108379314D01*
X149190136Y-108248745D01*
X149190686Y-108249567D01*
X149330433Y-108389314D01*
X149494759Y-108499113D01*
X149677348Y-108574744D01*
X149871184Y-108613300D01*
X150068816Y-108613300D01*
X150262652Y-108574744D01*
X150445241Y-108499113D01*
X150609567Y-108389314D01*
X150749314Y-108249567D01*
X150859113Y-108085241D01*
X150934744Y-107902652D01*
X150973300Y-107708816D01*
X150973300Y-107511184D01*
X150934744Y-107317348D01*
X150859113Y-107134759D01*
X150834137Y-107097379D01*
X151007497Y-107097379D01*
X151201333Y-107058823D01*
X151383922Y-106983192D01*
X151548248Y-106873393D01*
X151687995Y-106733646D01*
X151797794Y-106569320D01*
X151873425Y-106386731D01*
X151911981Y-106192895D01*
X151911981Y-105995263D01*
X151873425Y-105801427D01*
X151797794Y-105618838D01*
X151687995Y-105454512D01*
X151548248Y-105314765D01*
X151383922Y-105204966D01*
X151201333Y-105129335D01*
X151113067Y-105111778D01*
X151187402Y-105096992D01*
X151375760Y-105018971D01*
X151545278Y-104905703D01*
X151689441Y-104761540D01*
X151802709Y-104592022D01*
X151880730Y-104403664D01*
X151920504Y-104203705D01*
X151920504Y-103999827D01*
X151880730Y-103799868D01*
X151802709Y-103611510D01*
X151689441Y-103441992D01*
X151545278Y-103297829D01*
X151375760Y-103184561D01*
X151187402Y-103106540D01*
X150987443Y-103066766D01*
X150783565Y-103066766D01*
X150583606Y-103106540D01*
X150395248Y-103184561D01*
X150225730Y-103297829D01*
X150081567Y-103441992D01*
X149968299Y-103611510D01*
X149890278Y-103799868D01*
X149850504Y-103999827D01*
X149850504Y-104203705D01*
X149890278Y-104403664D01*
X149968299Y-104592022D01*
X150081567Y-104761540D01*
X150225730Y-104905703D01*
X150395248Y-105018971D01*
X150583606Y-105096992D01*
X150681118Y-105116388D01*
X150616029Y-105129335D01*
X150433440Y-105204966D01*
X150269114Y-105314765D01*
X150129367Y-105454512D01*
X150019568Y-105618838D01*
X149943937Y-105801427D01*
X149905381Y-105995263D01*
X149905381Y-106192895D01*
X149943937Y-106386731D01*
X150019568Y-106569320D01*
X150044544Y-106606700D01*
X149871184Y-106606700D01*
X149677348Y-106645256D01*
X149494759Y-106720887D01*
X149330433Y-106830686D01*
X149199864Y-106961255D01*
X149199314Y-106960433D01*
X149059567Y-106820686D01*
X148895241Y-106710887D01*
X148712652Y-106635256D01*
X148518816Y-106596700D01*
X148321184Y-106596700D01*
X148127348Y-106635256D01*
X147944759Y-106710887D01*
X147780433Y-106820686D01*
X147640686Y-106960433D01*
X147530887Y-107124759D01*
X147455256Y-107307348D01*
X147416700Y-107501184D01*
X141617700Y-107501184D01*
X141617700Y-105006378D01*
X144284700Y-105006378D01*
X144284700Y-105204010D01*
X144323256Y-105397846D01*
X144398887Y-105580435D01*
X144508686Y-105744761D01*
X144648433Y-105884508D01*
X144812759Y-105994307D01*
X144995348Y-106069938D01*
X145189184Y-106108494D01*
X145386816Y-106108494D01*
X145580652Y-106069938D01*
X145763241Y-105994307D01*
X145927567Y-105884508D01*
X146067314Y-105744761D01*
X146100798Y-105694649D01*
X146134286Y-105744767D01*
X146274033Y-105884514D01*
X146438359Y-105994313D01*
X146620948Y-106069944D01*
X146814784Y-106108500D01*
X147012416Y-106108500D01*
X147206252Y-106069944D01*
X147388841Y-105994313D01*
X147553167Y-105884514D01*
X147692914Y-105744767D01*
X147802713Y-105580441D01*
X147878344Y-105397852D01*
X147916900Y-105204016D01*
X147916900Y-105006384D01*
X147878344Y-104812548D01*
X147802713Y-104629959D01*
X147692914Y-104465633D01*
X147559855Y-104332574D01*
X147614980Y-104295741D01*
X147683686Y-104398567D01*
X147823433Y-104538314D01*
X147987759Y-104648113D01*
X148170348Y-104723744D01*
X148364184Y-104762300D01*
X148561816Y-104762300D01*
X148755652Y-104723744D01*
X148938241Y-104648113D01*
X149102567Y-104538314D01*
X149242314Y-104398567D01*
X149352113Y-104234241D01*
X149427744Y-104051652D01*
X149466300Y-103857816D01*
X149466300Y-103660184D01*
X149427744Y-103466348D01*
X149352113Y-103283759D01*
X149242314Y-103119433D01*
X149102567Y-102979686D01*
X148938241Y-102869887D01*
X148755652Y-102794256D01*
X148561816Y-102755700D01*
X148364184Y-102755700D01*
X148170348Y-102794256D01*
X147987759Y-102869887D01*
X147848020Y-102963257D01*
X147779314Y-102860431D01*
X147639567Y-102720684D01*
X147475241Y-102610885D01*
X147292652Y-102535254D01*
X147098816Y-102496698D01*
X146901184Y-102496698D01*
X146707348Y-102535254D01*
X146524759Y-102610885D01*
X146360433Y-102720684D01*
X146220686Y-102860431D01*
X146110887Y-103024757D01*
X146035256Y-103207346D01*
X145996700Y-103401182D01*
X145996700Y-103598814D01*
X146035256Y-103792650D01*
X146110887Y-103975239D01*
X146220686Y-104139565D01*
X146353745Y-104272624D01*
X146274033Y-104325886D01*
X146134286Y-104465633D01*
X146100802Y-104515745D01*
X146067314Y-104465627D01*
X145927567Y-104325880D01*
X145763241Y-104216081D01*
X145580652Y-104140450D01*
X145386816Y-104101894D01*
X145189184Y-104101894D01*
X144995348Y-104140450D01*
X144812759Y-104216081D01*
X144648433Y-104325880D01*
X144508686Y-104465627D01*
X144398887Y-104629953D01*
X144323256Y-104812542D01*
X144284700Y-105006378D01*
X141617700Y-105006378D01*
X141617700Y-96905013D01*
X144085000Y-94436606D01*
X144085000Y-94541939D01*
X144124774Y-94741898D01*
X144202795Y-94930256D01*
X144316063Y-95099774D01*
X144460226Y-95243937D01*
X144629744Y-95357205D01*
X144661398Y-95370317D01*
X144511639Y-95520076D01*
X144387941Y-95705202D01*
X144302737Y-95910904D01*
X144259300Y-96129275D01*
X144259300Y-96245000D01*
X144208061Y-96245000D01*
X144008102Y-96284774D01*
X143819744Y-96362795D01*
X143650226Y-96476063D01*
X143506063Y-96620226D01*
X143497201Y-96633490D01*
X143429774Y-96566063D01*
X143260256Y-96452795D01*
X143071898Y-96374774D01*
X142871939Y-96335000D01*
X142668061Y-96335000D01*
X142468102Y-96374774D01*
X142279744Y-96452795D01*
X142110226Y-96566063D01*
X141966063Y-96710226D01*
X141852795Y-96879744D01*
X141774774Y-97068102D01*
X141735000Y-97268061D01*
X141735000Y-97471939D01*
X141774774Y-97671898D01*
X141852795Y-97860256D01*
X141966063Y-98029774D01*
X142110226Y-98173937D01*
X142279744Y-98287205D01*
X142468102Y-98365226D01*
X142668061Y-98405000D01*
X142871939Y-98405000D01*
X143071898Y-98365226D01*
X143260256Y-98287205D01*
X143429774Y-98173937D01*
X143573937Y-98029774D01*
X143582799Y-98016510D01*
X143650226Y-98083937D01*
X143819744Y-98197205D01*
X144008102Y-98275226D01*
X144208061Y-98315000D01*
X144411939Y-98315000D01*
X144611898Y-98275226D01*
X144636485Y-98265042D01*
X144653456Y-98350362D01*
X144729087Y-98532951D01*
X144838886Y-98697277D01*
X144978633Y-98837024D01*
X145142959Y-98946823D01*
X145325548Y-99022454D01*
X145519384Y-99061010D01*
X145717016Y-99061010D01*
X145910852Y-99022454D01*
X146093441Y-98946823D01*
X146257767Y-98837024D01*
X146397514Y-98697277D01*
X146507313Y-98532951D01*
X146582944Y-98350362D01*
X146596529Y-98282064D01*
X146604174Y-98320498D01*
X146682195Y-98508856D01*
X146795463Y-98678374D01*
X146939626Y-98822537D01*
X147109144Y-98935805D01*
X147297502Y-99013826D01*
X147497461Y-99053600D01*
X147701339Y-99053600D01*
X147901298Y-99013826D01*
X148089656Y-98935805D01*
X148259174Y-98822537D01*
X148403337Y-98678374D01*
X148516605Y-98508856D01*
X148594626Y-98320498D01*
X148634400Y-98120539D01*
X148634400Y-97916661D01*
X148594626Y-97716702D01*
X148516605Y-97528344D01*
X148403337Y-97358826D01*
X148259174Y-97214663D01*
X148089656Y-97101395D01*
X147901298Y-97023374D01*
X147701339Y-96983600D01*
X147497461Y-96983600D01*
X147297502Y-97023374D01*
X147109144Y-97101395D01*
X146939626Y-97214663D01*
X146795463Y-97358826D01*
X146682195Y-97528344D01*
X146604174Y-97716702D01*
X146588750Y-97794246D01*
X146582944Y-97765058D01*
X146507313Y-97582469D01*
X146397514Y-97418143D01*
X146257767Y-97278396D01*
X146093441Y-97168597D01*
X146057513Y-97153715D01*
X146110124Y-97118561D01*
X146267561Y-96961124D01*
X146391259Y-96775998D01*
X146476463Y-96570296D01*
X146519900Y-96351925D01*
X146519900Y-96129275D01*
X146476463Y-95910904D01*
X146391259Y-95705202D01*
X146267561Y-95520076D01*
X146110124Y-95362639D01*
X145924998Y-95238941D01*
X145825842Y-95197869D01*
X145923937Y-95099774D01*
X146037205Y-94930256D01*
X146115226Y-94741898D01*
X146155000Y-94541939D01*
X146155000Y-94338061D01*
X146130562Y-94215200D01*
X147006489Y-94215200D01*
X146934373Y-94389301D01*
G37*
X146934373Y-94389301D02*
X146894599Y-94589260D01*
X146894599Y-94793138D01*
X146934373Y-94993097D01*
X147012394Y-95181455D01*
X147125662Y-95350973D01*
X147269825Y-95495136D01*
X147439343Y-95608404D01*
X147627701Y-95686425D01*
X147827660Y-95726199D01*
X148031538Y-95726199D01*
X148231497Y-95686425D01*
X148419855Y-95608404D01*
X148589373Y-95495136D01*
X148733536Y-95350973D01*
X148766374Y-95301828D01*
X148897702Y-95356226D01*
X149097661Y-95396000D01*
X149301539Y-95396000D01*
X149349358Y-95386488D01*
X149382737Y-95554296D01*
X149467941Y-95759998D01*
X149591639Y-95945124D01*
X149749076Y-96102561D01*
X149934202Y-96226259D01*
X149968824Y-96240600D01*
X149934202Y-96254941D01*
X149749076Y-96378639D01*
X149591639Y-96536076D01*
X149467941Y-96721202D01*
X149382737Y-96926904D01*
X149339300Y-97145275D01*
X149339300Y-97367925D01*
X149375367Y-97549244D01*
X149337512Y-97556774D01*
X149149154Y-97634795D01*
X148979636Y-97748063D01*
X148835473Y-97892226D01*
X148722205Y-98061744D01*
X148644184Y-98250102D01*
X148604410Y-98450061D01*
X148604410Y-98653939D01*
X148644184Y-98853898D01*
X148722205Y-99042256D01*
X148835473Y-99211774D01*
X148979636Y-99355937D01*
X149149154Y-99469205D01*
X149337512Y-99547226D01*
X149537471Y-99587000D01*
X149741349Y-99587000D01*
X149941308Y-99547226D01*
X150129666Y-99469205D01*
X150299184Y-99355937D01*
X150443347Y-99211774D01*
X150556615Y-99042256D01*
X150634636Y-98853898D01*
X150674410Y-98653939D01*
X150674410Y-98450061D01*
X150658767Y-98371416D01*
X150799296Y-98343463D01*
X151004998Y-98258259D01*
X151190124Y-98134561D01*
X151236250Y-98088435D01*
X151256881Y-98138241D01*
X151366680Y-98302567D01*
X151506427Y-98442314D01*
X151670753Y-98552113D01*
X151853342Y-98627744D01*
X152047178Y-98666300D01*
X152244810Y-98666300D01*
X152438646Y-98627744D01*
X152621235Y-98552113D01*
X152785561Y-98442314D01*
X152925308Y-98302567D01*
X153035107Y-98138241D01*
X153110738Y-97955652D01*
X153149294Y-97761816D01*
X153149294Y-97564184D01*
X153110738Y-97370348D01*
X153035107Y-97187759D01*
X152928363Y-97028004D01*
X153035113Y-96868241D01*
X153110744Y-96685652D01*
X153149300Y-96491816D01*
X153149300Y-96294184D01*
X153110744Y-96100348D01*
X153035113Y-95917759D01*
X152925314Y-95753433D01*
X152785567Y-95613686D01*
X152621241Y-95503887D01*
X152438652Y-95428256D01*
X152244816Y-95389700D01*
X152047184Y-95389700D01*
X151853348Y-95428256D01*
X151670759Y-95503887D01*
X151541595Y-95590192D01*
X151556463Y-95554296D01*
X151599900Y-95335925D01*
X151599900Y-95113275D01*
X151556463Y-94894904D01*
X151471259Y-94689202D01*
X151347561Y-94504076D01*
X151190124Y-94346639D01*
X151004998Y-94222941D01*
X150986309Y-94215200D01*
X152694891Y-94215200D01*
X155384501Y-96904811D01*
X155384501Y-100989870D01*
X155252652Y-100935256D01*
X155058816Y-100896700D01*
X154861184Y-100896700D01*
X154667348Y-100935256D01*
X154484759Y-101010887D01*
X154320433Y-101120686D01*
X154180686Y-101260433D01*
X154070887Y-101424759D01*
X153995256Y-101607348D01*
X153956700Y-101801184D01*
X153956700Y-101998816D01*
X153995256Y-102192652D01*
X154070887Y-102375241D01*
X154180686Y-102539567D01*
X154320433Y-102679314D01*
X154484759Y-102789113D01*
X154667348Y-102864744D01*
X154861184Y-102903300D01*
X155058816Y-102903300D01*
X155252652Y-102864744D01*
X155384501Y-102810130D01*
X155384500Y-116492000D01*
X141617700Y-116492000D01*
X141617700Y-113153814D01*
X141632795Y-113190256D01*
X141746063Y-113359774D01*
X141890226Y-113503937D01*
X142059744Y-113617205D01*
X142248102Y-113695226D01*
X142448061Y-113735000D01*
X142651939Y-113735000D01*
X142851898Y-113695226D01*
X143040256Y-113617205D01*
X143209774Y-113503937D01*
X143353937Y-113359774D01*
X143467205Y-113190256D01*
X143545226Y-113001898D01*
X143585000Y-112801939D01*
X143585000Y-112598061D01*
X143545226Y-112398102D01*
X143467205Y-112209744D01*
X143466081Y-112208061D01*
X144925002Y-112208061D01*
X144925002Y-112411939D01*
X144964776Y-112611898D01*
X145042797Y-112800256D01*
X145156065Y-112969774D01*
X145300228Y-113113937D01*
X145469746Y-113227205D01*
X145658104Y-113305226D01*
X145858063Y-113345000D01*
X146061941Y-113345000D01*
X146261900Y-113305226D01*
X146450258Y-113227205D01*
X146619776Y-113113937D01*
X146763939Y-112969774D01*
X146877207Y-112800256D01*
X146955228Y-112611898D01*
X146995002Y-112411939D01*
X146995002Y-112208061D01*
X146955228Y-112008102D01*
X146877207Y-111819744D01*
X146763939Y-111650226D01*
X146619776Y-111506063D01*
X146450258Y-111392795D01*
X146261900Y-111314774D01*
X146061941Y-111275000D01*
X145858063Y-111275000D01*
X145658104Y-111314774D01*
X145469746Y-111392795D01*
X145300228Y-111506063D01*
X145156065Y-111650226D01*
X145042797Y-111819744D01*
X144964776Y-112008102D01*
X144925002Y-112208061D01*
X143466081Y-112208061D01*
X143353937Y-112040226D01*
X143209774Y-111896063D01*
X143040256Y-111782795D01*
X142851898Y-111704774D01*
X142651939Y-111665000D01*
X142448061Y-111665000D01*
X142248102Y-111704774D01*
X142059744Y-111782795D01*
X141890226Y-111896063D01*
X141746063Y-112040226D01*
X141632795Y-112209744D01*
X141617700Y-112246186D01*
X141617700Y-110126025D01*
X145692964Y-110126025D01*
X145692964Y-110329903D01*
X145732738Y-110529862D01*
X145810759Y-110718220D01*
X145924027Y-110887738D01*
X146068190Y-111031901D01*
X146237708Y-111145169D01*
X146426066Y-111223190D01*
X146626025Y-111262964D01*
X146765000Y-111262964D01*
X146765000Y-111291939D01*
X146804774Y-111491898D01*
X146882795Y-111680256D01*
X146996063Y-111849774D01*
X147140226Y-111993937D01*
X147309744Y-112107205D01*
X147498102Y-112185226D01*
X147698061Y-112225000D01*
X147901939Y-112225000D01*
X148101898Y-112185226D01*
X148290256Y-112107205D01*
X148459774Y-111993937D01*
X148603937Y-111849774D01*
X148717205Y-111680256D01*
X148795226Y-111491898D01*
X148835000Y-111291939D01*
X148835000Y-111088061D01*
X148795226Y-110888102D01*
X148717205Y-110699744D01*
X148603937Y-110530226D01*
X148459774Y-110386063D01*
X148290256Y-110272795D01*
X148101898Y-110194774D01*
X147901939Y-110155000D01*
X147762964Y-110155000D01*
X147762964Y-110126025D01*
X147739500Y-110008061D01*
X150025000Y-110008061D01*
X150025000Y-110211939D01*
X150064774Y-110411898D01*
X150142795Y-110600256D01*
X150256063Y-110769774D01*
X150400226Y-110913937D01*
X150569744Y-111027205D01*
X150758102Y-111105226D01*
X150958061Y-111145000D01*
X151161939Y-111145000D01*
X151361898Y-111105226D01*
X151550256Y-111027205D01*
X151719774Y-110913937D01*
X151863937Y-110769774D01*
X151977205Y-110600256D01*
X152055226Y-110411898D01*
X152095000Y-110211939D01*
X152095000Y-110008061D01*
X152055226Y-109808102D01*
X151977205Y-109619744D01*
X151863937Y-109450226D01*
X151785772Y-109372061D01*
X152642190Y-109372061D01*
X152642190Y-109575939D01*
X152681964Y-109775898D01*
X152759985Y-109964256D01*
X152873253Y-110133774D01*
X153017416Y-110277937D01*
X153186934Y-110391205D01*
X153375292Y-110469226D01*
X153575251Y-110509000D01*
X153779129Y-110509000D01*
X153979088Y-110469226D01*
X154167446Y-110391205D01*
X154336964Y-110277937D01*
X154481127Y-110133774D01*
X154594395Y-109964256D01*
X154672416Y-109775898D01*
X154712190Y-109575939D01*
X154712190Y-109372061D01*
X154672416Y-109172102D01*
X154594395Y-108983744D01*
X154481127Y-108814226D01*
X154336964Y-108670063D01*
X154167446Y-108556795D01*
X153979088Y-108478774D01*
X153779129Y-108439000D01*
X153575251Y-108439000D01*
X153375292Y-108478774D01*
X153186934Y-108556795D01*
X153017416Y-108670063D01*
X152873253Y-108814226D01*
X152759985Y-108983744D01*
X152681964Y-109172102D01*
X152642190Y-109372061D01*
X151785772Y-109372061D01*
X151719774Y-109306063D01*
X151550256Y-109192795D01*
X151361898Y-109114774D01*
X151161939Y-109075000D01*
X150958061Y-109075000D01*
X150758102Y-109114774D01*
X150569744Y-109192795D01*
X150400226Y-109306063D01*
X150256063Y-109450226D01*
X150142795Y-109619744D01*
X150064774Y-109808102D01*
X150025000Y-110008061D01*
X147739500Y-110008061D01*
X147723190Y-109926066D01*
X147645169Y-109737708D01*
X147531901Y-109568190D01*
X147387738Y-109424027D01*
X147218220Y-109310759D01*
X147029862Y-109232738D01*
X146829903Y-109192964D01*
X146626025Y-109192964D01*
X146426066Y-109232738D01*
X146237708Y-109310759D01*
X146068190Y-109424027D01*
X145924027Y-109568190D01*
X145810759Y-109737708D01*
X145732738Y-109926066D01*
X145692964Y-110126025D01*
X141617700Y-110126025D01*
X141617700Y-107501184D01*
X147416700Y-107501184D01*
X147416700Y-107698816D01*
X147455256Y-107892652D01*
X147530887Y-108075241D01*
X147640686Y-108239567D01*
X147780433Y-108379314D01*
X147944759Y-108489113D01*
X148127348Y-108564744D01*
X148321184Y-108603300D01*
X148518816Y-108603300D01*
X148712652Y-108564744D01*
X148895241Y-108489113D01*
X149059567Y-108379314D01*
X149190136Y-108248745D01*
X149190686Y-108249567D01*
X149330433Y-108389314D01*
X149494759Y-108499113D01*
X149677348Y-108574744D01*
X149871184Y-108613300D01*
X150068816Y-108613300D01*
X150262652Y-108574744D01*
X150445241Y-108499113D01*
X150609567Y-108389314D01*
X150749314Y-108249567D01*
X150859113Y-108085241D01*
X150934744Y-107902652D01*
X150973300Y-107708816D01*
X150973300Y-107511184D01*
X150934744Y-107317348D01*
X150859113Y-107134759D01*
X150834137Y-107097379D01*
X151007497Y-107097379D01*
X151201333Y-107058823D01*
X151383922Y-106983192D01*
X151548248Y-106873393D01*
X151687995Y-106733646D01*
X151797794Y-106569320D01*
X151873425Y-106386731D01*
X151911981Y-106192895D01*
X151911981Y-105995263D01*
X151873425Y-105801427D01*
X151797794Y-105618838D01*
X151687995Y-105454512D01*
X151548248Y-105314765D01*
X151383922Y-105204966D01*
X151201333Y-105129335D01*
X151113067Y-105111778D01*
X151187402Y-105096992D01*
X151375760Y-105018971D01*
X151545278Y-104905703D01*
X151689441Y-104761540D01*
X151802709Y-104592022D01*
X151880730Y-104403664D01*
X151920504Y-104203705D01*
X151920504Y-103999827D01*
X151880730Y-103799868D01*
X151802709Y-103611510D01*
X151689441Y-103441992D01*
X151545278Y-103297829D01*
X151375760Y-103184561D01*
X151187402Y-103106540D01*
X150987443Y-103066766D01*
X150783565Y-103066766D01*
X150583606Y-103106540D01*
X150395248Y-103184561D01*
X150225730Y-103297829D01*
X150081567Y-103441992D01*
X149968299Y-103611510D01*
X149890278Y-103799868D01*
X149850504Y-103999827D01*
X149850504Y-104203705D01*
X149890278Y-104403664D01*
X149968299Y-104592022D01*
X150081567Y-104761540D01*
X150225730Y-104905703D01*
X150395248Y-105018971D01*
X150583606Y-105096992D01*
X150681118Y-105116388D01*
X150616029Y-105129335D01*
X150433440Y-105204966D01*
X150269114Y-105314765D01*
X150129367Y-105454512D01*
X150019568Y-105618838D01*
X149943937Y-105801427D01*
X149905381Y-105995263D01*
X149905381Y-106192895D01*
X149943937Y-106386731D01*
X150019568Y-106569320D01*
X150044544Y-106606700D01*
X149871184Y-106606700D01*
X149677348Y-106645256D01*
X149494759Y-106720887D01*
X149330433Y-106830686D01*
X149199864Y-106961255D01*
X149199314Y-106960433D01*
X149059567Y-106820686D01*
X148895241Y-106710887D01*
X148712652Y-106635256D01*
X148518816Y-106596700D01*
X148321184Y-106596700D01*
X148127348Y-106635256D01*
X147944759Y-106710887D01*
X147780433Y-106820686D01*
X147640686Y-106960433D01*
X147530887Y-107124759D01*
X147455256Y-107307348D01*
X147416700Y-107501184D01*
X141617700Y-107501184D01*
X141617700Y-105006378D01*
X144284700Y-105006378D01*
X144284700Y-105204010D01*
X144323256Y-105397846D01*
X144398887Y-105580435D01*
X144508686Y-105744761D01*
X144648433Y-105884508D01*
X144812759Y-105994307D01*
X144995348Y-106069938D01*
X145189184Y-106108494D01*
X145386816Y-106108494D01*
X145580652Y-106069938D01*
X145763241Y-105994307D01*
X145927567Y-105884508D01*
X146067314Y-105744761D01*
X146100798Y-105694649D01*
X146134286Y-105744767D01*
X146274033Y-105884514D01*
X146438359Y-105994313D01*
X146620948Y-106069944D01*
X146814784Y-106108500D01*
X147012416Y-106108500D01*
X147206252Y-106069944D01*
X147388841Y-105994313D01*
X147553167Y-105884514D01*
X147692914Y-105744767D01*
X147802713Y-105580441D01*
X147878344Y-105397852D01*
X147916900Y-105204016D01*
X147916900Y-105006384D01*
X147878344Y-104812548D01*
X147802713Y-104629959D01*
X147692914Y-104465633D01*
X147559855Y-104332574D01*
X147614980Y-104295741D01*
X147683686Y-104398567D01*
X147823433Y-104538314D01*
X147987759Y-104648113D01*
X148170348Y-104723744D01*
X148364184Y-104762300D01*
X148561816Y-104762300D01*
X148755652Y-104723744D01*
X148938241Y-104648113D01*
X149102567Y-104538314D01*
X149242314Y-104398567D01*
X149352113Y-104234241D01*
X149427744Y-104051652D01*
X149466300Y-103857816D01*
X149466300Y-103660184D01*
X149427744Y-103466348D01*
X149352113Y-103283759D01*
X149242314Y-103119433D01*
X149102567Y-102979686D01*
X148938241Y-102869887D01*
X148755652Y-102794256D01*
X148561816Y-102755700D01*
X148364184Y-102755700D01*
X148170348Y-102794256D01*
X147987759Y-102869887D01*
X147848020Y-102963257D01*
X147779314Y-102860431D01*
X147639567Y-102720684D01*
X147475241Y-102610885D01*
X147292652Y-102535254D01*
X147098816Y-102496698D01*
X146901184Y-102496698D01*
X146707348Y-102535254D01*
X146524759Y-102610885D01*
X146360433Y-102720684D01*
X146220686Y-102860431D01*
X146110887Y-103024757D01*
X146035256Y-103207346D01*
X145996700Y-103401182D01*
X145996700Y-103598814D01*
X146035256Y-103792650D01*
X146110887Y-103975239D01*
X146220686Y-104139565D01*
X146353745Y-104272624D01*
X146274033Y-104325886D01*
X146134286Y-104465633D01*
X146100802Y-104515745D01*
X146067314Y-104465627D01*
X145927567Y-104325880D01*
X145763241Y-104216081D01*
X145580652Y-104140450D01*
X145386816Y-104101894D01*
X145189184Y-104101894D01*
X144995348Y-104140450D01*
X144812759Y-104216081D01*
X144648433Y-104325880D01*
X144508686Y-104465627D01*
X144398887Y-104629953D01*
X144323256Y-104812542D01*
X144284700Y-105006378D01*
X141617700Y-105006378D01*
X141617700Y-96905013D01*
X144085000Y-94436606D01*
X144085000Y-94541939D01*
X144124774Y-94741898D01*
X144202795Y-94930256D01*
X144316063Y-95099774D01*
X144460226Y-95243937D01*
X144629744Y-95357205D01*
X144661398Y-95370317D01*
X144511639Y-95520076D01*
X144387941Y-95705202D01*
X144302737Y-95910904D01*
X144259300Y-96129275D01*
X144259300Y-96245000D01*
X144208061Y-96245000D01*
X144008102Y-96284774D01*
X143819744Y-96362795D01*
X143650226Y-96476063D01*
X143506063Y-96620226D01*
X143497201Y-96633490D01*
X143429774Y-96566063D01*
X143260256Y-96452795D01*
X143071898Y-96374774D01*
X142871939Y-96335000D01*
X142668061Y-96335000D01*
X142468102Y-96374774D01*
X142279744Y-96452795D01*
X142110226Y-96566063D01*
X141966063Y-96710226D01*
X141852795Y-96879744D01*
X141774774Y-97068102D01*
X141735000Y-97268061D01*
X141735000Y-97471939D01*
X141774774Y-97671898D01*
X141852795Y-97860256D01*
X141966063Y-98029774D01*
X142110226Y-98173937D01*
X142279744Y-98287205D01*
X142468102Y-98365226D01*
X142668061Y-98405000D01*
X142871939Y-98405000D01*
X143071898Y-98365226D01*
X143260256Y-98287205D01*
X143429774Y-98173937D01*
X143573937Y-98029774D01*
X143582799Y-98016510D01*
X143650226Y-98083937D01*
X143819744Y-98197205D01*
X144008102Y-98275226D01*
X144208061Y-98315000D01*
X144411939Y-98315000D01*
X144611898Y-98275226D01*
X144636485Y-98265042D01*
X144653456Y-98350362D01*
X144729087Y-98532951D01*
X144838886Y-98697277D01*
X144978633Y-98837024D01*
X145142959Y-98946823D01*
X145325548Y-99022454D01*
X145519384Y-99061010D01*
X145717016Y-99061010D01*
X145910852Y-99022454D01*
X146093441Y-98946823D01*
X146257767Y-98837024D01*
X146397514Y-98697277D01*
X146507313Y-98532951D01*
X146582944Y-98350362D01*
X146596529Y-98282064D01*
X146604174Y-98320498D01*
X146682195Y-98508856D01*
X146795463Y-98678374D01*
X146939626Y-98822537D01*
X147109144Y-98935805D01*
X147297502Y-99013826D01*
X147497461Y-99053600D01*
X147701339Y-99053600D01*
X147901298Y-99013826D01*
X148089656Y-98935805D01*
X148259174Y-98822537D01*
X148403337Y-98678374D01*
X148516605Y-98508856D01*
X148594626Y-98320498D01*
X148634400Y-98120539D01*
X148634400Y-97916661D01*
X148594626Y-97716702D01*
X148516605Y-97528344D01*
X148403337Y-97358826D01*
X148259174Y-97214663D01*
X148089656Y-97101395D01*
X147901298Y-97023374D01*
X147701339Y-96983600D01*
X147497461Y-96983600D01*
X147297502Y-97023374D01*
X147109144Y-97101395D01*
X146939626Y-97214663D01*
X146795463Y-97358826D01*
X146682195Y-97528344D01*
X146604174Y-97716702D01*
X146588750Y-97794246D01*
X146582944Y-97765058D01*
X146507313Y-97582469D01*
X146397514Y-97418143D01*
X146257767Y-97278396D01*
X146093441Y-97168597D01*
X146057513Y-97153715D01*
X146110124Y-97118561D01*
X146267561Y-96961124D01*
X146391259Y-96775998D01*
X146476463Y-96570296D01*
X146519900Y-96351925D01*
X146519900Y-96129275D01*
X146476463Y-95910904D01*
X146391259Y-95705202D01*
X146267561Y-95520076D01*
X146110124Y-95362639D01*
X145924998Y-95238941D01*
X145825842Y-95197869D01*
X145923937Y-95099774D01*
X146037205Y-94930256D01*
X146115226Y-94741898D01*
X146155000Y-94541939D01*
X146155000Y-94338061D01*
X146130562Y-94215200D01*
X147006489Y-94215200D01*
X146934373Y-94389301D01*
M02*
